G04 EAGLE Gerber RS-274X export*
G75*
%MOMM*%
%FSLAX34Y34*%
%LPD*%
%INCopper Layer 15*%
%IPPOS*%
%AMOC8*
5,1,8,0,0,1.08239X$1,22.5*%
G01*
%ADD10C,1.524000*%
%ADD11C,1.371600*%
%ADD12C,4.656100*%
%ADD13C,4.178300*%
%ADD14C,1.905000*%
%ADD15C,0.503200*%
%ADD16C,0.152400*%
%ADD17C,0.254000*%
%ADD18C,0.675000*%


D10*
X367400Y740500D03*
X367400Y765900D03*
X367400Y791300D03*
X367400Y816700D03*
D11*
X80000Y27300D03*
X80000Y52700D03*
D12*
X150000Y830000D03*
D13*
X90000Y830000D03*
D12*
X120000Y783000D03*
D14*
X253500Y815500D03*
X253900Y743200D03*
D15*
X121300Y495900D03*
X164900Y474900D03*
X181200Y467700D03*
X149100Y397800D03*
X73600Y664800D03*
X209950Y630050D03*
X149950Y619950D03*
X128300Y152800D03*
X171300Y165100D03*
X211900Y164100D03*
X458100Y477500D03*
X432500Y480300D03*
X351600Y462500D03*
X443200Y367300D03*
X393700Y453800D03*
X403800Y453900D03*
X413800Y453900D03*
X424000Y453700D03*
X393600Y443700D03*
X403600Y443700D03*
X413600Y443800D03*
X423600Y443700D03*
X393500Y433800D03*
X403600Y433700D03*
X413800Y433700D03*
X423600Y433600D03*
X393700Y423700D03*
X403700Y423700D03*
X413600Y423600D03*
X423600Y423600D03*
X15000Y642600D03*
X110000Y240000D03*
X100000Y210000D03*
X660000Y30000D03*
X434693Y381606D03*
X387100Y45300D03*
X406613Y365887D03*
X336400Y46000D03*
X401863Y369690D03*
X323700Y45800D03*
X352200Y366818D03*
X285500Y45600D03*
X350734Y372866D03*
X273500Y45900D03*
X330264Y412436D03*
X234600Y45600D03*
X331312Y418484D03*
X222150Y45850D03*
X416290Y365564D03*
X361900Y57900D03*
X411613Y369440D03*
X348800Y58400D03*
X364848Y368406D03*
X310900Y58700D03*
X358800Y368500D03*
X298200Y58100D03*
X332372Y401728D03*
X259900Y59200D03*
X326324Y401753D03*
X247400Y58600D03*
X332360Y424532D03*
X209000Y46600D03*
X333408Y430580D03*
X196550Y45250D03*
X473600Y120400D03*
X463000Y121900D03*
X435900Y110600D03*
X425200Y109200D03*
X399700Y121700D03*
X386400Y121800D03*
X350650Y389350D03*
X247600Y109400D03*
X344399Y382268D03*
X235050Y109250D03*
X341400Y472182D03*
X185000Y121800D03*
X386209Y365564D03*
X334600Y84300D03*
X381249Y369158D03*
X323600Y83800D03*
X462800Y134900D03*
X451200Y135100D03*
X425300Y122200D03*
X412150Y121650D03*
X462600Y96300D03*
X462900Y109300D03*
X425300Y95800D03*
X412100Y96200D03*
X462900Y84100D03*
X437650Y84150D03*
X424700Y83300D03*
X446052Y488268D03*
D16*
X447806Y486514D01*
X447806Y486489D01*
X449500Y484795D01*
X449500Y474600D01*
X449618Y474482D01*
X449618Y473390D01*
X533900Y169108D02*
X533900Y161100D01*
D15*
X533900Y161100D03*
D16*
X516860Y406148D02*
X449618Y473390D01*
X516860Y406148D02*
X516860Y186148D01*
X533900Y169108D01*
D15*
X439800Y488100D03*
D16*
X446960Y480940D01*
D15*
X526600Y161000D03*
D16*
X446960Y472240D02*
X446960Y480940D01*
X446960Y472240D02*
X514320Y404880D01*
X514320Y185096D01*
X526600Y172816D01*
X526600Y161000D01*
D15*
X417999Y483399D03*
D16*
X428099Y473300D01*
X435208Y473300D01*
X439340Y469168D02*
X439340Y469084D01*
X506700Y163700D02*
X501600Y158600D01*
X501400Y158800D01*
D15*
X501400Y158800D03*
D16*
X439340Y469168D02*
X435208Y473300D01*
X439340Y469084D02*
X506700Y401724D01*
X506700Y163700D01*
D15*
X411951Y483375D03*
D16*
X415326Y480000D01*
X415326Y480000D01*
X416221Y479105D01*
X418701Y479105D01*
X427807Y470000D02*
X434916Y470000D01*
X436800Y468116D01*
X436800Y468032D01*
D15*
X488900Y160500D03*
D16*
X427807Y470000D02*
X418701Y479105D01*
X436800Y468032D02*
X504160Y400672D01*
X504160Y169960D01*
X494700Y160500D01*
X488900Y160500D01*
D15*
X412327Y476927D03*
D16*
X414807Y476927D01*
X415169Y476565D01*
X417649Y476565D02*
X426755Y467460D01*
X417649Y476565D02*
X415169Y476565D01*
X433864Y467460D02*
X434260Y467064D01*
X434260Y466979D01*
X487700Y165900D02*
X482700Y160900D01*
X468400Y160900D01*
D15*
X468400Y160900D03*
D16*
X433864Y467460D02*
X426755Y467460D01*
X434260Y466979D02*
X501620Y399619D01*
X501620Y171620D01*
X495900Y165900D01*
X487700Y165900D01*
D15*
X406200Y476700D03*
D16*
X412900Y470000D01*
X420622Y470000D01*
X425702Y464920D01*
X499080Y398567D02*
X499080Y172672D01*
X466800Y168800D02*
X463100Y165100D01*
D15*
X463100Y165100D03*
D16*
X432727Y464920D02*
X425702Y464920D01*
X432727Y464920D02*
X499080Y398567D01*
X499080Y172672D02*
X495208Y168800D01*
X466800Y168800D01*
D15*
X400152Y476675D03*
D16*
X401906Y476675D01*
X401906Y474921D01*
X404421Y472406D01*
X406902Y472406D01*
X411848Y467460D01*
X419570Y467460D01*
X424650Y462380D01*
X431675Y462380D01*
X496540Y173724D02*
X494156Y171340D01*
X458160Y171340D01*
X457800Y171700D01*
D15*
X457800Y171700D03*
D16*
X496540Y397515D02*
X431675Y462380D01*
X496540Y397515D02*
X496540Y173724D01*
D15*
X394806Y480500D03*
D16*
X396355Y478951D01*
X395858Y478454D01*
X395858Y474897D01*
X398373Y472381D01*
X400854Y472381D01*
X403369Y469866D01*
X405440Y469866D01*
X410506Y464800D01*
X418638Y464800D01*
X423598Y459840D02*
X430623Y459840D01*
X423598Y459840D02*
X418638Y464800D01*
X430623Y459840D02*
X494000Y396463D01*
X489100Y179100D02*
X457500Y179100D01*
X457500Y179200D01*
D15*
X457500Y179200D03*
D16*
X494000Y184000D02*
X494000Y396463D01*
X494000Y184000D02*
X489100Y179100D01*
D15*
X389300Y484900D03*
D16*
X385706Y419094D02*
X406100Y398700D01*
X389300Y471300D02*
X389300Y484900D01*
X389300Y471300D02*
X385706Y467706D01*
X385706Y419094D01*
X406100Y398700D02*
X445871Y398700D01*
X460360Y384211D01*
X407400Y220100D02*
X377150Y189850D01*
X377150Y170150D01*
X387550Y159750D01*
D15*
X387550Y159750D03*
D16*
X460360Y359760D02*
X460360Y384211D01*
X460360Y359760D02*
X407400Y306800D01*
X407400Y220100D01*
D15*
X384912Y480735D03*
D16*
X386612Y479035D01*
X386612Y472235D01*
X382866Y468489D01*
X382866Y418242D01*
X404948Y396160D01*
X444819Y396160D02*
X457820Y383159D01*
X444819Y396160D02*
X404948Y396160D01*
X374500Y191000D02*
X374500Y159800D01*
D15*
X374500Y159800D03*
D16*
X457820Y361220D02*
X457820Y383159D01*
X457820Y361220D02*
X404700Y308100D01*
X404700Y221200D01*
X374500Y191000D01*
D15*
X452100Y488268D03*
D16*
X452100Y482068D02*
X452158Y482010D01*
X452100Y482068D02*
X452100Y488268D01*
X452158Y482010D02*
X452158Y474442D01*
X519400Y407200D02*
X519400Y187200D01*
X539400Y167200D02*
X539400Y147200D01*
X539400Y167200D02*
X519400Y187200D01*
X519400Y407200D02*
X452158Y474442D01*
D15*
X539400Y147200D03*
X430200Y498900D03*
D16*
X430200Y491000D01*
X511780Y149120D02*
X513300Y147600D01*
X513800Y147600D01*
D15*
X513800Y147600D03*
D16*
X444420Y476780D02*
X430200Y491000D01*
X444420Y476780D02*
X444420Y471188D01*
X511780Y403828D01*
X511780Y149120D01*
D15*
X421684Y488268D03*
D16*
X428206Y481746D01*
X428206Y478521D01*
X430721Y476006D01*
X436094Y476006D02*
X441880Y470220D01*
X441880Y470136D01*
X509240Y155640D02*
X501200Y147600D01*
X501250Y147550D01*
D15*
X501250Y147550D03*
D16*
X436094Y476006D02*
X430721Y476006D01*
X441880Y470136D02*
X509240Y402776D01*
X509240Y155640D01*
D15*
X382297Y474497D03*
D16*
X380326Y417190D02*
X403996Y393520D01*
X443767Y393520D02*
X455180Y382107D01*
X380326Y472526D02*
X382297Y474497D01*
X380326Y472526D02*
X380326Y417190D01*
X403996Y393520D02*
X443767Y393520D01*
D15*
X349000Y160100D03*
D16*
X455180Y362172D02*
X455180Y382107D01*
X455180Y362172D02*
X402160Y309152D01*
X402160Y222360D01*
X349000Y169200D01*
X349000Y160100D01*
D15*
X375706Y480900D03*
D16*
X375706Y478394D01*
X377786Y476314D01*
X377786Y416138D02*
X402944Y390980D01*
X442615Y390980D02*
X452640Y380955D01*
X377786Y416138D02*
X377786Y476314D01*
X402944Y390980D02*
X442615Y390980D01*
X399620Y223520D02*
X337500Y161400D01*
X337450Y161450D01*
D15*
X337450Y161450D03*
D16*
X452640Y363224D02*
X452640Y380955D01*
X452640Y363224D02*
X399620Y310204D01*
X399620Y223520D01*
D15*
X371412Y476000D03*
D16*
X375246Y414986D02*
X401792Y388440D01*
X441562Y388440D02*
X450100Y379902D01*
X441562Y388440D02*
X401792Y388440D01*
X375246Y414986D02*
X375246Y472166D01*
X371412Y476000D01*
X450100Y364276D02*
X397080Y311256D01*
X397080Y224572D01*
X319000Y167400D02*
X312000Y160400D01*
X311750Y160650D01*
D15*
X311750Y160650D03*
D16*
X450100Y364276D02*
X450100Y379902D01*
X397080Y224572D02*
X339908Y167400D01*
X319000Y167400D01*
D15*
X370783Y469952D03*
D16*
X372706Y413833D02*
X400639Y385900D01*
X372706Y468029D02*
X370783Y469952D01*
X372706Y468029D02*
X372706Y413833D01*
X400639Y385900D02*
X440410Y385900D01*
X447560Y378750D01*
X307100Y170200D02*
X298400Y161500D01*
D15*
X298400Y161500D03*
D16*
X447560Y365429D02*
X447560Y378750D01*
X447560Y365429D02*
X394540Y312409D01*
X394540Y225624D01*
X339116Y170200D01*
X307100Y170200D01*
D15*
X220000Y160000D03*
X332806Y384748D03*
X221800Y109200D03*
X330266Y393300D03*
X221900Y96500D03*
X341734Y466134D03*
X184000Y109500D03*
X335352Y473200D03*
X171000Y109500D03*
X376290Y365564D03*
X323600Y96300D03*
X370896Y368723D03*
X310700Y96600D03*
X340075Y378039D03*
X246900Y83400D03*
X334027Y378700D03*
X234400Y96700D03*
X307000Y404200D03*
X196700Y96200D03*
X302706Y408459D03*
X195900Y83400D03*
X427297Y367351D03*
X386500Y70800D03*
X421249Y369158D03*
X374800Y70800D03*
X396822Y366178D03*
X336100Y71400D03*
X391546Y369454D03*
X323100Y71100D03*
X654100Y71000D03*
X653650Y97650D03*
X169600Y433000D03*
X86800Y323600D03*
X42600Y605800D03*
D17*
X10000Y573200D01*
X10000Y560000D01*
D15*
X10000Y560000D03*
D18*
X48800Y571500D03*
X112300Y571600D03*
X105100Y571300D03*
X56200Y571400D03*
D15*
X280000Y440000D03*
D18*
X106500Y409000D03*
X155800Y408900D03*
X162900Y408900D03*
X98992Y408992D03*
D15*
X90600Y438500D03*
D16*
X84900Y438500D01*
X66000Y419600D01*
D15*
X66000Y419600D03*
X150000Y180000D03*
X130000Y180000D03*
X90000Y390000D03*
X84900Y446000D03*
X119700Y597700D03*
D17*
X119700Y541091D01*
X59099Y480490D01*
X59099Y73602D02*
X80000Y52700D01*
X59099Y73602D02*
X59099Y480490D01*
D15*
X42700Y615500D03*
X15100Y602500D03*
X59100Y541200D03*
M02*
