G04 EAGLE Gerber RS-274X export*
G75*
%MOMM*%
%FSLAX34Y34*%
%LPD*%
%INTop Copper*%
%IPPOS*%
%AMOC8*
5,1,8,0,0,1.08239X$1,22.5*%
G01*
%ADD10R,1.300000X1.500000*%
%ADD11R,0.970000X1.470000*%
%ADD12R,1.500000X1.300000*%
%ADD13R,0.690000X0.990000*%
%ADD14R,0.800000X0.950000*%
%ADD15R,0.950000X0.800000*%
%ADD16R,1.271900X0.581800*%
%ADD17R,3.300000X3.300000*%
%ADD18C,1.524000*%
%ADD19R,0.961800X3.341800*%
%ADD20R,3.150000X1.850000*%
%ADD21C,0.340000*%
%ADD22R,1.037100X1.361800*%
%ADD23C,1.371600*%
%ADD24C,5.300000*%
%ADD25C,5.000000*%
%ADD26C,1.270000*%
%ADD27C,1.905000*%
%ADD28C,0.254000*%
%ADD29C,0.503200*%
%ADD30C,0.406400*%
%ADD31C,0.152400*%
%ADD32C,0.812800*%
%ADD33C,0.675000*%


D10*
X128100Y635700D03*
X145100Y635700D03*
X148000Y499100D03*
X165000Y499100D03*
X169000Y622300D03*
X186000Y622300D03*
X179500Y447400D03*
X196500Y447400D03*
D11*
X144200Y587400D03*
X127600Y587400D03*
X194900Y423200D03*
X178300Y423200D03*
D12*
X53000Y643500D03*
X53000Y660500D03*
X97300Y478900D03*
X97300Y495900D03*
D10*
X169100Y601100D03*
X186100Y601100D03*
X214400Y470600D03*
X197400Y470600D03*
D13*
X96900Y166700D03*
X106400Y166700D03*
X115900Y166700D03*
X115900Y192600D03*
X96900Y192600D03*
X140400Y166900D03*
X149900Y166900D03*
X159400Y166900D03*
X159400Y192800D03*
X140400Y192800D03*
X183800Y166900D03*
X193300Y166900D03*
X202800Y166900D03*
X202800Y192800D03*
X183800Y192800D03*
D10*
X97600Y643900D03*
X78600Y643900D03*
X138900Y478300D03*
X119900Y478300D03*
D14*
X168300Y644200D03*
X184300Y644200D03*
D15*
X188800Y491200D03*
X188800Y507200D03*
D10*
X157500Y380500D03*
X138500Y380500D03*
D12*
X75800Y466600D03*
X75800Y485600D03*
X15300Y572100D03*
X15300Y591100D03*
D10*
X52100Y420300D03*
X33100Y420300D03*
D16*
X52583Y623650D03*
X52583Y617150D03*
X52583Y610650D03*
X52583Y604150D03*
X52583Y597650D03*
X52583Y591150D03*
X52583Y584650D03*
X52583Y578150D03*
X109017Y578150D03*
X109017Y584650D03*
X109017Y591150D03*
X109017Y597650D03*
X109017Y604150D03*
X109017Y610650D03*
X109017Y617150D03*
X109017Y623650D03*
D17*
X80800Y600900D03*
D16*
X102883Y460950D03*
X102883Y454450D03*
X102883Y447950D03*
X102883Y441450D03*
X102883Y434950D03*
X102883Y428450D03*
X102883Y421950D03*
X102883Y415450D03*
X159317Y415450D03*
X159317Y421950D03*
X159317Y428450D03*
X159317Y434950D03*
X159317Y441450D03*
X159317Y447950D03*
X159317Y454450D03*
X159317Y460950D03*
D17*
X131100Y438200D03*
D18*
X359780Y740500D02*
X375020Y740500D01*
X375020Y765900D02*
X359780Y765900D01*
X359780Y791300D02*
X375020Y791300D01*
X375020Y816700D02*
X359780Y816700D01*
D19*
X130450Y550000D03*
X154150Y550000D03*
X179250Y390800D03*
X202950Y390800D03*
D20*
X209500Y852000D03*
X253500Y852000D03*
X209700Y779300D03*
X253700Y779300D03*
X209800Y706900D03*
X253800Y706900D03*
D21*
X357500Y493500D03*
X362500Y493500D03*
X367500Y493500D03*
X372500Y493500D03*
X377500Y493500D03*
X382500Y493500D03*
X387500Y493500D03*
X392500Y493500D03*
X397500Y493500D03*
X402500Y493500D03*
X407500Y493500D03*
X412500Y493500D03*
X417500Y493500D03*
X422500Y493500D03*
X427500Y493500D03*
X432500Y493500D03*
X437500Y493500D03*
X442500Y493500D03*
X447500Y493500D03*
X452500Y493500D03*
X357500Y376400D03*
X362500Y376400D03*
X367500Y376400D03*
X372500Y376400D03*
X377500Y376400D03*
X382500Y376400D03*
X387500Y376400D03*
X392500Y376400D03*
X397500Y376400D03*
X402500Y376400D03*
X407500Y376400D03*
X412500Y376400D03*
X417500Y376400D03*
X422500Y376400D03*
X427500Y376400D03*
X432500Y376400D03*
X437500Y376400D03*
X442500Y376400D03*
X447500Y376400D03*
X452500Y376400D03*
X346400Y387500D03*
X346400Y392500D03*
X346400Y397500D03*
X346400Y402500D03*
X346400Y407500D03*
X346400Y412500D03*
X346400Y417500D03*
X346400Y422500D03*
X346400Y427500D03*
X346400Y432500D03*
X346400Y437500D03*
X346400Y442500D03*
X346400Y447500D03*
X346400Y452500D03*
X346400Y457500D03*
X346400Y462500D03*
X346400Y467500D03*
X346400Y472500D03*
X346400Y477500D03*
X346400Y482500D03*
X463700Y387500D03*
X463700Y392500D03*
X463700Y397500D03*
X463700Y402500D03*
X463700Y407500D03*
X463700Y412500D03*
X463700Y417500D03*
X463700Y422500D03*
X463700Y427500D03*
X463700Y432500D03*
X463700Y437500D03*
X463700Y442500D03*
X463700Y447500D03*
X463700Y452500D03*
X463700Y457500D03*
X463700Y462500D03*
X463700Y467500D03*
X463700Y472500D03*
X463700Y477500D03*
X463700Y482500D03*
X410000Y440000D03*
X410000Y430000D03*
X400000Y430000D03*
X400000Y440000D03*
X400000Y450000D03*
X410000Y450000D03*
X420000Y450000D03*
X420000Y440000D03*
X420000Y430000D03*
X420000Y420000D03*
X410000Y420000D03*
X400000Y420000D03*
X390000Y420000D03*
X390000Y430000D03*
X390000Y440000D03*
X390000Y450000D03*
D12*
X15000Y612600D03*
X15000Y631600D03*
D10*
X97200Y542000D03*
X78200Y542000D03*
D22*
X71726Y564800D03*
X89474Y564800D03*
X121026Y399500D03*
X138774Y399500D03*
D23*
X86858Y27300D02*
X73142Y27300D01*
X73142Y52700D02*
X86858Y52700D01*
D24*
X150000Y830000D03*
D25*
X90000Y830000D03*
D24*
X120000Y783000D03*
D26*
X253500Y815500D02*
X253500Y852000D01*
X253500Y815500D02*
X253500Y779500D01*
X253700Y779300D01*
X253700Y707000D01*
X253800Y706900D01*
D27*
X253500Y815500D03*
X253900Y743200D03*
D28*
X127850Y434950D02*
X102883Y434950D01*
X127850Y434950D02*
X131100Y438200D01*
X75800Y485600D02*
X86100Y495900D01*
X97300Y495900D01*
X140553Y508886D02*
X155447Y508886D01*
X156786Y507547D01*
X121300Y495900D02*
X97300Y495900D01*
X121300Y495900D02*
X127567Y495900D01*
X140553Y508886D01*
X156786Y507547D02*
X156786Y507314D01*
X165000Y499100D01*
X165000Y466633D02*
X159317Y460950D01*
X159317Y454450D01*
D29*
X121300Y495900D03*
X164900Y474900D03*
D28*
X165000Y474800D02*
X165000Y466633D01*
X165000Y474800D02*
X164900Y474900D01*
X164900Y499000D01*
X165000Y499100D01*
D29*
X181200Y467700D03*
D28*
X188286Y455614D02*
X196500Y447400D01*
X188286Y455614D02*
X188286Y455847D01*
X181200Y462933D02*
X181200Y467700D01*
X181200Y462933D02*
X188286Y455847D01*
X194500Y467700D02*
X197400Y470600D01*
X194500Y467700D02*
X181200Y467700D01*
D30*
X178300Y423200D02*
X164567Y423200D01*
X159317Y428450D01*
X159317Y421950D01*
X149377Y410103D02*
X138774Y399500D01*
X151695Y421407D02*
X158774Y421407D01*
X159317Y421950D01*
X149377Y419089D02*
X149377Y410103D01*
X149377Y419089D02*
X151695Y421407D01*
X159317Y428450D02*
X140850Y428450D01*
X131100Y438200D01*
D28*
X138774Y399500D02*
X147300Y399500D01*
X149000Y397800D01*
X149100Y397800D01*
D29*
X149100Y397800D03*
D30*
X127600Y587400D02*
X111767Y587400D01*
X109017Y584650D01*
X109017Y591150D01*
X90550Y591150D01*
X80800Y600900D01*
X99610Y574936D02*
X89474Y564800D01*
X99610Y574936D02*
X99610Y582322D01*
X101395Y584107D01*
X108474Y584107D01*
X109017Y584650D01*
D28*
X77550Y597650D02*
X52583Y597650D01*
X77550Y597650D02*
X80800Y600900D01*
X69500Y660500D02*
X53000Y660500D01*
X69500Y660500D02*
X73700Y664700D01*
X73600Y664800D01*
D29*
X73600Y664800D03*
D28*
X186100Y622200D02*
X186100Y601100D01*
X186100Y622200D02*
X186000Y622300D01*
X202300Y622300D01*
X210000Y630000D01*
X209950Y630050D01*
D29*
X209950Y630050D03*
D28*
X109017Y623650D02*
X109017Y617150D01*
X136886Y627253D02*
X136886Y627486D01*
X145100Y635700D01*
X133283Y623650D02*
X109017Y623650D01*
X133283Y623650D02*
X136886Y627253D01*
X145100Y624900D02*
X145100Y635700D01*
X145100Y624900D02*
X150000Y620000D01*
X149950Y619950D01*
D29*
X149950Y619950D03*
D31*
X115900Y166700D02*
X128500Y154100D01*
X128500Y152800D01*
X128300Y152800D01*
D29*
X128300Y152800D03*
D31*
X159400Y166900D02*
X169400Y166900D01*
X171200Y165100D02*
X171300Y165100D01*
D29*
X171300Y165100D03*
D31*
X171200Y165100D02*
X169400Y166900D01*
X202800Y166900D02*
X209100Y166900D01*
X211900Y164100D01*
D29*
X211900Y164100D03*
D28*
X458100Y477500D02*
X463700Y477500D01*
D29*
X458100Y477500D03*
D28*
X432500Y480300D02*
X432500Y493500D01*
D29*
X432500Y480300D03*
D28*
X351600Y462500D02*
X346400Y462500D01*
D29*
X351600Y462500D03*
D28*
X447500Y376400D02*
X447500Y371600D01*
X443200Y367300D01*
D29*
X443200Y367300D03*
D28*
X390000Y450000D02*
X393700Y453700D01*
X393700Y453800D01*
D29*
X393700Y453800D03*
D28*
X400000Y450000D02*
X403800Y453800D01*
X403800Y453900D01*
D29*
X403800Y453900D03*
D28*
X410000Y450100D02*
X410000Y450000D01*
X410000Y450100D02*
X413800Y453900D01*
D29*
X413800Y453900D03*
D28*
X420000Y450000D02*
X423700Y453700D01*
X424000Y453700D01*
D29*
X424000Y453700D03*
D28*
X393600Y443600D02*
X390000Y440000D01*
X393600Y443600D02*
X393600Y443700D01*
D29*
X393600Y443700D03*
D28*
X400000Y440000D02*
X403600Y443600D01*
X403600Y443700D01*
D29*
X403600Y443700D03*
D28*
X410000Y440200D02*
X410000Y440000D01*
X410000Y440200D02*
X413600Y443800D01*
D29*
X413600Y443800D03*
D28*
X420000Y440000D02*
X423600Y443600D01*
X423600Y443700D01*
D29*
X423600Y443700D03*
D28*
X393500Y433500D02*
X390000Y430000D01*
X393500Y433500D02*
X393500Y433800D01*
D29*
X393500Y433800D03*
D28*
X400000Y430000D02*
X403600Y433600D01*
X403600Y433700D01*
D29*
X403600Y433700D03*
D28*
X410000Y430000D02*
X413700Y433700D01*
X413800Y433700D01*
D29*
X413800Y433700D03*
D28*
X420000Y430000D02*
X423600Y433600D01*
D29*
X423600Y433600D03*
D28*
X393700Y423700D02*
X390000Y420000D01*
D29*
X393700Y423700D03*
D28*
X400000Y420000D02*
X403700Y423700D01*
D29*
X403700Y423700D03*
D28*
X410000Y420000D02*
X413600Y423600D01*
D29*
X413600Y423600D03*
D28*
X420000Y420000D02*
X423600Y423600D01*
D29*
X423600Y423600D03*
D28*
X15000Y631600D02*
X15000Y642600D01*
D29*
X15000Y642600D03*
D26*
X189800Y686900D02*
X209800Y706900D01*
X189800Y686900D02*
X46900Y686900D01*
X32500Y672500D02*
X32500Y597500D01*
X32500Y587500D01*
X32500Y672500D02*
X46900Y686900D01*
D30*
X52583Y591150D02*
X38850Y591150D01*
X32500Y597500D01*
X35350Y584650D02*
X52583Y584650D01*
X35350Y584650D02*
X32500Y587500D01*
X32400Y587600D01*
D26*
X32400Y478600D02*
X84800Y426200D01*
X32400Y570000D02*
X32400Y587600D01*
X32400Y570000D02*
X32400Y515300D01*
X32400Y478600D01*
D30*
X89050Y421950D02*
X102883Y421950D01*
X89050Y421950D02*
X84800Y426200D01*
X87050Y428450D02*
X102883Y428450D01*
X87050Y428450D02*
X84800Y426200D01*
X99400Y399500D02*
X121026Y399500D01*
X84800Y414100D02*
X84800Y426200D01*
X84800Y414100D02*
X99400Y399500D01*
D26*
X150000Y830000D02*
X172000Y852000D01*
X209500Y852000D01*
X209500Y779500D01*
X209700Y779300D01*
X209800Y779200D01*
X209800Y706900D01*
D28*
X209500Y852000D02*
X225267Y852000D01*
X236803Y863536D01*
X320564Y863536D01*
X367400Y816700D01*
X33100Y477900D02*
X33100Y420300D01*
X33100Y477900D02*
X32400Y478600D01*
X180700Y515300D02*
X188800Y507200D01*
X180700Y515300D02*
X32400Y515300D01*
X37600Y564800D02*
X71726Y564800D01*
X37600Y564800D02*
X32400Y570000D01*
X28900Y591100D02*
X15300Y591100D01*
X28900Y591100D02*
X32500Y587500D01*
X184300Y644200D02*
X184300Y681400D01*
X189800Y686900D01*
X84800Y426200D02*
X80000Y421400D01*
X80000Y390000D01*
X110000Y360000D01*
X110000Y223200D02*
X140400Y192800D01*
X110000Y240000D02*
X110000Y360000D01*
X110000Y240000D02*
X110000Y223200D01*
X155003Y200036D02*
X163797Y200036D01*
X147767Y192800D02*
X140400Y192800D01*
X171033Y192800D02*
X183800Y192800D01*
X155003Y200036D02*
X147767Y192800D01*
X163797Y200036D02*
X171033Y192800D01*
D29*
X110000Y240000D03*
X100000Y210000D03*
D28*
X100000Y195700D01*
X96900Y192600D01*
D31*
X657300Y27300D02*
X660000Y30000D01*
X145516Y27300D02*
X80000Y27300D01*
X145516Y27300D02*
X147896Y24920D01*
X654484Y27300D02*
X657300Y27300D01*
X652104Y24920D02*
X147896Y24920D01*
X652104Y24920D02*
X654484Y27300D01*
D29*
X660000Y30000D03*
D31*
X437500Y376400D02*
X434693Y379207D01*
X434693Y381606D01*
D29*
X434693Y381606D03*
X387100Y45300D03*
D31*
X408800Y372700D02*
X412500Y376400D01*
X408800Y372700D02*
X407400Y372700D01*
X406613Y371913D01*
X406613Y365887D01*
D29*
X406613Y365887D03*
X336400Y46000D03*
D31*
X404100Y373000D02*
X407500Y376400D01*
X404100Y373000D02*
X404019Y373000D01*
X403941Y372922D01*
X403200Y372922D01*
X401863Y371585D01*
X401863Y369690D01*
D29*
X401863Y369690D03*
X323700Y45800D03*
D31*
X352200Y366818D02*
X352200Y368200D01*
X359000Y372900D02*
X362500Y376400D01*
X359000Y372900D02*
X356900Y372900D01*
X352200Y368200D01*
D29*
X352200Y366818D03*
X285500Y45600D03*
D31*
X354269Y376400D02*
X357500Y376400D01*
X354269Y376400D02*
X350734Y372866D01*
D29*
X350734Y372866D03*
X273500Y45900D03*
D31*
X331336Y412436D02*
X346400Y427500D01*
X331336Y412436D02*
X330264Y412436D01*
D29*
X330264Y412436D03*
X234600Y45600D03*
D31*
X332384Y418484D02*
X346400Y432500D01*
X332384Y418484D02*
X331312Y418484D01*
D29*
X331312Y418484D03*
X222150Y45850D03*
D31*
X421200Y375100D02*
X422500Y376400D01*
X421200Y375100D02*
X420978Y375100D01*
X420978Y374959D01*
X418941Y372922D01*
X417614Y372922D01*
X416290Y371598D01*
X416290Y365564D01*
D29*
X416290Y365564D03*
X361900Y57900D03*
D31*
X414000Y372900D02*
X417500Y376400D01*
X414000Y372900D02*
X413600Y372900D01*
X411613Y370913D01*
X411613Y369440D01*
D29*
X411613Y369440D03*
X348800Y58400D03*
D31*
X369100Y373000D02*
X372500Y376400D01*
X369100Y373000D02*
X369019Y373000D01*
X368941Y372922D01*
X367614Y372922D01*
X364848Y370156D02*
X364848Y368406D01*
D29*
X364848Y368406D03*
D31*
X364848Y370156D02*
X367614Y372922D01*
D29*
X310900Y58700D03*
D31*
X363800Y372700D02*
X367500Y376400D01*
X363800Y372700D02*
X362700Y372700D01*
X358800Y368800D01*
X358800Y368500D01*
D29*
X358800Y368500D03*
X298200Y58100D03*
X332372Y401728D03*
D31*
X346400Y415978D02*
X346400Y417500D01*
X346400Y415978D02*
X344959Y415978D01*
X342922Y413941D01*
X342922Y412533D01*
X340382Y409993D01*
X340382Y409739D01*
X332372Y401728D01*
D29*
X259900Y59200D03*
D31*
X326324Y402424D02*
X346400Y422500D01*
X326324Y402424D02*
X326324Y401753D01*
D29*
X326324Y401753D03*
X247400Y58600D03*
D31*
X333432Y424532D02*
X346400Y437500D01*
X333432Y424532D02*
X332360Y424532D01*
D29*
X332360Y424532D03*
X209000Y46600D03*
D31*
X334480Y430580D02*
X346400Y442500D01*
X334480Y430580D02*
X333408Y430580D01*
D29*
X333408Y430580D03*
X196550Y45250D03*
D31*
X498000Y418200D02*
X463700Y452500D01*
X498000Y361900D02*
X497780Y361680D01*
X497780Y360996D01*
X497720Y360936D01*
X497720Y360844D01*
X497658Y360782D01*
X497658Y330660D01*
X443800Y276802D01*
X443800Y164892D01*
D29*
X473600Y120400D03*
D31*
X498000Y361900D02*
X498000Y418200D01*
X443800Y164892D02*
X470540Y138152D01*
X470540Y123460D01*
X473600Y120400D01*
X495300Y415900D02*
X463700Y447500D01*
X495300Y365300D02*
X495240Y365240D01*
X495240Y362048D01*
X495180Y361988D01*
X495180Y361896D01*
X495118Y361834D01*
X495118Y331913D01*
X441260Y278055D02*
X441260Y163840D01*
X468000Y126700D02*
X463200Y121900D01*
X463000Y121900D01*
D29*
X463000Y121900D03*
D31*
X495300Y365300D02*
X495300Y415900D01*
X495118Y331913D02*
X441260Y278055D01*
X441260Y163840D02*
X468000Y137100D01*
X468000Y126700D01*
X463700Y410978D02*
X463700Y412500D01*
X463700Y410978D02*
X465141Y410978D01*
X477338Y398781D01*
D29*
X435900Y110600D03*
D31*
X434600Y129300D02*
X423480Y140420D01*
X423480Y285619D02*
X477338Y339477D01*
X477338Y398781D01*
X434600Y111900D02*
X435900Y110600D01*
X434600Y111900D02*
X434600Y129300D01*
X423480Y140420D02*
X423480Y285619D01*
X425200Y109200D02*
X425300Y109200D01*
D29*
X425200Y109200D03*
D31*
X425300Y109200D02*
X431800Y115700D01*
X431800Y128200D01*
X420940Y139060D01*
X420940Y286672D01*
X474798Y340530D01*
X474798Y396402D02*
X463700Y407500D01*
X474798Y396402D02*
X474798Y340530D01*
X399700Y138308D02*
X399700Y121700D01*
X399700Y138308D02*
X413040Y151648D01*
X463700Y392419D02*
X463700Y392500D01*
X463700Y392419D02*
X467178Y388941D01*
X467178Y343959D01*
X413040Y289821D01*
X413040Y151648D01*
D29*
X399700Y121700D03*
D31*
X463700Y344200D02*
X463700Y387500D01*
X463700Y344200D02*
X410300Y290800D01*
X410300Y152700D01*
D29*
X386400Y121800D03*
D31*
X386400Y128800D02*
X410300Y152700D01*
X386400Y128800D02*
X386400Y121800D01*
X348799Y387500D02*
X346400Y387500D01*
X348799Y387500D02*
X350650Y389350D01*
D29*
X350650Y389350D03*
X247600Y109400D03*
D31*
X344399Y390499D02*
X346400Y392500D01*
D29*
X344399Y382268D03*
D31*
X344399Y390418D02*
X344399Y390499D01*
X344399Y390418D02*
X342922Y388941D01*
X342922Y386059D01*
X344399Y384582D01*
X344399Y382268D01*
D29*
X235050Y109250D03*
D31*
X346082Y472182D02*
X346400Y472500D01*
X346082Y472182D02*
X341400Y472182D01*
D29*
X341400Y472182D03*
X185000Y121800D03*
D31*
X390900Y374800D02*
X392500Y376400D01*
X390900Y374800D02*
X390819Y374800D01*
X388941Y372922D01*
X387614Y372922D01*
X385543Y370851D01*
X385543Y366229D02*
X386209Y365564D01*
D29*
X386209Y365564D03*
D31*
X385543Y366229D02*
X385543Y370851D01*
D29*
X334600Y84300D03*
D31*
X383500Y372400D02*
X387500Y376400D01*
X383500Y372400D02*
X382400Y372400D01*
X381249Y371249D01*
X381249Y369158D01*
D29*
X381249Y369158D03*
X323600Y83800D03*
D31*
X492700Y413500D02*
X463700Y442500D01*
X492700Y363100D02*
X492640Y363040D01*
X492640Y362948D01*
X492578Y362886D01*
X492578Y332965D01*
X438720Y279107D01*
X462800Y138700D02*
X462800Y134900D01*
D29*
X462800Y134900D03*
D31*
X492700Y363100D02*
X492700Y413500D01*
X438720Y279107D02*
X438720Y162780D01*
X462800Y138700D01*
X490100Y411100D02*
X463700Y437500D01*
X490100Y364000D02*
X490038Y363938D01*
X490038Y334017D01*
X436180Y280159D01*
D29*
X451200Y135100D03*
D31*
X490100Y364000D02*
X490100Y411100D01*
X436180Y280159D02*
X436180Y161589D01*
X451200Y146569D02*
X451200Y135100D01*
X451200Y146569D02*
X436180Y161589D01*
X463700Y402419D02*
X463700Y402500D01*
X463700Y402419D02*
X472258Y393861D01*
X472258Y341682D01*
X418400Y129100D02*
X425300Y122200D01*
X418400Y129100D02*
X418400Y287824D01*
X472258Y341682D01*
D29*
X425300Y122200D03*
D31*
X412142Y146958D02*
X415780Y150596D01*
X463700Y397419D02*
X463700Y397500D01*
X463700Y397419D02*
X469718Y391401D01*
X469718Y342907D02*
X415780Y288969D01*
X415780Y150596D01*
X469718Y342907D02*
X469718Y391401D01*
X412142Y146958D02*
X412150Y146950D01*
X412150Y121650D01*
D29*
X412150Y121650D03*
D31*
X503300Y422900D02*
X463700Y462500D01*
X503300Y361000D02*
X503240Y360940D01*
X503240Y359248D01*
X502800Y358808D01*
X502800Y358739D01*
X502738Y358677D01*
X502738Y327956D01*
X448880Y274098D01*
X448880Y166996D02*
X482540Y133336D01*
X482540Y118948D01*
X462700Y99108D02*
X462700Y96300D01*
X462600Y96300D01*
D29*
X462600Y96300D03*
D31*
X503300Y361000D02*
X503300Y422900D01*
X448880Y274098D02*
X448880Y166996D01*
X482540Y118948D02*
X462700Y99108D01*
X500700Y420500D02*
X463700Y457500D01*
X500700Y360300D02*
X500260Y359860D01*
X500260Y359792D01*
X500198Y359730D01*
X500198Y329308D01*
X446340Y275450D01*
X446340Y165944D02*
X480000Y132284D01*
X480000Y120000D01*
X469200Y109200D01*
X463000Y109200D01*
X462900Y109300D01*
D29*
X462900Y109300D03*
D31*
X500700Y360300D02*
X500700Y420500D01*
X446340Y275450D02*
X446340Y165944D01*
X463700Y420978D02*
X463700Y422500D01*
X463700Y420978D02*
X465141Y420978D01*
X440100Y100700D02*
X430200Y100700D01*
X425300Y95800D01*
D29*
X425300Y95800D03*
D31*
X440100Y100700D02*
X444900Y105500D01*
X444900Y126592D02*
X428560Y142932D01*
X428560Y283415D01*
X482418Y337273D01*
X482418Y403701D02*
X465141Y420978D01*
X482418Y403701D02*
X482418Y337273D01*
X444900Y126592D02*
X444900Y105500D01*
X463700Y415978D02*
X463700Y417500D01*
X463700Y415978D02*
X465141Y415978D01*
X479878Y401241D01*
X438773Y103300D02*
X419200Y103300D01*
X412100Y96200D01*
D29*
X412100Y96200D03*
D31*
X438773Y103300D02*
X442294Y106821D01*
X442294Y125606D01*
X426020Y141880D01*
X426020Y284567D02*
X479878Y338425D01*
X479878Y401241D01*
X426020Y284567D02*
X426020Y141880D01*
X506000Y425200D02*
X463700Y467500D01*
X506000Y360100D02*
X505780Y359880D01*
X505780Y358196D01*
X505340Y357756D01*
X505340Y357687D01*
X505278Y357625D01*
X505278Y326504D01*
X451420Y272646D01*
X485200Y105800D02*
X463200Y83800D01*
X462900Y84100D01*
D29*
X462900Y84100D03*
D31*
X506000Y360100D02*
X506000Y425200D01*
X451420Y272646D02*
X451420Y168580D01*
X485200Y134800D01*
X485200Y105800D01*
X463700Y430978D02*
X463700Y432500D01*
X463700Y430978D02*
X465141Y430978D01*
X487498Y408621D01*
X437650Y89750D02*
X437650Y84150D01*
X437650Y89750D02*
X450104Y102204D01*
D29*
X437650Y84150D03*
D31*
X450104Y128196D02*
X449980Y128320D01*
X449980Y128696D01*
X433640Y145036D01*
X433640Y281311D02*
X487498Y335169D01*
X487498Y408621D01*
X450104Y128196D02*
X450104Y102204D01*
X433640Y145036D02*
X433640Y281311D01*
X463700Y425978D02*
X463700Y427500D01*
X463700Y425978D02*
X465141Y425978D01*
X484958Y406161D01*
X424700Y88500D02*
X424700Y83300D01*
X424700Y88500D02*
X434360Y98160D01*
D29*
X424700Y83300D03*
D31*
X434360Y98160D02*
X441152Y98160D01*
X447440Y104448D01*
X447440Y127644D02*
X431100Y143984D01*
X431100Y282363D02*
X484958Y336221D01*
X484958Y406161D01*
X447440Y127644D02*
X447440Y104448D01*
X431100Y143984D02*
X431100Y282363D01*
X442500Y491820D02*
X442500Y493500D01*
X442500Y491820D02*
X446052Y488268D01*
D29*
X446052Y488268D03*
X533900Y161100D03*
D31*
X437500Y490400D02*
X437500Y493500D01*
X437500Y490400D02*
X439800Y488100D01*
D29*
X439800Y488100D03*
X526600Y161000D03*
D31*
X412500Y488899D02*
X412500Y493500D01*
X412500Y488899D02*
X417999Y483399D01*
D29*
X417999Y483399D03*
X501400Y158800D03*
D31*
X409960Y491040D02*
X407500Y493500D01*
X409960Y485366D02*
X411951Y483375D01*
D29*
X411951Y483375D03*
X488900Y160500D03*
D31*
X409960Y485366D02*
X409960Y491040D01*
X406900Y489100D02*
X402500Y493500D01*
X406900Y482353D02*
X412327Y476927D01*
D29*
X412327Y476927D03*
X468400Y160900D03*
D31*
X406900Y482353D02*
X406900Y489100D01*
X403700Y487300D02*
X397500Y493500D01*
X403700Y479200D02*
X406200Y476700D01*
D29*
X406200Y476700D03*
X463100Y165100D03*
D31*
X403700Y479200D02*
X403700Y487300D01*
X399100Y486900D02*
X392500Y493500D01*
X399100Y477727D02*
X400152Y476675D01*
D29*
X400152Y476675D03*
X457800Y171700D03*
D31*
X399100Y477727D02*
X399100Y486900D01*
X394806Y486194D02*
X387500Y493500D01*
X394806Y486194D02*
X394806Y480500D01*
D29*
X394806Y480500D03*
X457500Y179200D03*
D31*
X382500Y491700D02*
X382500Y493500D01*
X382500Y491700D02*
X389300Y484900D01*
D29*
X389300Y484900D03*
X387550Y159750D03*
D31*
X377500Y492300D02*
X377500Y493500D01*
X384912Y484888D02*
X384912Y480735D01*
D29*
X384912Y480735D03*
D31*
X384912Y484888D02*
X377500Y492300D01*
D29*
X374500Y159800D03*
D31*
X452100Y488900D02*
X447500Y493500D01*
X452100Y488900D02*
X452100Y488268D01*
D29*
X452100Y488268D03*
X539400Y147200D03*
D31*
X422500Y493500D02*
X423438Y494438D01*
X423438Y494826D01*
X425922Y497310D01*
X429900Y498900D02*
X430200Y498900D01*
D29*
X430200Y498900D03*
X513800Y147600D03*
D31*
X428310Y497310D02*
X425922Y497310D01*
X428310Y497310D02*
X429900Y498900D01*
X417500Y493500D02*
X417500Y492452D01*
X421684Y488268D01*
D29*
X421684Y488268D03*
X501250Y147550D03*
D31*
X380000Y486000D02*
X372500Y493500D01*
X380000Y476794D02*
X382297Y474497D01*
D29*
X382297Y474497D03*
D31*
X380000Y476794D02*
X380000Y486000D01*
D29*
X349000Y160100D03*
D31*
X376900Y484100D02*
X367500Y493500D01*
X376900Y482094D02*
X375706Y480900D01*
D29*
X375706Y480900D03*
D31*
X376900Y482094D02*
X376900Y484100D01*
D29*
X337450Y161450D03*
D31*
X370000Y486000D02*
X362500Y493500D01*
X370000Y477412D02*
X371412Y476000D01*
D29*
X371412Y476000D03*
D31*
X370000Y477412D02*
X370000Y486000D01*
D29*
X311750Y160650D03*
D31*
X366800Y484200D02*
X357500Y493500D01*
X366800Y473935D02*
X370783Y469952D01*
D29*
X370783Y469952D03*
D31*
X366800Y473935D02*
X366800Y484200D01*
D29*
X298400Y161500D03*
D28*
X220000Y175600D02*
X202800Y192800D01*
X220000Y175600D02*
X220000Y160000D01*
D29*
X220000Y160000D03*
X332806Y384748D03*
D31*
X346400Y405978D02*
X346400Y407500D01*
X346400Y405978D02*
X344959Y405978D01*
X342922Y403941D01*
X342922Y402614D01*
X334560Y394252D01*
X334560Y386502D02*
X332806Y384748D01*
X334560Y386502D02*
X334560Y394252D01*
D29*
X221800Y109200D03*
X330266Y393300D03*
D31*
X346400Y410978D02*
X346400Y412500D01*
X346400Y410978D02*
X344959Y410978D01*
X342922Y408941D01*
X342922Y407533D01*
X340382Y404993D01*
X340382Y403666D01*
X332020Y395304D01*
X332020Y395054D01*
X330266Y393300D01*
D29*
X221900Y96500D03*
D31*
X343100Y467500D02*
X346400Y467500D01*
X343100Y467500D02*
X341734Y466134D01*
D29*
X341734Y466134D03*
X184000Y109500D03*
D31*
X339652Y477500D02*
X346400Y477500D01*
X339652Y477500D02*
X335352Y473200D01*
D29*
X335352Y473200D03*
X171000Y109500D03*
D31*
X379700Y373600D02*
X382500Y376400D01*
X379700Y373600D02*
X379619Y373600D01*
X378941Y372922D01*
X377614Y372922D01*
X375700Y371008D01*
X375700Y366154D02*
X376290Y365564D01*
D29*
X376290Y365564D03*
D31*
X375700Y366154D02*
X375700Y371008D01*
D29*
X323600Y96300D03*
D31*
X373100Y372000D02*
X377500Y376400D01*
X373100Y372000D02*
X372500Y372000D01*
X370896Y370396D01*
X370896Y368723D01*
D29*
X370896Y368723D03*
X310700Y96600D03*
D31*
X339800Y390900D02*
X346400Y397500D01*
X339800Y378314D02*
X340075Y378039D01*
D29*
X340075Y378039D03*
X246900Y83400D03*
D31*
X339800Y378314D02*
X339800Y390900D01*
X337100Y393200D02*
X346400Y402500D01*
X337100Y393200D02*
X337100Y381700D01*
X334100Y378700D01*
X334027Y378700D01*
D29*
X334027Y378700D03*
X234400Y96700D03*
D31*
X307000Y404200D02*
X307000Y410245D01*
D29*
X307000Y404200D03*
D31*
X344255Y447500D02*
X346400Y447500D01*
X344255Y447500D02*
X307000Y410245D01*
D29*
X196700Y96200D03*
D31*
X302706Y408459D02*
X302706Y409544D01*
D29*
X302706Y408459D03*
D31*
X345663Y452500D02*
X346400Y452500D01*
X345663Y452500D02*
X302706Y409544D01*
D29*
X195900Y83400D03*
D31*
X432500Y372554D02*
X432500Y376400D01*
X432500Y372554D02*
X427297Y367351D01*
D29*
X427297Y367351D03*
X386500Y70800D03*
D31*
X427500Y375409D02*
X427500Y376400D01*
X427500Y375409D02*
X421249Y369158D01*
D29*
X421249Y369158D03*
X374800Y70800D03*
D31*
X398600Y372500D02*
X402500Y376400D01*
X398600Y372500D02*
X397400Y372500D01*
X396822Y371922D01*
X396822Y366178D01*
D29*
X396822Y366178D03*
X336100Y71400D03*
D31*
X393800Y372700D02*
X397500Y376400D01*
X393800Y372700D02*
X392700Y372700D01*
X391546Y371546D01*
X391546Y369454D01*
D29*
X391546Y369454D03*
X323100Y71100D03*
D31*
X140400Y39600D02*
X140400Y166900D01*
X140400Y39600D02*
X150000Y30000D01*
X650000Y30000D01*
X660000Y40000D01*
X660000Y65100D01*
X654100Y71000D01*
D29*
X654100Y71000D03*
D31*
X96900Y132500D02*
X96900Y166700D01*
X137860Y38548D02*
X148948Y27460D01*
X651052Y27460D01*
X662540Y38948D01*
X662540Y66152D01*
X660000Y68692D01*
X660000Y91200D02*
X653600Y97600D01*
X653650Y97650D01*
D29*
X653650Y97650D03*
D31*
X137860Y91540D02*
X96900Y132500D01*
X137860Y91540D02*
X137860Y38548D01*
X660000Y68692D02*
X660000Y91200D01*
D32*
X151600Y580000D02*
X144200Y587400D01*
X240000Y510000D02*
X290000Y510000D01*
D30*
X460000Y510000D01*
D32*
X170000Y580000D02*
X151600Y580000D01*
X170000Y580000D02*
X182300Y567700D01*
X205000Y545000D01*
X240000Y510000D01*
D31*
X205000Y603500D02*
X367400Y765900D01*
X205000Y603500D02*
X205000Y545000D01*
X290000Y510000D02*
X293900Y510000D01*
D28*
X103200Y542000D02*
X97200Y542000D01*
X103200Y542000D02*
X119700Y525500D01*
X174100Y525500D01*
X184200Y535600D01*
X184200Y565800D01*
X182300Y567700D01*
D32*
X154150Y550000D02*
X144200Y559950D01*
X144200Y587400D01*
D30*
X342500Y457500D02*
X346400Y457500D01*
X342500Y457500D02*
X290000Y510000D01*
X465667Y472752D02*
X468448Y475533D01*
X465667Y472752D02*
X463952Y472752D01*
X463700Y472500D01*
X468448Y501552D02*
X460000Y510000D01*
X468448Y501552D02*
X468448Y475533D01*
D31*
X50000Y400000D02*
X30000Y400000D01*
X50000Y400000D02*
X86800Y363200D01*
X86800Y323600D01*
X86800Y190100D01*
X106400Y170500D02*
X106400Y166700D01*
X106400Y170500D02*
X86800Y190100D01*
D28*
X159317Y434950D02*
X166850Y434950D01*
X168800Y433000D02*
X169600Y433000D01*
D29*
X169600Y433000D03*
X86800Y323600D03*
D28*
X168800Y433000D02*
X166850Y434950D01*
X51278Y609345D02*
X52583Y610650D01*
X51278Y609345D02*
X45277Y609345D01*
X43938Y608006D01*
X43938Y606838D01*
X42900Y605800D01*
X42600Y605800D01*
D29*
X42600Y605800D03*
X10000Y560000D03*
D28*
X15300Y565300D01*
X15300Y572100D01*
D31*
X10000Y560000D02*
X10000Y420000D01*
X30000Y400000D01*
D28*
X52583Y604150D02*
X53888Y605455D01*
X59889Y605455D01*
X78600Y634933D02*
X78600Y643900D01*
X78600Y634933D02*
X62014Y618347D01*
X62014Y607580D02*
X59889Y605455D01*
X62014Y607580D02*
X62014Y618347D01*
X97600Y643900D02*
X119900Y643900D01*
X128100Y635700D01*
X109017Y604150D02*
X109022Y604145D01*
X166055Y604145D02*
X169100Y601100D01*
X166055Y604145D02*
X109022Y604145D01*
X52583Y623650D02*
X52583Y643083D01*
X53000Y643500D01*
D30*
X52583Y578150D02*
X50483Y576050D01*
X50483Y573183D01*
X48800Y571500D01*
D33*
X48800Y571500D03*
X112300Y571600D03*
D30*
X110800Y573100D02*
X110800Y578150D01*
X110800Y573100D02*
X112300Y571600D01*
X110800Y578150D02*
X109017Y578150D01*
D33*
X105100Y571300D03*
D30*
X106800Y578150D02*
X109017Y578150D01*
X106800Y573000D02*
X105100Y571300D01*
X106800Y573000D02*
X106800Y578150D01*
D33*
X56200Y571400D03*
D30*
X54483Y573117D01*
X54483Y576250D02*
X52583Y578150D01*
X54483Y576250D02*
X54483Y573117D01*
D32*
X109017Y571433D02*
X130450Y550000D01*
X109017Y571433D02*
X109017Y576661D01*
D28*
X169000Y643500D02*
X168300Y644200D01*
X169000Y643500D02*
X169000Y622300D01*
X157350Y610650D01*
X109017Y610650D01*
D32*
X194900Y398850D02*
X202950Y390800D01*
X194900Y398850D02*
X194900Y423200D01*
X230000Y423200D01*
X276800Y423200D01*
D30*
X340000Y360000D02*
X427815Y360000D01*
D32*
X330000Y370000D02*
X276800Y423200D01*
D30*
X330000Y370000D02*
X340000Y360000D01*
D28*
X159500Y380500D02*
X157500Y380500D01*
X172700Y367300D02*
X214500Y367300D01*
X230000Y382800D01*
X230000Y423200D01*
X172700Y367300D02*
X159500Y380500D01*
D30*
X427248Y493248D02*
X427500Y493500D01*
X427248Y493248D02*
X427248Y483433D01*
X413815Y470000D01*
X360000Y440000D02*
X360000Y390000D01*
X340000Y370000D01*
X330000Y370000D01*
X390000Y470000D02*
X413815Y470000D01*
X390000Y470000D02*
X360000Y440000D01*
X442248Y376148D02*
X442500Y376400D01*
X442248Y376148D02*
X442248Y374433D01*
X427815Y360000D01*
D29*
X280000Y440000D03*
D31*
X280000Y426400D01*
X276800Y423200D01*
D28*
X111529Y444094D02*
X110189Y442755D01*
X104188Y442755D02*
X102883Y441450D01*
X104188Y442755D02*
X110189Y442755D01*
X111529Y469929D02*
X119900Y478300D01*
X111529Y469929D02*
X111529Y444094D01*
X138900Y478300D02*
X148000Y487400D01*
X148000Y499100D01*
X206186Y462386D02*
X214400Y470600D01*
X168217Y441450D02*
X159317Y441450D01*
X168217Y441450D02*
X172053Y437614D01*
X203947Y437614D01*
X206186Y439853D01*
X206186Y462386D01*
X102883Y460950D02*
X97300Y466533D01*
X97300Y478900D01*
D33*
X106500Y409000D03*
X155800Y408900D03*
X162900Y408900D03*
D30*
X106500Y409000D02*
X106433Y409000D01*
X104883Y410550D01*
X104883Y413450D01*
X102883Y415450D01*
X155800Y408933D02*
X157317Y410450D01*
X155800Y408933D02*
X155800Y408900D01*
X157317Y410450D02*
X157317Y413450D01*
X159317Y415450D01*
X161317Y410483D02*
X162900Y408900D01*
X161317Y413450D02*
X159317Y415450D01*
X161317Y413450D02*
X161317Y410483D01*
X102883Y412883D02*
X102883Y415450D01*
X102883Y412883D02*
X98992Y408992D01*
D33*
X98992Y408992D03*
D32*
X159317Y410733D02*
X179250Y390800D01*
X159317Y410733D02*
X159317Y413961D01*
D28*
X159317Y447950D02*
X178950Y447950D01*
X179500Y447400D01*
X174300Y452600D02*
X174300Y476700D01*
X174300Y452600D02*
X179500Y447400D01*
X174300Y476700D02*
X188800Y491200D01*
D29*
X90600Y438500D03*
D31*
X101070Y446137D02*
X102883Y447950D01*
X101070Y446137D02*
X95787Y446137D01*
X94746Y445096D01*
X94746Y442646D01*
X90600Y438500D01*
D29*
X66000Y419600D03*
D31*
X66006Y419594D01*
X66006Y387921D01*
X99900Y354027D02*
X99900Y226900D01*
X129900Y196900D02*
X129900Y190000D01*
X149900Y170000D02*
X149900Y166900D01*
X149900Y170000D02*
X129900Y190000D01*
X129900Y196900D02*
X99900Y226900D01*
X99900Y354027D02*
X66006Y387921D01*
X66000Y419600D02*
X52800Y419600D01*
X52100Y420300D01*
X175573Y166900D02*
X183800Y166900D01*
X156372Y173628D02*
X150000Y180000D01*
X168845Y173628D02*
X175573Y166900D01*
X168845Y173628D02*
X156372Y173628D01*
D29*
X150000Y180000D03*
X130000Y180000D03*
D31*
X128500Y180000D01*
X115900Y192600D01*
D28*
X188197Y174136D02*
X189536Y172797D01*
X178064Y174136D02*
X159400Y192800D01*
X189536Y172797D02*
X189536Y170664D01*
X193300Y166900D01*
X188197Y174136D02*
X178064Y174136D01*
X138500Y380500D02*
X99500Y380500D01*
X90000Y390000D01*
D29*
X90000Y390000D03*
X84900Y446000D03*
D28*
X93350Y454450D01*
X102883Y454450D01*
X84900Y457500D02*
X75800Y466600D01*
X84900Y457500D02*
X84900Y446000D01*
X109017Y597650D02*
X119650Y597650D01*
X119700Y597700D01*
D29*
X119700Y597700D03*
D28*
X52583Y617150D02*
X44350Y617150D01*
X42700Y615500D01*
D29*
X42700Y615500D03*
X15100Y602500D03*
D28*
X15100Y612500D01*
X15000Y612600D01*
X78200Y542000D02*
X77500Y541300D01*
X59200Y541300D01*
X59100Y541200D01*
D29*
X59100Y541200D03*
M02*
