G04 EAGLE Gerber RS-274X export*
G75*
%MOMM*%
%FSLAX34Y34*%
%LPD*%
%INSilkscreen Top*%
%IPPOS*%
%AMOC8*
5,1,8,0,0,1.08239X$1,22.5*%
G01*
%ADD10C,0.152400*%
%ADD11C,0.076200*%
%ADD12C,0.025400*%
%ADD13C,0.010000*%
%ADD14C,0.127000*%
%ADD15C,0.075000*%
%ADD16C,0.050800*%
%ADD17C,0.200000*%
%ADD18C,0.500000*%
%ADD19C,0.120000*%
%ADD20C,0.101600*%
%ADD21C,0.100000*%


D10*
X473824Y29793D02*
X476533Y29793D01*
X476533Y20762D01*
X471115Y20762D01*
X470997Y20764D01*
X470879Y20770D01*
X470761Y20779D01*
X470644Y20793D01*
X470527Y20810D01*
X470410Y20831D01*
X470295Y20856D01*
X470180Y20885D01*
X470066Y20918D01*
X469954Y20954D01*
X469843Y20994D01*
X469733Y21037D01*
X469624Y21084D01*
X469517Y21134D01*
X469412Y21189D01*
X469309Y21246D01*
X469208Y21307D01*
X469108Y21371D01*
X469011Y21438D01*
X468916Y21508D01*
X468824Y21582D01*
X468733Y21658D01*
X468646Y21738D01*
X468561Y21820D01*
X468479Y21905D01*
X468399Y21992D01*
X468323Y22083D01*
X468249Y22175D01*
X468179Y22270D01*
X468112Y22367D01*
X468048Y22467D01*
X467987Y22568D01*
X467930Y22671D01*
X467875Y22776D01*
X467825Y22883D01*
X467778Y22992D01*
X467735Y23102D01*
X467695Y23213D01*
X467659Y23325D01*
X467626Y23439D01*
X467597Y23554D01*
X467572Y23669D01*
X467551Y23786D01*
X467534Y23903D01*
X467520Y24020D01*
X467511Y24138D01*
X467505Y24256D01*
X467503Y24374D01*
X467502Y24374D02*
X467502Y33406D01*
X467503Y33406D02*
X467505Y33524D01*
X467511Y33642D01*
X467520Y33760D01*
X467534Y33877D01*
X467551Y33994D01*
X467572Y34111D01*
X467597Y34226D01*
X467626Y34341D01*
X467659Y34455D01*
X467695Y34567D01*
X467735Y34678D01*
X467778Y34788D01*
X467825Y34897D01*
X467875Y35004D01*
X467929Y35109D01*
X467987Y35212D01*
X468048Y35313D01*
X468112Y35413D01*
X468179Y35510D01*
X468249Y35605D01*
X468323Y35697D01*
X468399Y35788D01*
X468479Y35875D01*
X468561Y35960D01*
X468646Y36042D01*
X468733Y36122D01*
X468824Y36198D01*
X468916Y36272D01*
X469011Y36342D01*
X469108Y36409D01*
X469208Y36473D01*
X469309Y36534D01*
X469412Y36591D01*
X469517Y36645D01*
X469624Y36696D01*
X469733Y36743D01*
X469843Y36786D01*
X469954Y36826D01*
X470066Y36862D01*
X470180Y36895D01*
X470295Y36924D01*
X470410Y36949D01*
X470527Y36970D01*
X470644Y36987D01*
X470761Y37001D01*
X470879Y37010D01*
X470997Y37016D01*
X471115Y37018D01*
X476533Y37018D01*
X484205Y37018D02*
X484205Y20762D01*
X484205Y37018D02*
X491430Y37018D01*
X491430Y29793D02*
X484205Y29793D01*
X497202Y33406D02*
X501717Y37018D01*
X501717Y20762D01*
X497202Y20762D02*
X506233Y20762D01*
X512833Y20762D02*
X517348Y20762D01*
X517481Y20764D01*
X517613Y20770D01*
X517745Y20780D01*
X517877Y20793D01*
X518009Y20811D01*
X518139Y20832D01*
X518270Y20857D01*
X518399Y20886D01*
X518527Y20919D01*
X518655Y20955D01*
X518781Y20995D01*
X518906Y21039D01*
X519030Y21087D01*
X519152Y21138D01*
X519273Y21193D01*
X519392Y21251D01*
X519510Y21313D01*
X519625Y21378D01*
X519739Y21447D01*
X519850Y21518D01*
X519959Y21594D01*
X520066Y21672D01*
X520171Y21753D01*
X520273Y21838D01*
X520373Y21925D01*
X520470Y22015D01*
X520565Y22108D01*
X520656Y22204D01*
X520745Y22302D01*
X520831Y22403D01*
X520914Y22507D01*
X520994Y22613D01*
X521070Y22721D01*
X521144Y22831D01*
X521214Y22944D01*
X521281Y23058D01*
X521344Y23175D01*
X521404Y23293D01*
X521461Y23413D01*
X521514Y23535D01*
X521563Y23658D01*
X521609Y23782D01*
X521651Y23908D01*
X521689Y24035D01*
X521724Y24163D01*
X521755Y24292D01*
X521782Y24421D01*
X521805Y24552D01*
X521825Y24683D01*
X521840Y24815D01*
X521852Y24947D01*
X521860Y25079D01*
X521864Y25212D01*
X521864Y25344D01*
X521860Y25477D01*
X521852Y25609D01*
X521840Y25741D01*
X521825Y25873D01*
X521805Y26004D01*
X521782Y26135D01*
X521755Y26264D01*
X521724Y26393D01*
X521689Y26521D01*
X521651Y26648D01*
X521609Y26774D01*
X521563Y26898D01*
X521514Y27021D01*
X521461Y27143D01*
X521404Y27263D01*
X521344Y27381D01*
X521281Y27498D01*
X521214Y27612D01*
X521144Y27725D01*
X521070Y27835D01*
X520994Y27943D01*
X520914Y28049D01*
X520831Y28153D01*
X520745Y28254D01*
X520656Y28352D01*
X520565Y28448D01*
X520470Y28541D01*
X520373Y28631D01*
X520273Y28718D01*
X520171Y28803D01*
X520066Y28884D01*
X519959Y28962D01*
X519850Y29038D01*
X519739Y29109D01*
X519625Y29178D01*
X519510Y29243D01*
X519392Y29305D01*
X519273Y29363D01*
X519152Y29418D01*
X519030Y29469D01*
X518906Y29517D01*
X518781Y29561D01*
X518655Y29601D01*
X518527Y29637D01*
X518399Y29670D01*
X518270Y29699D01*
X518139Y29724D01*
X518009Y29745D01*
X517877Y29763D01*
X517745Y29776D01*
X517613Y29786D01*
X517481Y29792D01*
X517348Y29794D01*
X518251Y37018D02*
X512833Y37018D01*
X518251Y37018D02*
X518370Y37016D01*
X518490Y37010D01*
X518609Y37000D01*
X518727Y36986D01*
X518846Y36969D01*
X518963Y36947D01*
X519080Y36922D01*
X519195Y36892D01*
X519310Y36859D01*
X519424Y36822D01*
X519536Y36782D01*
X519647Y36737D01*
X519756Y36689D01*
X519864Y36638D01*
X519970Y36583D01*
X520074Y36524D01*
X520176Y36462D01*
X520276Y36397D01*
X520374Y36328D01*
X520470Y36256D01*
X520563Y36181D01*
X520653Y36104D01*
X520741Y36023D01*
X520826Y35939D01*
X520908Y35852D01*
X520988Y35763D01*
X521064Y35671D01*
X521138Y35577D01*
X521208Y35480D01*
X521275Y35382D01*
X521339Y35281D01*
X521399Y35177D01*
X521456Y35072D01*
X521509Y34965D01*
X521559Y34857D01*
X521605Y34747D01*
X521647Y34635D01*
X521686Y34522D01*
X521721Y34408D01*
X521752Y34293D01*
X521780Y34176D01*
X521803Y34059D01*
X521823Y33942D01*
X521839Y33823D01*
X521851Y33704D01*
X521859Y33585D01*
X521863Y33466D01*
X521863Y33346D01*
X521859Y33227D01*
X521851Y33108D01*
X521839Y32989D01*
X521823Y32870D01*
X521803Y32753D01*
X521780Y32636D01*
X521752Y32519D01*
X521721Y32404D01*
X521686Y32290D01*
X521647Y32177D01*
X521605Y32065D01*
X521559Y31955D01*
X521509Y31847D01*
X521456Y31740D01*
X521399Y31635D01*
X521339Y31531D01*
X521275Y31430D01*
X521208Y31332D01*
X521138Y31235D01*
X521064Y31141D01*
X520988Y31049D01*
X520908Y30960D01*
X520826Y30873D01*
X520741Y30789D01*
X520653Y30708D01*
X520563Y30631D01*
X520470Y30556D01*
X520374Y30484D01*
X520276Y30415D01*
X520176Y30350D01*
X520074Y30288D01*
X519970Y30229D01*
X519864Y30174D01*
X519756Y30123D01*
X519647Y30075D01*
X519536Y30030D01*
X519424Y29990D01*
X519310Y29953D01*
X519195Y29920D01*
X519080Y29890D01*
X518963Y29865D01*
X518846Y29843D01*
X518727Y29826D01*
X518609Y29812D01*
X518490Y29802D01*
X518370Y29796D01*
X518251Y29794D01*
X518251Y29793D02*
X514639Y29793D01*
X528464Y28890D02*
X528468Y29210D01*
X528479Y29529D01*
X528498Y29849D01*
X528525Y30167D01*
X528559Y30485D01*
X528601Y30802D01*
X528651Y31118D01*
X528708Y31433D01*
X528772Y31746D01*
X528844Y32058D01*
X528923Y32368D01*
X529010Y32675D01*
X529104Y32981D01*
X529205Y33284D01*
X529314Y33585D01*
X529429Y33883D01*
X529552Y34179D01*
X529682Y34471D01*
X529819Y34760D01*
X529819Y34761D02*
X529858Y34869D01*
X529901Y34976D01*
X529947Y35081D01*
X529998Y35185D01*
X530051Y35287D01*
X530108Y35387D01*
X530169Y35485D01*
X530233Y35580D01*
X530300Y35674D01*
X530371Y35765D01*
X530444Y35854D01*
X530521Y35940D01*
X530600Y36023D01*
X530682Y36104D01*
X530767Y36182D01*
X530855Y36256D01*
X530945Y36328D01*
X531037Y36396D01*
X531132Y36462D01*
X531229Y36524D01*
X531328Y36582D01*
X531430Y36638D01*
X531532Y36689D01*
X531637Y36737D01*
X531743Y36782D01*
X531851Y36823D01*
X531960Y36860D01*
X532070Y36893D01*
X532182Y36922D01*
X532294Y36948D01*
X532407Y36970D01*
X532521Y36987D01*
X532635Y37001D01*
X532750Y37011D01*
X532865Y37017D01*
X532980Y37019D01*
X532980Y37018D02*
X533095Y37016D01*
X533210Y37010D01*
X533325Y37000D01*
X533439Y36986D01*
X533553Y36969D01*
X533666Y36947D01*
X533778Y36921D01*
X533890Y36892D01*
X534000Y36859D01*
X534109Y36822D01*
X534217Y36781D01*
X534323Y36736D01*
X534428Y36688D01*
X534530Y36637D01*
X534631Y36581D01*
X534731Y36523D01*
X534828Y36461D01*
X534922Y36396D01*
X535015Y36327D01*
X535105Y36255D01*
X535193Y36181D01*
X535278Y36103D01*
X535360Y36022D01*
X535439Y35939D01*
X535516Y35853D01*
X535589Y35764D01*
X535660Y35673D01*
X535727Y35579D01*
X535791Y35484D01*
X535852Y35386D01*
X535909Y35286D01*
X535962Y35184D01*
X536013Y35080D01*
X536059Y34975D01*
X536102Y34868D01*
X536141Y34760D01*
X536140Y34760D02*
X536277Y34471D01*
X536407Y34179D01*
X536530Y33883D01*
X536645Y33585D01*
X536754Y33284D01*
X536855Y32981D01*
X536949Y32675D01*
X537036Y32368D01*
X537115Y32058D01*
X537187Y31746D01*
X537251Y31433D01*
X537308Y31118D01*
X537358Y30802D01*
X537400Y30485D01*
X537434Y30167D01*
X537461Y29849D01*
X537480Y29529D01*
X537491Y29210D01*
X537495Y28890D01*
X528464Y28890D02*
X528468Y28570D01*
X528479Y28251D01*
X528498Y27931D01*
X528525Y27613D01*
X528559Y27295D01*
X528601Y26978D01*
X528651Y26662D01*
X528708Y26347D01*
X528772Y26034D01*
X528844Y25722D01*
X528923Y25412D01*
X529010Y25105D01*
X529104Y24799D01*
X529205Y24496D01*
X529314Y24195D01*
X529429Y23897D01*
X529552Y23601D01*
X529682Y23309D01*
X529819Y23020D01*
X529858Y22912D01*
X529901Y22805D01*
X529947Y22700D01*
X529998Y22596D01*
X530051Y22494D01*
X530108Y22394D01*
X530169Y22296D01*
X530233Y22201D01*
X530300Y22107D01*
X530371Y22016D01*
X530444Y21927D01*
X530521Y21841D01*
X530600Y21758D01*
X530682Y21677D01*
X530767Y21599D01*
X530855Y21525D01*
X530945Y21453D01*
X531038Y21384D01*
X531132Y21319D01*
X531229Y21257D01*
X531329Y21199D01*
X531430Y21143D01*
X531532Y21092D01*
X531637Y21044D01*
X531743Y20999D01*
X531851Y20958D01*
X531960Y20921D01*
X532070Y20888D01*
X532182Y20859D01*
X532294Y20833D01*
X532407Y20811D01*
X532521Y20794D01*
X532635Y20780D01*
X532750Y20770D01*
X532865Y20764D01*
X532980Y20762D01*
X536140Y23020D02*
X536277Y23309D01*
X536407Y23601D01*
X536530Y23897D01*
X536645Y24195D01*
X536754Y24496D01*
X536855Y24799D01*
X536949Y25105D01*
X537036Y25412D01*
X537115Y25722D01*
X537187Y26034D01*
X537251Y26347D01*
X537308Y26662D01*
X537358Y26978D01*
X537400Y27295D01*
X537434Y27613D01*
X537461Y27931D01*
X537480Y28251D01*
X537491Y28570D01*
X537495Y28890D01*
X536141Y23020D02*
X536102Y22912D01*
X536059Y22805D01*
X536013Y22700D01*
X535962Y22596D01*
X535909Y22494D01*
X535852Y22394D01*
X535791Y22296D01*
X535727Y22201D01*
X535660Y22107D01*
X535589Y22016D01*
X535516Y21927D01*
X535439Y21841D01*
X535360Y21758D01*
X535278Y21677D01*
X535193Y21599D01*
X535105Y21525D01*
X535015Y21453D01*
X534922Y21384D01*
X534828Y21319D01*
X534731Y21257D01*
X534631Y21199D01*
X534530Y21143D01*
X534427Y21092D01*
X534323Y21044D01*
X534217Y20999D01*
X534109Y20958D01*
X534000Y20921D01*
X533890Y20888D01*
X533778Y20859D01*
X533666Y20833D01*
X533553Y20811D01*
X533439Y20794D01*
X533325Y20780D01*
X533210Y20770D01*
X533095Y20764D01*
X532980Y20762D01*
X529367Y24374D02*
X536592Y33406D01*
X544477Y31599D02*
X544477Y20762D01*
X544477Y31599D02*
X548993Y31599D01*
X549097Y31597D01*
X549200Y31591D01*
X549304Y31581D01*
X549407Y31567D01*
X549509Y31549D01*
X549610Y31528D01*
X549711Y31502D01*
X549810Y31473D01*
X549909Y31440D01*
X550006Y31403D01*
X550101Y31362D01*
X550195Y31318D01*
X550287Y31270D01*
X550377Y31219D01*
X550466Y31164D01*
X550552Y31106D01*
X550635Y31044D01*
X550717Y30980D01*
X550795Y30912D01*
X550871Y30842D01*
X550945Y30769D01*
X551015Y30692D01*
X551083Y30614D01*
X551147Y30532D01*
X551209Y30449D01*
X551267Y30363D01*
X551322Y30274D01*
X551373Y30184D01*
X551421Y30092D01*
X551465Y29998D01*
X551506Y29903D01*
X551543Y29806D01*
X551576Y29707D01*
X551605Y29608D01*
X551631Y29507D01*
X551652Y29406D01*
X551670Y29304D01*
X551684Y29201D01*
X551694Y29097D01*
X551700Y28994D01*
X551702Y28890D01*
X551702Y20762D01*
X559344Y20762D02*
X559344Y31599D01*
X567472Y31599D01*
X567573Y31597D01*
X567674Y31591D01*
X567775Y31582D01*
X567876Y31569D01*
X567976Y31552D01*
X568075Y31531D01*
X568173Y31507D01*
X568270Y31479D01*
X568367Y31447D01*
X568462Y31412D01*
X568555Y31373D01*
X568647Y31331D01*
X568738Y31285D01*
X568827Y31236D01*
X568913Y31184D01*
X568998Y31128D01*
X569081Y31070D01*
X569161Y31008D01*
X569239Y30943D01*
X569315Y30876D01*
X569388Y30806D01*
X569458Y30733D01*
X569525Y30657D01*
X569590Y30579D01*
X569652Y30499D01*
X569710Y30416D01*
X569766Y30331D01*
X569818Y30245D01*
X569867Y30156D01*
X569913Y30065D01*
X569955Y29973D01*
X569994Y29880D01*
X570029Y29785D01*
X570061Y29688D01*
X570089Y29591D01*
X570113Y29493D01*
X570134Y29394D01*
X570151Y29294D01*
X570164Y29193D01*
X570173Y29092D01*
X570179Y28991D01*
X570181Y28890D01*
X570182Y28890D02*
X570182Y20762D01*
X564763Y20762D02*
X564763Y31599D01*
X584342Y31599D02*
X589761Y31599D01*
X586148Y37018D02*
X586148Y23471D01*
X586149Y23471D02*
X586151Y23370D01*
X586157Y23269D01*
X586166Y23168D01*
X586179Y23067D01*
X586196Y22967D01*
X586217Y22868D01*
X586241Y22770D01*
X586269Y22673D01*
X586301Y22576D01*
X586336Y22481D01*
X586375Y22388D01*
X586417Y22296D01*
X586463Y22205D01*
X586512Y22116D01*
X586564Y22030D01*
X586620Y21945D01*
X586678Y21862D01*
X586740Y21782D01*
X586805Y21704D01*
X586872Y21628D01*
X586942Y21555D01*
X587015Y21485D01*
X587091Y21418D01*
X587169Y21353D01*
X587249Y21291D01*
X587332Y21233D01*
X587417Y21177D01*
X587504Y21125D01*
X587592Y21076D01*
X587683Y21030D01*
X587775Y20988D01*
X587868Y20949D01*
X587963Y20914D01*
X588060Y20882D01*
X588157Y20854D01*
X588255Y20830D01*
X588354Y20809D01*
X588454Y20792D01*
X588555Y20779D01*
X588656Y20770D01*
X588757Y20764D01*
X588858Y20762D01*
X589761Y20762D01*
X598249Y20762D02*
X602764Y20762D01*
X598249Y20762D02*
X598148Y20764D01*
X598047Y20770D01*
X597946Y20779D01*
X597845Y20792D01*
X597745Y20809D01*
X597646Y20830D01*
X597548Y20854D01*
X597451Y20882D01*
X597354Y20914D01*
X597259Y20949D01*
X597166Y20988D01*
X597074Y21030D01*
X596983Y21076D01*
X596895Y21125D01*
X596808Y21177D01*
X596723Y21233D01*
X596640Y21291D01*
X596560Y21353D01*
X596482Y21418D01*
X596406Y21485D01*
X596333Y21555D01*
X596263Y21628D01*
X596196Y21704D01*
X596131Y21782D01*
X596069Y21862D01*
X596011Y21945D01*
X595955Y22030D01*
X595903Y22116D01*
X595854Y22205D01*
X595808Y22296D01*
X595766Y22388D01*
X595727Y22481D01*
X595692Y22576D01*
X595660Y22673D01*
X595632Y22770D01*
X595608Y22868D01*
X595587Y22967D01*
X595570Y23067D01*
X595557Y23168D01*
X595548Y23269D01*
X595542Y23370D01*
X595540Y23471D01*
X595539Y23471D02*
X595539Y27987D01*
X595540Y27987D02*
X595542Y28106D01*
X595548Y28226D01*
X595558Y28345D01*
X595572Y28463D01*
X595589Y28582D01*
X595611Y28699D01*
X595636Y28816D01*
X595666Y28931D01*
X595699Y29046D01*
X595736Y29160D01*
X595776Y29272D01*
X595821Y29383D01*
X595869Y29492D01*
X595920Y29600D01*
X595975Y29706D01*
X596034Y29810D01*
X596096Y29912D01*
X596161Y30012D01*
X596230Y30110D01*
X596302Y30206D01*
X596377Y30299D01*
X596454Y30389D01*
X596535Y30477D01*
X596619Y30562D01*
X596706Y30644D01*
X596795Y30724D01*
X596887Y30800D01*
X596981Y30874D01*
X597078Y30944D01*
X597176Y31011D01*
X597277Y31075D01*
X597381Y31135D01*
X597486Y31192D01*
X597593Y31245D01*
X597701Y31295D01*
X597811Y31341D01*
X597923Y31383D01*
X598036Y31422D01*
X598150Y31457D01*
X598265Y31488D01*
X598382Y31516D01*
X598499Y31539D01*
X598616Y31559D01*
X598735Y31575D01*
X598854Y31587D01*
X598973Y31595D01*
X599092Y31599D01*
X599212Y31599D01*
X599331Y31595D01*
X599450Y31587D01*
X599569Y31575D01*
X599688Y31559D01*
X599805Y31539D01*
X599922Y31516D01*
X600039Y31488D01*
X600154Y31457D01*
X600268Y31422D01*
X600381Y31383D01*
X600493Y31341D01*
X600603Y31295D01*
X600711Y31245D01*
X600818Y31192D01*
X600923Y31135D01*
X601027Y31075D01*
X601128Y31011D01*
X601226Y30944D01*
X601323Y30874D01*
X601417Y30800D01*
X601509Y30724D01*
X601598Y30644D01*
X601685Y30562D01*
X601769Y30477D01*
X601850Y30389D01*
X601927Y30299D01*
X602002Y30206D01*
X602074Y30110D01*
X602143Y30012D01*
X602208Y29912D01*
X602270Y29810D01*
X602329Y29706D01*
X602384Y29600D01*
X602435Y29492D01*
X602483Y29383D01*
X602528Y29272D01*
X602568Y29160D01*
X602605Y29046D01*
X602638Y28931D01*
X602668Y28816D01*
X602693Y28699D01*
X602715Y28582D01*
X602732Y28463D01*
X602746Y28345D01*
X602756Y28226D01*
X602762Y28106D01*
X602764Y27987D01*
X602764Y26181D01*
X595539Y26181D01*
X610441Y27084D02*
X614957Y25278D01*
X610441Y27084D02*
X610353Y27121D01*
X610267Y27162D01*
X610182Y27206D01*
X610099Y27254D01*
X610019Y27305D01*
X609940Y27359D01*
X609864Y27417D01*
X609790Y27477D01*
X609718Y27541D01*
X609650Y27607D01*
X609584Y27677D01*
X609521Y27748D01*
X609460Y27823D01*
X609403Y27899D01*
X609350Y27978D01*
X609299Y28059D01*
X609252Y28142D01*
X609208Y28227D01*
X609168Y28314D01*
X609131Y28402D01*
X609098Y28492D01*
X609068Y28583D01*
X609043Y28675D01*
X609021Y28768D01*
X609003Y28862D01*
X608988Y28956D01*
X608978Y29051D01*
X608972Y29147D01*
X608969Y29242D01*
X608970Y29338D01*
X608976Y29433D01*
X608985Y29529D01*
X608998Y29623D01*
X609014Y29717D01*
X609035Y29811D01*
X609060Y29903D01*
X609088Y29994D01*
X609120Y30084D01*
X609155Y30173D01*
X609194Y30260D01*
X609237Y30346D01*
X609283Y30430D01*
X609333Y30511D01*
X609385Y30591D01*
X609441Y30669D01*
X609501Y30744D01*
X609563Y30816D01*
X609628Y30886D01*
X609696Y30954D01*
X609766Y31018D01*
X609839Y31080D01*
X609915Y31138D01*
X609993Y31194D01*
X610073Y31246D01*
X610155Y31295D01*
X610239Y31340D01*
X610325Y31382D01*
X610412Y31421D01*
X610501Y31456D01*
X610592Y31487D01*
X610683Y31514D01*
X610776Y31538D01*
X610869Y31558D01*
X610963Y31574D01*
X611058Y31586D01*
X611153Y31595D01*
X611249Y31599D01*
X611344Y31600D01*
X611591Y31593D01*
X611837Y31581D01*
X612083Y31563D01*
X612329Y31538D01*
X612573Y31508D01*
X612817Y31472D01*
X613060Y31431D01*
X613302Y31383D01*
X613543Y31329D01*
X613782Y31270D01*
X614020Y31205D01*
X614256Y31134D01*
X614491Y31058D01*
X614724Y30976D01*
X614954Y30888D01*
X615182Y30795D01*
X615409Y30697D01*
X614957Y25277D02*
X615045Y25240D01*
X615131Y25199D01*
X615216Y25155D01*
X615299Y25107D01*
X615379Y25056D01*
X615458Y25002D01*
X615534Y24944D01*
X615608Y24884D01*
X615680Y24820D01*
X615748Y24754D01*
X615814Y24684D01*
X615877Y24613D01*
X615938Y24538D01*
X615995Y24462D01*
X616048Y24383D01*
X616099Y24302D01*
X616146Y24219D01*
X616190Y24134D01*
X616230Y24047D01*
X616267Y23959D01*
X616300Y23869D01*
X616330Y23778D01*
X616355Y23686D01*
X616377Y23593D01*
X616395Y23499D01*
X616410Y23405D01*
X616420Y23310D01*
X616426Y23214D01*
X616429Y23119D01*
X616428Y23023D01*
X616422Y22928D01*
X616413Y22832D01*
X616400Y22738D01*
X616384Y22644D01*
X616363Y22550D01*
X616338Y22458D01*
X616310Y22367D01*
X616278Y22277D01*
X616243Y22188D01*
X616204Y22101D01*
X616161Y22015D01*
X616115Y21931D01*
X616065Y21850D01*
X616013Y21770D01*
X615957Y21692D01*
X615897Y21617D01*
X615835Y21545D01*
X615770Y21475D01*
X615702Y21407D01*
X615632Y21343D01*
X615559Y21281D01*
X615483Y21223D01*
X615405Y21167D01*
X615325Y21115D01*
X615243Y21066D01*
X615159Y21021D01*
X615073Y20979D01*
X614986Y20940D01*
X614897Y20905D01*
X614806Y20874D01*
X614715Y20847D01*
X614622Y20823D01*
X614529Y20803D01*
X614435Y20787D01*
X614340Y20775D01*
X614245Y20766D01*
X614149Y20762D01*
X614054Y20761D01*
X614053Y20762D02*
X613691Y20771D01*
X613329Y20789D01*
X612968Y20816D01*
X612608Y20851D01*
X612248Y20894D01*
X611889Y20946D01*
X611532Y21007D01*
X611177Y21076D01*
X610823Y21153D01*
X610471Y21239D01*
X610121Y21333D01*
X609773Y21436D01*
X609428Y21546D01*
X609086Y21665D01*
X621336Y31599D02*
X626755Y31599D01*
X623142Y37018D02*
X623142Y23471D01*
X623143Y23471D02*
X623145Y23370D01*
X623151Y23269D01*
X623160Y23168D01*
X623173Y23067D01*
X623190Y22967D01*
X623211Y22868D01*
X623235Y22770D01*
X623263Y22673D01*
X623295Y22576D01*
X623330Y22481D01*
X623369Y22388D01*
X623411Y22296D01*
X623457Y22205D01*
X623506Y22116D01*
X623558Y22030D01*
X623614Y21945D01*
X623672Y21862D01*
X623734Y21782D01*
X623799Y21704D01*
X623866Y21628D01*
X623936Y21555D01*
X624009Y21485D01*
X624085Y21418D01*
X624163Y21353D01*
X624243Y21291D01*
X624326Y21233D01*
X624411Y21177D01*
X624498Y21125D01*
X624586Y21076D01*
X624677Y21030D01*
X624769Y20988D01*
X624862Y20949D01*
X624957Y20914D01*
X625054Y20882D01*
X625151Y20854D01*
X625249Y20830D01*
X625348Y20809D01*
X625448Y20792D01*
X625549Y20779D01*
X625650Y20770D01*
X625751Y20764D01*
X625852Y20762D01*
X626755Y20762D01*
X633127Y20762D02*
X633127Y37018D01*
X633127Y20762D02*
X637643Y20762D01*
X637747Y20764D01*
X637850Y20770D01*
X637954Y20780D01*
X638057Y20794D01*
X638159Y20812D01*
X638260Y20833D01*
X638361Y20859D01*
X638460Y20888D01*
X638559Y20921D01*
X638656Y20958D01*
X638751Y20999D01*
X638845Y21043D01*
X638937Y21091D01*
X639027Y21142D01*
X639116Y21197D01*
X639202Y21255D01*
X639285Y21317D01*
X639367Y21381D01*
X639445Y21449D01*
X639521Y21519D01*
X639595Y21592D01*
X639665Y21669D01*
X639733Y21747D01*
X639797Y21829D01*
X639859Y21912D01*
X639917Y21998D01*
X639972Y22087D01*
X640023Y22177D01*
X640071Y22269D01*
X640115Y22363D01*
X640156Y22458D01*
X640193Y22555D01*
X640226Y22654D01*
X640255Y22753D01*
X640281Y22854D01*
X640302Y22955D01*
X640320Y23057D01*
X640334Y23160D01*
X640344Y23264D01*
X640350Y23367D01*
X640352Y23471D01*
X640352Y28890D01*
X640350Y28991D01*
X640344Y29092D01*
X640335Y29193D01*
X640322Y29294D01*
X640305Y29394D01*
X640284Y29493D01*
X640260Y29591D01*
X640232Y29688D01*
X640200Y29785D01*
X640165Y29880D01*
X640126Y29973D01*
X640084Y30065D01*
X640038Y30156D01*
X639989Y30245D01*
X639937Y30331D01*
X639881Y30416D01*
X639823Y30499D01*
X639761Y30579D01*
X639696Y30657D01*
X639629Y30733D01*
X639559Y30806D01*
X639486Y30876D01*
X639410Y30943D01*
X639332Y31008D01*
X639252Y31070D01*
X639169Y31128D01*
X639084Y31184D01*
X638998Y31236D01*
X638909Y31285D01*
X638818Y31331D01*
X638726Y31373D01*
X638633Y31412D01*
X638538Y31447D01*
X638441Y31479D01*
X638344Y31507D01*
X638246Y31531D01*
X638147Y31552D01*
X638047Y31569D01*
X637946Y31582D01*
X637845Y31591D01*
X637744Y31597D01*
X637643Y31599D01*
X633127Y31599D01*
X649311Y20762D02*
X653826Y20762D01*
X649311Y20762D02*
X649210Y20764D01*
X649109Y20770D01*
X649008Y20779D01*
X648907Y20792D01*
X648807Y20809D01*
X648708Y20830D01*
X648610Y20854D01*
X648513Y20882D01*
X648416Y20914D01*
X648321Y20949D01*
X648228Y20988D01*
X648136Y21030D01*
X648045Y21076D01*
X647957Y21125D01*
X647870Y21177D01*
X647785Y21233D01*
X647702Y21291D01*
X647622Y21353D01*
X647544Y21418D01*
X647468Y21485D01*
X647395Y21555D01*
X647325Y21628D01*
X647258Y21704D01*
X647193Y21782D01*
X647131Y21862D01*
X647073Y21945D01*
X647017Y22030D01*
X646965Y22116D01*
X646916Y22205D01*
X646870Y22296D01*
X646828Y22388D01*
X646789Y22481D01*
X646754Y22576D01*
X646722Y22673D01*
X646694Y22770D01*
X646670Y22868D01*
X646649Y22967D01*
X646632Y23067D01*
X646619Y23168D01*
X646610Y23269D01*
X646604Y23370D01*
X646602Y23471D01*
X646601Y23471D02*
X646601Y27987D01*
X646602Y27987D02*
X646604Y28106D01*
X646610Y28226D01*
X646620Y28345D01*
X646634Y28463D01*
X646651Y28582D01*
X646673Y28699D01*
X646698Y28816D01*
X646728Y28931D01*
X646761Y29046D01*
X646798Y29160D01*
X646838Y29272D01*
X646883Y29383D01*
X646931Y29492D01*
X646982Y29600D01*
X647037Y29706D01*
X647096Y29810D01*
X647158Y29912D01*
X647223Y30012D01*
X647292Y30110D01*
X647364Y30206D01*
X647439Y30299D01*
X647516Y30389D01*
X647597Y30477D01*
X647681Y30562D01*
X647768Y30644D01*
X647857Y30724D01*
X647949Y30800D01*
X648043Y30874D01*
X648140Y30944D01*
X648238Y31011D01*
X648339Y31075D01*
X648443Y31135D01*
X648548Y31192D01*
X648655Y31245D01*
X648763Y31295D01*
X648873Y31341D01*
X648985Y31383D01*
X649098Y31422D01*
X649212Y31457D01*
X649327Y31488D01*
X649444Y31516D01*
X649561Y31539D01*
X649678Y31559D01*
X649797Y31575D01*
X649916Y31587D01*
X650035Y31595D01*
X650154Y31599D01*
X650274Y31599D01*
X650393Y31595D01*
X650512Y31587D01*
X650631Y31575D01*
X650750Y31559D01*
X650867Y31539D01*
X650984Y31516D01*
X651101Y31488D01*
X651216Y31457D01*
X651330Y31422D01*
X651443Y31383D01*
X651555Y31341D01*
X651665Y31295D01*
X651773Y31245D01*
X651880Y31192D01*
X651985Y31135D01*
X652089Y31075D01*
X652190Y31011D01*
X652288Y30944D01*
X652385Y30874D01*
X652479Y30800D01*
X652571Y30724D01*
X652660Y30644D01*
X652747Y30562D01*
X652831Y30477D01*
X652912Y30389D01*
X652989Y30299D01*
X653064Y30206D01*
X653136Y30110D01*
X653205Y30012D01*
X653270Y29912D01*
X653332Y29810D01*
X653391Y29706D01*
X653446Y29600D01*
X653497Y29492D01*
X653545Y29383D01*
X653590Y29272D01*
X653630Y29160D01*
X653667Y29046D01*
X653700Y28931D01*
X653730Y28816D01*
X653755Y28699D01*
X653777Y28582D01*
X653794Y28463D01*
X653808Y28345D01*
X653818Y28226D01*
X653824Y28106D01*
X653826Y27987D01*
X653826Y26181D01*
X646601Y26181D01*
X667300Y20762D02*
X667300Y37018D01*
X667300Y20762D02*
X662784Y20762D01*
X662683Y20764D01*
X662582Y20770D01*
X662481Y20779D01*
X662380Y20792D01*
X662280Y20809D01*
X662181Y20830D01*
X662083Y20854D01*
X661986Y20882D01*
X661889Y20914D01*
X661794Y20949D01*
X661701Y20988D01*
X661609Y21030D01*
X661518Y21076D01*
X661430Y21125D01*
X661343Y21177D01*
X661258Y21233D01*
X661175Y21291D01*
X661095Y21353D01*
X661017Y21418D01*
X660941Y21485D01*
X660868Y21555D01*
X660798Y21628D01*
X660731Y21704D01*
X660666Y21782D01*
X660604Y21862D01*
X660546Y21945D01*
X660490Y22030D01*
X660438Y22116D01*
X660389Y22205D01*
X660343Y22296D01*
X660301Y22388D01*
X660262Y22481D01*
X660227Y22576D01*
X660195Y22673D01*
X660167Y22770D01*
X660143Y22868D01*
X660122Y22967D01*
X660105Y23067D01*
X660092Y23168D01*
X660083Y23269D01*
X660077Y23370D01*
X660075Y23471D01*
X660075Y28890D01*
X660077Y28991D01*
X660083Y29092D01*
X660092Y29193D01*
X660105Y29294D01*
X660122Y29394D01*
X660143Y29493D01*
X660167Y29591D01*
X660195Y29688D01*
X660227Y29785D01*
X660262Y29880D01*
X660301Y29973D01*
X660343Y30065D01*
X660389Y30156D01*
X660438Y30244D01*
X660490Y30331D01*
X660546Y30416D01*
X660604Y30499D01*
X660666Y30579D01*
X660731Y30657D01*
X660798Y30733D01*
X660868Y30806D01*
X660941Y30876D01*
X661017Y30943D01*
X661095Y31008D01*
X661175Y31070D01*
X661258Y31128D01*
X661343Y31184D01*
X661430Y31236D01*
X661518Y31285D01*
X661609Y31331D01*
X661701Y31373D01*
X661794Y31412D01*
X661889Y31447D01*
X661986Y31479D01*
X662083Y31507D01*
X662181Y31531D01*
X662280Y31552D01*
X662380Y31569D01*
X662481Y31582D01*
X662582Y31591D01*
X662683Y31597D01*
X662784Y31599D01*
X667300Y31599D01*
X681789Y37018D02*
X687208Y20762D01*
X692626Y37018D01*
X698323Y33406D02*
X702839Y37018D01*
X702839Y20762D01*
X707354Y20762D02*
X698323Y20762D01*
X713329Y20762D02*
X713329Y21665D01*
X714232Y21665D01*
X714232Y20762D01*
X713329Y20762D01*
X720207Y33406D02*
X724722Y37018D01*
X724722Y20762D01*
X720207Y20762D02*
X729238Y20762D01*
D11*
X631452Y17279D02*
X631452Y7881D01*
X631452Y17279D02*
X635629Y17279D01*
X635629Y13102D02*
X631452Y13102D01*
X640533Y7881D02*
X643144Y7881D01*
X640533Y7881D02*
X640456Y7883D01*
X640380Y7889D01*
X640303Y7898D01*
X640227Y7911D01*
X640152Y7928D01*
X640078Y7948D01*
X640005Y7973D01*
X639934Y8000D01*
X639863Y8031D01*
X639795Y8066D01*
X639728Y8104D01*
X639663Y8145D01*
X639600Y8189D01*
X639540Y8236D01*
X639481Y8287D01*
X639426Y8340D01*
X639373Y8395D01*
X639322Y8454D01*
X639275Y8514D01*
X639231Y8577D01*
X639190Y8642D01*
X639152Y8709D01*
X639117Y8777D01*
X639086Y8848D01*
X639059Y8919D01*
X639034Y8992D01*
X639014Y9066D01*
X638997Y9141D01*
X638984Y9217D01*
X638975Y9294D01*
X638969Y9370D01*
X638967Y9447D01*
X638967Y12058D01*
X638969Y12148D01*
X638975Y12237D01*
X638984Y12327D01*
X638998Y12416D01*
X639015Y12504D01*
X639036Y12591D01*
X639061Y12678D01*
X639090Y12763D01*
X639122Y12847D01*
X639157Y12929D01*
X639197Y13010D01*
X639239Y13089D01*
X639285Y13166D01*
X639335Y13241D01*
X639387Y13314D01*
X639443Y13385D01*
X639501Y13453D01*
X639563Y13518D01*
X639627Y13581D01*
X639694Y13641D01*
X639763Y13698D01*
X639835Y13752D01*
X639909Y13803D01*
X639985Y13851D01*
X640063Y13895D01*
X640143Y13936D01*
X640225Y13974D01*
X640308Y14008D01*
X640393Y14038D01*
X640479Y14065D01*
X640565Y14088D01*
X640653Y14107D01*
X640742Y14122D01*
X640831Y14134D01*
X640920Y14142D01*
X641010Y14146D01*
X641100Y14146D01*
X641190Y14142D01*
X641279Y14134D01*
X641368Y14122D01*
X641457Y14107D01*
X641545Y14088D01*
X641631Y14065D01*
X641717Y14038D01*
X641802Y14008D01*
X641885Y13974D01*
X641967Y13936D01*
X642047Y13895D01*
X642125Y13851D01*
X642201Y13803D01*
X642275Y13752D01*
X642347Y13698D01*
X642416Y13641D01*
X642483Y13581D01*
X642547Y13518D01*
X642609Y13453D01*
X642667Y13385D01*
X642723Y13314D01*
X642775Y13241D01*
X642825Y13166D01*
X642871Y13089D01*
X642913Y13010D01*
X642953Y12929D01*
X642988Y12847D01*
X643020Y12763D01*
X643049Y12678D01*
X643074Y12591D01*
X643095Y12504D01*
X643112Y12416D01*
X643126Y12327D01*
X643135Y12237D01*
X643141Y12148D01*
X643143Y12058D01*
X643144Y12058D02*
X643144Y11014D01*
X638967Y11014D01*
X647242Y7881D02*
X647242Y17279D01*
X647242Y7881D02*
X649853Y7881D01*
X649930Y7883D01*
X650006Y7889D01*
X650083Y7898D01*
X650159Y7911D01*
X650234Y7928D01*
X650308Y7948D01*
X650381Y7973D01*
X650452Y8000D01*
X650523Y8031D01*
X650591Y8066D01*
X650658Y8104D01*
X650723Y8145D01*
X650786Y8189D01*
X650846Y8236D01*
X650905Y8287D01*
X650960Y8340D01*
X651013Y8395D01*
X651064Y8454D01*
X651111Y8514D01*
X651155Y8577D01*
X651196Y8642D01*
X651234Y8709D01*
X651269Y8777D01*
X651300Y8848D01*
X651327Y8919D01*
X651352Y8992D01*
X651372Y9066D01*
X651389Y9141D01*
X651402Y9217D01*
X651411Y9293D01*
X651417Y9370D01*
X651419Y9447D01*
X651419Y12580D01*
X651417Y12657D01*
X651411Y12733D01*
X651402Y12810D01*
X651389Y12886D01*
X651372Y12961D01*
X651352Y13035D01*
X651327Y13108D01*
X651300Y13179D01*
X651269Y13250D01*
X651234Y13318D01*
X651196Y13385D01*
X651155Y13450D01*
X651111Y13513D01*
X651064Y13573D01*
X651013Y13632D01*
X650960Y13687D01*
X650905Y13740D01*
X650846Y13791D01*
X650786Y13838D01*
X650723Y13882D01*
X650658Y13923D01*
X650591Y13961D01*
X650523Y13996D01*
X650452Y14027D01*
X650381Y14054D01*
X650308Y14079D01*
X650234Y14099D01*
X650159Y14116D01*
X650083Y14129D01*
X650006Y14138D01*
X649930Y14144D01*
X649853Y14146D01*
X647242Y14146D01*
X655477Y14146D02*
X655477Y7881D01*
X655477Y14146D02*
X658610Y14146D01*
X658610Y13102D01*
X661827Y14146D02*
X661827Y9447D01*
X661829Y9370D01*
X661835Y9294D01*
X661844Y9217D01*
X661857Y9141D01*
X661874Y9066D01*
X661894Y8992D01*
X661919Y8919D01*
X661946Y8848D01*
X661977Y8777D01*
X662012Y8709D01*
X662050Y8642D01*
X662091Y8577D01*
X662135Y8514D01*
X662182Y8454D01*
X662233Y8395D01*
X662286Y8340D01*
X662341Y8287D01*
X662400Y8236D01*
X662460Y8189D01*
X662523Y8145D01*
X662588Y8104D01*
X662655Y8066D01*
X662723Y8031D01*
X662794Y8000D01*
X662865Y7973D01*
X662938Y7948D01*
X663012Y7928D01*
X663087Y7911D01*
X663163Y7898D01*
X663240Y7889D01*
X663316Y7883D01*
X663393Y7881D01*
X666004Y7881D01*
X666004Y14146D01*
X671838Y11536D02*
X674188Y11536D01*
X671838Y11535D02*
X671754Y11533D01*
X671669Y11527D01*
X671586Y11517D01*
X671502Y11504D01*
X671420Y11486D01*
X671338Y11465D01*
X671257Y11440D01*
X671178Y11412D01*
X671100Y11379D01*
X671024Y11343D01*
X670949Y11304D01*
X670876Y11261D01*
X670805Y11215D01*
X670737Y11166D01*
X670671Y11114D01*
X670607Y11058D01*
X670546Y11000D01*
X670488Y10939D01*
X670432Y10875D01*
X670380Y10809D01*
X670331Y10741D01*
X670285Y10670D01*
X670242Y10597D01*
X670203Y10522D01*
X670167Y10446D01*
X670134Y10368D01*
X670106Y10289D01*
X670081Y10208D01*
X670060Y10126D01*
X670042Y10044D01*
X670029Y9960D01*
X670019Y9877D01*
X670013Y9792D01*
X670011Y9708D01*
X670013Y9624D01*
X670019Y9539D01*
X670029Y9456D01*
X670042Y9372D01*
X670060Y9290D01*
X670081Y9208D01*
X670106Y9127D01*
X670134Y9048D01*
X670167Y8970D01*
X670203Y8894D01*
X670242Y8819D01*
X670285Y8746D01*
X670331Y8675D01*
X670380Y8607D01*
X670432Y8541D01*
X670488Y8477D01*
X670546Y8416D01*
X670607Y8358D01*
X670671Y8302D01*
X670737Y8250D01*
X670805Y8201D01*
X670876Y8155D01*
X670949Y8112D01*
X671024Y8073D01*
X671100Y8037D01*
X671178Y8004D01*
X671257Y7976D01*
X671338Y7951D01*
X671420Y7930D01*
X671502Y7912D01*
X671586Y7899D01*
X671669Y7889D01*
X671754Y7883D01*
X671838Y7881D01*
X674188Y7881D01*
X674188Y12580D01*
X674187Y12580D02*
X674185Y12657D01*
X674179Y12733D01*
X674170Y12810D01*
X674157Y12886D01*
X674140Y12961D01*
X674120Y13035D01*
X674095Y13108D01*
X674068Y13179D01*
X674037Y13250D01*
X674002Y13318D01*
X673964Y13385D01*
X673923Y13450D01*
X673879Y13513D01*
X673832Y13573D01*
X673781Y13632D01*
X673728Y13687D01*
X673673Y13740D01*
X673614Y13791D01*
X673554Y13838D01*
X673491Y13882D01*
X673426Y13923D01*
X673359Y13961D01*
X673291Y13996D01*
X673220Y14027D01*
X673149Y14054D01*
X673076Y14079D01*
X673002Y14099D01*
X672927Y14116D01*
X672851Y14129D01*
X672774Y14138D01*
X672698Y14144D01*
X672621Y14146D01*
X670533Y14146D01*
X678642Y14146D02*
X678642Y7881D01*
X678642Y14146D02*
X681775Y14146D01*
X681775Y13102D01*
X684382Y4748D02*
X685426Y4748D01*
X688559Y14146D01*
X684382Y14146D02*
X686470Y7881D01*
X699838Y17280D02*
X699933Y17278D01*
X700027Y17272D01*
X700121Y17263D01*
X700215Y17250D01*
X700308Y17233D01*
X700400Y17212D01*
X700492Y17187D01*
X700582Y17159D01*
X700671Y17127D01*
X700759Y17092D01*
X700845Y17053D01*
X700930Y17011D01*
X701013Y16965D01*
X701094Y16916D01*
X701173Y16864D01*
X701250Y16809D01*
X701324Y16750D01*
X701396Y16689D01*
X701466Y16625D01*
X701533Y16558D01*
X701597Y16488D01*
X701658Y16416D01*
X701717Y16342D01*
X701772Y16265D01*
X701824Y16186D01*
X701873Y16105D01*
X701919Y16022D01*
X701961Y15937D01*
X702000Y15851D01*
X702035Y15763D01*
X702067Y15674D01*
X702095Y15584D01*
X702120Y15492D01*
X702141Y15400D01*
X702158Y15307D01*
X702171Y15213D01*
X702180Y15119D01*
X702186Y15025D01*
X702188Y14930D01*
X699838Y17279D02*
X699730Y17277D01*
X699621Y17271D01*
X699513Y17261D01*
X699406Y17248D01*
X699299Y17230D01*
X699192Y17209D01*
X699087Y17184D01*
X698982Y17155D01*
X698879Y17123D01*
X698777Y17086D01*
X698676Y17046D01*
X698577Y17003D01*
X698479Y16956D01*
X698383Y16905D01*
X698289Y16851D01*
X698197Y16794D01*
X698107Y16733D01*
X698019Y16669D01*
X697934Y16603D01*
X697851Y16533D01*
X697771Y16460D01*
X697693Y16384D01*
X697618Y16306D01*
X697546Y16225D01*
X697477Y16141D01*
X697411Y16055D01*
X697348Y15967D01*
X697289Y15876D01*
X697232Y15784D01*
X697179Y15689D01*
X697130Y15593D01*
X697084Y15494D01*
X697041Y15395D01*
X697002Y15293D01*
X696967Y15191D01*
X701404Y13102D02*
X701473Y13171D01*
X701539Y13242D01*
X701603Y13315D01*
X701664Y13391D01*
X701722Y13470D01*
X701776Y13550D01*
X701828Y13633D01*
X701876Y13717D01*
X701922Y13803D01*
X701963Y13891D01*
X702002Y13981D01*
X702037Y14072D01*
X702068Y14164D01*
X702096Y14257D01*
X702120Y14351D01*
X702140Y14446D01*
X702157Y14542D01*
X702170Y14639D01*
X702179Y14736D01*
X702185Y14833D01*
X702187Y14930D01*
X701404Y13102D02*
X696966Y7881D01*
X702187Y7881D01*
X706110Y12580D02*
X706112Y12765D01*
X706119Y12950D01*
X706130Y13134D01*
X706145Y13318D01*
X706165Y13502D01*
X706189Y13686D01*
X706218Y13868D01*
X706251Y14050D01*
X706288Y14231D01*
X706330Y14411D01*
X706376Y14591D01*
X706426Y14769D01*
X706480Y14945D01*
X706539Y15121D01*
X706601Y15295D01*
X706668Y15467D01*
X706739Y15638D01*
X706814Y15807D01*
X706893Y15974D01*
X706923Y16054D01*
X706956Y16133D01*
X706993Y16210D01*
X707033Y16286D01*
X707076Y16360D01*
X707122Y16432D01*
X707172Y16501D01*
X707224Y16569D01*
X707280Y16634D01*
X707338Y16697D01*
X707400Y16756D01*
X707463Y16814D01*
X707530Y16868D01*
X707598Y16919D01*
X707669Y16967D01*
X707742Y17012D01*
X707816Y17054D01*
X707893Y17092D01*
X707971Y17127D01*
X708050Y17159D01*
X708131Y17187D01*
X708213Y17211D01*
X708297Y17232D01*
X708380Y17249D01*
X708465Y17262D01*
X708550Y17271D01*
X708635Y17277D01*
X708721Y17279D01*
X708807Y17277D01*
X708892Y17271D01*
X708977Y17262D01*
X709062Y17249D01*
X709145Y17232D01*
X709229Y17211D01*
X709311Y17187D01*
X709392Y17159D01*
X709471Y17127D01*
X709549Y17092D01*
X709626Y17054D01*
X709700Y17012D01*
X709773Y16967D01*
X709844Y16919D01*
X709912Y16868D01*
X709979Y16814D01*
X710042Y16756D01*
X710104Y16697D01*
X710162Y16634D01*
X710218Y16569D01*
X710270Y16501D01*
X710320Y16432D01*
X710366Y16360D01*
X710409Y16286D01*
X710449Y16210D01*
X710486Y16133D01*
X710519Y16054D01*
X710549Y15974D01*
X710548Y15974D02*
X710627Y15807D01*
X710702Y15638D01*
X710773Y15467D01*
X710840Y15295D01*
X710902Y15121D01*
X710961Y14945D01*
X711015Y14769D01*
X711065Y14591D01*
X711111Y14411D01*
X711153Y14231D01*
X711190Y14050D01*
X711223Y13868D01*
X711252Y13686D01*
X711276Y13502D01*
X711296Y13318D01*
X711311Y13134D01*
X711322Y12950D01*
X711329Y12765D01*
X711331Y12580D01*
X706110Y12580D02*
X706112Y12395D01*
X706119Y12210D01*
X706130Y12026D01*
X706145Y11842D01*
X706165Y11658D01*
X706189Y11474D01*
X706218Y11292D01*
X706251Y11110D01*
X706288Y10929D01*
X706330Y10749D01*
X706376Y10569D01*
X706426Y10391D01*
X706480Y10215D01*
X706539Y10039D01*
X706601Y9865D01*
X706668Y9693D01*
X706739Y9522D01*
X706814Y9353D01*
X706893Y9186D01*
X706923Y9106D01*
X706956Y9027D01*
X706993Y8950D01*
X707033Y8874D01*
X707076Y8800D01*
X707122Y8728D01*
X707172Y8659D01*
X707225Y8591D01*
X707280Y8526D01*
X707339Y8463D01*
X707400Y8404D01*
X707463Y8346D01*
X707530Y8292D01*
X707598Y8241D01*
X707669Y8193D01*
X707742Y8148D01*
X707816Y8106D01*
X707893Y8068D01*
X707971Y8033D01*
X708050Y8001D01*
X708131Y7973D01*
X708213Y7949D01*
X708297Y7928D01*
X708380Y7911D01*
X708465Y7898D01*
X708550Y7889D01*
X708635Y7883D01*
X708721Y7881D01*
X710548Y9186D02*
X710627Y9353D01*
X710702Y9522D01*
X710773Y9693D01*
X710840Y9865D01*
X710902Y10039D01*
X710961Y10215D01*
X711015Y10391D01*
X711065Y10569D01*
X711111Y10749D01*
X711153Y10929D01*
X711190Y11110D01*
X711223Y11292D01*
X711252Y11474D01*
X711276Y11658D01*
X711296Y11842D01*
X711311Y12026D01*
X711322Y12210D01*
X711329Y12395D01*
X711331Y12580D01*
X710549Y9186D02*
X710519Y9106D01*
X710486Y9027D01*
X710449Y8950D01*
X710409Y8874D01*
X710366Y8800D01*
X710320Y8728D01*
X710270Y8659D01*
X710218Y8591D01*
X710162Y8526D01*
X710104Y8463D01*
X710042Y8404D01*
X709979Y8346D01*
X709912Y8292D01*
X709844Y8241D01*
X709773Y8193D01*
X709700Y8148D01*
X709626Y8106D01*
X709549Y8068D01*
X709471Y8033D01*
X709392Y8001D01*
X709311Y7973D01*
X709229Y7949D01*
X709145Y7928D01*
X709062Y7911D01*
X708977Y7898D01*
X708892Y7889D01*
X708807Y7883D01*
X708721Y7881D01*
X706632Y9969D02*
X710809Y15191D01*
X718126Y17280D02*
X718221Y17278D01*
X718315Y17272D01*
X718409Y17263D01*
X718503Y17250D01*
X718596Y17233D01*
X718688Y17212D01*
X718780Y17187D01*
X718870Y17159D01*
X718959Y17127D01*
X719047Y17092D01*
X719133Y17053D01*
X719218Y17011D01*
X719301Y16965D01*
X719382Y16916D01*
X719461Y16864D01*
X719538Y16809D01*
X719612Y16750D01*
X719684Y16689D01*
X719754Y16625D01*
X719821Y16558D01*
X719885Y16488D01*
X719946Y16416D01*
X720005Y16342D01*
X720060Y16265D01*
X720112Y16186D01*
X720161Y16105D01*
X720207Y16022D01*
X720249Y15937D01*
X720288Y15851D01*
X720323Y15763D01*
X720355Y15674D01*
X720383Y15584D01*
X720408Y15492D01*
X720429Y15400D01*
X720446Y15307D01*
X720459Y15213D01*
X720468Y15119D01*
X720474Y15025D01*
X720476Y14930D01*
X718126Y17279D02*
X718018Y17277D01*
X717909Y17271D01*
X717801Y17261D01*
X717694Y17248D01*
X717587Y17230D01*
X717480Y17209D01*
X717375Y17184D01*
X717270Y17155D01*
X717167Y17123D01*
X717065Y17086D01*
X716964Y17046D01*
X716865Y17003D01*
X716767Y16956D01*
X716671Y16905D01*
X716577Y16851D01*
X716485Y16794D01*
X716395Y16733D01*
X716307Y16669D01*
X716222Y16603D01*
X716139Y16533D01*
X716059Y16460D01*
X715981Y16384D01*
X715906Y16306D01*
X715834Y16225D01*
X715765Y16141D01*
X715699Y16055D01*
X715636Y15967D01*
X715577Y15876D01*
X715520Y15784D01*
X715467Y15689D01*
X715418Y15593D01*
X715372Y15494D01*
X715329Y15395D01*
X715290Y15293D01*
X715255Y15191D01*
X719692Y13102D02*
X719761Y13171D01*
X719827Y13242D01*
X719891Y13315D01*
X719952Y13391D01*
X720010Y13470D01*
X720064Y13550D01*
X720116Y13633D01*
X720164Y13717D01*
X720210Y13803D01*
X720251Y13891D01*
X720290Y13981D01*
X720325Y14072D01*
X720356Y14164D01*
X720384Y14257D01*
X720408Y14351D01*
X720428Y14446D01*
X720445Y14542D01*
X720458Y14639D01*
X720467Y14736D01*
X720473Y14833D01*
X720475Y14930D01*
X719692Y13102D02*
X715254Y7881D01*
X720475Y7881D01*
X724398Y15191D02*
X727008Y17279D01*
X727008Y7881D01*
X724398Y7881D02*
X729619Y7881D01*
D12*
X120079Y644387D02*
X119458Y644387D01*
X119409Y644389D01*
X119361Y644395D01*
X119313Y644404D01*
X119266Y644417D01*
X119220Y644434D01*
X119176Y644455D01*
X119134Y644479D01*
X119093Y644506D01*
X119055Y644536D01*
X119019Y644569D01*
X118986Y644605D01*
X118956Y644643D01*
X118929Y644684D01*
X118905Y644726D01*
X118884Y644770D01*
X118867Y644816D01*
X118854Y644863D01*
X118845Y644911D01*
X118839Y644959D01*
X118837Y645008D01*
X118837Y646560D01*
X118839Y646609D01*
X118845Y646657D01*
X118854Y646705D01*
X118867Y646752D01*
X118884Y646798D01*
X118905Y646842D01*
X118929Y646884D01*
X118956Y646925D01*
X118986Y646963D01*
X119019Y646999D01*
X119055Y647032D01*
X119093Y647062D01*
X119134Y647089D01*
X119176Y647113D01*
X119220Y647134D01*
X119266Y647151D01*
X119313Y647164D01*
X119361Y647173D01*
X119409Y647179D01*
X119458Y647181D01*
X120079Y647181D01*
X121012Y644077D02*
X122254Y644077D01*
X123938Y644387D02*
X124559Y644387D01*
X123938Y644387D02*
X123889Y644389D01*
X123841Y644395D01*
X123793Y644404D01*
X123746Y644417D01*
X123700Y644434D01*
X123656Y644455D01*
X123614Y644479D01*
X123573Y644506D01*
X123535Y644536D01*
X123499Y644569D01*
X123466Y644605D01*
X123436Y644643D01*
X123409Y644684D01*
X123385Y644726D01*
X123364Y644770D01*
X123347Y644816D01*
X123334Y644863D01*
X123325Y644911D01*
X123319Y644959D01*
X123317Y645008D01*
X123317Y646560D01*
X123319Y646609D01*
X123325Y646657D01*
X123334Y646705D01*
X123347Y646752D01*
X123364Y646798D01*
X123385Y646842D01*
X123409Y646884D01*
X123436Y646925D01*
X123466Y646963D01*
X123499Y646999D01*
X123535Y647032D01*
X123573Y647062D01*
X123614Y647089D01*
X123656Y647113D01*
X123700Y647134D01*
X123746Y647151D01*
X123793Y647164D01*
X123841Y647173D01*
X123889Y647179D01*
X123938Y647181D01*
X124559Y647181D01*
X125612Y646560D02*
X126388Y647181D01*
X126388Y644387D01*
X125612Y644387D02*
X127164Y644387D01*
X139958Y485287D02*
X140579Y485287D01*
X139958Y485287D02*
X139909Y485289D01*
X139861Y485295D01*
X139813Y485304D01*
X139766Y485317D01*
X139720Y485334D01*
X139676Y485355D01*
X139634Y485379D01*
X139593Y485406D01*
X139555Y485436D01*
X139519Y485469D01*
X139486Y485505D01*
X139456Y485543D01*
X139429Y485584D01*
X139405Y485626D01*
X139384Y485670D01*
X139367Y485716D01*
X139354Y485763D01*
X139345Y485811D01*
X139339Y485859D01*
X139337Y485908D01*
X139337Y487460D01*
X139339Y487509D01*
X139345Y487557D01*
X139354Y487605D01*
X139367Y487652D01*
X139384Y487698D01*
X139405Y487742D01*
X139429Y487784D01*
X139456Y487825D01*
X139486Y487863D01*
X139519Y487899D01*
X139555Y487932D01*
X139593Y487962D01*
X139634Y487989D01*
X139676Y488013D01*
X139720Y488034D01*
X139766Y488051D01*
X139813Y488064D01*
X139861Y488073D01*
X139909Y488079D01*
X139958Y488081D01*
X140579Y488081D01*
X141512Y484977D02*
X142754Y484977D01*
X144438Y485287D02*
X145059Y485287D01*
X144438Y485287D02*
X144389Y485289D01*
X144341Y485295D01*
X144293Y485304D01*
X144246Y485317D01*
X144200Y485334D01*
X144156Y485355D01*
X144114Y485379D01*
X144073Y485406D01*
X144035Y485436D01*
X143999Y485469D01*
X143966Y485505D01*
X143936Y485543D01*
X143909Y485584D01*
X143885Y485626D01*
X143864Y485670D01*
X143847Y485716D01*
X143834Y485763D01*
X143825Y485811D01*
X143819Y485859D01*
X143817Y485908D01*
X143817Y487460D01*
X143819Y487509D01*
X143825Y487557D01*
X143834Y487605D01*
X143847Y487652D01*
X143864Y487698D01*
X143885Y487742D01*
X143909Y487784D01*
X143936Y487825D01*
X143966Y487863D01*
X143999Y487899D01*
X144035Y487932D01*
X144073Y487962D01*
X144114Y487989D01*
X144156Y488013D01*
X144200Y488034D01*
X144246Y488051D01*
X144293Y488064D01*
X144341Y488073D01*
X144389Y488079D01*
X144438Y488081D01*
X145059Y488081D01*
X146965Y488082D02*
X147015Y488080D01*
X147064Y488075D01*
X147114Y488066D01*
X147162Y488054D01*
X147209Y488038D01*
X147255Y488019D01*
X147300Y487996D01*
X147343Y487971D01*
X147384Y487943D01*
X147423Y487911D01*
X147459Y487877D01*
X147493Y487841D01*
X147525Y487802D01*
X147553Y487761D01*
X147578Y487718D01*
X147601Y487673D01*
X147620Y487627D01*
X147636Y487580D01*
X147648Y487532D01*
X147657Y487482D01*
X147662Y487433D01*
X147664Y487383D01*
X146965Y488081D02*
X146909Y488079D01*
X146852Y488074D01*
X146797Y488065D01*
X146742Y488053D01*
X146688Y488037D01*
X146635Y488018D01*
X146583Y487996D01*
X146533Y487970D01*
X146484Y487941D01*
X146437Y487909D01*
X146393Y487875D01*
X146351Y487838D01*
X146311Y487798D01*
X146273Y487755D01*
X146239Y487711D01*
X146207Y487664D01*
X146179Y487616D01*
X146153Y487565D01*
X146131Y487513D01*
X146112Y487460D01*
X147431Y486840D02*
X147467Y486876D01*
X147500Y486914D01*
X147530Y486955D01*
X147557Y486998D01*
X147582Y487042D01*
X147603Y487088D01*
X147622Y487135D01*
X147637Y487183D01*
X147649Y487232D01*
X147657Y487282D01*
X147662Y487332D01*
X147664Y487383D01*
X147431Y486839D02*
X146112Y485287D01*
X147664Y485287D01*
X159958Y611387D02*
X160579Y611387D01*
X159958Y611387D02*
X159909Y611389D01*
X159861Y611395D01*
X159813Y611404D01*
X159766Y611417D01*
X159720Y611434D01*
X159676Y611455D01*
X159634Y611479D01*
X159593Y611506D01*
X159555Y611536D01*
X159519Y611569D01*
X159486Y611605D01*
X159456Y611643D01*
X159429Y611684D01*
X159405Y611726D01*
X159384Y611770D01*
X159367Y611816D01*
X159354Y611863D01*
X159345Y611911D01*
X159339Y611959D01*
X159337Y612008D01*
X159337Y613560D01*
X159339Y613609D01*
X159345Y613657D01*
X159354Y613705D01*
X159367Y613752D01*
X159384Y613798D01*
X159405Y613842D01*
X159429Y613884D01*
X159456Y613925D01*
X159486Y613963D01*
X159519Y613999D01*
X159555Y614032D01*
X159593Y614062D01*
X159634Y614089D01*
X159676Y614113D01*
X159720Y614134D01*
X159766Y614151D01*
X159813Y614164D01*
X159861Y614173D01*
X159909Y614179D01*
X159958Y614181D01*
X160579Y614181D01*
X161512Y611077D02*
X162754Y611077D01*
X163923Y611387D02*
X163923Y614181D01*
X165164Y614181D01*
X165164Y612939D02*
X163923Y612939D01*
X211681Y444187D02*
X211681Y443566D01*
X211679Y443517D01*
X211673Y443469D01*
X211664Y443421D01*
X211651Y443374D01*
X211634Y443328D01*
X211613Y443284D01*
X211589Y443242D01*
X211562Y443201D01*
X211532Y443163D01*
X211499Y443127D01*
X211463Y443094D01*
X211425Y443064D01*
X211384Y443037D01*
X211342Y443013D01*
X211298Y442992D01*
X211252Y442975D01*
X211205Y442962D01*
X211157Y442953D01*
X211109Y442947D01*
X211060Y442945D01*
X209508Y442945D01*
X209459Y442947D01*
X209411Y442953D01*
X209363Y442962D01*
X209316Y442975D01*
X209270Y442992D01*
X209226Y443013D01*
X209184Y443036D01*
X209143Y443064D01*
X209105Y443094D01*
X209069Y443127D01*
X209036Y443163D01*
X209006Y443201D01*
X208979Y443241D01*
X208955Y443284D01*
X208934Y443328D01*
X208917Y443374D01*
X208904Y443421D01*
X208895Y443469D01*
X208889Y443517D01*
X208887Y443566D01*
X208887Y444187D01*
X211991Y445120D02*
X211991Y446362D01*
X211681Y447530D02*
X208887Y447530D01*
X208887Y448772D01*
X210129Y448772D02*
X210129Y447530D01*
X209508Y449811D02*
X208887Y450587D01*
X211681Y450587D01*
X211681Y449811D02*
X211681Y451363D01*
X119678Y576719D02*
X119057Y576719D01*
X119008Y576721D01*
X118960Y576727D01*
X118912Y576736D01*
X118865Y576749D01*
X118819Y576766D01*
X118775Y576787D01*
X118733Y576811D01*
X118692Y576838D01*
X118654Y576868D01*
X118618Y576901D01*
X118585Y576937D01*
X118555Y576975D01*
X118528Y577016D01*
X118504Y577058D01*
X118483Y577102D01*
X118466Y577148D01*
X118453Y577195D01*
X118444Y577243D01*
X118438Y577291D01*
X118436Y577340D01*
X118436Y578892D01*
X118438Y578941D01*
X118444Y578989D01*
X118453Y579037D01*
X118466Y579084D01*
X118483Y579130D01*
X118504Y579174D01*
X118528Y579216D01*
X118555Y579257D01*
X118585Y579295D01*
X118618Y579331D01*
X118654Y579364D01*
X118692Y579394D01*
X118733Y579421D01*
X118775Y579445D01*
X118819Y579466D01*
X118865Y579483D01*
X118912Y579496D01*
X118960Y579505D01*
X119008Y579511D01*
X119057Y579513D01*
X119678Y579513D01*
X120611Y576409D02*
X121853Y576409D01*
X122924Y577495D02*
X122924Y578737D01*
X122926Y578792D01*
X122932Y578847D01*
X122942Y578902D01*
X122955Y578956D01*
X122973Y579008D01*
X122994Y579059D01*
X123019Y579109D01*
X123047Y579157D01*
X123079Y579202D01*
X123114Y579245D01*
X123151Y579286D01*
X123192Y579323D01*
X123235Y579358D01*
X123280Y579390D01*
X123328Y579418D01*
X123378Y579443D01*
X123429Y579464D01*
X123481Y579482D01*
X123535Y579495D01*
X123590Y579505D01*
X123645Y579511D01*
X123700Y579513D01*
X123755Y579511D01*
X123810Y579505D01*
X123865Y579495D01*
X123919Y579482D01*
X123971Y579464D01*
X124022Y579443D01*
X124072Y579418D01*
X124120Y579390D01*
X124165Y579358D01*
X124208Y579323D01*
X124249Y579286D01*
X124286Y579245D01*
X124321Y579202D01*
X124353Y579157D01*
X124381Y579109D01*
X124406Y579059D01*
X124427Y579008D01*
X124445Y578956D01*
X124458Y578902D01*
X124468Y578847D01*
X124474Y578792D01*
X124476Y578737D01*
X124477Y578737D02*
X124477Y577495D01*
X124476Y577495D02*
X124474Y577440D01*
X124468Y577385D01*
X124458Y577330D01*
X124445Y577276D01*
X124427Y577224D01*
X124406Y577173D01*
X124381Y577123D01*
X124353Y577075D01*
X124321Y577030D01*
X124286Y576987D01*
X124249Y576946D01*
X124208Y576909D01*
X124165Y576874D01*
X124120Y576842D01*
X124072Y576814D01*
X124022Y576789D01*
X123971Y576768D01*
X123919Y576750D01*
X123865Y576737D01*
X123810Y576727D01*
X123755Y576721D01*
X123700Y576719D01*
X123645Y576721D01*
X123590Y576727D01*
X123535Y576737D01*
X123481Y576750D01*
X123429Y576768D01*
X123378Y576789D01*
X123328Y576814D01*
X123280Y576842D01*
X123235Y576874D01*
X123192Y576909D01*
X123151Y576946D01*
X123114Y576987D01*
X123079Y577030D01*
X123047Y577075D01*
X123019Y577123D01*
X122994Y577173D01*
X122973Y577224D01*
X122955Y577276D01*
X122942Y577330D01*
X122932Y577385D01*
X122926Y577440D01*
X122924Y577495D01*
X125759Y577495D02*
X125759Y579513D01*
X125759Y577495D02*
X125761Y577440D01*
X125767Y577385D01*
X125777Y577330D01*
X125790Y577276D01*
X125808Y577224D01*
X125829Y577173D01*
X125854Y577123D01*
X125882Y577075D01*
X125914Y577030D01*
X125949Y576987D01*
X125986Y576946D01*
X126027Y576909D01*
X126070Y576874D01*
X126115Y576842D01*
X126163Y576814D01*
X126213Y576789D01*
X126264Y576768D01*
X126316Y576750D01*
X126370Y576737D01*
X126425Y576727D01*
X126480Y576721D01*
X126535Y576719D01*
X126590Y576721D01*
X126645Y576727D01*
X126700Y576737D01*
X126754Y576750D01*
X126806Y576768D01*
X126857Y576789D01*
X126907Y576814D01*
X126955Y576842D01*
X127000Y576874D01*
X127043Y576909D01*
X127084Y576946D01*
X127121Y576987D01*
X127156Y577030D01*
X127188Y577075D01*
X127216Y577123D01*
X127241Y577173D01*
X127262Y577224D01*
X127280Y577276D01*
X127293Y577330D01*
X127303Y577385D01*
X127309Y577440D01*
X127311Y577495D01*
X127311Y579513D01*
X129187Y579513D02*
X129187Y576719D01*
X128411Y579513D02*
X129963Y579513D01*
X205381Y418417D02*
X205381Y417796D01*
X205379Y417747D01*
X205373Y417699D01*
X205364Y417651D01*
X205351Y417604D01*
X205334Y417558D01*
X205313Y417514D01*
X205289Y417472D01*
X205262Y417431D01*
X205232Y417393D01*
X205199Y417357D01*
X205163Y417324D01*
X205125Y417294D01*
X205084Y417267D01*
X205042Y417243D01*
X204998Y417222D01*
X204952Y417205D01*
X204905Y417192D01*
X204857Y417183D01*
X204809Y417177D01*
X204760Y417175D01*
X203208Y417175D01*
X203159Y417177D01*
X203111Y417183D01*
X203063Y417192D01*
X203016Y417205D01*
X202970Y417222D01*
X202926Y417243D01*
X202884Y417266D01*
X202843Y417294D01*
X202805Y417324D01*
X202769Y417357D01*
X202736Y417393D01*
X202706Y417431D01*
X202679Y417471D01*
X202655Y417514D01*
X202634Y417558D01*
X202617Y417604D01*
X202604Y417651D01*
X202595Y417699D01*
X202589Y417747D01*
X202587Y417796D01*
X202587Y418417D01*
X205691Y419350D02*
X205691Y420592D01*
X204605Y421664D02*
X203363Y421664D01*
X203308Y421666D01*
X203253Y421672D01*
X203198Y421682D01*
X203144Y421695D01*
X203092Y421713D01*
X203041Y421734D01*
X202991Y421759D01*
X202943Y421787D01*
X202898Y421819D01*
X202855Y421854D01*
X202814Y421891D01*
X202777Y421932D01*
X202742Y421975D01*
X202710Y422020D01*
X202682Y422068D01*
X202657Y422118D01*
X202636Y422169D01*
X202618Y422221D01*
X202605Y422275D01*
X202595Y422330D01*
X202589Y422385D01*
X202587Y422440D01*
X202589Y422495D01*
X202595Y422550D01*
X202605Y422605D01*
X202618Y422659D01*
X202636Y422711D01*
X202657Y422762D01*
X202682Y422812D01*
X202710Y422860D01*
X202742Y422905D01*
X202777Y422948D01*
X202814Y422989D01*
X202855Y423026D01*
X202898Y423061D01*
X202943Y423093D01*
X202991Y423121D01*
X203041Y423146D01*
X203092Y423167D01*
X203144Y423185D01*
X203198Y423198D01*
X203253Y423208D01*
X203308Y423214D01*
X203363Y423216D01*
X204605Y423216D01*
X204660Y423214D01*
X204715Y423208D01*
X204770Y423198D01*
X204824Y423185D01*
X204876Y423167D01*
X204927Y423146D01*
X204977Y423121D01*
X205025Y423093D01*
X205070Y423061D01*
X205113Y423026D01*
X205154Y422989D01*
X205191Y422948D01*
X205226Y422905D01*
X205258Y422860D01*
X205286Y422812D01*
X205311Y422762D01*
X205332Y422711D01*
X205350Y422659D01*
X205363Y422605D01*
X205373Y422550D01*
X205379Y422495D01*
X205381Y422440D01*
X205379Y422385D01*
X205373Y422330D01*
X205363Y422275D01*
X205350Y422221D01*
X205332Y422169D01*
X205311Y422118D01*
X205286Y422068D01*
X205258Y422020D01*
X205226Y421975D01*
X205191Y421932D01*
X205154Y421891D01*
X205113Y421854D01*
X205070Y421819D01*
X205025Y421787D01*
X204977Y421759D01*
X204927Y421734D01*
X204876Y421713D01*
X204824Y421695D01*
X204770Y421682D01*
X204715Y421672D01*
X204660Y421666D01*
X204605Y421664D01*
X204605Y424499D02*
X202587Y424499D01*
X204605Y424499D02*
X204660Y424501D01*
X204715Y424507D01*
X204770Y424517D01*
X204824Y424530D01*
X204876Y424548D01*
X204927Y424569D01*
X204977Y424594D01*
X205025Y424622D01*
X205070Y424654D01*
X205113Y424689D01*
X205154Y424726D01*
X205191Y424767D01*
X205226Y424810D01*
X205258Y424855D01*
X205286Y424903D01*
X205311Y424953D01*
X205332Y425004D01*
X205350Y425056D01*
X205363Y425110D01*
X205373Y425165D01*
X205379Y425220D01*
X205381Y425275D01*
X205379Y425330D01*
X205373Y425385D01*
X205363Y425440D01*
X205350Y425494D01*
X205332Y425546D01*
X205311Y425597D01*
X205286Y425647D01*
X205258Y425695D01*
X205226Y425740D01*
X205191Y425783D01*
X205154Y425824D01*
X205113Y425861D01*
X205070Y425896D01*
X205025Y425928D01*
X204977Y425956D01*
X204927Y425981D01*
X204876Y426002D01*
X204824Y426020D01*
X204770Y426033D01*
X204715Y426043D01*
X204660Y426049D01*
X204605Y426051D01*
X202587Y426051D01*
X202587Y427927D02*
X205381Y427927D01*
X202587Y428703D02*
X202587Y427150D01*
X203208Y429711D02*
X202587Y430487D01*
X205381Y430487D01*
X205381Y429711D02*
X205381Y431263D01*
X42013Y633258D02*
X42013Y633879D01*
X42013Y633258D02*
X42011Y633209D01*
X42005Y633161D01*
X41996Y633113D01*
X41983Y633066D01*
X41966Y633020D01*
X41945Y632976D01*
X41921Y632934D01*
X41894Y632893D01*
X41864Y632855D01*
X41831Y632819D01*
X41795Y632786D01*
X41757Y632756D01*
X41716Y632729D01*
X41674Y632705D01*
X41630Y632684D01*
X41584Y632667D01*
X41537Y632654D01*
X41489Y632645D01*
X41441Y632639D01*
X41392Y632637D01*
X39840Y632637D01*
X39791Y632639D01*
X39743Y632645D01*
X39695Y632654D01*
X39648Y632667D01*
X39602Y632684D01*
X39558Y632705D01*
X39516Y632728D01*
X39475Y632756D01*
X39437Y632786D01*
X39401Y632819D01*
X39368Y632855D01*
X39338Y632893D01*
X39311Y632933D01*
X39287Y632976D01*
X39266Y633020D01*
X39249Y633066D01*
X39236Y633113D01*
X39227Y633161D01*
X39221Y633209D01*
X39219Y633258D01*
X39219Y633879D01*
X42323Y634812D02*
X42323Y636054D01*
X42013Y637965D02*
X42011Y638014D01*
X42005Y638062D01*
X41996Y638110D01*
X41983Y638157D01*
X41966Y638203D01*
X41945Y638247D01*
X41921Y638289D01*
X41894Y638330D01*
X41864Y638368D01*
X41831Y638404D01*
X41795Y638437D01*
X41757Y638467D01*
X41716Y638494D01*
X41674Y638518D01*
X41630Y638539D01*
X41584Y638556D01*
X41537Y638569D01*
X41489Y638578D01*
X41441Y638584D01*
X41392Y638586D01*
X42013Y637965D02*
X42011Y637896D01*
X42006Y637827D01*
X41997Y637759D01*
X41984Y637691D01*
X41968Y637624D01*
X41948Y637558D01*
X41925Y637492D01*
X41898Y637429D01*
X41869Y637366D01*
X41835Y637306D01*
X41799Y637247D01*
X41760Y637190D01*
X41718Y637136D01*
X41673Y637083D01*
X41625Y637033D01*
X39840Y637112D02*
X39791Y637114D01*
X39743Y637120D01*
X39695Y637129D01*
X39648Y637142D01*
X39602Y637159D01*
X39558Y637180D01*
X39516Y637204D01*
X39475Y637231D01*
X39437Y637261D01*
X39401Y637294D01*
X39368Y637330D01*
X39338Y637368D01*
X39311Y637409D01*
X39287Y637451D01*
X39266Y637495D01*
X39249Y637541D01*
X39236Y637588D01*
X39227Y637636D01*
X39221Y637684D01*
X39219Y637733D01*
X39221Y637795D01*
X39226Y637858D01*
X39234Y637919D01*
X39246Y637981D01*
X39261Y638041D01*
X39279Y638101D01*
X39300Y638160D01*
X39324Y638217D01*
X39352Y638273D01*
X39382Y638328D01*
X39416Y638381D01*
X39452Y638431D01*
X40384Y637422D02*
X40358Y637382D01*
X40330Y637345D01*
X40300Y637310D01*
X40266Y637277D01*
X40231Y637246D01*
X40193Y637219D01*
X40153Y637194D01*
X40112Y637172D01*
X40069Y637154D01*
X40024Y637139D01*
X39979Y637127D01*
X39933Y637118D01*
X39887Y637113D01*
X39840Y637111D01*
X40848Y638276D02*
X40874Y638316D01*
X40902Y638353D01*
X40932Y638388D01*
X40966Y638421D01*
X41001Y638452D01*
X41039Y638479D01*
X41079Y638504D01*
X41120Y638526D01*
X41163Y638544D01*
X41208Y638559D01*
X41253Y638571D01*
X41299Y638580D01*
X41345Y638585D01*
X41392Y638587D01*
X40849Y638276D02*
X40383Y637422D01*
X42013Y640526D02*
X42011Y640575D01*
X42005Y640623D01*
X41996Y640671D01*
X41983Y640718D01*
X41966Y640764D01*
X41945Y640808D01*
X41921Y640850D01*
X41894Y640891D01*
X41864Y640929D01*
X41831Y640965D01*
X41795Y640998D01*
X41757Y641028D01*
X41716Y641055D01*
X41674Y641079D01*
X41630Y641100D01*
X41584Y641117D01*
X41537Y641130D01*
X41489Y641139D01*
X41441Y641145D01*
X41392Y641147D01*
X42013Y640526D02*
X42011Y640457D01*
X42006Y640388D01*
X41997Y640320D01*
X41984Y640252D01*
X41968Y640185D01*
X41948Y640119D01*
X41925Y640053D01*
X41898Y639990D01*
X41869Y639927D01*
X41835Y639867D01*
X41799Y639808D01*
X41760Y639751D01*
X41718Y639697D01*
X41673Y639644D01*
X41625Y639594D01*
X39840Y639672D02*
X39791Y639674D01*
X39743Y639680D01*
X39695Y639689D01*
X39648Y639702D01*
X39602Y639719D01*
X39558Y639740D01*
X39516Y639764D01*
X39475Y639791D01*
X39437Y639821D01*
X39401Y639854D01*
X39368Y639890D01*
X39338Y639928D01*
X39311Y639969D01*
X39287Y640011D01*
X39266Y640055D01*
X39249Y640101D01*
X39236Y640148D01*
X39227Y640196D01*
X39221Y640244D01*
X39219Y640293D01*
X39221Y640355D01*
X39226Y640418D01*
X39234Y640479D01*
X39246Y640541D01*
X39261Y640601D01*
X39279Y640661D01*
X39300Y640720D01*
X39324Y640777D01*
X39352Y640833D01*
X39382Y640888D01*
X39416Y640941D01*
X39452Y640991D01*
X40384Y639983D02*
X40358Y639943D01*
X40330Y639906D01*
X40300Y639871D01*
X40266Y639838D01*
X40231Y639807D01*
X40193Y639780D01*
X40153Y639755D01*
X40112Y639733D01*
X40069Y639715D01*
X40024Y639700D01*
X39979Y639688D01*
X39933Y639679D01*
X39887Y639674D01*
X39840Y639672D01*
X40848Y640836D02*
X40874Y640876D01*
X40902Y640913D01*
X40932Y640948D01*
X40966Y640981D01*
X41001Y641012D01*
X41039Y641039D01*
X41079Y641064D01*
X41120Y641086D01*
X41163Y641104D01*
X41208Y641119D01*
X41253Y641131D01*
X41299Y641140D01*
X41345Y641145D01*
X41392Y641147D01*
X40849Y640836D02*
X40383Y639982D01*
X91558Y468687D02*
X92179Y468687D01*
X91558Y468687D02*
X91509Y468689D01*
X91461Y468695D01*
X91413Y468704D01*
X91366Y468717D01*
X91320Y468734D01*
X91276Y468755D01*
X91234Y468779D01*
X91193Y468806D01*
X91155Y468836D01*
X91119Y468869D01*
X91086Y468905D01*
X91056Y468943D01*
X91029Y468984D01*
X91005Y469026D01*
X90984Y469070D01*
X90967Y469116D01*
X90954Y469163D01*
X90945Y469211D01*
X90939Y469259D01*
X90937Y469308D01*
X90937Y470860D01*
X90939Y470909D01*
X90945Y470957D01*
X90954Y471005D01*
X90967Y471052D01*
X90984Y471098D01*
X91005Y471142D01*
X91029Y471184D01*
X91056Y471225D01*
X91086Y471263D01*
X91119Y471299D01*
X91155Y471332D01*
X91193Y471362D01*
X91234Y471389D01*
X91276Y471413D01*
X91320Y471434D01*
X91366Y471451D01*
X91413Y471464D01*
X91461Y471473D01*
X91509Y471479D01*
X91558Y471481D01*
X92179Y471481D01*
X93112Y468377D02*
X94354Y468377D01*
X96265Y468687D02*
X96314Y468689D01*
X96362Y468695D01*
X96410Y468704D01*
X96457Y468717D01*
X96503Y468734D01*
X96547Y468755D01*
X96589Y468779D01*
X96630Y468806D01*
X96668Y468836D01*
X96704Y468869D01*
X96737Y468905D01*
X96767Y468943D01*
X96794Y468984D01*
X96818Y469026D01*
X96839Y469070D01*
X96856Y469116D01*
X96869Y469163D01*
X96878Y469211D01*
X96884Y469259D01*
X96886Y469308D01*
X96265Y468687D02*
X96196Y468689D01*
X96127Y468694D01*
X96059Y468703D01*
X95991Y468716D01*
X95924Y468732D01*
X95857Y468752D01*
X95792Y468775D01*
X95729Y468802D01*
X95666Y468831D01*
X95606Y468865D01*
X95547Y468901D01*
X95490Y468940D01*
X95436Y468982D01*
X95383Y469027D01*
X95333Y469075D01*
X95412Y470860D02*
X95414Y470909D01*
X95420Y470957D01*
X95429Y471005D01*
X95442Y471052D01*
X95459Y471098D01*
X95480Y471142D01*
X95504Y471184D01*
X95531Y471225D01*
X95561Y471263D01*
X95594Y471299D01*
X95630Y471332D01*
X95668Y471362D01*
X95709Y471390D01*
X95751Y471413D01*
X95795Y471434D01*
X95841Y471451D01*
X95888Y471464D01*
X95936Y471473D01*
X95984Y471479D01*
X96033Y471481D01*
X96095Y471479D01*
X96158Y471474D01*
X96219Y471466D01*
X96281Y471454D01*
X96341Y471439D01*
X96401Y471421D01*
X96460Y471400D01*
X96517Y471376D01*
X96573Y471348D01*
X96628Y471318D01*
X96680Y471284D01*
X96731Y471248D01*
X95722Y470316D02*
X95682Y470342D01*
X95645Y470370D01*
X95610Y470400D01*
X95577Y470434D01*
X95546Y470469D01*
X95519Y470507D01*
X95494Y470547D01*
X95472Y470588D01*
X95454Y470631D01*
X95439Y470676D01*
X95427Y470721D01*
X95418Y470767D01*
X95413Y470813D01*
X95411Y470860D01*
X96576Y469852D02*
X96616Y469826D01*
X96653Y469798D01*
X96688Y469768D01*
X96721Y469734D01*
X96752Y469699D01*
X96779Y469661D01*
X96804Y469621D01*
X96826Y469580D01*
X96844Y469537D01*
X96859Y469492D01*
X96871Y469447D01*
X96880Y469401D01*
X96885Y469355D01*
X96887Y469308D01*
X96576Y469851D02*
X95722Y470317D01*
X98826Y468687D02*
X98875Y468689D01*
X98923Y468695D01*
X98971Y468704D01*
X99018Y468717D01*
X99064Y468734D01*
X99108Y468755D01*
X99150Y468779D01*
X99191Y468806D01*
X99229Y468836D01*
X99265Y468869D01*
X99298Y468905D01*
X99328Y468943D01*
X99355Y468984D01*
X99379Y469026D01*
X99400Y469070D01*
X99417Y469116D01*
X99430Y469163D01*
X99439Y469211D01*
X99445Y469259D01*
X99447Y469308D01*
X98826Y468687D02*
X98757Y468689D01*
X98688Y468694D01*
X98620Y468703D01*
X98552Y468716D01*
X98485Y468732D01*
X98418Y468752D01*
X98353Y468775D01*
X98290Y468802D01*
X98227Y468831D01*
X98167Y468865D01*
X98108Y468901D01*
X98051Y468940D01*
X97997Y468982D01*
X97944Y469027D01*
X97894Y469075D01*
X97972Y470860D02*
X97974Y470909D01*
X97980Y470957D01*
X97989Y471005D01*
X98002Y471052D01*
X98019Y471098D01*
X98040Y471142D01*
X98064Y471184D01*
X98091Y471225D01*
X98121Y471263D01*
X98154Y471299D01*
X98190Y471332D01*
X98228Y471362D01*
X98269Y471390D01*
X98311Y471413D01*
X98355Y471434D01*
X98401Y471451D01*
X98448Y471464D01*
X98496Y471473D01*
X98544Y471479D01*
X98593Y471481D01*
X98655Y471479D01*
X98718Y471474D01*
X98779Y471466D01*
X98841Y471454D01*
X98901Y471439D01*
X98961Y471421D01*
X99020Y471400D01*
X99077Y471376D01*
X99133Y471348D01*
X99188Y471318D01*
X99240Y471284D01*
X99291Y471248D01*
X98283Y470316D02*
X98243Y470342D01*
X98206Y470370D01*
X98171Y470400D01*
X98138Y470434D01*
X98107Y470469D01*
X98080Y470507D01*
X98055Y470547D01*
X98033Y470588D01*
X98015Y470631D01*
X98000Y470676D01*
X97988Y470721D01*
X97979Y470767D01*
X97974Y470813D01*
X97972Y470860D01*
X99136Y469852D02*
X99176Y469826D01*
X99213Y469798D01*
X99248Y469768D01*
X99281Y469734D01*
X99312Y469699D01*
X99339Y469661D01*
X99364Y469621D01*
X99386Y469580D01*
X99404Y469537D01*
X99419Y469492D01*
X99431Y469447D01*
X99440Y469401D01*
X99445Y469355D01*
X99447Y469308D01*
X99136Y469851D02*
X98282Y470317D01*
X100546Y470860D02*
X101322Y471481D01*
X101322Y468687D01*
X100546Y468687D02*
X102098Y468687D01*
X160258Y587987D02*
X160879Y587987D01*
X160258Y587987D02*
X160209Y587989D01*
X160161Y587995D01*
X160113Y588004D01*
X160066Y588017D01*
X160020Y588034D01*
X159976Y588055D01*
X159934Y588079D01*
X159893Y588106D01*
X159855Y588136D01*
X159819Y588169D01*
X159786Y588205D01*
X159756Y588243D01*
X159729Y588284D01*
X159705Y588326D01*
X159684Y588370D01*
X159667Y588416D01*
X159654Y588463D01*
X159645Y588511D01*
X159639Y588559D01*
X159637Y588608D01*
X159637Y590160D01*
X159639Y590209D01*
X159645Y590257D01*
X159654Y590305D01*
X159667Y590352D01*
X159684Y590398D01*
X159705Y590442D01*
X159729Y590484D01*
X159756Y590525D01*
X159786Y590563D01*
X159819Y590599D01*
X159855Y590632D01*
X159893Y590662D01*
X159934Y590689D01*
X159976Y590713D01*
X160020Y590734D01*
X160066Y590751D01*
X160113Y590764D01*
X160161Y590773D01*
X160209Y590779D01*
X160258Y590781D01*
X160879Y590781D01*
X161812Y587677D02*
X163054Y587677D01*
X164902Y587987D02*
X163970Y590781D01*
X165833Y590781D02*
X164902Y587987D01*
X167482Y587987D02*
X168102Y587987D01*
X167482Y587987D02*
X167433Y587989D01*
X167385Y587995D01*
X167337Y588004D01*
X167290Y588017D01*
X167244Y588034D01*
X167200Y588055D01*
X167158Y588079D01*
X167117Y588106D01*
X167079Y588136D01*
X167043Y588169D01*
X167010Y588205D01*
X166980Y588243D01*
X166953Y588284D01*
X166929Y588326D01*
X166908Y588370D01*
X166891Y588416D01*
X166878Y588463D01*
X166869Y588511D01*
X166863Y588559D01*
X166861Y588608D01*
X166861Y590160D01*
X166863Y590209D01*
X166869Y590257D01*
X166878Y590305D01*
X166891Y590352D01*
X166908Y590398D01*
X166929Y590442D01*
X166953Y590484D01*
X166980Y590525D01*
X167010Y590563D01*
X167043Y590599D01*
X167079Y590632D01*
X167117Y590662D01*
X167158Y590689D01*
X167200Y590713D01*
X167244Y590734D01*
X167290Y590751D01*
X167337Y590764D01*
X167385Y590773D01*
X167433Y590779D01*
X167482Y590781D01*
X168102Y590781D01*
X169767Y587987D02*
X170388Y587987D01*
X169767Y587987D02*
X169718Y587989D01*
X169670Y587995D01*
X169622Y588004D01*
X169575Y588017D01*
X169529Y588034D01*
X169485Y588055D01*
X169443Y588079D01*
X169402Y588106D01*
X169364Y588136D01*
X169328Y588169D01*
X169295Y588205D01*
X169265Y588243D01*
X169238Y588284D01*
X169214Y588326D01*
X169193Y588370D01*
X169176Y588416D01*
X169163Y588463D01*
X169154Y588511D01*
X169148Y588559D01*
X169146Y588608D01*
X169147Y588608D02*
X169147Y590160D01*
X169149Y590209D01*
X169155Y590257D01*
X169164Y590305D01*
X169177Y590352D01*
X169194Y590398D01*
X169215Y590442D01*
X169239Y590484D01*
X169266Y590525D01*
X169296Y590563D01*
X169329Y590599D01*
X169365Y590632D01*
X169403Y590662D01*
X169444Y590689D01*
X169486Y590713D01*
X169530Y590734D01*
X169576Y590751D01*
X169623Y590764D01*
X169671Y590773D01*
X169719Y590779D01*
X169768Y590781D01*
X169767Y590781D02*
X170388Y590781D01*
X211228Y478619D02*
X211849Y478619D01*
X211228Y478619D02*
X211179Y478621D01*
X211131Y478627D01*
X211083Y478636D01*
X211036Y478649D01*
X210990Y478666D01*
X210946Y478687D01*
X210904Y478711D01*
X210863Y478738D01*
X210825Y478768D01*
X210789Y478801D01*
X210756Y478837D01*
X210726Y478875D01*
X210699Y478916D01*
X210675Y478958D01*
X210654Y479002D01*
X210637Y479048D01*
X210624Y479095D01*
X210615Y479143D01*
X210609Y479191D01*
X210607Y479240D01*
X210607Y480792D01*
X210609Y480841D01*
X210615Y480889D01*
X210624Y480937D01*
X210637Y480984D01*
X210654Y481030D01*
X210675Y481074D01*
X210699Y481116D01*
X210726Y481157D01*
X210756Y481195D01*
X210789Y481231D01*
X210825Y481264D01*
X210863Y481294D01*
X210904Y481321D01*
X210946Y481345D01*
X210990Y481366D01*
X211036Y481383D01*
X211083Y481396D01*
X211131Y481405D01*
X211179Y481411D01*
X211228Y481413D01*
X211849Y481413D01*
X212782Y478309D02*
X214024Y478309D01*
X215872Y478619D02*
X214940Y481413D01*
X216803Y481413D02*
X215872Y478619D01*
X218452Y478619D02*
X219072Y478619D01*
X218452Y478619D02*
X218403Y478621D01*
X218355Y478627D01*
X218307Y478636D01*
X218260Y478649D01*
X218214Y478666D01*
X218170Y478687D01*
X218128Y478711D01*
X218087Y478738D01*
X218049Y478768D01*
X218013Y478801D01*
X217980Y478837D01*
X217950Y478875D01*
X217923Y478916D01*
X217899Y478958D01*
X217878Y479002D01*
X217861Y479048D01*
X217848Y479095D01*
X217839Y479143D01*
X217833Y479191D01*
X217831Y479240D01*
X217831Y480792D01*
X217833Y480841D01*
X217839Y480889D01*
X217848Y480937D01*
X217861Y480984D01*
X217878Y481030D01*
X217899Y481074D01*
X217923Y481116D01*
X217950Y481157D01*
X217980Y481195D01*
X218013Y481231D01*
X218049Y481264D01*
X218087Y481294D01*
X218128Y481321D01*
X218170Y481345D01*
X218214Y481366D01*
X218260Y481383D01*
X218307Y481396D01*
X218355Y481405D01*
X218403Y481411D01*
X218452Y481413D01*
X219072Y481413D01*
X220738Y478619D02*
X221358Y478619D01*
X220738Y478619D02*
X220689Y478621D01*
X220641Y478627D01*
X220593Y478636D01*
X220546Y478649D01*
X220500Y478666D01*
X220456Y478687D01*
X220414Y478711D01*
X220373Y478738D01*
X220335Y478768D01*
X220299Y478801D01*
X220266Y478837D01*
X220236Y478875D01*
X220209Y478916D01*
X220185Y478958D01*
X220164Y479002D01*
X220147Y479048D01*
X220134Y479095D01*
X220125Y479143D01*
X220119Y479191D01*
X220117Y479240D01*
X220117Y480792D01*
X220119Y480841D01*
X220125Y480889D01*
X220134Y480937D01*
X220147Y480984D01*
X220164Y481030D01*
X220185Y481074D01*
X220209Y481116D01*
X220236Y481157D01*
X220266Y481195D01*
X220299Y481231D01*
X220335Y481264D01*
X220373Y481294D01*
X220414Y481321D01*
X220456Y481345D01*
X220500Y481366D01*
X220546Y481383D01*
X220593Y481396D01*
X220641Y481405D01*
X220689Y481411D01*
X220738Y481413D01*
X221358Y481413D01*
X222411Y480792D02*
X223187Y481413D01*
X223187Y478619D01*
X222411Y478619D02*
X223963Y478619D01*
D13*
X106400Y166700D02*
X106400Y166600D01*
D14*
X120600Y171600D02*
X120600Y187600D01*
X92200Y187600D02*
X92200Y171600D01*
D15*
X93700Y186100D02*
X119200Y186100D01*
X119200Y173000D01*
X93700Y173000D01*
X93700Y186100D01*
D16*
X81675Y155342D02*
X81675Y149754D01*
X81054Y149754D02*
X82296Y149754D01*
X82296Y155342D02*
X81054Y155342D01*
X85737Y149754D02*
X86979Y149754D01*
X85737Y149754D02*
X85667Y149756D01*
X85598Y149762D01*
X85529Y149772D01*
X85461Y149785D01*
X85393Y149803D01*
X85327Y149824D01*
X85262Y149849D01*
X85198Y149877D01*
X85136Y149909D01*
X85076Y149944D01*
X85018Y149983D01*
X84963Y150025D01*
X84909Y150070D01*
X84859Y150118D01*
X84811Y150168D01*
X84766Y150222D01*
X84724Y150277D01*
X84685Y150335D01*
X84650Y150395D01*
X84618Y150457D01*
X84590Y150521D01*
X84565Y150586D01*
X84544Y150652D01*
X84526Y150720D01*
X84513Y150788D01*
X84503Y150857D01*
X84497Y150926D01*
X84495Y150996D01*
X84495Y154100D01*
X84497Y154170D01*
X84503Y154239D01*
X84513Y154308D01*
X84526Y154376D01*
X84544Y154444D01*
X84565Y154510D01*
X84590Y154575D01*
X84618Y154639D01*
X84650Y154701D01*
X84685Y154761D01*
X84724Y154819D01*
X84766Y154874D01*
X84811Y154928D01*
X84859Y154978D01*
X84909Y155026D01*
X84963Y155071D01*
X85018Y155113D01*
X85076Y155152D01*
X85136Y155187D01*
X85198Y155219D01*
X85262Y155247D01*
X85327Y155272D01*
X85393Y155293D01*
X85461Y155311D01*
X85529Y155324D01*
X85598Y155334D01*
X85667Y155340D01*
X85737Y155342D01*
X86979Y155342D01*
X89084Y154100D02*
X90636Y155342D01*
X90636Y149754D01*
X89084Y149754D02*
X92188Y149754D01*
D13*
X149900Y166800D02*
X149900Y166900D01*
D14*
X164100Y171800D02*
X164100Y187800D01*
X135700Y187800D02*
X135700Y171800D01*
D15*
X137200Y186300D02*
X162700Y186300D01*
X162700Y173200D01*
X137200Y173200D01*
X137200Y186300D01*
D16*
X125375Y205454D02*
X125375Y211042D01*
X124754Y205454D02*
X125996Y205454D01*
X125996Y211042D02*
X124754Y211042D01*
X129437Y205454D02*
X130679Y205454D01*
X129437Y205454D02*
X129367Y205456D01*
X129298Y205462D01*
X129229Y205472D01*
X129161Y205485D01*
X129093Y205503D01*
X129027Y205524D01*
X128962Y205549D01*
X128898Y205577D01*
X128836Y205609D01*
X128776Y205644D01*
X128718Y205683D01*
X128663Y205725D01*
X128609Y205770D01*
X128559Y205818D01*
X128511Y205868D01*
X128466Y205922D01*
X128424Y205977D01*
X128385Y206035D01*
X128350Y206095D01*
X128318Y206157D01*
X128290Y206221D01*
X128265Y206286D01*
X128244Y206352D01*
X128226Y206420D01*
X128213Y206488D01*
X128203Y206557D01*
X128197Y206626D01*
X128195Y206696D01*
X128195Y209800D01*
X128197Y209870D01*
X128203Y209939D01*
X128213Y210008D01*
X128226Y210076D01*
X128244Y210144D01*
X128265Y210210D01*
X128290Y210275D01*
X128318Y210339D01*
X128350Y210401D01*
X128385Y210461D01*
X128424Y210519D01*
X128466Y210574D01*
X128511Y210628D01*
X128559Y210678D01*
X128609Y210726D01*
X128663Y210771D01*
X128718Y210813D01*
X128776Y210852D01*
X128836Y210887D01*
X128898Y210919D01*
X128962Y210947D01*
X129027Y210972D01*
X129093Y210993D01*
X129161Y211011D01*
X129229Y211024D01*
X129298Y211034D01*
X129367Y211040D01*
X129437Y211042D01*
X130679Y211042D01*
X134491Y211042D02*
X134564Y211040D01*
X134637Y211034D01*
X134710Y211025D01*
X134781Y211011D01*
X134853Y210994D01*
X134923Y210974D01*
X134992Y210949D01*
X135059Y210921D01*
X135125Y210890D01*
X135190Y210855D01*
X135252Y210817D01*
X135312Y210775D01*
X135370Y210731D01*
X135426Y210683D01*
X135479Y210633D01*
X135529Y210580D01*
X135577Y210524D01*
X135621Y210466D01*
X135663Y210406D01*
X135701Y210344D01*
X135736Y210279D01*
X135767Y210213D01*
X135795Y210146D01*
X135820Y210077D01*
X135840Y210007D01*
X135857Y209935D01*
X135871Y209864D01*
X135880Y209791D01*
X135886Y209718D01*
X135888Y209645D01*
X134491Y211042D02*
X134407Y211040D01*
X134324Y211034D01*
X134241Y211025D01*
X134159Y211011D01*
X134077Y210994D01*
X133996Y210972D01*
X133916Y210947D01*
X133838Y210919D01*
X133760Y210887D01*
X133685Y210851D01*
X133611Y210812D01*
X133539Y210769D01*
X133469Y210723D01*
X133402Y210674D01*
X133336Y210621D01*
X133274Y210566D01*
X133214Y210508D01*
X133156Y210447D01*
X133102Y210384D01*
X133050Y210318D01*
X133002Y210250D01*
X132957Y210179D01*
X132915Y210107D01*
X132877Y210032D01*
X132842Y209956D01*
X132811Y209879D01*
X132783Y209800D01*
X135422Y208559D02*
X135476Y208612D01*
X135527Y208669D01*
X135575Y208728D01*
X135620Y208789D01*
X135661Y208852D01*
X135700Y208918D01*
X135735Y208985D01*
X135767Y209054D01*
X135795Y209125D01*
X135819Y209196D01*
X135840Y209269D01*
X135857Y209343D01*
X135871Y209418D01*
X135880Y209493D01*
X135886Y209569D01*
X135888Y209645D01*
X135422Y208558D02*
X132784Y205454D01*
X135888Y205454D01*
D13*
X193300Y166900D02*
X193300Y166800D01*
D14*
X207500Y171800D02*
X207500Y187800D01*
X179100Y187800D02*
X179100Y171800D01*
D15*
X180600Y186300D02*
X206100Y186300D01*
X206100Y173200D01*
X180600Y173200D01*
X180600Y186300D01*
D16*
X168775Y205454D02*
X168775Y211042D01*
X168154Y205454D02*
X169396Y205454D01*
X169396Y211042D02*
X168154Y211042D01*
X172837Y205454D02*
X174079Y205454D01*
X172837Y205454D02*
X172767Y205456D01*
X172698Y205462D01*
X172629Y205472D01*
X172561Y205485D01*
X172493Y205503D01*
X172427Y205524D01*
X172362Y205549D01*
X172298Y205577D01*
X172236Y205609D01*
X172176Y205644D01*
X172118Y205683D01*
X172063Y205725D01*
X172009Y205770D01*
X171959Y205818D01*
X171911Y205868D01*
X171866Y205922D01*
X171824Y205977D01*
X171785Y206035D01*
X171750Y206095D01*
X171718Y206157D01*
X171690Y206221D01*
X171665Y206286D01*
X171644Y206352D01*
X171626Y206420D01*
X171613Y206488D01*
X171603Y206557D01*
X171597Y206626D01*
X171595Y206696D01*
X171595Y209800D01*
X171597Y209870D01*
X171603Y209939D01*
X171613Y210008D01*
X171626Y210076D01*
X171644Y210144D01*
X171665Y210210D01*
X171690Y210275D01*
X171718Y210339D01*
X171750Y210401D01*
X171785Y210461D01*
X171824Y210519D01*
X171866Y210574D01*
X171911Y210628D01*
X171959Y210678D01*
X172009Y210726D01*
X172063Y210771D01*
X172118Y210813D01*
X172176Y210852D01*
X172236Y210887D01*
X172298Y210919D01*
X172362Y210947D01*
X172427Y210972D01*
X172493Y210993D01*
X172561Y211011D01*
X172629Y211024D01*
X172698Y211034D01*
X172767Y211040D01*
X172837Y211042D01*
X174079Y211042D01*
X176184Y205454D02*
X177736Y205454D01*
X177813Y205456D01*
X177891Y205462D01*
X177967Y205471D01*
X178044Y205485D01*
X178119Y205502D01*
X178193Y205523D01*
X178267Y205548D01*
X178339Y205576D01*
X178409Y205608D01*
X178478Y205643D01*
X178545Y205682D01*
X178610Y205724D01*
X178673Y205769D01*
X178734Y205817D01*
X178792Y205868D01*
X178847Y205922D01*
X178900Y205979D01*
X178949Y206038D01*
X178996Y206100D01*
X179040Y206164D01*
X179080Y206230D01*
X179117Y206298D01*
X179151Y206368D01*
X179181Y206439D01*
X179207Y206512D01*
X179230Y206586D01*
X179249Y206661D01*
X179264Y206736D01*
X179276Y206813D01*
X179284Y206890D01*
X179288Y206967D01*
X179288Y207045D01*
X179284Y207122D01*
X179276Y207199D01*
X179264Y207276D01*
X179249Y207351D01*
X179230Y207426D01*
X179207Y207500D01*
X179181Y207573D01*
X179151Y207644D01*
X179117Y207714D01*
X179080Y207782D01*
X179040Y207848D01*
X178996Y207912D01*
X178949Y207974D01*
X178900Y208033D01*
X178847Y208090D01*
X178792Y208144D01*
X178734Y208195D01*
X178673Y208243D01*
X178610Y208288D01*
X178545Y208330D01*
X178478Y208369D01*
X178409Y208404D01*
X178339Y208436D01*
X178267Y208464D01*
X178193Y208489D01*
X178119Y208510D01*
X178044Y208527D01*
X177967Y208541D01*
X177891Y208550D01*
X177813Y208556D01*
X177736Y208558D01*
X178046Y211042D02*
X176184Y211042D01*
X178046Y211042D02*
X178116Y211040D01*
X178185Y211034D01*
X178254Y211024D01*
X178322Y211011D01*
X178390Y210993D01*
X178456Y210972D01*
X178521Y210947D01*
X178585Y210919D01*
X178647Y210887D01*
X178707Y210852D01*
X178765Y210813D01*
X178820Y210771D01*
X178874Y210726D01*
X178924Y210678D01*
X178972Y210628D01*
X179017Y210574D01*
X179059Y210519D01*
X179098Y210461D01*
X179133Y210401D01*
X179165Y210339D01*
X179193Y210275D01*
X179218Y210210D01*
X179239Y210144D01*
X179257Y210076D01*
X179270Y210008D01*
X179280Y209939D01*
X179286Y209870D01*
X179288Y209800D01*
X179286Y209730D01*
X179280Y209661D01*
X179270Y209592D01*
X179257Y209524D01*
X179239Y209456D01*
X179218Y209390D01*
X179193Y209325D01*
X179165Y209261D01*
X179133Y209199D01*
X179098Y209139D01*
X179059Y209081D01*
X179017Y209026D01*
X178972Y208972D01*
X178924Y208922D01*
X178874Y208874D01*
X178820Y208829D01*
X178765Y208787D01*
X178707Y208748D01*
X178647Y208713D01*
X178585Y208681D01*
X178521Y208653D01*
X178456Y208628D01*
X178390Y208607D01*
X178322Y208589D01*
X178254Y208576D01*
X178185Y208566D01*
X178116Y208560D01*
X178046Y208558D01*
X176805Y208558D01*
D12*
X67373Y643777D02*
X64579Y643777D01*
X64579Y644553D01*
X64581Y644608D01*
X64587Y644663D01*
X64597Y644718D01*
X64610Y644772D01*
X64628Y644824D01*
X64649Y644875D01*
X64674Y644925D01*
X64702Y644973D01*
X64734Y645018D01*
X64769Y645061D01*
X64806Y645102D01*
X64847Y645139D01*
X64890Y645174D01*
X64935Y645206D01*
X64983Y645234D01*
X65033Y645259D01*
X65084Y645280D01*
X65136Y645298D01*
X65190Y645311D01*
X65245Y645321D01*
X65300Y645327D01*
X65355Y645329D01*
X65410Y645327D01*
X65465Y645321D01*
X65520Y645311D01*
X65574Y645298D01*
X65626Y645280D01*
X65677Y645259D01*
X65727Y645234D01*
X65775Y645206D01*
X65820Y645174D01*
X65863Y645139D01*
X65904Y645102D01*
X65941Y645061D01*
X65976Y645018D01*
X66008Y644973D01*
X66036Y644925D01*
X66061Y644875D01*
X66082Y644824D01*
X66100Y644772D01*
X66113Y644718D01*
X66123Y644663D01*
X66129Y644608D01*
X66131Y644553D01*
X66131Y643777D01*
X66131Y644708D02*
X67373Y645329D01*
X67683Y646383D02*
X67683Y647625D01*
X67373Y649309D02*
X67373Y649930D01*
X67373Y649309D02*
X67371Y649260D01*
X67365Y649212D01*
X67356Y649164D01*
X67343Y649117D01*
X67326Y649071D01*
X67305Y649027D01*
X67281Y648985D01*
X67254Y648944D01*
X67224Y648906D01*
X67191Y648870D01*
X67155Y648837D01*
X67117Y648807D01*
X67076Y648780D01*
X67034Y648756D01*
X66990Y648735D01*
X66944Y648718D01*
X66897Y648705D01*
X66849Y648696D01*
X66801Y648690D01*
X66752Y648688D01*
X66752Y648689D02*
X65200Y648689D01*
X65200Y648688D02*
X65151Y648690D01*
X65103Y648696D01*
X65055Y648705D01*
X65008Y648718D01*
X64962Y648735D01*
X64918Y648756D01*
X64876Y648779D01*
X64835Y648807D01*
X64797Y648837D01*
X64761Y648870D01*
X64728Y648906D01*
X64698Y648944D01*
X64671Y648984D01*
X64647Y649027D01*
X64626Y649071D01*
X64609Y649117D01*
X64596Y649164D01*
X64587Y649212D01*
X64581Y649260D01*
X64579Y649309D01*
X64579Y649930D01*
X65200Y650983D02*
X64579Y651759D01*
X67373Y651759D01*
X67373Y650983D02*
X67373Y652535D01*
X109927Y470265D02*
X112721Y470265D01*
X109927Y470265D02*
X109927Y471041D01*
X109929Y471096D01*
X109935Y471151D01*
X109945Y471206D01*
X109958Y471260D01*
X109976Y471312D01*
X109997Y471363D01*
X110022Y471413D01*
X110050Y471461D01*
X110082Y471506D01*
X110117Y471549D01*
X110154Y471590D01*
X110195Y471627D01*
X110238Y471662D01*
X110283Y471694D01*
X110331Y471722D01*
X110381Y471747D01*
X110432Y471768D01*
X110484Y471786D01*
X110538Y471799D01*
X110593Y471809D01*
X110648Y471815D01*
X110703Y471817D01*
X110758Y471815D01*
X110813Y471809D01*
X110868Y471799D01*
X110922Y471786D01*
X110974Y471768D01*
X111025Y471747D01*
X111075Y471722D01*
X111123Y471694D01*
X111168Y471662D01*
X111211Y471627D01*
X111252Y471590D01*
X111289Y471549D01*
X111324Y471506D01*
X111356Y471461D01*
X111384Y471413D01*
X111409Y471363D01*
X111430Y471312D01*
X111448Y471260D01*
X111461Y471206D01*
X111471Y471151D01*
X111477Y471096D01*
X111479Y471041D01*
X111479Y470265D01*
X111479Y471196D02*
X112721Y471817D01*
X113031Y472871D02*
X113031Y474113D01*
X112721Y475798D02*
X112721Y476418D01*
X112721Y475798D02*
X112719Y475749D01*
X112713Y475701D01*
X112704Y475653D01*
X112691Y475606D01*
X112674Y475560D01*
X112653Y475516D01*
X112629Y475474D01*
X112602Y475433D01*
X112572Y475395D01*
X112539Y475359D01*
X112503Y475326D01*
X112465Y475296D01*
X112424Y475269D01*
X112382Y475245D01*
X112338Y475224D01*
X112292Y475207D01*
X112245Y475194D01*
X112197Y475185D01*
X112149Y475179D01*
X112100Y475177D01*
X110548Y475177D01*
X110499Y475179D01*
X110451Y475185D01*
X110403Y475194D01*
X110356Y475207D01*
X110310Y475224D01*
X110266Y475245D01*
X110224Y475268D01*
X110183Y475296D01*
X110145Y475326D01*
X110109Y475359D01*
X110076Y475395D01*
X110046Y475433D01*
X110019Y475473D01*
X109995Y475516D01*
X109974Y475560D01*
X109957Y475606D01*
X109944Y475653D01*
X109935Y475701D01*
X109929Y475749D01*
X109927Y475798D01*
X109927Y476418D01*
X109927Y478325D02*
X109929Y478375D01*
X109934Y478424D01*
X109943Y478474D01*
X109955Y478522D01*
X109971Y478569D01*
X109990Y478615D01*
X110013Y478660D01*
X110038Y478703D01*
X110066Y478744D01*
X110098Y478783D01*
X110132Y478819D01*
X110168Y478853D01*
X110207Y478885D01*
X110248Y478913D01*
X110291Y478938D01*
X110336Y478961D01*
X110382Y478980D01*
X110429Y478996D01*
X110477Y479008D01*
X110527Y479017D01*
X110576Y479022D01*
X110626Y479024D01*
X109927Y478325D02*
X109929Y478269D01*
X109934Y478212D01*
X109943Y478157D01*
X109955Y478102D01*
X109971Y478048D01*
X109990Y477995D01*
X110013Y477943D01*
X110038Y477893D01*
X110067Y477844D01*
X110099Y477797D01*
X110133Y477753D01*
X110170Y477711D01*
X110210Y477671D01*
X110253Y477633D01*
X110297Y477599D01*
X110344Y477567D01*
X110393Y477539D01*
X110443Y477513D01*
X110495Y477491D01*
X110548Y477472D01*
X111169Y478790D02*
X111133Y478826D01*
X111095Y478859D01*
X111054Y478889D01*
X111012Y478916D01*
X110967Y478941D01*
X110921Y478962D01*
X110874Y478981D01*
X110826Y478996D01*
X110777Y479008D01*
X110727Y479016D01*
X110677Y479021D01*
X110626Y479023D01*
X111169Y478790D02*
X112721Y477471D01*
X112721Y479023D01*
D17*
X176300Y641200D02*
X176300Y647200D01*
D12*
X157977Y633621D02*
X157977Y630827D01*
X157977Y633621D02*
X158753Y633621D01*
X158808Y633619D01*
X158863Y633613D01*
X158918Y633603D01*
X158972Y633590D01*
X159024Y633572D01*
X159075Y633551D01*
X159125Y633526D01*
X159173Y633498D01*
X159218Y633466D01*
X159261Y633431D01*
X159302Y633394D01*
X159339Y633353D01*
X159374Y633310D01*
X159406Y633265D01*
X159434Y633217D01*
X159459Y633167D01*
X159480Y633116D01*
X159498Y633064D01*
X159511Y633010D01*
X159521Y632955D01*
X159527Y632900D01*
X159529Y632845D01*
X159527Y632790D01*
X159521Y632735D01*
X159511Y632680D01*
X159498Y632626D01*
X159480Y632574D01*
X159459Y632523D01*
X159434Y632473D01*
X159406Y632425D01*
X159374Y632380D01*
X159339Y632337D01*
X159302Y632296D01*
X159261Y632259D01*
X159218Y632224D01*
X159173Y632192D01*
X159125Y632164D01*
X159075Y632139D01*
X159024Y632118D01*
X158972Y632100D01*
X158918Y632087D01*
X158863Y632077D01*
X158808Y632071D01*
X158753Y632069D01*
X157977Y632069D01*
X158908Y632069D02*
X159529Y630827D01*
X160583Y630517D02*
X161825Y630517D01*
X162994Y630827D02*
X162994Y633621D01*
X164235Y633621D01*
X164235Y632379D02*
X162994Y632379D01*
D17*
X185800Y499200D02*
X191800Y499200D01*
D12*
X185374Y515179D02*
X185374Y517973D01*
X186150Y517973D01*
X186205Y517971D01*
X186260Y517965D01*
X186315Y517955D01*
X186369Y517942D01*
X186421Y517924D01*
X186472Y517903D01*
X186522Y517878D01*
X186570Y517850D01*
X186615Y517818D01*
X186658Y517783D01*
X186699Y517746D01*
X186736Y517705D01*
X186771Y517662D01*
X186803Y517617D01*
X186831Y517569D01*
X186856Y517519D01*
X186877Y517468D01*
X186895Y517416D01*
X186908Y517362D01*
X186918Y517307D01*
X186924Y517252D01*
X186926Y517197D01*
X186924Y517142D01*
X186918Y517087D01*
X186908Y517032D01*
X186895Y516978D01*
X186877Y516926D01*
X186856Y516875D01*
X186831Y516825D01*
X186803Y516777D01*
X186771Y516732D01*
X186736Y516689D01*
X186699Y516648D01*
X186658Y516611D01*
X186615Y516576D01*
X186570Y516544D01*
X186522Y516516D01*
X186472Y516491D01*
X186421Y516470D01*
X186369Y516452D01*
X186315Y516439D01*
X186260Y516429D01*
X186205Y516423D01*
X186150Y516421D01*
X185374Y516421D01*
X186305Y516421D02*
X186926Y515179D01*
X187980Y514869D02*
X189222Y514869D01*
X190390Y515179D02*
X190390Y517973D01*
X191632Y517973D01*
X191632Y516731D02*
X190390Y516731D01*
X192671Y517352D02*
X193447Y517973D01*
X193447Y515179D01*
X192671Y515179D02*
X194223Y515179D01*
X126821Y372093D02*
X124027Y372093D01*
X124027Y372869D01*
X124029Y372924D01*
X124035Y372979D01*
X124045Y373034D01*
X124058Y373088D01*
X124076Y373140D01*
X124097Y373191D01*
X124122Y373241D01*
X124150Y373289D01*
X124182Y373334D01*
X124217Y373377D01*
X124254Y373418D01*
X124295Y373455D01*
X124338Y373490D01*
X124383Y373522D01*
X124431Y373550D01*
X124481Y373575D01*
X124532Y373596D01*
X124584Y373614D01*
X124638Y373627D01*
X124693Y373637D01*
X124748Y373643D01*
X124803Y373645D01*
X124858Y373643D01*
X124913Y373637D01*
X124968Y373627D01*
X125022Y373614D01*
X125074Y373596D01*
X125125Y373575D01*
X125175Y373550D01*
X125223Y373522D01*
X125268Y373490D01*
X125311Y373455D01*
X125352Y373418D01*
X125389Y373377D01*
X125424Y373334D01*
X125456Y373289D01*
X125484Y373241D01*
X125509Y373191D01*
X125530Y373140D01*
X125548Y373088D01*
X125561Y373034D01*
X125571Y372979D01*
X125577Y372924D01*
X125579Y372869D01*
X125579Y372093D01*
X125579Y373024D02*
X126821Y373645D01*
X127131Y374699D02*
X127131Y375941D01*
X126821Y377109D02*
X124027Y377109D01*
X124027Y378351D01*
X125269Y378351D02*
X125269Y377109D01*
X125269Y379523D02*
X125269Y380299D01*
X125271Y380354D01*
X125277Y380409D01*
X125287Y380464D01*
X125300Y380518D01*
X125318Y380570D01*
X125339Y380621D01*
X125364Y380671D01*
X125392Y380719D01*
X125424Y380764D01*
X125459Y380807D01*
X125496Y380848D01*
X125537Y380885D01*
X125580Y380920D01*
X125625Y380952D01*
X125673Y380980D01*
X125723Y381005D01*
X125774Y381026D01*
X125826Y381044D01*
X125880Y381057D01*
X125935Y381067D01*
X125990Y381073D01*
X126045Y381075D01*
X126100Y381073D01*
X126155Y381067D01*
X126210Y381057D01*
X126264Y381044D01*
X126316Y381026D01*
X126367Y381005D01*
X126417Y380980D01*
X126465Y380952D01*
X126510Y380920D01*
X126553Y380885D01*
X126594Y380848D01*
X126631Y380807D01*
X126666Y380764D01*
X126698Y380719D01*
X126726Y380671D01*
X126751Y380621D01*
X126772Y380570D01*
X126790Y380518D01*
X126803Y380464D01*
X126813Y380409D01*
X126819Y380354D01*
X126821Y380299D01*
X126821Y379523D01*
X124027Y379523D01*
X124027Y380299D01*
X124029Y380348D01*
X124035Y380396D01*
X124044Y380444D01*
X124057Y380491D01*
X124074Y380537D01*
X124095Y380581D01*
X124119Y380623D01*
X124146Y380664D01*
X124176Y380702D01*
X124209Y380738D01*
X124245Y380771D01*
X124283Y380801D01*
X124324Y380828D01*
X124366Y380852D01*
X124410Y380873D01*
X124456Y380890D01*
X124503Y380903D01*
X124551Y380912D01*
X124599Y380918D01*
X124648Y380920D01*
X124697Y380918D01*
X124745Y380912D01*
X124793Y380903D01*
X124840Y380890D01*
X124886Y380873D01*
X124930Y380852D01*
X124972Y380828D01*
X125013Y380801D01*
X125051Y380771D01*
X125087Y380738D01*
X125120Y380702D01*
X125150Y380664D01*
X125177Y380623D01*
X125201Y380581D01*
X125222Y380537D01*
X125239Y380491D01*
X125252Y380444D01*
X125261Y380396D01*
X125267Y380348D01*
X125269Y380299D01*
X124648Y382133D02*
X124027Y382909D01*
X126821Y382909D01*
X126821Y382133D02*
X126821Y383685D01*
X127131Y384757D02*
X127131Y385999D01*
X124726Y388624D02*
X124676Y388622D01*
X124627Y388617D01*
X124577Y388608D01*
X124529Y388596D01*
X124482Y388580D01*
X124436Y388561D01*
X124391Y388538D01*
X124348Y388513D01*
X124307Y388485D01*
X124268Y388453D01*
X124232Y388419D01*
X124198Y388383D01*
X124166Y388344D01*
X124138Y388303D01*
X124113Y388260D01*
X124090Y388215D01*
X124071Y388169D01*
X124055Y388122D01*
X124043Y388074D01*
X124034Y388024D01*
X124029Y387975D01*
X124027Y387925D01*
X124029Y387869D01*
X124034Y387812D01*
X124043Y387757D01*
X124055Y387702D01*
X124071Y387648D01*
X124090Y387595D01*
X124113Y387543D01*
X124138Y387493D01*
X124167Y387444D01*
X124199Y387397D01*
X124233Y387353D01*
X124270Y387311D01*
X124310Y387271D01*
X124353Y387233D01*
X124397Y387199D01*
X124444Y387167D01*
X124493Y387139D01*
X124543Y387113D01*
X124595Y387091D01*
X124648Y387072D01*
X125269Y388390D02*
X125233Y388426D01*
X125195Y388459D01*
X125154Y388489D01*
X125112Y388516D01*
X125067Y388541D01*
X125021Y388562D01*
X124974Y388581D01*
X124926Y388596D01*
X124877Y388608D01*
X124827Y388616D01*
X124777Y388621D01*
X124726Y388623D01*
X125269Y388390D02*
X126821Y387071D01*
X126821Y388623D01*
X68693Y452179D02*
X68693Y454973D01*
X69469Y454973D01*
X69524Y454971D01*
X69579Y454965D01*
X69634Y454955D01*
X69688Y454942D01*
X69740Y454924D01*
X69791Y454903D01*
X69841Y454878D01*
X69889Y454850D01*
X69934Y454818D01*
X69977Y454783D01*
X70018Y454746D01*
X70055Y454705D01*
X70090Y454662D01*
X70122Y454617D01*
X70150Y454569D01*
X70175Y454519D01*
X70196Y454468D01*
X70214Y454416D01*
X70227Y454362D01*
X70237Y454307D01*
X70243Y454252D01*
X70245Y454197D01*
X70243Y454142D01*
X70237Y454087D01*
X70227Y454032D01*
X70214Y453978D01*
X70196Y453926D01*
X70175Y453875D01*
X70150Y453825D01*
X70122Y453777D01*
X70090Y453732D01*
X70055Y453689D01*
X70018Y453648D01*
X69977Y453611D01*
X69934Y453576D01*
X69889Y453544D01*
X69841Y453516D01*
X69791Y453491D01*
X69740Y453470D01*
X69688Y453452D01*
X69634Y453439D01*
X69579Y453429D01*
X69524Y453423D01*
X69469Y453421D01*
X68693Y453421D01*
X69624Y453421D02*
X70245Y452179D01*
X71299Y451869D02*
X72541Y451869D01*
X73709Y452179D02*
X73709Y454973D01*
X74951Y454973D01*
X74951Y453731D02*
X73709Y453731D01*
X76123Y453731D02*
X76899Y453731D01*
X76954Y453729D01*
X77009Y453723D01*
X77064Y453713D01*
X77118Y453700D01*
X77170Y453682D01*
X77221Y453661D01*
X77271Y453636D01*
X77319Y453608D01*
X77364Y453576D01*
X77407Y453541D01*
X77448Y453504D01*
X77485Y453463D01*
X77520Y453420D01*
X77552Y453375D01*
X77580Y453327D01*
X77605Y453277D01*
X77626Y453226D01*
X77644Y453174D01*
X77657Y453120D01*
X77667Y453065D01*
X77673Y453010D01*
X77675Y452955D01*
X77673Y452900D01*
X77667Y452845D01*
X77657Y452790D01*
X77644Y452736D01*
X77626Y452684D01*
X77605Y452633D01*
X77580Y452583D01*
X77552Y452535D01*
X77520Y452490D01*
X77485Y452447D01*
X77448Y452406D01*
X77407Y452369D01*
X77364Y452334D01*
X77319Y452302D01*
X77271Y452274D01*
X77221Y452249D01*
X77170Y452228D01*
X77118Y452210D01*
X77064Y452197D01*
X77009Y452187D01*
X76954Y452181D01*
X76899Y452179D01*
X76123Y452179D01*
X76123Y454973D01*
X76899Y454973D01*
X76948Y454971D01*
X76996Y454965D01*
X77044Y454956D01*
X77091Y454943D01*
X77137Y454926D01*
X77181Y454905D01*
X77223Y454881D01*
X77264Y454854D01*
X77302Y454824D01*
X77338Y454791D01*
X77371Y454755D01*
X77401Y454717D01*
X77428Y454676D01*
X77452Y454634D01*
X77473Y454590D01*
X77490Y454544D01*
X77503Y454497D01*
X77512Y454449D01*
X77518Y454401D01*
X77520Y454352D01*
X77518Y454303D01*
X77512Y454255D01*
X77503Y454207D01*
X77490Y454160D01*
X77473Y454114D01*
X77452Y454070D01*
X77428Y454028D01*
X77401Y453987D01*
X77371Y453949D01*
X77338Y453913D01*
X77302Y453880D01*
X77264Y453850D01*
X77223Y453823D01*
X77181Y453799D01*
X77137Y453778D01*
X77091Y453761D01*
X77044Y453748D01*
X76996Y453739D01*
X76948Y453733D01*
X76899Y453731D01*
X79587Y454974D02*
X79637Y454972D01*
X79686Y454967D01*
X79736Y454958D01*
X79784Y454946D01*
X79831Y454930D01*
X79877Y454911D01*
X79922Y454888D01*
X79965Y454863D01*
X80006Y454835D01*
X80045Y454803D01*
X80081Y454769D01*
X80115Y454733D01*
X80147Y454694D01*
X80175Y454653D01*
X80200Y454610D01*
X80223Y454565D01*
X80242Y454519D01*
X80258Y454472D01*
X80270Y454424D01*
X80279Y454374D01*
X80284Y454325D01*
X80286Y454275D01*
X79587Y454973D02*
X79531Y454971D01*
X79474Y454966D01*
X79419Y454957D01*
X79364Y454945D01*
X79310Y454929D01*
X79257Y454910D01*
X79205Y454888D01*
X79155Y454862D01*
X79106Y454833D01*
X79059Y454801D01*
X79015Y454767D01*
X78973Y454730D01*
X78933Y454690D01*
X78895Y454647D01*
X78861Y454603D01*
X78829Y454556D01*
X78801Y454508D01*
X78775Y454457D01*
X78753Y454405D01*
X78734Y454352D01*
X80052Y453732D02*
X80088Y453768D01*
X80121Y453806D01*
X80151Y453847D01*
X80178Y453890D01*
X80203Y453934D01*
X80224Y453980D01*
X80243Y454027D01*
X80258Y454075D01*
X80270Y454124D01*
X80278Y454174D01*
X80283Y454224D01*
X80285Y454275D01*
X80052Y453731D02*
X78733Y452179D01*
X80285Y452179D01*
X81357Y451869D02*
X82599Y451869D01*
X85224Y454275D02*
X85222Y454325D01*
X85217Y454374D01*
X85208Y454424D01*
X85196Y454472D01*
X85180Y454519D01*
X85161Y454565D01*
X85138Y454610D01*
X85113Y454653D01*
X85085Y454694D01*
X85053Y454733D01*
X85019Y454769D01*
X84983Y454803D01*
X84944Y454835D01*
X84903Y454863D01*
X84860Y454888D01*
X84815Y454911D01*
X84769Y454930D01*
X84722Y454946D01*
X84674Y454958D01*
X84624Y454967D01*
X84575Y454972D01*
X84525Y454974D01*
X84525Y454973D02*
X84469Y454971D01*
X84412Y454966D01*
X84357Y454957D01*
X84302Y454945D01*
X84248Y454929D01*
X84195Y454910D01*
X84143Y454888D01*
X84093Y454862D01*
X84044Y454833D01*
X83997Y454801D01*
X83953Y454767D01*
X83911Y454730D01*
X83871Y454690D01*
X83833Y454647D01*
X83799Y454603D01*
X83767Y454556D01*
X83739Y454508D01*
X83713Y454457D01*
X83691Y454405D01*
X83672Y454352D01*
X84990Y453732D02*
X85026Y453768D01*
X85059Y453806D01*
X85089Y453847D01*
X85116Y453890D01*
X85141Y453934D01*
X85162Y453980D01*
X85181Y454027D01*
X85196Y454075D01*
X85208Y454124D01*
X85216Y454174D01*
X85221Y454224D01*
X85223Y454275D01*
X84990Y453731D02*
X83671Y452179D01*
X85223Y452179D01*
X15417Y558379D02*
X15417Y561173D01*
X16193Y561173D01*
X16248Y561171D01*
X16303Y561165D01*
X16358Y561155D01*
X16412Y561142D01*
X16464Y561124D01*
X16515Y561103D01*
X16565Y561078D01*
X16613Y561050D01*
X16658Y561018D01*
X16701Y560983D01*
X16742Y560946D01*
X16779Y560905D01*
X16814Y560862D01*
X16846Y560817D01*
X16874Y560769D01*
X16899Y560719D01*
X16920Y560668D01*
X16938Y560616D01*
X16951Y560562D01*
X16961Y560507D01*
X16967Y560452D01*
X16969Y560397D01*
X16967Y560342D01*
X16961Y560287D01*
X16951Y560232D01*
X16938Y560178D01*
X16920Y560126D01*
X16899Y560075D01*
X16874Y560025D01*
X16846Y559977D01*
X16814Y559932D01*
X16779Y559889D01*
X16742Y559848D01*
X16701Y559811D01*
X16658Y559776D01*
X16613Y559744D01*
X16565Y559716D01*
X16515Y559691D01*
X16464Y559670D01*
X16412Y559652D01*
X16358Y559639D01*
X16303Y559629D01*
X16248Y559623D01*
X16193Y559621D01*
X15417Y559621D01*
X16348Y559621D02*
X16969Y558379D01*
X18023Y558069D02*
X19264Y558069D01*
X20469Y558379D02*
X20469Y561173D01*
X21245Y561173D01*
X21300Y561171D01*
X21355Y561165D01*
X21410Y561155D01*
X21464Y561142D01*
X21516Y561124D01*
X21567Y561103D01*
X21617Y561078D01*
X21665Y561050D01*
X21710Y561018D01*
X21753Y560983D01*
X21794Y560946D01*
X21831Y560905D01*
X21866Y560862D01*
X21898Y560817D01*
X21926Y560769D01*
X21951Y560719D01*
X21972Y560668D01*
X21990Y560616D01*
X22003Y560562D01*
X22013Y560507D01*
X22019Y560452D01*
X22021Y560397D01*
X22019Y560342D01*
X22013Y560287D01*
X22003Y560232D01*
X21990Y560178D01*
X21972Y560126D01*
X21951Y560075D01*
X21926Y560025D01*
X21898Y559977D01*
X21866Y559932D01*
X21831Y559889D01*
X21794Y559848D01*
X21753Y559811D01*
X21710Y559776D01*
X21665Y559744D01*
X21617Y559716D01*
X21567Y559691D01*
X21516Y559670D01*
X21464Y559652D01*
X21410Y559639D01*
X21355Y559629D01*
X21300Y559623D01*
X21245Y559621D01*
X20469Y559621D01*
X24257Y559931D02*
X24723Y559931D01*
X24723Y558379D01*
X23792Y558379D01*
X23743Y558381D01*
X23695Y558387D01*
X23647Y558396D01*
X23600Y558409D01*
X23554Y558426D01*
X23510Y558447D01*
X23468Y558471D01*
X23427Y558498D01*
X23389Y558528D01*
X23353Y558561D01*
X23320Y558597D01*
X23290Y558635D01*
X23263Y558676D01*
X23239Y558718D01*
X23218Y558762D01*
X23201Y558808D01*
X23188Y558855D01*
X23179Y558903D01*
X23173Y558951D01*
X23171Y559000D01*
X23171Y560552D01*
X23173Y560601D01*
X23179Y560649D01*
X23188Y560697D01*
X23201Y560744D01*
X23218Y560790D01*
X23239Y560834D01*
X23263Y560876D01*
X23290Y560917D01*
X23320Y560955D01*
X23353Y560991D01*
X23389Y561024D01*
X23427Y561054D01*
X23468Y561081D01*
X23510Y561105D01*
X23554Y561126D01*
X23600Y561143D01*
X23647Y561156D01*
X23695Y561165D01*
X23743Y561171D01*
X23792Y561173D01*
X24723Y561173D01*
X48782Y434573D02*
X48782Y431779D01*
X48782Y434573D02*
X49558Y434573D01*
X49613Y434571D01*
X49668Y434565D01*
X49723Y434555D01*
X49777Y434542D01*
X49829Y434524D01*
X49880Y434503D01*
X49930Y434478D01*
X49978Y434450D01*
X50023Y434418D01*
X50066Y434383D01*
X50107Y434346D01*
X50144Y434305D01*
X50179Y434262D01*
X50211Y434217D01*
X50239Y434169D01*
X50264Y434119D01*
X50285Y434068D01*
X50303Y434016D01*
X50316Y433962D01*
X50326Y433907D01*
X50332Y433852D01*
X50334Y433797D01*
X50332Y433742D01*
X50326Y433687D01*
X50316Y433632D01*
X50303Y433578D01*
X50285Y433526D01*
X50264Y433475D01*
X50239Y433425D01*
X50211Y433377D01*
X50179Y433332D01*
X50144Y433289D01*
X50107Y433248D01*
X50066Y433211D01*
X50023Y433176D01*
X49978Y433144D01*
X49930Y433116D01*
X49880Y433091D01*
X49829Y433070D01*
X49777Y433052D01*
X49723Y433039D01*
X49668Y433029D01*
X49613Y433023D01*
X49558Y433021D01*
X48782Y433021D01*
X49713Y433021D02*
X50334Y431779D01*
X51388Y431469D02*
X52630Y431469D01*
X53834Y431779D02*
X53834Y434573D01*
X54611Y434573D01*
X54666Y434571D01*
X54721Y434565D01*
X54776Y434555D01*
X54830Y434542D01*
X54882Y434524D01*
X54933Y434503D01*
X54983Y434478D01*
X55031Y434450D01*
X55076Y434418D01*
X55119Y434383D01*
X55160Y434346D01*
X55197Y434305D01*
X55232Y434262D01*
X55264Y434217D01*
X55292Y434169D01*
X55317Y434119D01*
X55338Y434068D01*
X55356Y434016D01*
X55369Y433962D01*
X55379Y433907D01*
X55385Y433852D01*
X55387Y433797D01*
X55385Y433742D01*
X55379Y433687D01*
X55369Y433632D01*
X55356Y433578D01*
X55338Y433526D01*
X55317Y433475D01*
X55292Y433425D01*
X55264Y433377D01*
X55232Y433332D01*
X55197Y433289D01*
X55160Y433248D01*
X55119Y433211D01*
X55076Y433176D01*
X55031Y433144D01*
X54983Y433116D01*
X54933Y433091D01*
X54882Y433070D01*
X54830Y433052D01*
X54776Y433039D01*
X54721Y433029D01*
X54666Y433023D01*
X54611Y433021D01*
X53834Y433021D01*
X57623Y433331D02*
X58088Y433331D01*
X58088Y431779D01*
X57157Y431779D01*
X57108Y431781D01*
X57060Y431787D01*
X57012Y431796D01*
X56965Y431809D01*
X56919Y431826D01*
X56875Y431847D01*
X56833Y431871D01*
X56792Y431898D01*
X56754Y431928D01*
X56718Y431961D01*
X56685Y431997D01*
X56655Y432035D01*
X56628Y432076D01*
X56604Y432118D01*
X56583Y432162D01*
X56566Y432208D01*
X56553Y432255D01*
X56544Y432303D01*
X56538Y432351D01*
X56536Y432400D01*
X56536Y433952D01*
X56538Y434001D01*
X56544Y434049D01*
X56553Y434097D01*
X56566Y434144D01*
X56583Y434190D01*
X56604Y434234D01*
X56628Y434276D01*
X56655Y434317D01*
X56685Y434355D01*
X56718Y434391D01*
X56754Y434424D01*
X56792Y434454D01*
X56833Y434481D01*
X56875Y434505D01*
X56919Y434526D01*
X56965Y434543D01*
X57012Y434556D01*
X57060Y434565D01*
X57108Y434571D01*
X57157Y434573D01*
X58088Y434573D01*
X59371Y433952D02*
X60147Y434573D01*
X60147Y431779D01*
X59371Y431779D02*
X60923Y431779D01*
D18*
X52762Y631599D03*
D19*
X59300Y629699D02*
X102300Y629699D01*
X102300Y572101D02*
X59300Y572101D01*
D12*
X68418Y620076D02*
X67148Y623886D01*
X69688Y623886D02*
X68418Y620076D01*
X71139Y620076D02*
X71139Y623886D01*
X72197Y623886D01*
X72261Y623884D01*
X72325Y623878D01*
X72388Y623869D01*
X72450Y623855D01*
X72512Y623838D01*
X72572Y623817D01*
X72631Y623793D01*
X72689Y623765D01*
X72744Y623733D01*
X72798Y623699D01*
X72849Y623661D01*
X72899Y623620D01*
X72945Y623576D01*
X72989Y623530D01*
X73030Y623480D01*
X73068Y623429D01*
X73102Y623375D01*
X73134Y623320D01*
X73162Y623262D01*
X73186Y623203D01*
X73207Y623143D01*
X73224Y623081D01*
X73238Y623019D01*
X73247Y622956D01*
X73253Y622892D01*
X73255Y622828D01*
X73255Y621134D01*
X73253Y621070D01*
X73247Y621006D01*
X73238Y620943D01*
X73224Y620881D01*
X73207Y620819D01*
X73186Y620759D01*
X73162Y620700D01*
X73134Y620642D01*
X73102Y620587D01*
X73068Y620533D01*
X73030Y620482D01*
X72989Y620432D01*
X72945Y620386D01*
X72899Y620342D01*
X72849Y620301D01*
X72798Y620263D01*
X72744Y620229D01*
X72689Y620197D01*
X72631Y620169D01*
X72572Y620145D01*
X72512Y620124D01*
X72450Y620107D01*
X72388Y620093D01*
X72325Y620084D01*
X72261Y620078D01*
X72197Y620076D01*
X71139Y620076D01*
X75040Y620076D02*
X75040Y623886D01*
X76098Y623886D01*
X76162Y623884D01*
X76226Y623878D01*
X76289Y623869D01*
X76351Y623855D01*
X76413Y623838D01*
X76473Y623817D01*
X76532Y623793D01*
X76590Y623765D01*
X76645Y623733D01*
X76699Y623699D01*
X76750Y623661D01*
X76800Y623620D01*
X76846Y623576D01*
X76890Y623530D01*
X76931Y623480D01*
X76969Y623429D01*
X77003Y623375D01*
X77035Y623320D01*
X77063Y623262D01*
X77087Y623203D01*
X77108Y623143D01*
X77125Y623081D01*
X77139Y623019D01*
X77148Y622956D01*
X77154Y622892D01*
X77156Y622828D01*
X77157Y622828D02*
X77157Y621134D01*
X77156Y621134D02*
X77154Y621070D01*
X77148Y621006D01*
X77139Y620943D01*
X77125Y620881D01*
X77108Y620819D01*
X77087Y620759D01*
X77063Y620700D01*
X77035Y620642D01*
X77003Y620587D01*
X76969Y620533D01*
X76931Y620482D01*
X76890Y620432D01*
X76846Y620386D01*
X76800Y620342D01*
X76750Y620301D01*
X76699Y620263D01*
X76645Y620229D01*
X76590Y620197D01*
X76532Y620169D01*
X76473Y620145D01*
X76413Y620124D01*
X76351Y620107D01*
X76289Y620093D01*
X76226Y620084D01*
X76162Y620078D01*
X76098Y620076D01*
X75040Y620076D01*
X78666Y619653D02*
X80359Y619653D01*
X82583Y620076D02*
X83430Y620076D01*
X82583Y620076D02*
X82528Y620078D01*
X82472Y620083D01*
X82418Y620092D01*
X82364Y620105D01*
X82311Y620121D01*
X82259Y620140D01*
X82208Y620163D01*
X82160Y620189D01*
X82112Y620219D01*
X82067Y620251D01*
X82025Y620286D01*
X81984Y620324D01*
X81946Y620365D01*
X81911Y620407D01*
X81879Y620452D01*
X81849Y620500D01*
X81823Y620548D01*
X81800Y620599D01*
X81781Y620651D01*
X81765Y620704D01*
X81752Y620758D01*
X81743Y620812D01*
X81738Y620868D01*
X81736Y620923D01*
X81736Y623039D01*
X81738Y623097D01*
X81744Y623154D01*
X81754Y623211D01*
X81767Y623268D01*
X81785Y623323D01*
X81806Y623376D01*
X81831Y623429D01*
X81859Y623479D01*
X81891Y623527D01*
X81926Y623574D01*
X81964Y623617D01*
X82005Y623658D01*
X82048Y623696D01*
X82095Y623731D01*
X82143Y623763D01*
X82193Y623791D01*
X82246Y623816D01*
X82299Y623837D01*
X82354Y623855D01*
X82411Y623868D01*
X82468Y623878D01*
X82525Y623884D01*
X82583Y623886D01*
X83430Y623886D01*
X84794Y622828D02*
X84794Y621134D01*
X84794Y622828D02*
X84796Y622892D01*
X84802Y622956D01*
X84811Y623019D01*
X84825Y623081D01*
X84842Y623143D01*
X84863Y623203D01*
X84887Y623262D01*
X84915Y623320D01*
X84947Y623375D01*
X84981Y623429D01*
X85019Y623480D01*
X85060Y623530D01*
X85104Y623576D01*
X85150Y623620D01*
X85200Y623661D01*
X85251Y623699D01*
X85305Y623733D01*
X85360Y623765D01*
X85418Y623793D01*
X85477Y623817D01*
X85537Y623838D01*
X85599Y623855D01*
X85661Y623869D01*
X85724Y623878D01*
X85788Y623884D01*
X85852Y623886D01*
X85916Y623884D01*
X85980Y623878D01*
X86043Y623869D01*
X86105Y623855D01*
X86167Y623838D01*
X86227Y623817D01*
X86286Y623793D01*
X86344Y623765D01*
X86399Y623733D01*
X86453Y623699D01*
X86504Y623661D01*
X86554Y623620D01*
X86600Y623576D01*
X86644Y623530D01*
X86685Y623480D01*
X86723Y623429D01*
X86757Y623375D01*
X86789Y623320D01*
X86817Y623262D01*
X86841Y623203D01*
X86862Y623143D01*
X86879Y623081D01*
X86893Y623019D01*
X86902Y622956D01*
X86908Y622892D01*
X86910Y622828D01*
X86910Y621134D01*
X86908Y621070D01*
X86902Y621006D01*
X86893Y620943D01*
X86879Y620881D01*
X86862Y620819D01*
X86841Y620759D01*
X86817Y620700D01*
X86789Y620642D01*
X86757Y620587D01*
X86723Y620533D01*
X86685Y620482D01*
X86644Y620432D01*
X86600Y620386D01*
X86554Y620342D01*
X86504Y620301D01*
X86453Y620263D01*
X86399Y620229D01*
X86344Y620197D01*
X86286Y620169D01*
X86227Y620145D01*
X86167Y620124D01*
X86105Y620107D01*
X86043Y620093D01*
X85980Y620084D01*
X85916Y620078D01*
X85852Y620076D01*
X85788Y620078D01*
X85724Y620084D01*
X85661Y620093D01*
X85599Y620107D01*
X85537Y620124D01*
X85477Y620145D01*
X85418Y620169D01*
X85360Y620197D01*
X85305Y620229D01*
X85251Y620263D01*
X85200Y620301D01*
X85150Y620342D01*
X85104Y620386D01*
X85060Y620432D01*
X85019Y620482D01*
X84981Y620533D01*
X84947Y620587D01*
X84915Y620642D01*
X84887Y620700D01*
X84863Y620759D01*
X84842Y620819D01*
X84825Y620881D01*
X84811Y620943D01*
X84802Y621006D01*
X84796Y621070D01*
X84794Y621134D01*
X88594Y620076D02*
X88594Y623886D01*
X89653Y623886D01*
X89717Y623884D01*
X89781Y623878D01*
X89844Y623869D01*
X89906Y623855D01*
X89968Y623838D01*
X90028Y623817D01*
X90087Y623793D01*
X90145Y623765D01*
X90200Y623733D01*
X90254Y623699D01*
X90305Y623661D01*
X90355Y623620D01*
X90401Y623576D01*
X90445Y623530D01*
X90486Y623480D01*
X90524Y623429D01*
X90558Y623375D01*
X90590Y623320D01*
X90618Y623262D01*
X90642Y623203D01*
X90663Y623143D01*
X90680Y623081D01*
X90694Y623019D01*
X90703Y622956D01*
X90709Y622892D01*
X90711Y622828D01*
X90709Y622764D01*
X90703Y622700D01*
X90694Y622637D01*
X90680Y622575D01*
X90663Y622513D01*
X90642Y622453D01*
X90618Y622394D01*
X90590Y622336D01*
X90558Y622281D01*
X90524Y622227D01*
X90486Y622176D01*
X90445Y622126D01*
X90401Y622080D01*
X90355Y622036D01*
X90305Y621995D01*
X90254Y621957D01*
X90200Y621923D01*
X90145Y621891D01*
X90087Y621863D01*
X90028Y621839D01*
X89968Y621818D01*
X89906Y621801D01*
X89844Y621787D01*
X89781Y621778D01*
X89717Y621772D01*
X89653Y621770D01*
X89653Y621769D02*
X88594Y621769D01*
X89864Y621769D02*
X90711Y620076D01*
X92359Y620076D02*
X94052Y620076D01*
X92359Y620076D02*
X92359Y623886D01*
X94052Y623886D01*
X93629Y622193D02*
X92359Y622193D01*
D18*
X103062Y468899D03*
D19*
X109600Y466999D02*
X152600Y466999D01*
X152600Y409401D02*
X109600Y409401D01*
D12*
X122815Y457376D02*
X121545Y461186D01*
X124085Y461186D02*
X122815Y457376D01*
X125537Y457376D02*
X125537Y461186D01*
X126595Y461186D01*
X126659Y461184D01*
X126723Y461178D01*
X126786Y461169D01*
X126848Y461155D01*
X126910Y461138D01*
X126970Y461117D01*
X127029Y461093D01*
X127087Y461065D01*
X127142Y461033D01*
X127196Y460999D01*
X127247Y460961D01*
X127297Y460920D01*
X127343Y460876D01*
X127387Y460830D01*
X127428Y460780D01*
X127466Y460729D01*
X127500Y460675D01*
X127532Y460620D01*
X127560Y460562D01*
X127584Y460503D01*
X127605Y460443D01*
X127622Y460381D01*
X127636Y460319D01*
X127645Y460256D01*
X127651Y460192D01*
X127653Y460128D01*
X127653Y458434D01*
X127651Y458370D01*
X127645Y458306D01*
X127636Y458243D01*
X127622Y458181D01*
X127605Y458119D01*
X127584Y458059D01*
X127560Y458000D01*
X127532Y457942D01*
X127500Y457887D01*
X127466Y457833D01*
X127428Y457782D01*
X127387Y457732D01*
X127343Y457686D01*
X127297Y457642D01*
X127247Y457601D01*
X127196Y457563D01*
X127142Y457529D01*
X127087Y457497D01*
X127029Y457469D01*
X126970Y457445D01*
X126910Y457424D01*
X126848Y457407D01*
X126786Y457393D01*
X126723Y457384D01*
X126659Y457378D01*
X126595Y457376D01*
X125537Y457376D01*
X129438Y457376D02*
X129438Y461186D01*
X130496Y461186D01*
X130560Y461184D01*
X130624Y461178D01*
X130687Y461169D01*
X130749Y461155D01*
X130811Y461138D01*
X130871Y461117D01*
X130930Y461093D01*
X130988Y461065D01*
X131043Y461033D01*
X131097Y460999D01*
X131148Y460961D01*
X131198Y460920D01*
X131244Y460876D01*
X131288Y460830D01*
X131329Y460780D01*
X131367Y460729D01*
X131401Y460675D01*
X131433Y460620D01*
X131461Y460562D01*
X131485Y460503D01*
X131506Y460443D01*
X131523Y460381D01*
X131537Y460319D01*
X131546Y460256D01*
X131552Y460192D01*
X131554Y460128D01*
X131555Y460128D02*
X131555Y458434D01*
X131554Y458434D02*
X131552Y458370D01*
X131546Y458306D01*
X131537Y458243D01*
X131523Y458181D01*
X131506Y458119D01*
X131485Y458059D01*
X131461Y458000D01*
X131433Y457942D01*
X131401Y457887D01*
X131367Y457833D01*
X131329Y457782D01*
X131288Y457732D01*
X131244Y457686D01*
X131198Y457642D01*
X131148Y457601D01*
X131097Y457563D01*
X131043Y457529D01*
X130988Y457497D01*
X130930Y457469D01*
X130871Y457445D01*
X130811Y457424D01*
X130749Y457407D01*
X130687Y457393D01*
X130624Y457384D01*
X130560Y457378D01*
X130496Y457376D01*
X129438Y457376D01*
X133063Y456953D02*
X134757Y456953D01*
X136470Y457376D02*
X136470Y461186D01*
X136047Y457376D02*
X136894Y457376D01*
X136894Y461186D02*
X136047Y461186D01*
X138338Y460128D02*
X138338Y458434D01*
X138338Y460128D02*
X138340Y460192D01*
X138346Y460256D01*
X138355Y460319D01*
X138369Y460381D01*
X138386Y460443D01*
X138407Y460503D01*
X138431Y460562D01*
X138459Y460620D01*
X138491Y460675D01*
X138525Y460729D01*
X138563Y460780D01*
X138604Y460830D01*
X138648Y460876D01*
X138694Y460920D01*
X138744Y460961D01*
X138795Y460999D01*
X138849Y461033D01*
X138904Y461065D01*
X138962Y461093D01*
X139021Y461117D01*
X139081Y461138D01*
X139143Y461155D01*
X139205Y461169D01*
X139268Y461178D01*
X139332Y461184D01*
X139396Y461186D01*
X139460Y461184D01*
X139524Y461178D01*
X139587Y461169D01*
X139649Y461155D01*
X139711Y461138D01*
X139771Y461117D01*
X139830Y461093D01*
X139888Y461065D01*
X139943Y461033D01*
X139997Y460999D01*
X140048Y460961D01*
X140098Y460920D01*
X140144Y460876D01*
X140188Y460830D01*
X140229Y460780D01*
X140267Y460729D01*
X140301Y460675D01*
X140333Y460620D01*
X140361Y460562D01*
X140385Y460503D01*
X140406Y460443D01*
X140423Y460381D01*
X140437Y460319D01*
X140446Y460256D01*
X140452Y460192D01*
X140454Y460128D01*
X140455Y460128D02*
X140455Y458434D01*
X140454Y458434D02*
X140452Y458370D01*
X140446Y458306D01*
X140437Y458243D01*
X140423Y458181D01*
X140406Y458119D01*
X140385Y458059D01*
X140361Y458000D01*
X140333Y457942D01*
X140301Y457887D01*
X140267Y457833D01*
X140229Y457782D01*
X140188Y457732D01*
X140144Y457686D01*
X140098Y457642D01*
X140048Y457601D01*
X139997Y457563D01*
X139943Y457529D01*
X139888Y457497D01*
X139830Y457469D01*
X139771Y457445D01*
X139711Y457424D01*
X139649Y457407D01*
X139587Y457393D01*
X139524Y457384D01*
X139460Y457378D01*
X139396Y457376D01*
X139332Y457378D01*
X139268Y457384D01*
X139205Y457393D01*
X139143Y457407D01*
X139081Y457424D01*
X139021Y457445D01*
X138962Y457469D01*
X138904Y457497D01*
X138849Y457529D01*
X138795Y457563D01*
X138744Y457601D01*
X138694Y457642D01*
X138648Y457686D01*
X138604Y457732D01*
X138563Y457782D01*
X138525Y457833D01*
X138491Y457887D01*
X138459Y457942D01*
X138431Y458000D01*
X138407Y458059D01*
X138386Y458119D01*
X138369Y458181D01*
X138355Y458243D01*
X138346Y458306D01*
X138340Y458370D01*
X138338Y458434D01*
D10*
X354700Y734150D02*
X354700Y746850D01*
X361050Y753200D01*
X373750Y753200D02*
X380100Y746850D01*
X361050Y753200D02*
X354700Y759550D01*
X354700Y772250D01*
X361050Y778600D01*
X373750Y778600D02*
X380100Y772250D01*
X380100Y759550D01*
X373750Y753200D01*
X373750Y727800D02*
X361050Y727800D01*
X354700Y734150D01*
X373750Y727800D02*
X380100Y734150D01*
X380100Y746850D01*
X361050Y778600D02*
X354700Y784950D01*
X354700Y797650D01*
X361050Y804000D01*
X373750Y804000D02*
X380100Y797650D01*
X380100Y784950D01*
X373750Y778600D01*
X354700Y810350D02*
X354700Y823050D01*
X361050Y829400D01*
X373750Y829400D01*
X380100Y823050D01*
X361050Y804000D02*
X354700Y810350D01*
X373750Y804000D02*
X380100Y810350D01*
X380100Y823050D01*
D14*
X361685Y720180D02*
X364225Y717005D01*
X361685Y720180D02*
X373115Y720180D01*
X373115Y717005D02*
X373115Y723355D01*
X370575Y832575D02*
X361685Y835115D01*
X370575Y832575D02*
X370575Y838925D01*
X368035Y837020D02*
X373115Y837020D01*
D19*
X162300Y570000D02*
X122300Y570000D01*
X122300Y530000D02*
X162300Y530000D01*
D12*
X135661Y571977D02*
X135661Y574771D01*
X135661Y571977D02*
X136903Y571977D01*
X137823Y571667D02*
X139064Y571667D01*
X140749Y571977D02*
X141370Y571977D01*
X140749Y571977D02*
X140700Y571979D01*
X140652Y571985D01*
X140604Y571994D01*
X140557Y572007D01*
X140511Y572024D01*
X140467Y572045D01*
X140425Y572069D01*
X140384Y572096D01*
X140346Y572126D01*
X140310Y572159D01*
X140277Y572195D01*
X140247Y572233D01*
X140220Y572274D01*
X140196Y572316D01*
X140175Y572360D01*
X140158Y572406D01*
X140145Y572453D01*
X140136Y572501D01*
X140130Y572549D01*
X140128Y572598D01*
X140128Y574150D01*
X140130Y574199D01*
X140136Y574247D01*
X140145Y574295D01*
X140158Y574342D01*
X140175Y574388D01*
X140196Y574432D01*
X140220Y574474D01*
X140247Y574515D01*
X140277Y574553D01*
X140310Y574589D01*
X140346Y574622D01*
X140384Y574652D01*
X140425Y574679D01*
X140467Y574703D01*
X140511Y574724D01*
X140557Y574741D01*
X140604Y574754D01*
X140652Y574763D01*
X140700Y574769D01*
X140749Y574771D01*
X141370Y574771D01*
X142422Y573995D02*
X142422Y572753D01*
X142422Y573995D02*
X142424Y574050D01*
X142430Y574105D01*
X142440Y574160D01*
X142453Y574214D01*
X142471Y574266D01*
X142492Y574317D01*
X142517Y574367D01*
X142545Y574415D01*
X142577Y574460D01*
X142612Y574503D01*
X142649Y574544D01*
X142690Y574581D01*
X142733Y574616D01*
X142778Y574648D01*
X142826Y574676D01*
X142876Y574701D01*
X142927Y574722D01*
X142979Y574740D01*
X143033Y574753D01*
X143088Y574763D01*
X143143Y574769D01*
X143198Y574771D01*
X143253Y574769D01*
X143308Y574763D01*
X143363Y574753D01*
X143417Y574740D01*
X143469Y574722D01*
X143520Y574701D01*
X143570Y574676D01*
X143618Y574648D01*
X143663Y574616D01*
X143706Y574581D01*
X143747Y574544D01*
X143784Y574503D01*
X143819Y574460D01*
X143851Y574415D01*
X143879Y574367D01*
X143904Y574317D01*
X143925Y574266D01*
X143943Y574214D01*
X143956Y574160D01*
X143966Y574105D01*
X143972Y574050D01*
X143974Y573995D01*
X143974Y572753D01*
X143972Y572698D01*
X143966Y572643D01*
X143956Y572588D01*
X143943Y572534D01*
X143925Y572482D01*
X143904Y572431D01*
X143879Y572381D01*
X143851Y572333D01*
X143819Y572288D01*
X143784Y572245D01*
X143747Y572204D01*
X143706Y572167D01*
X143663Y572132D01*
X143618Y572100D01*
X143570Y572072D01*
X143520Y572047D01*
X143469Y572026D01*
X143417Y572008D01*
X143363Y571995D01*
X143308Y571985D01*
X143253Y571979D01*
X143198Y571977D01*
X143143Y571979D01*
X143088Y571985D01*
X143033Y571995D01*
X142979Y572008D01*
X142927Y572026D01*
X142876Y572047D01*
X142826Y572072D01*
X142778Y572100D01*
X142733Y572132D01*
X142690Y572167D01*
X142649Y572204D01*
X142612Y572245D01*
X142577Y572288D01*
X142545Y572333D01*
X142517Y572381D01*
X142492Y572431D01*
X142471Y572482D01*
X142453Y572534D01*
X142440Y572588D01*
X142430Y572643D01*
X142424Y572698D01*
X142422Y572753D01*
X145275Y571977D02*
X145275Y574771D01*
X146051Y574771D01*
X146106Y574769D01*
X146161Y574763D01*
X146216Y574753D01*
X146270Y574740D01*
X146322Y574722D01*
X146373Y574701D01*
X146423Y574676D01*
X146471Y574648D01*
X146516Y574616D01*
X146559Y574581D01*
X146600Y574544D01*
X146637Y574503D01*
X146672Y574460D01*
X146704Y574415D01*
X146732Y574367D01*
X146757Y574317D01*
X146778Y574266D01*
X146796Y574214D01*
X146809Y574160D01*
X146819Y574105D01*
X146825Y574050D01*
X146827Y573995D01*
X146825Y573940D01*
X146819Y573885D01*
X146809Y573830D01*
X146796Y573776D01*
X146778Y573724D01*
X146757Y573673D01*
X146732Y573623D01*
X146704Y573575D01*
X146672Y573530D01*
X146637Y573487D01*
X146600Y573446D01*
X146559Y573409D01*
X146516Y573374D01*
X146471Y573342D01*
X146423Y573314D01*
X146373Y573289D01*
X146322Y573268D01*
X146270Y573250D01*
X146216Y573237D01*
X146161Y573227D01*
X146106Y573221D01*
X146051Y573219D01*
X145275Y573219D01*
X146206Y573219D02*
X146827Y571977D01*
X148097Y571977D02*
X149339Y571977D01*
X148097Y571977D02*
X148097Y574771D01*
X149339Y574771D01*
X149028Y573529D02*
X148097Y573529D01*
D19*
X171100Y410800D02*
X211100Y410800D01*
X211100Y370800D02*
X171100Y370800D01*
D12*
X187264Y404077D02*
X187264Y406871D01*
X187264Y404077D02*
X188505Y404077D01*
X189425Y403767D02*
X190667Y403767D01*
X191966Y404077D02*
X191966Y406871D01*
X191655Y404077D02*
X192276Y404077D01*
X192276Y406871D02*
X191655Y406871D01*
X193384Y406095D02*
X193384Y404853D01*
X193384Y406095D02*
X193386Y406150D01*
X193392Y406205D01*
X193402Y406260D01*
X193415Y406314D01*
X193433Y406366D01*
X193454Y406417D01*
X193479Y406467D01*
X193507Y406515D01*
X193539Y406560D01*
X193574Y406603D01*
X193611Y406644D01*
X193652Y406681D01*
X193695Y406716D01*
X193740Y406748D01*
X193788Y406776D01*
X193838Y406801D01*
X193889Y406822D01*
X193941Y406840D01*
X193995Y406853D01*
X194050Y406863D01*
X194105Y406869D01*
X194160Y406871D01*
X194215Y406869D01*
X194270Y406863D01*
X194325Y406853D01*
X194379Y406840D01*
X194431Y406822D01*
X194482Y406801D01*
X194532Y406776D01*
X194580Y406748D01*
X194625Y406716D01*
X194668Y406681D01*
X194709Y406644D01*
X194746Y406603D01*
X194781Y406560D01*
X194813Y406515D01*
X194841Y406467D01*
X194866Y406417D01*
X194887Y406366D01*
X194905Y406314D01*
X194918Y406260D01*
X194928Y406205D01*
X194934Y406150D01*
X194936Y406095D01*
X194937Y406095D02*
X194937Y404853D01*
X194936Y404853D02*
X194934Y404798D01*
X194928Y404743D01*
X194918Y404688D01*
X194905Y404634D01*
X194887Y404582D01*
X194866Y404531D01*
X194841Y404481D01*
X194813Y404433D01*
X194781Y404388D01*
X194746Y404345D01*
X194709Y404304D01*
X194668Y404267D01*
X194625Y404232D01*
X194580Y404200D01*
X194532Y404172D01*
X194482Y404147D01*
X194431Y404126D01*
X194379Y404108D01*
X194325Y404095D01*
X194270Y404085D01*
X194215Y404079D01*
X194160Y404077D01*
X194105Y404079D01*
X194050Y404085D01*
X193995Y404095D01*
X193941Y404108D01*
X193889Y404126D01*
X193838Y404147D01*
X193788Y404172D01*
X193740Y404200D01*
X193695Y404232D01*
X193652Y404267D01*
X193611Y404304D01*
X193574Y404345D01*
X193539Y404388D01*
X193507Y404433D01*
X193479Y404481D01*
X193454Y404531D01*
X193433Y404582D01*
X193415Y404634D01*
X193402Y404688D01*
X193392Y404743D01*
X193386Y404798D01*
X193384Y404853D01*
D17*
X193750Y878500D02*
X258000Y878500D01*
X258000Y825500D02*
X218250Y825500D01*
D20*
X226072Y826158D02*
X228668Y826158D01*
X226072Y826158D02*
X225973Y826160D01*
X225873Y826166D01*
X225774Y826175D01*
X225676Y826188D01*
X225578Y826205D01*
X225480Y826226D01*
X225384Y826251D01*
X225289Y826279D01*
X225195Y826311D01*
X225102Y826346D01*
X225010Y826385D01*
X224920Y826428D01*
X224832Y826473D01*
X224745Y826523D01*
X224661Y826575D01*
X224578Y826631D01*
X224498Y826689D01*
X224420Y826751D01*
X224345Y826816D01*
X224272Y826884D01*
X224202Y826954D01*
X224134Y827027D01*
X224069Y827102D01*
X224007Y827180D01*
X223949Y827260D01*
X223893Y827343D01*
X223841Y827427D01*
X223791Y827514D01*
X223746Y827602D01*
X223703Y827692D01*
X223664Y827784D01*
X223629Y827877D01*
X223597Y827971D01*
X223569Y828066D01*
X223544Y828162D01*
X223523Y828260D01*
X223506Y828358D01*
X223493Y828456D01*
X223484Y828555D01*
X223478Y828655D01*
X223476Y828754D01*
X223475Y828754D02*
X223475Y835246D01*
X223476Y835246D02*
X223478Y835345D01*
X223484Y835445D01*
X223493Y835544D01*
X223506Y835642D01*
X223523Y835740D01*
X223544Y835838D01*
X223569Y835934D01*
X223597Y836029D01*
X223629Y836123D01*
X223664Y836216D01*
X223703Y836308D01*
X223746Y836398D01*
X223791Y836486D01*
X223841Y836573D01*
X223893Y836657D01*
X223949Y836740D01*
X224007Y836820D01*
X224069Y836898D01*
X224134Y836973D01*
X224202Y837046D01*
X224272Y837116D01*
X224345Y837184D01*
X224420Y837249D01*
X224498Y837311D01*
X224578Y837369D01*
X224661Y837425D01*
X224745Y837477D01*
X224832Y837527D01*
X224920Y837572D01*
X225010Y837615D01*
X225102Y837654D01*
X225194Y837689D01*
X225289Y837721D01*
X225384Y837749D01*
X225480Y837774D01*
X225578Y837795D01*
X225676Y837812D01*
X225774Y837825D01*
X225873Y837834D01*
X225973Y837840D01*
X226072Y837842D01*
X228668Y837842D01*
X233034Y835246D02*
X236279Y837842D01*
X236279Y826158D01*
X233034Y826158D02*
X239525Y826158D01*
D17*
X258200Y805800D02*
X193950Y805800D01*
X218450Y752800D02*
X258200Y752800D01*
D20*
X228868Y753458D02*
X226272Y753458D01*
X226173Y753460D01*
X226073Y753466D01*
X225974Y753475D01*
X225876Y753488D01*
X225778Y753505D01*
X225680Y753526D01*
X225584Y753551D01*
X225489Y753579D01*
X225395Y753611D01*
X225302Y753646D01*
X225210Y753685D01*
X225120Y753728D01*
X225032Y753773D01*
X224945Y753823D01*
X224861Y753875D01*
X224778Y753931D01*
X224698Y753989D01*
X224620Y754051D01*
X224545Y754116D01*
X224472Y754184D01*
X224402Y754254D01*
X224334Y754327D01*
X224269Y754402D01*
X224207Y754480D01*
X224149Y754560D01*
X224093Y754643D01*
X224041Y754727D01*
X223991Y754814D01*
X223946Y754902D01*
X223903Y754992D01*
X223864Y755084D01*
X223829Y755177D01*
X223797Y755271D01*
X223769Y755366D01*
X223744Y755462D01*
X223723Y755560D01*
X223706Y755658D01*
X223693Y755756D01*
X223684Y755855D01*
X223678Y755955D01*
X223676Y756054D01*
X223675Y756054D02*
X223675Y762546D01*
X223676Y762546D02*
X223678Y762645D01*
X223684Y762745D01*
X223693Y762844D01*
X223706Y762942D01*
X223723Y763040D01*
X223744Y763138D01*
X223769Y763234D01*
X223797Y763329D01*
X223829Y763423D01*
X223864Y763516D01*
X223903Y763608D01*
X223946Y763698D01*
X223991Y763786D01*
X224041Y763873D01*
X224093Y763957D01*
X224149Y764040D01*
X224207Y764120D01*
X224269Y764198D01*
X224334Y764273D01*
X224402Y764346D01*
X224472Y764416D01*
X224545Y764484D01*
X224620Y764549D01*
X224698Y764611D01*
X224778Y764669D01*
X224861Y764725D01*
X224945Y764777D01*
X225032Y764827D01*
X225120Y764872D01*
X225210Y764915D01*
X225302Y764954D01*
X225394Y764989D01*
X225489Y765021D01*
X225584Y765049D01*
X225680Y765074D01*
X225778Y765095D01*
X225876Y765112D01*
X225974Y765125D01*
X226073Y765134D01*
X226173Y765140D01*
X226272Y765142D01*
X228868Y765142D01*
X236804Y765142D02*
X236911Y765140D01*
X237017Y765134D01*
X237123Y765124D01*
X237229Y765111D01*
X237335Y765093D01*
X237439Y765072D01*
X237543Y765047D01*
X237646Y765018D01*
X237747Y764986D01*
X237847Y764949D01*
X237946Y764909D01*
X238044Y764866D01*
X238140Y764819D01*
X238234Y764768D01*
X238326Y764714D01*
X238416Y764657D01*
X238504Y764597D01*
X238589Y764533D01*
X238672Y764466D01*
X238753Y764396D01*
X238831Y764324D01*
X238907Y764248D01*
X238979Y764170D01*
X239049Y764089D01*
X239116Y764006D01*
X239180Y763921D01*
X239240Y763833D01*
X239297Y763743D01*
X239351Y763651D01*
X239402Y763557D01*
X239449Y763461D01*
X239492Y763363D01*
X239532Y763264D01*
X239569Y763164D01*
X239601Y763063D01*
X239630Y762960D01*
X239655Y762856D01*
X239676Y762752D01*
X239694Y762646D01*
X239707Y762540D01*
X239717Y762434D01*
X239723Y762328D01*
X239725Y762221D01*
X236804Y765142D02*
X236683Y765140D01*
X236562Y765134D01*
X236442Y765124D01*
X236321Y765111D01*
X236202Y765093D01*
X236082Y765072D01*
X235964Y765047D01*
X235847Y765018D01*
X235730Y764985D01*
X235615Y764949D01*
X235501Y764908D01*
X235388Y764865D01*
X235276Y764817D01*
X235167Y764766D01*
X235059Y764711D01*
X234952Y764653D01*
X234848Y764592D01*
X234746Y764527D01*
X234646Y764459D01*
X234548Y764388D01*
X234452Y764314D01*
X234359Y764237D01*
X234269Y764156D01*
X234181Y764073D01*
X234096Y763987D01*
X234013Y763898D01*
X233934Y763807D01*
X233857Y763713D01*
X233784Y763617D01*
X233714Y763519D01*
X233647Y763418D01*
X233583Y763315D01*
X233523Y763210D01*
X233466Y763103D01*
X233412Y762995D01*
X233362Y762885D01*
X233316Y762773D01*
X233273Y762660D01*
X233234Y762545D01*
X238751Y759949D02*
X238830Y760026D01*
X238906Y760107D01*
X238979Y760190D01*
X239049Y760275D01*
X239116Y760363D01*
X239180Y760453D01*
X239240Y760545D01*
X239297Y760640D01*
X239351Y760736D01*
X239402Y760834D01*
X239449Y760934D01*
X239493Y761036D01*
X239533Y761139D01*
X239569Y761243D01*
X239601Y761349D01*
X239630Y761455D01*
X239655Y761563D01*
X239677Y761671D01*
X239694Y761781D01*
X239708Y761890D01*
X239717Y762000D01*
X239723Y762111D01*
X239725Y762221D01*
X238751Y759949D02*
X233234Y753458D01*
X239725Y753458D01*
D17*
X258300Y733400D02*
X194050Y733400D01*
X218550Y680400D02*
X258300Y680400D01*
D20*
X228968Y681058D02*
X226372Y681058D01*
X226273Y681060D01*
X226173Y681066D01*
X226074Y681075D01*
X225976Y681088D01*
X225878Y681105D01*
X225780Y681126D01*
X225684Y681151D01*
X225589Y681179D01*
X225495Y681211D01*
X225402Y681246D01*
X225310Y681285D01*
X225220Y681328D01*
X225132Y681373D01*
X225045Y681423D01*
X224961Y681475D01*
X224878Y681531D01*
X224798Y681589D01*
X224720Y681651D01*
X224645Y681716D01*
X224572Y681784D01*
X224502Y681854D01*
X224434Y681927D01*
X224369Y682002D01*
X224307Y682080D01*
X224249Y682160D01*
X224193Y682243D01*
X224141Y682327D01*
X224091Y682414D01*
X224046Y682502D01*
X224003Y682592D01*
X223964Y682684D01*
X223929Y682777D01*
X223897Y682871D01*
X223869Y682966D01*
X223844Y683062D01*
X223823Y683160D01*
X223806Y683258D01*
X223793Y683356D01*
X223784Y683455D01*
X223778Y683555D01*
X223776Y683654D01*
X223775Y683654D02*
X223775Y690146D01*
X223776Y690146D02*
X223778Y690245D01*
X223784Y690345D01*
X223793Y690444D01*
X223806Y690542D01*
X223823Y690640D01*
X223844Y690738D01*
X223869Y690834D01*
X223897Y690929D01*
X223929Y691023D01*
X223964Y691116D01*
X224003Y691208D01*
X224046Y691298D01*
X224091Y691386D01*
X224141Y691473D01*
X224193Y691557D01*
X224249Y691640D01*
X224307Y691720D01*
X224369Y691798D01*
X224434Y691873D01*
X224502Y691946D01*
X224572Y692016D01*
X224645Y692084D01*
X224720Y692149D01*
X224798Y692211D01*
X224878Y692269D01*
X224961Y692325D01*
X225045Y692377D01*
X225132Y692427D01*
X225220Y692472D01*
X225310Y692515D01*
X225402Y692554D01*
X225494Y692589D01*
X225589Y692621D01*
X225684Y692649D01*
X225780Y692674D01*
X225878Y692695D01*
X225976Y692712D01*
X226074Y692725D01*
X226173Y692734D01*
X226273Y692740D01*
X226372Y692742D01*
X228968Y692742D01*
X233334Y681058D02*
X236579Y681058D01*
X236692Y681060D01*
X236805Y681066D01*
X236918Y681076D01*
X237031Y681090D01*
X237143Y681107D01*
X237254Y681129D01*
X237364Y681154D01*
X237474Y681184D01*
X237582Y681217D01*
X237689Y681254D01*
X237795Y681294D01*
X237899Y681339D01*
X238002Y681387D01*
X238103Y681438D01*
X238202Y681493D01*
X238299Y681551D01*
X238394Y681613D01*
X238487Y681678D01*
X238577Y681746D01*
X238665Y681817D01*
X238751Y681892D01*
X238834Y681969D01*
X238914Y682049D01*
X238991Y682132D01*
X239066Y682218D01*
X239137Y682306D01*
X239205Y682396D01*
X239270Y682489D01*
X239332Y682584D01*
X239390Y682681D01*
X239445Y682780D01*
X239496Y682881D01*
X239544Y682984D01*
X239589Y683088D01*
X239629Y683194D01*
X239666Y683301D01*
X239699Y683409D01*
X239729Y683519D01*
X239754Y683629D01*
X239776Y683740D01*
X239793Y683852D01*
X239807Y683965D01*
X239817Y684078D01*
X239823Y684191D01*
X239825Y684304D01*
X239823Y684417D01*
X239817Y684530D01*
X239807Y684643D01*
X239793Y684756D01*
X239776Y684868D01*
X239754Y684979D01*
X239729Y685089D01*
X239699Y685199D01*
X239666Y685307D01*
X239629Y685414D01*
X239589Y685520D01*
X239544Y685624D01*
X239496Y685727D01*
X239445Y685828D01*
X239390Y685927D01*
X239332Y686024D01*
X239270Y686119D01*
X239205Y686212D01*
X239137Y686302D01*
X239066Y686390D01*
X238991Y686476D01*
X238914Y686559D01*
X238834Y686639D01*
X238751Y686716D01*
X238665Y686791D01*
X238577Y686862D01*
X238487Y686930D01*
X238394Y686995D01*
X238299Y687057D01*
X238202Y687115D01*
X238103Y687170D01*
X238002Y687221D01*
X237899Y687269D01*
X237795Y687314D01*
X237689Y687354D01*
X237582Y687391D01*
X237474Y687424D01*
X237364Y687454D01*
X237254Y687479D01*
X237143Y687501D01*
X237031Y687518D01*
X236918Y687532D01*
X236805Y687542D01*
X236692Y687548D01*
X236579Y687550D01*
X237228Y692742D02*
X233334Y692742D01*
X237228Y692742D02*
X237329Y692740D01*
X237429Y692734D01*
X237529Y692724D01*
X237629Y692711D01*
X237728Y692693D01*
X237827Y692672D01*
X237924Y692647D01*
X238021Y692618D01*
X238116Y692585D01*
X238210Y692549D01*
X238302Y692509D01*
X238393Y692466D01*
X238482Y692419D01*
X238569Y692369D01*
X238655Y692315D01*
X238738Y692258D01*
X238818Y692198D01*
X238897Y692135D01*
X238973Y692068D01*
X239046Y691999D01*
X239116Y691927D01*
X239184Y691853D01*
X239249Y691776D01*
X239310Y691696D01*
X239369Y691614D01*
X239424Y691530D01*
X239476Y691444D01*
X239525Y691356D01*
X239570Y691266D01*
X239612Y691174D01*
X239650Y691081D01*
X239684Y690986D01*
X239715Y690891D01*
X239742Y690794D01*
X239765Y690696D01*
X239785Y690597D01*
X239800Y690497D01*
X239812Y690397D01*
X239820Y690297D01*
X239824Y690196D01*
X239824Y690096D01*
X239820Y689995D01*
X239812Y689895D01*
X239800Y689795D01*
X239785Y689695D01*
X239765Y689596D01*
X239742Y689498D01*
X239715Y689401D01*
X239684Y689306D01*
X239650Y689211D01*
X239612Y689118D01*
X239570Y689026D01*
X239525Y688936D01*
X239476Y688848D01*
X239424Y688762D01*
X239369Y688678D01*
X239310Y688596D01*
X239249Y688516D01*
X239184Y688439D01*
X239116Y688365D01*
X239046Y688293D01*
X238973Y688224D01*
X238897Y688157D01*
X238818Y688094D01*
X238738Y688034D01*
X238655Y687977D01*
X238569Y687923D01*
X238482Y687873D01*
X238393Y687826D01*
X238302Y687783D01*
X238210Y687743D01*
X238116Y687707D01*
X238021Y687674D01*
X237924Y687645D01*
X237827Y687620D01*
X237728Y687599D01*
X237629Y687581D01*
X237529Y687568D01*
X237429Y687558D01*
X237329Y687552D01*
X237228Y687550D01*
X237228Y687549D02*
X234632Y687549D01*
D10*
X250000Y660000D02*
X405000Y660000D01*
X560000Y660000D01*
X560000Y435000D01*
X560000Y210000D01*
X405000Y210000D01*
X250000Y210000D01*
X250000Y435000D01*
X250000Y660000D01*
D20*
X405000Y660000D02*
X405000Y495300D01*
X405000Y210000D01*
X250000Y435000D02*
X560000Y435000D01*
X344700Y374700D02*
X344700Y495300D01*
X405000Y495300D01*
X465300Y495300D01*
X465300Y374700D01*
X344700Y374700D01*
D12*
X5677Y642927D02*
X5677Y645721D01*
X6453Y645721D01*
X6508Y645719D01*
X6563Y645713D01*
X6618Y645703D01*
X6672Y645690D01*
X6724Y645672D01*
X6775Y645651D01*
X6825Y645626D01*
X6873Y645598D01*
X6918Y645566D01*
X6961Y645531D01*
X7002Y645494D01*
X7039Y645453D01*
X7074Y645410D01*
X7106Y645365D01*
X7134Y645317D01*
X7159Y645267D01*
X7180Y645216D01*
X7198Y645164D01*
X7211Y645110D01*
X7221Y645055D01*
X7227Y645000D01*
X7229Y644945D01*
X7227Y644890D01*
X7221Y644835D01*
X7211Y644780D01*
X7198Y644726D01*
X7180Y644674D01*
X7159Y644623D01*
X7134Y644573D01*
X7106Y644525D01*
X7074Y644480D01*
X7039Y644437D01*
X7002Y644396D01*
X6961Y644359D01*
X6918Y644324D01*
X6873Y644292D01*
X6825Y644264D01*
X6775Y644239D01*
X6724Y644218D01*
X6672Y644200D01*
X6618Y644187D01*
X6563Y644177D01*
X6508Y644171D01*
X6453Y644169D01*
X5677Y644169D01*
X6608Y644169D02*
X7229Y642927D01*
X8283Y642617D02*
X9525Y642617D01*
X10694Y642927D02*
X10694Y645721D01*
X11935Y645721D01*
X11935Y644479D02*
X10694Y644479D01*
X13107Y644479D02*
X13883Y644479D01*
X13938Y644477D01*
X13993Y644471D01*
X14048Y644461D01*
X14102Y644448D01*
X14154Y644430D01*
X14205Y644409D01*
X14255Y644384D01*
X14303Y644356D01*
X14348Y644324D01*
X14391Y644289D01*
X14432Y644252D01*
X14469Y644211D01*
X14504Y644168D01*
X14536Y644123D01*
X14564Y644075D01*
X14589Y644025D01*
X14610Y643974D01*
X14628Y643922D01*
X14641Y643868D01*
X14651Y643813D01*
X14657Y643758D01*
X14659Y643703D01*
X14657Y643648D01*
X14651Y643593D01*
X14641Y643538D01*
X14628Y643484D01*
X14610Y643432D01*
X14589Y643381D01*
X14564Y643331D01*
X14536Y643283D01*
X14504Y643238D01*
X14469Y643195D01*
X14432Y643154D01*
X14391Y643117D01*
X14348Y643082D01*
X14303Y643050D01*
X14255Y643022D01*
X14205Y642997D01*
X14154Y642976D01*
X14102Y642958D01*
X14048Y642945D01*
X13993Y642935D01*
X13938Y642929D01*
X13883Y642927D01*
X13107Y642927D01*
X13107Y645721D01*
X13883Y645721D01*
X13932Y645719D01*
X13980Y645713D01*
X14028Y645704D01*
X14075Y645691D01*
X14121Y645674D01*
X14165Y645653D01*
X14207Y645629D01*
X14248Y645602D01*
X14286Y645572D01*
X14322Y645539D01*
X14355Y645503D01*
X14385Y645465D01*
X14412Y645424D01*
X14436Y645382D01*
X14457Y645338D01*
X14474Y645292D01*
X14487Y645245D01*
X14496Y645197D01*
X14502Y645149D01*
X14504Y645100D01*
X14502Y645051D01*
X14496Y645003D01*
X14487Y644955D01*
X14474Y644908D01*
X14457Y644862D01*
X14436Y644818D01*
X14412Y644776D01*
X14385Y644735D01*
X14355Y644697D01*
X14322Y644661D01*
X14286Y644628D01*
X14248Y644598D01*
X14207Y644571D01*
X14165Y644547D01*
X14121Y644526D01*
X14075Y644509D01*
X14028Y644496D01*
X13980Y644487D01*
X13932Y644481D01*
X13883Y644479D01*
X16571Y645722D02*
X16621Y645720D01*
X16670Y645715D01*
X16720Y645706D01*
X16768Y645694D01*
X16815Y645678D01*
X16861Y645659D01*
X16906Y645636D01*
X16949Y645611D01*
X16990Y645583D01*
X17029Y645551D01*
X17065Y645517D01*
X17099Y645481D01*
X17131Y645442D01*
X17159Y645401D01*
X17184Y645358D01*
X17207Y645313D01*
X17226Y645267D01*
X17242Y645220D01*
X17254Y645172D01*
X17263Y645122D01*
X17268Y645073D01*
X17270Y645023D01*
X16571Y645721D02*
X16515Y645719D01*
X16458Y645714D01*
X16403Y645705D01*
X16348Y645693D01*
X16294Y645677D01*
X16241Y645658D01*
X16189Y645636D01*
X16139Y645610D01*
X16090Y645581D01*
X16043Y645549D01*
X15999Y645515D01*
X15957Y645478D01*
X15917Y645438D01*
X15879Y645395D01*
X15845Y645351D01*
X15813Y645304D01*
X15785Y645256D01*
X15759Y645205D01*
X15737Y645153D01*
X15718Y645100D01*
X17036Y644480D02*
X17072Y644516D01*
X17105Y644554D01*
X17135Y644595D01*
X17162Y644638D01*
X17187Y644682D01*
X17208Y644728D01*
X17227Y644775D01*
X17242Y644823D01*
X17254Y644872D01*
X17262Y644922D01*
X17267Y644972D01*
X17269Y645023D01*
X17037Y644479D02*
X15717Y642927D01*
X17269Y642927D01*
X18341Y642617D02*
X19583Y642617D01*
X20655Y645100D02*
X21431Y645721D01*
X21431Y642927D01*
X20655Y642927D02*
X22207Y642927D01*
X109227Y534693D02*
X112021Y534693D01*
X109227Y534693D02*
X109227Y535469D01*
X109229Y535524D01*
X109235Y535579D01*
X109245Y535634D01*
X109258Y535688D01*
X109276Y535740D01*
X109297Y535791D01*
X109322Y535841D01*
X109350Y535889D01*
X109382Y535934D01*
X109417Y535977D01*
X109454Y536018D01*
X109495Y536055D01*
X109538Y536090D01*
X109583Y536122D01*
X109631Y536150D01*
X109681Y536175D01*
X109732Y536196D01*
X109784Y536214D01*
X109838Y536227D01*
X109893Y536237D01*
X109948Y536243D01*
X110003Y536245D01*
X110058Y536243D01*
X110113Y536237D01*
X110168Y536227D01*
X110222Y536214D01*
X110274Y536196D01*
X110325Y536175D01*
X110375Y536150D01*
X110423Y536122D01*
X110468Y536090D01*
X110511Y536055D01*
X110552Y536018D01*
X110589Y535977D01*
X110624Y535934D01*
X110656Y535889D01*
X110684Y535841D01*
X110709Y535791D01*
X110730Y535740D01*
X110748Y535688D01*
X110761Y535634D01*
X110771Y535579D01*
X110777Y535524D01*
X110779Y535469D01*
X110779Y534693D01*
X110779Y535624D02*
X112021Y536245D01*
X112331Y537299D02*
X112331Y538541D01*
X112021Y539709D02*
X109227Y539709D01*
X109227Y540951D01*
X110469Y540951D02*
X110469Y539709D01*
X110469Y542123D02*
X110469Y542899D01*
X110471Y542954D01*
X110477Y543009D01*
X110487Y543064D01*
X110500Y543118D01*
X110518Y543170D01*
X110539Y543221D01*
X110564Y543271D01*
X110592Y543319D01*
X110624Y543364D01*
X110659Y543407D01*
X110696Y543448D01*
X110737Y543485D01*
X110780Y543520D01*
X110825Y543552D01*
X110873Y543580D01*
X110923Y543605D01*
X110974Y543626D01*
X111026Y543644D01*
X111080Y543657D01*
X111135Y543667D01*
X111190Y543673D01*
X111245Y543675D01*
X111300Y543673D01*
X111355Y543667D01*
X111410Y543657D01*
X111464Y543644D01*
X111516Y543626D01*
X111567Y543605D01*
X111617Y543580D01*
X111665Y543552D01*
X111710Y543520D01*
X111753Y543485D01*
X111794Y543448D01*
X111831Y543407D01*
X111866Y543364D01*
X111898Y543319D01*
X111926Y543271D01*
X111951Y543221D01*
X111972Y543170D01*
X111990Y543118D01*
X112003Y543064D01*
X112013Y543009D01*
X112019Y542954D01*
X112021Y542899D01*
X112021Y542123D01*
X109227Y542123D01*
X109227Y542899D01*
X109229Y542948D01*
X109235Y542996D01*
X109244Y543044D01*
X109257Y543091D01*
X109274Y543137D01*
X109295Y543181D01*
X109319Y543223D01*
X109346Y543264D01*
X109376Y543302D01*
X109409Y543338D01*
X109445Y543371D01*
X109483Y543401D01*
X109524Y543428D01*
X109566Y543452D01*
X109610Y543473D01*
X109656Y543490D01*
X109703Y543503D01*
X109751Y543512D01*
X109799Y543518D01*
X109848Y543520D01*
X109897Y543518D01*
X109945Y543512D01*
X109993Y543503D01*
X110040Y543490D01*
X110086Y543473D01*
X110130Y543452D01*
X110172Y543428D01*
X110213Y543401D01*
X110251Y543371D01*
X110287Y543338D01*
X110320Y543302D01*
X110350Y543264D01*
X110377Y543223D01*
X110401Y543181D01*
X110422Y543137D01*
X110439Y543091D01*
X110452Y543044D01*
X110461Y542996D01*
X110467Y542948D01*
X110469Y542899D01*
X109848Y544733D02*
X109227Y545509D01*
X112021Y545509D01*
X112021Y544733D02*
X112021Y546285D01*
X112331Y547357D02*
X112331Y548599D01*
X109848Y549671D02*
X109227Y550447D01*
X112021Y550447D01*
X112021Y549671D02*
X112021Y551223D01*
D19*
X90600Y574749D02*
X70600Y574749D01*
X70600Y554851D02*
X90600Y554851D01*
D12*
X64974Y559317D02*
X64974Y559938D01*
X64974Y559317D02*
X64972Y559268D01*
X64966Y559220D01*
X64957Y559172D01*
X64944Y559125D01*
X64927Y559079D01*
X64906Y559035D01*
X64882Y558993D01*
X64855Y558952D01*
X64825Y558914D01*
X64792Y558878D01*
X64756Y558845D01*
X64718Y558815D01*
X64677Y558788D01*
X64635Y558764D01*
X64591Y558743D01*
X64545Y558726D01*
X64498Y558713D01*
X64450Y558704D01*
X64402Y558698D01*
X64353Y558696D01*
X62801Y558696D01*
X62752Y558698D01*
X62704Y558704D01*
X62656Y558713D01*
X62609Y558726D01*
X62563Y558743D01*
X62519Y558764D01*
X62477Y558787D01*
X62436Y558815D01*
X62398Y558845D01*
X62362Y558878D01*
X62329Y558914D01*
X62299Y558952D01*
X62272Y558992D01*
X62248Y559035D01*
X62227Y559079D01*
X62210Y559125D01*
X62197Y559172D01*
X62188Y559220D01*
X62182Y559268D01*
X62180Y559317D01*
X62180Y559938D01*
X65284Y560871D02*
X65284Y562113D01*
X64974Y563412D02*
X62180Y563412D01*
X64974Y563102D02*
X64974Y563723D01*
X62180Y563723D02*
X62180Y563102D01*
X62180Y564922D02*
X64974Y564922D01*
X64974Y566475D02*
X62180Y564922D01*
X62180Y566475D02*
X64974Y566475D01*
X65284Y567638D02*
X65284Y568880D01*
X62879Y571504D02*
X62829Y571502D01*
X62780Y571497D01*
X62730Y571488D01*
X62682Y571476D01*
X62635Y571460D01*
X62589Y571441D01*
X62544Y571418D01*
X62501Y571393D01*
X62460Y571365D01*
X62421Y571333D01*
X62385Y571299D01*
X62351Y571263D01*
X62319Y571224D01*
X62291Y571183D01*
X62266Y571140D01*
X62243Y571095D01*
X62224Y571049D01*
X62208Y571002D01*
X62196Y570954D01*
X62187Y570904D01*
X62182Y570855D01*
X62180Y570805D01*
X62182Y570749D01*
X62187Y570692D01*
X62196Y570637D01*
X62208Y570582D01*
X62224Y570528D01*
X62243Y570475D01*
X62266Y570423D01*
X62291Y570373D01*
X62320Y570324D01*
X62352Y570277D01*
X62386Y570233D01*
X62423Y570191D01*
X62463Y570151D01*
X62506Y570113D01*
X62550Y570079D01*
X62597Y570047D01*
X62646Y570019D01*
X62696Y569993D01*
X62748Y569971D01*
X62801Y569952D01*
X63422Y571270D02*
X63386Y571306D01*
X63348Y571339D01*
X63307Y571369D01*
X63265Y571396D01*
X63220Y571421D01*
X63174Y571442D01*
X63127Y571461D01*
X63079Y571476D01*
X63030Y571488D01*
X62980Y571496D01*
X62930Y571501D01*
X62879Y571503D01*
X63422Y571271D02*
X64974Y569951D01*
X64974Y571504D01*
D19*
X119900Y409449D02*
X139900Y409449D01*
X139900Y389551D02*
X119900Y389551D01*
D10*
X67300Y42540D02*
X69840Y40000D01*
X67300Y37460D01*
X90160Y40000D02*
X92700Y42540D01*
X90160Y40000D02*
X92700Y37460D01*
X92700Y17140D01*
X90160Y14600D01*
X92700Y62860D02*
X90160Y65400D01*
X92700Y62860D02*
X92700Y42540D01*
X90160Y65400D02*
X69840Y65400D01*
X67300Y62860D01*
X67300Y42540D01*
X67300Y37460D02*
X67300Y17140D01*
X69840Y14600D01*
X90160Y14600D01*
D14*
X60315Y19045D02*
X51425Y19045D01*
X60315Y19045D02*
X60415Y19043D01*
X60514Y19037D01*
X60614Y19027D01*
X60712Y19014D01*
X60811Y18996D01*
X60908Y18975D01*
X61004Y18950D01*
X61100Y18921D01*
X61194Y18888D01*
X61287Y18852D01*
X61378Y18812D01*
X61468Y18768D01*
X61556Y18721D01*
X61642Y18671D01*
X61726Y18617D01*
X61808Y18560D01*
X61887Y18500D01*
X61965Y18436D01*
X62039Y18370D01*
X62111Y18301D01*
X62180Y18229D01*
X62246Y18155D01*
X62310Y18077D01*
X62370Y17998D01*
X62427Y17916D01*
X62481Y17832D01*
X62531Y17746D01*
X62578Y17658D01*
X62622Y17568D01*
X62662Y17477D01*
X62698Y17384D01*
X62731Y17290D01*
X62760Y17194D01*
X62785Y17098D01*
X62806Y17001D01*
X62824Y16902D01*
X62837Y16804D01*
X62847Y16704D01*
X62853Y16605D01*
X62855Y16505D01*
X62855Y15235D01*
X62855Y25025D02*
X51425Y25025D01*
X51425Y28200D01*
X51427Y28311D01*
X51433Y28421D01*
X51442Y28532D01*
X51456Y28642D01*
X51473Y28751D01*
X51494Y28860D01*
X51519Y28968D01*
X51548Y29075D01*
X51580Y29181D01*
X51616Y29286D01*
X51656Y29389D01*
X51699Y29491D01*
X51746Y29592D01*
X51797Y29691D01*
X51850Y29787D01*
X51907Y29882D01*
X51968Y29975D01*
X52031Y30066D01*
X52098Y30155D01*
X52168Y30241D01*
X52241Y30324D01*
X52316Y30406D01*
X52394Y30484D01*
X52476Y30559D01*
X52559Y30632D01*
X52645Y30702D01*
X52734Y30769D01*
X52825Y30832D01*
X52918Y30893D01*
X53012Y30950D01*
X53109Y31003D01*
X53208Y31054D01*
X53309Y31101D01*
X53411Y31144D01*
X53514Y31184D01*
X53619Y31220D01*
X53725Y31252D01*
X53832Y31281D01*
X53940Y31306D01*
X54049Y31327D01*
X54158Y31344D01*
X54268Y31358D01*
X54379Y31367D01*
X54489Y31373D01*
X54600Y31375D01*
X54711Y31373D01*
X54821Y31367D01*
X54932Y31358D01*
X55042Y31344D01*
X55151Y31327D01*
X55260Y31306D01*
X55368Y31281D01*
X55475Y31252D01*
X55581Y31220D01*
X55686Y31184D01*
X55789Y31144D01*
X55891Y31101D01*
X55992Y31054D01*
X56091Y31003D01*
X56188Y30950D01*
X56282Y30893D01*
X56375Y30832D01*
X56466Y30769D01*
X56555Y30702D01*
X56641Y30632D01*
X56724Y30559D01*
X56806Y30484D01*
X56884Y30406D01*
X56959Y30324D01*
X57032Y30241D01*
X57102Y30155D01*
X57169Y30066D01*
X57232Y29975D01*
X57293Y29882D01*
X57350Y29788D01*
X57403Y29691D01*
X57454Y29592D01*
X57501Y29491D01*
X57544Y29389D01*
X57584Y29286D01*
X57620Y29181D01*
X57652Y29075D01*
X57681Y28968D01*
X57706Y28860D01*
X57727Y28751D01*
X57744Y28642D01*
X57758Y28532D01*
X57767Y28421D01*
X57773Y28311D01*
X57775Y28200D01*
X57775Y25025D01*
X62855Y35884D02*
X62855Y39694D01*
X62853Y39794D01*
X62847Y39893D01*
X62837Y39993D01*
X62824Y40091D01*
X62806Y40190D01*
X62785Y40287D01*
X62760Y40383D01*
X62731Y40479D01*
X62698Y40573D01*
X62662Y40666D01*
X62622Y40757D01*
X62578Y40847D01*
X62531Y40935D01*
X62481Y41021D01*
X62427Y41105D01*
X62370Y41187D01*
X62310Y41266D01*
X62246Y41344D01*
X62180Y41418D01*
X62111Y41490D01*
X62039Y41559D01*
X61965Y41625D01*
X61887Y41689D01*
X61808Y41749D01*
X61726Y41806D01*
X61642Y41860D01*
X61556Y41910D01*
X61468Y41957D01*
X61378Y42001D01*
X61287Y42041D01*
X61194Y42077D01*
X61100Y42110D01*
X61004Y42139D01*
X60908Y42164D01*
X60811Y42185D01*
X60712Y42203D01*
X60614Y42216D01*
X60514Y42226D01*
X60415Y42232D01*
X60315Y42234D01*
X59045Y42234D01*
X58945Y42232D01*
X58846Y42226D01*
X58746Y42216D01*
X58648Y42203D01*
X58549Y42185D01*
X58452Y42164D01*
X58356Y42139D01*
X58260Y42110D01*
X58166Y42077D01*
X58073Y42041D01*
X57982Y42001D01*
X57892Y41957D01*
X57804Y41910D01*
X57718Y41860D01*
X57634Y41806D01*
X57552Y41749D01*
X57473Y41689D01*
X57395Y41625D01*
X57321Y41559D01*
X57249Y41490D01*
X57180Y41418D01*
X57114Y41344D01*
X57050Y41266D01*
X56990Y41187D01*
X56933Y41105D01*
X56879Y41021D01*
X56829Y40935D01*
X56782Y40847D01*
X56738Y40757D01*
X56698Y40666D01*
X56662Y40573D01*
X56629Y40479D01*
X56600Y40383D01*
X56575Y40287D01*
X56554Y40190D01*
X56536Y40091D01*
X56523Y39993D01*
X56513Y39893D01*
X56507Y39794D01*
X56505Y39694D01*
X56505Y35884D01*
X51425Y35884D01*
X51425Y42234D01*
D21*
X157000Y860000D02*
X157000Y875000D01*
X5000Y875000D01*
X5000Y785000D01*
X85000Y785000D01*
D20*
X86815Y812504D02*
X86815Y821592D01*
X86815Y812504D02*
X86813Y812405D01*
X86807Y812305D01*
X86798Y812206D01*
X86785Y812108D01*
X86768Y812010D01*
X86747Y811912D01*
X86722Y811816D01*
X86694Y811721D01*
X86662Y811627D01*
X86627Y811534D01*
X86588Y811442D01*
X86545Y811352D01*
X86500Y811264D01*
X86450Y811177D01*
X86398Y811093D01*
X86342Y811010D01*
X86284Y810930D01*
X86222Y810852D01*
X86157Y810777D01*
X86089Y810704D01*
X86019Y810634D01*
X85946Y810566D01*
X85871Y810501D01*
X85793Y810439D01*
X85713Y810381D01*
X85630Y810325D01*
X85546Y810273D01*
X85459Y810223D01*
X85371Y810178D01*
X85281Y810135D01*
X85189Y810096D01*
X85096Y810061D01*
X85002Y810029D01*
X84907Y810001D01*
X84811Y809976D01*
X84713Y809955D01*
X84615Y809938D01*
X84517Y809925D01*
X84418Y809916D01*
X84318Y809910D01*
X84219Y809908D01*
X82920Y809908D01*
X92089Y809908D02*
X95334Y809908D01*
X95447Y809910D01*
X95560Y809916D01*
X95673Y809926D01*
X95786Y809940D01*
X95898Y809957D01*
X96009Y809979D01*
X96119Y810004D01*
X96229Y810034D01*
X96337Y810067D01*
X96444Y810104D01*
X96550Y810144D01*
X96654Y810189D01*
X96757Y810237D01*
X96858Y810288D01*
X96957Y810343D01*
X97054Y810401D01*
X97149Y810463D01*
X97242Y810528D01*
X97332Y810596D01*
X97420Y810667D01*
X97506Y810742D01*
X97589Y810819D01*
X97669Y810899D01*
X97746Y810982D01*
X97821Y811068D01*
X97892Y811156D01*
X97960Y811246D01*
X98025Y811339D01*
X98087Y811434D01*
X98145Y811531D01*
X98200Y811630D01*
X98251Y811731D01*
X98299Y811834D01*
X98344Y811938D01*
X98384Y812044D01*
X98421Y812151D01*
X98454Y812259D01*
X98484Y812369D01*
X98509Y812479D01*
X98531Y812590D01*
X98548Y812702D01*
X98562Y812815D01*
X98572Y812928D01*
X98578Y813041D01*
X98580Y813154D01*
X98578Y813267D01*
X98572Y813380D01*
X98562Y813493D01*
X98548Y813606D01*
X98531Y813718D01*
X98509Y813829D01*
X98484Y813939D01*
X98454Y814049D01*
X98421Y814157D01*
X98384Y814264D01*
X98344Y814370D01*
X98299Y814474D01*
X98251Y814577D01*
X98200Y814678D01*
X98145Y814777D01*
X98087Y814874D01*
X98025Y814969D01*
X97960Y815062D01*
X97892Y815152D01*
X97821Y815240D01*
X97746Y815326D01*
X97669Y815409D01*
X97589Y815489D01*
X97506Y815566D01*
X97420Y815641D01*
X97332Y815712D01*
X97242Y815780D01*
X97149Y815845D01*
X97054Y815907D01*
X96957Y815965D01*
X96858Y816020D01*
X96757Y816071D01*
X96654Y816119D01*
X96550Y816164D01*
X96444Y816204D01*
X96337Y816241D01*
X96229Y816274D01*
X96119Y816304D01*
X96009Y816329D01*
X95898Y816351D01*
X95786Y816368D01*
X95673Y816382D01*
X95560Y816392D01*
X95447Y816398D01*
X95334Y816400D01*
X95983Y821592D02*
X92089Y821592D01*
X95983Y821592D02*
X96084Y821590D01*
X96184Y821584D01*
X96284Y821574D01*
X96384Y821561D01*
X96483Y821543D01*
X96582Y821522D01*
X96679Y821497D01*
X96776Y821468D01*
X96871Y821435D01*
X96965Y821399D01*
X97057Y821359D01*
X97148Y821316D01*
X97237Y821269D01*
X97324Y821219D01*
X97410Y821165D01*
X97493Y821108D01*
X97573Y821048D01*
X97652Y820985D01*
X97728Y820918D01*
X97801Y820849D01*
X97871Y820777D01*
X97939Y820703D01*
X98004Y820626D01*
X98065Y820546D01*
X98124Y820464D01*
X98179Y820380D01*
X98231Y820294D01*
X98280Y820206D01*
X98325Y820116D01*
X98367Y820024D01*
X98405Y819931D01*
X98439Y819836D01*
X98470Y819741D01*
X98497Y819644D01*
X98520Y819546D01*
X98540Y819447D01*
X98555Y819347D01*
X98567Y819247D01*
X98575Y819147D01*
X98579Y819046D01*
X98579Y818946D01*
X98575Y818845D01*
X98567Y818745D01*
X98555Y818645D01*
X98540Y818545D01*
X98520Y818446D01*
X98497Y818348D01*
X98470Y818251D01*
X98439Y818156D01*
X98405Y818061D01*
X98367Y817968D01*
X98325Y817876D01*
X98280Y817786D01*
X98231Y817698D01*
X98179Y817612D01*
X98124Y817528D01*
X98065Y817446D01*
X98004Y817366D01*
X97939Y817289D01*
X97871Y817215D01*
X97801Y817143D01*
X97728Y817074D01*
X97652Y817007D01*
X97573Y816944D01*
X97493Y816884D01*
X97410Y816827D01*
X97324Y816773D01*
X97237Y816723D01*
X97148Y816676D01*
X97057Y816633D01*
X96965Y816593D01*
X96871Y816557D01*
X96776Y816524D01*
X96679Y816495D01*
X96582Y816470D01*
X96483Y816449D01*
X96384Y816431D01*
X96284Y816418D01*
X96184Y816408D01*
X96084Y816402D01*
X95983Y816400D01*
X95983Y816399D02*
X93387Y816399D01*
M02*
