G04 EAGLE Gerber RS-274X export*
G75*
%MOMM*%
%FSLAX34Y34*%
%LPD*%
%INSolderpaste Top*%
%IPPOS*%
%AMOC8*
5,1,8,0,0,1.08239X$1,22.5*%
G01*
%ADD10R,1.300000X1.500000*%
%ADD11R,0.970000X1.470000*%
%ADD12R,1.500000X1.300000*%
%ADD13R,0.690000X0.990000*%
%ADD14R,0.800000X0.950000*%
%ADD15R,0.950000X0.800000*%
%ADD16R,1.271900X0.581800*%
%ADD17R,3.300000X3.300000*%
%ADD18R,0.961800X3.341800*%
%ADD19R,3.150000X1.850000*%
%ADD20C,0.340000*%
%ADD21R,1.037100X1.361800*%


D10*
X128100Y635700D03*
X145100Y635700D03*
X148000Y499100D03*
X165000Y499100D03*
X169000Y622300D03*
X186000Y622300D03*
X179500Y447400D03*
X196500Y447400D03*
D11*
X144200Y587400D03*
X127600Y587400D03*
X194900Y423200D03*
X178300Y423200D03*
D12*
X53000Y643500D03*
X53000Y660500D03*
X97300Y478900D03*
X97300Y495900D03*
D10*
X169100Y601100D03*
X186100Y601100D03*
X214400Y470600D03*
X197400Y470600D03*
D13*
X96900Y166700D03*
X106400Y166700D03*
X115900Y166700D03*
X115900Y192600D03*
X96900Y192600D03*
X140400Y166900D03*
X149900Y166900D03*
X159400Y166900D03*
X159400Y192800D03*
X140400Y192800D03*
X183800Y166900D03*
X193300Y166900D03*
X202800Y166900D03*
X202800Y192800D03*
X183800Y192800D03*
D10*
X97600Y643900D03*
X78600Y643900D03*
X138900Y478300D03*
X119900Y478300D03*
D14*
X168300Y644200D03*
X184300Y644200D03*
D15*
X188800Y491200D03*
X188800Y507200D03*
D10*
X157500Y380500D03*
X138500Y380500D03*
D12*
X75800Y466600D03*
X75800Y485600D03*
X15300Y572100D03*
X15300Y591100D03*
D10*
X52100Y420300D03*
X33100Y420300D03*
D16*
X52583Y623650D03*
X52583Y617150D03*
X52583Y610650D03*
X52583Y604150D03*
X52583Y597650D03*
X52583Y591150D03*
X52583Y584650D03*
X52583Y578150D03*
X109017Y578150D03*
X109017Y584650D03*
X109017Y591150D03*
X109017Y597650D03*
X109017Y604150D03*
X109017Y610650D03*
X109017Y617150D03*
X109017Y623650D03*
D17*
X80800Y600900D03*
D16*
X102883Y460950D03*
X102883Y454450D03*
X102883Y447950D03*
X102883Y441450D03*
X102883Y434950D03*
X102883Y428450D03*
X102883Y421950D03*
X102883Y415450D03*
X159317Y415450D03*
X159317Y421950D03*
X159317Y428450D03*
X159317Y434950D03*
X159317Y441450D03*
X159317Y447950D03*
X159317Y454450D03*
X159317Y460950D03*
D17*
X131100Y438200D03*
D18*
X130450Y550000D03*
X154150Y550000D03*
X179250Y390800D03*
X202950Y390800D03*
D19*
X209500Y852000D03*
X253500Y852000D03*
X209700Y779300D03*
X253700Y779300D03*
X209800Y706900D03*
X253800Y706900D03*
D20*
X357500Y493500D03*
X362500Y493500D03*
X367500Y493500D03*
X372500Y493500D03*
X377500Y493500D03*
X382500Y493500D03*
X387500Y493500D03*
X392500Y493500D03*
X397500Y493500D03*
X402500Y493500D03*
X407500Y493500D03*
X412500Y493500D03*
X417500Y493500D03*
X422500Y493500D03*
X427500Y493500D03*
X432500Y493500D03*
X437500Y493500D03*
X442500Y493500D03*
X447500Y493500D03*
X452500Y493500D03*
X357500Y376400D03*
X362500Y376400D03*
X367500Y376400D03*
X372500Y376400D03*
X377500Y376400D03*
X382500Y376400D03*
X387500Y376400D03*
X392500Y376400D03*
X397500Y376400D03*
X402500Y376400D03*
X407500Y376400D03*
X412500Y376400D03*
X417500Y376400D03*
X422500Y376400D03*
X427500Y376400D03*
X432500Y376400D03*
X437500Y376400D03*
X442500Y376400D03*
X447500Y376400D03*
X452500Y376400D03*
X346400Y387500D03*
X346400Y392500D03*
X346400Y397500D03*
X346400Y402500D03*
X346400Y407500D03*
X346400Y412500D03*
X346400Y417500D03*
X346400Y422500D03*
X346400Y427500D03*
X346400Y432500D03*
X346400Y437500D03*
X346400Y442500D03*
X346400Y447500D03*
X346400Y452500D03*
X346400Y457500D03*
X346400Y462500D03*
X346400Y467500D03*
X346400Y472500D03*
X346400Y477500D03*
X346400Y482500D03*
X463700Y387500D03*
X463700Y392500D03*
X463700Y397500D03*
X463700Y402500D03*
X463700Y407500D03*
X463700Y412500D03*
X463700Y417500D03*
X463700Y422500D03*
X463700Y427500D03*
X463700Y432500D03*
X463700Y437500D03*
X463700Y442500D03*
X463700Y447500D03*
X463700Y452500D03*
X463700Y457500D03*
X463700Y462500D03*
X463700Y467500D03*
X463700Y472500D03*
X463700Y477500D03*
X463700Y482500D03*
X410000Y440000D03*
X410000Y430000D03*
X400000Y430000D03*
X400000Y440000D03*
X400000Y450000D03*
X410000Y450000D03*
X420000Y450000D03*
X420000Y440000D03*
X420000Y430000D03*
X420000Y420000D03*
X410000Y420000D03*
X400000Y420000D03*
X390000Y420000D03*
X390000Y430000D03*
X390000Y440000D03*
X390000Y450000D03*
D12*
X15000Y612600D03*
X15000Y631600D03*
D10*
X97200Y542000D03*
X78200Y542000D03*
D21*
X71726Y564800D03*
X89474Y564800D03*
X121026Y399500D03*
X138774Y399500D03*
M02*
