M48
;GenerationSoftware,Autodesk,EAGLE,9.5.2*%
;CreationDate,2020-09-30T00:25:29Z*%
FMAT,2
ICI,OFF
METRIC,TZ,000.000
T13C0.300
T12C0.350
T11C0.450
T10C0.500
T9C0.550
T8C0.914
T7C1.000
T6C1.016
T5C1.270
T4C1.295
T3C1.400
T2C2.700
T1C3.150
%
G90
M71
T1
X37365Y59635
X37365Y30815
X66185Y30815
X66185Y59635
T2
X81950Y67250
X21450Y12650
X84450Y12650
X25400Y67250
T3
X36380Y77080
X36380Y73080
T4
X22580Y28150
X85130Y45600
X74970Y45600
X85130Y55760
X80050Y50680
X78300Y68210
X74970Y55760
X58500Y73220
X68140Y68210
X68140Y78370
X78300Y78370
X73220Y73290
X63580Y68140
X53420Y68140
X53420Y78300
X63580Y78300
X27660Y33230
X17500Y33230
X17500Y23070
X27660Y23070
T5
X25761Y10650
X80141Y7600
T6
X40930Y66080
X43470Y66080
X48550Y66080
X46010Y66080
T7
X30110Y78010
X15210Y61720
X37490Y71360
X17840Y77290
X35870Y71320
X41410Y76580
X18160Y48140
X41420Y78140
X30070Y76540
T8
X21250Y36730
X18710Y36730
X78540Y40630
X72270Y63420
X74810Y63420
X57030Y63590
X59570Y63590
X81080Y40630
T9
X34810Y47240
X34970Y45120
T10
X30670Y46400
X28680Y42260
T11
X27300Y10040
X27320Y12560
T12
X41830Y41090
X44790Y41200
X57510Y18390
X23430Y16530
X42730Y11920
X35165Y8015
X25950Y61820
X28070Y60730
X70760Y14420
X74510Y14440
X68110Y13060
X73320Y11940
X75710Y13210
X77100Y13230
X21790Y46380
X38851Y10739
X56333Y20117
X49440Y19040
X42770Y8090
X57030Y18910
X42940Y17240
X37730Y13130
X42730Y13240
X45241Y18690
X36445Y8075
X38940Y6860
X44070Y8150
X47905Y8125
X24400Y46380
X40660Y44711
X40260Y13150
X56554Y19396
X48345Y18605
X46610Y13170
X21760Y45570
X21770Y44720
X77060Y10660
X77080Y8100
X35640Y54810
X21810Y43920
X20630Y54940
X25330Y54980
X26900Y55280
X19690Y54900
X40640Y36070
X24380Y43860
X24350Y44660
X24370Y45470
X23560Y45490
X22640Y45530
X22580Y44750
X23520Y44700
X22600Y43950
X23470Y43940
X22670Y46380
X23550Y46370
X21820Y59120
X24440Y59150
X24400Y56700
X22640Y59120
X23490Y59110
X21820Y58380
X21820Y57530
X24390Y57520
X24370Y58300
X23480Y58280
X22650Y58330
X22630Y57520
X23480Y57510
X41760Y49250
X23490Y56670
X22670Y56670
X21840Y56710
X40740Y55240
X43780Y55220
X42760Y53230
X41790Y53230
X40750Y52250
X42760Y52220
X44780Y51260
X45800Y52230
X44760Y50220
X44760Y49240
X40740Y47230
X44750Y47200
X44720Y46210
X44750Y43230
X41770Y45210
T13
X51800Y48180
X50800Y48190
X50760Y46220
X50810Y45190
X50790Y44180
X49760Y43160
X49750Y42250
X49770Y44200
X49750Y45260
X49750Y46210
X49750Y48190
X47820Y38190
X46780Y38190
X43770Y34330
X18390Y9680
X17710Y14960
X60810Y55320
X16980Y18430
X26920Y44840
X53830Y36230
X44170Y16860
X58760Y37190
X50410Y15760
X58800Y36250
X69330Y16930
X58800Y35200
X74510Y16830
X56810Y35220
X42780Y15730
X55830Y35250
X52340Y18265
X47790Y15700
X56780Y34320
X52720Y17280
X68130Y14430
X54780Y34310
X52962Y19248
X73260Y15700
X49760Y53210
X70140Y23930
X46840Y55240
X72305Y29925
X40570Y37710
X49750Y55230
X71070Y26050
X41790Y36190
X42720Y36180
X40770Y35110
X58770Y45240
X58970Y19000
X54260Y9370
X60740Y49190
X64907Y18703
X63110Y9400
X60800Y47250
X62480Y20310
X65630Y9370
X58780Y44200
X69550Y9350
X61780Y51260
X73330Y9380
X48780Y54230
X70440Y24640
X46800Y35190
X49750Y56030
X49740Y52240
X47760Y55270
X71820Y28290
X51790Y55230
X44760Y54210
X72880Y31570
X53750Y54220
X61770Y48210
X60610Y18840
X56770Y13210
X60760Y48210
X61080Y19320
X60565Y13215
X45780Y54220
X72125Y29025
X55720Y55270
X45760Y55210
X72625Y30765
X53740Y53260
X46780Y54240
X71580Y27520
X53750Y52130
X47760Y54230
X71190Y26860
X57810Y53210
X50790Y53220
X69540Y23315
X51710Y8120
X60790Y50240
X64490Y22600
X54230Y8130
X62630Y45220
X61852Y21458
X63130Y8090
X61770Y50220
X70750Y8120
X59750Y48220
X62926Y20840
X73240Y8090
X41800Y39220
X36895Y20475
X32650Y10660
X41800Y42240
X31860Y20480
X35160Y9410
X42740Y41220
X37605Y17135
X46610Y9340
X42820Y39200
X36472Y21632
X30100Y11860
X43720Y41210
X36130Y19770
X35180Y10500
X41810Y38250
X41660Y17180
X41530Y11910
X43800Y43210
X30050Y18520
X36470Y5630
X43730Y45210
X30050Y21210
X40190Y5570
X40640Y45700
X27680Y20410
X54440Y4390
X40650Y42370
X28890Y18950
X35090Y5520
X58740Y53200
X31142Y20498
X38990Y5560
X28450Y20430
X42870Y5550
X58820Y55310
X51780Y53250
X59310Y4430
X61790Y45190
X61220Y20960
X61860Y5550
X44780Y55250
X73210Y32420
X60750Y53220
X50760Y55240
X70740Y25340
X62630Y55230
X60750Y52250
X61810Y52230
X59810Y45230
X59925Y18965
X60340Y14490
X61750Y49180
X58790Y51240
X58780Y50220
X62630Y46380
X19290Y46710
X60980Y45160
X58790Y46200
X19240Y46050
X17280Y44370
X26900Y57380
X19870Y42220
X20620Y42220
X25250Y42200
X26560Y42220
X60780Y44120
X59760Y44170
X61780Y43110
X59760Y43220
X19260Y58810
X17070Y54320
X21660Y17570
X42740Y55250
X58760Y40210
X40650Y39800
X36772Y17122
X43770Y44200
X19500Y60860
X16990Y59950
X22540Y51580
X58750Y39200
X61800Y40220
X61770Y38230
X59790Y36270
X61760Y35190
X60770Y36210
X55770Y34300
X53810Y37230
X51780Y34290
X52760Y37240
X49730Y37230
X50780Y37280
X50750Y36230
X49770Y34300
X55790Y39210
X47770Y49210
X55790Y49230
X55770Y41230
X48770Y41230
X49760Y47240
X50800Y47220
X51800Y47210
X52740Y47220
X53780Y47220
X53760Y46220
X53790Y45230
X53780Y44240
X53750Y43240
X53740Y42260
X52780Y43180
X52760Y42220
X51760Y42250
X50790Y42230
X53780Y48170
X52780Y48170
X52790Y46240
X52790Y45210
X52770Y44190
X51790Y43210
X50810Y43220
X51790Y44210
X51770Y45230
X51770Y46210
X54230Y5590
M30