M48
;GenerationSoftware,Autodesk,EAGLE,9.5.2*%
;CreationDate,2021-02-03T20:38:02Z*%
FMAT,2
ICI,OFF
METRIC,TZ,000.000
T12C0.300
T11C0.450
T10C0.914
T9C1.016
T8C1.270
T7C1.295
T6C1.500
T5C2.000
T4C2.200
T3C2.700
T2C3.162
T1C3.640
%
G90
M71
T1
X15000Y83000
X12000Y78300
T2
X9000Y83000
T3
X71450Y11650
X8450Y11650
X68950Y66250
X12400Y66250
T4
X27500Y29500
X53500Y29500
X53500Y57500
X27500Y57500
T5
X51300Y51000
T6
X29700Y36000
T7
X47420Y87300
X62140Y52210
X72570Y22040
X62410Y22040
X62410Y32200
X72570Y32200
X67220Y57290
X67490Y27120
X72300Y62370
X57580Y77140
X47420Y77140
X62140Y62370
X52500Y82220
X57580Y87300
X12440Y28150
X17520Y33230
X7360Y33230
X7360Y23070
X17520Y23070
X72300Y52210
T8
X25350Y81550
X25390Y74320
X67139Y9650
X12759Y12700
T9
X36740Y74050
X36740Y76590
X36740Y79130
X36740Y81670
T10
X21020Y29440
X62240Y36410
X64780Y36410
X62270Y47420
X64810Y47420
X51030Y72590
X53570Y72590
X8000Y2730
X8000Y5270
X21020Y26900
T11
X4880Y57150
X10650Y40900
X9899Y40899
X16290Y40890
X15580Y40890
X5620Y57140
X10510Y57130
X11230Y57160
T12
X25990Y5920
X32632Y40175
X24740Y5860
X33236Y42453
X20900Y4660
X33341Y43058
X19655Y4525
X47360Y12040
X46300Y12190
X43590Y11060
X42520Y10920
X39970Y12170
X38640Y12180
X35065Y38935
X24760Y10940
X34440Y38227
X23505Y10925
X34140Y47218
X18500Y12180
X38621Y36556
X33460Y8430
X38125Y36916
X32360Y8380
X46280Y13490
X45120Y13510
X42530Y12220
X41215Y12165
X46260Y9630
X46290Y10930
X42530Y9580
X41210Y9620
X46290Y8410
X43765Y8415
X42470Y8330
X44605Y48827
X53390Y16110
X43980Y48810
X52660Y16100
X41800Y48340
X50140Y15880
X41195Y48337
X48890Y16050
X41233Y47693
X46840Y16090
X40620Y47670
X46310Y16510
X40015Y47668
X45780Y17170
X39481Y48050
X45750Y17920
X38930Y48490
X38755Y15975
X38491Y48073
X37450Y15980
X45210Y48827
X53940Y14720
X39370Y42370
X51380Y14760
X42168Y48827
X50125Y14755
X38230Y47450
X34900Y16010
X37571Y48090
X33745Y16145
X37141Y47600
X31175Y16065
X37078Y46995
X29840Y16150
X22000Y16000
X33281Y38475
X22180Y10920
X33027Y39330
X22190Y9650
X34173Y46613
X18400Y10950
X33535Y47320
X17100Y10950
X37629Y36556
X32360Y9630
X37090Y36872
X31070Y9660
X34007Y37804
X24690Y8340
X33403Y37870
X23440Y9670
X30700Y40420
X19670Y9620
X30271Y40846
X19590Y8340
X42730Y36735
X38650Y7080
X42125Y36916
X37480Y7080
X39682Y36618
X33610Y7140
X39155Y36945
X32310Y7110
X65410Y7100
X65365Y9765
X16960Y43300
X8680Y32360
X4260Y60580
X1000Y56000
X12130Y49590
X16490Y47490
X18120Y46770
X14910Y39780
X28000Y44000
X7360Y66480
X20995Y63005
X14995Y61995
X12830Y15280
X9060Y43850
X6600Y41960
X17130Y16510
X13000Y18000
X9000Y39000
X8490Y44600
X11970Y59770
X4270Y61550
X1510Y60250
X5910Y54120
X21190Y16410
X45810Y47750
X43250Y48030
X35160Y46250
X44320Y36730
X39370Y45380
X40380Y45390
X41380Y45390
X42400Y45370
X39360Y44370
X40360Y44370
X41360Y44380
X42360Y44370
X39350Y43380
X40360Y43370
X41380Y43370
X42360Y43360
X40370Y42370
X41360Y42360
X42360Y42360
X43020Y49890
X1500Y64260
X11000Y24000
X10000Y21000
X66000Y3000
X43469Y38161
X38710Y4530
X40661Y36589
X33640Y4600
X40186Y36969
X32370Y4580
X35220Y36682
X28550Y4560
X35073Y37287
X27350Y4590
X33026Y41244
X23460Y4560
X33131Y41848
X22215Y4585
X41629Y36556
X36190Y5790
X41161Y36944
X34880Y5840
X36485Y36841
X31090Y5870
X35880Y36850
X29820Y5810
X33237Y40173
X15000Y18000
M30