G04 EAGLE Gerber RS-274X export*
G75*
%MOMM*%
%FSLAX34Y34*%
%LPD*%
%INCopper Layer 15*%
%IPPOS*%
%AMOC8*
5,1,8,0,0,1.08239X$1,22.5*%
G01*
%ADD10C,1.943100*%
%ADD11C,1.371600*%
%ADD12C,1.524000*%
%ADD13C,0.553200*%
%ADD14C,1.500000*%
%ADD15C,0.825000*%
%ADD16C,0.503200*%
%ADD17C,0.750000*%
%ADD18C,0.406400*%
%ADD19C,0.127000*%
%ADD20C,0.152400*%
%ADD21C,0.675000*%
%ADD22C,0.203200*%
%ADD23C,0.304800*%


D10*
X585000Y732200D03*
X635800Y783000D03*
X534200Y783000D03*
X534200Y681400D03*
X635800Y681400D03*
X732200Y732900D03*
X783000Y783700D03*
X681400Y783700D03*
X681400Y682100D03*
X783000Y682100D03*
X800500Y506800D03*
X851300Y557600D03*
X749700Y557600D03*
X749700Y456000D03*
X851300Y456000D03*
X225800Y281500D03*
X276600Y332300D03*
X175000Y332300D03*
X175000Y230700D03*
X276600Y230700D03*
D11*
X212500Y367300D03*
X187100Y367300D03*
X785400Y406300D03*
X810800Y406300D03*
X722700Y634200D03*
X748100Y634200D03*
X570300Y635900D03*
X595700Y635900D03*
D12*
X485500Y660800D03*
X460100Y660800D03*
X434700Y660800D03*
X409300Y660800D03*
D13*
X217900Y463800D03*
X244000Y463800D03*
X217600Y455700D03*
X217700Y447200D03*
X218100Y439200D03*
X243800Y438600D03*
X243500Y446600D03*
X243700Y454700D03*
X235600Y454900D03*
X226400Y455300D03*
X225800Y447500D03*
X235200Y447000D03*
X226000Y439500D03*
X234700Y439400D03*
X226700Y463800D03*
X235500Y463700D03*
X218200Y591200D03*
X244400Y591500D03*
X218400Y567100D03*
X244000Y567000D03*
X226400Y591200D03*
X234900Y591100D03*
X218200Y583800D03*
X218200Y575300D03*
X243900Y575200D03*
X243700Y583000D03*
X234800Y582800D03*
X226500Y583300D03*
X226300Y575200D03*
X234800Y575100D03*
X234900Y566700D03*
X226700Y566700D03*
D14*
X301100Y780100D03*
X300700Y765400D03*
X414200Y781400D03*
X414100Y765800D03*
X358700Y713200D03*
X374900Y713600D03*
X152100Y617200D03*
D15*
X349700Y451200D03*
D13*
X407400Y552400D03*
X437800Y552200D03*
X427600Y532300D03*
X417900Y532300D03*
X407500Y522500D03*
X427600Y522200D03*
X447800Y512600D03*
X458000Y522300D03*
X447600Y502200D03*
X447600Y492400D03*
X407400Y472300D03*
X447500Y472000D03*
X447200Y462100D03*
X447500Y432300D03*
X417700Y452100D03*
X418300Y410900D03*
X447900Y412000D03*
D16*
X405700Y377100D03*
X417900Y361900D03*
X427200Y361800D03*
X407700Y351100D03*
X468000Y351900D03*
X497500Y560300D03*
X497400Y522400D03*
X517900Y552300D03*
X537500Y542200D03*
X557200Y552700D03*
X537400Y532600D03*
X537500Y521300D03*
X578100Y532100D03*
X587400Y532000D03*
X588200Y553100D03*
X607500Y532200D03*
X626300Y552300D03*
X607500Y522500D03*
X618100Y522300D03*
X617500Y491800D03*
X587900Y512400D03*
X587800Y502200D03*
X626300Y463800D03*
X609800Y451600D03*
X587900Y462000D03*
X607800Y441200D03*
X597600Y441700D03*
X617800Y431100D03*
X597600Y432200D03*
X587600Y402100D03*
X587500Y392000D03*
X618000Y402200D03*
X617700Y382300D03*
X597900Y362700D03*
X617600Y351900D03*
X607700Y362100D03*
X557700Y343000D03*
X538100Y372300D03*
X517800Y342900D03*
X527600Y372400D03*
X497300Y372300D03*
X507800Y372800D03*
X507500Y362300D03*
X497700Y343000D03*
X557900Y392100D03*
X477700Y492100D03*
X557900Y492300D03*
X557700Y412300D03*
X487700Y412300D03*
X497600Y472400D03*
X508000Y472200D03*
X518000Y472100D03*
X527400Y472200D03*
X537800Y472200D03*
X537600Y462200D03*
X537900Y452300D03*
X537800Y442400D03*
X537500Y432400D03*
X537400Y422600D03*
X527800Y431800D03*
X527600Y422200D03*
X517600Y422500D03*
X507900Y422300D03*
X537800Y481700D03*
X527800Y481700D03*
X527900Y462400D03*
X527900Y452100D03*
X527700Y441900D03*
X517900Y432100D03*
X508100Y432200D03*
X517900Y442100D03*
X517700Y452300D03*
X517700Y462100D03*
X518000Y481800D03*
X508000Y481900D03*
X507600Y462200D03*
X508100Y451900D03*
X507900Y441800D03*
X497600Y431600D03*
X497500Y422500D03*
X497700Y442000D03*
X497500Y452600D03*
X497500Y462100D03*
X497500Y481900D03*
D13*
X417600Y492500D03*
D16*
X478200Y381900D03*
X467800Y381900D03*
X437700Y343300D03*
D15*
X348100Y472400D03*
D13*
X234300Y165300D03*
D16*
X183900Y96800D03*
X177100Y149600D03*
D13*
X259500Y618200D03*
X280700Y607300D03*
D14*
X178400Y772900D03*
D13*
X707600Y144200D03*
X745100Y144400D03*
X681100Y130600D03*
X733200Y119400D03*
X757100Y132100D03*
X771000Y132300D03*
D14*
X181600Y481400D03*
D17*
X306700Y464000D03*
D18*
X252382Y464000D01*
X243694Y472688D01*
X192412Y472688D01*
X183700Y481400D01*
X181600Y481400D01*
D16*
X608100Y553200D03*
D19*
X632400Y577500D02*
X632400Y603400D01*
X632400Y577500D02*
X608100Y553200D01*
X663200Y634200D02*
X722700Y634200D01*
X663200Y634200D02*
X632400Y603400D01*
D16*
X169800Y184300D03*
X269200Y448400D03*
X538300Y362300D03*
X441700Y168600D03*
X587600Y371900D03*
X504100Y157600D03*
X588000Y362500D03*
X693300Y169300D03*
X588000Y352000D03*
X745100Y168300D03*
X568100Y352200D03*
X427800Y157300D03*
X558300Y352500D03*
X523400Y182648D03*
D20*
X509652Y168900D01*
X490400Y168900D02*
X478400Y156900D01*
X478000Y156900D01*
X477900Y157000D01*
D16*
X477900Y157000D03*
D20*
X490400Y168900D02*
X509652Y168900D01*
D16*
X567800Y343200D03*
X527200Y172800D03*
D20*
X607200Y172800D01*
D16*
X681300Y144300D03*
D20*
X635700Y144300D02*
X607200Y172800D01*
X635700Y144300D02*
X681300Y144300D01*
D16*
X547800Y343100D03*
X529616Y192484D03*
D20*
X546200Y175900D01*
X627100Y157000D02*
X732600Y157000D01*
X608200Y175900D02*
X546200Y175900D01*
X608200Y175900D02*
X627100Y157000D01*
D16*
X732600Y157000D03*
X497600Y532100D03*
X701400Y239300D03*
D13*
X575102Y183900D03*
D20*
X545800Y183900D01*
X532200Y197500D01*
X523000Y197500D01*
X497400Y171900D01*
X485500Y171900D01*
D13*
X427300Y119200D03*
X351650Y80150D03*
D20*
X432800Y119200D02*
X485500Y171900D01*
X432800Y119200D02*
X427300Y119200D01*
D16*
X468400Y552400D03*
X723050Y299250D03*
D13*
X388507Y107393D03*
D16*
X497500Y552300D03*
X710700Y260500D03*
D13*
X563330Y201170D03*
D20*
X562160Y200000D01*
X541554Y200000D01*
X535672Y205882D01*
X519528Y205882D01*
X504046Y190400D02*
X494400Y190400D01*
D13*
X494400Y190400D03*
X427700Y80900D03*
D20*
X504046Y190400D02*
X519528Y205882D01*
D16*
X587700Y452400D03*
X589700Y190000D03*
X542600Y93700D03*
X607400Y491900D03*
X649066Y187034D03*
X631100Y94000D03*
X608000Y472500D03*
X624800Y203100D03*
X656300Y93700D03*
X587800Y442000D03*
X695500Y93500D03*
X617800Y512600D03*
X733300Y93800D03*
X487800Y542300D03*
X704400Y246400D03*
D13*
X570300Y189100D03*
D20*
X544551Y189100D01*
X533357Y200294D01*
X521843Y200294D01*
X496243Y174694D02*
X484343Y174694D01*
X479824Y170176D01*
X496243Y174694D02*
X521843Y200294D01*
X479824Y170176D02*
X448424Y170176D01*
X442700Y175900D01*
X434000Y175900D01*
X430500Y172400D01*
X429400Y172400D01*
D13*
X429400Y172400D03*
X377300Y131300D03*
D16*
X477600Y552700D03*
X718200Y282900D03*
D13*
X427300Y132400D03*
D16*
X447600Y542100D03*
X728800Y315700D03*
D13*
X452408Y186900D03*
D16*
X617700Y482100D03*
X606100Y188400D03*
X567700Y132100D03*
X607600Y482100D03*
X610800Y193200D03*
X605650Y132150D03*
X457800Y542200D03*
X721250Y290250D03*
D13*
X364450Y80750D03*
D16*
X457600Y552100D03*
X726250Y307650D03*
D13*
X389400Y68600D03*
D16*
X467800Y542400D03*
X715800Y275200D03*
D13*
X440700Y81500D03*
D16*
X477600Y542300D03*
X711900Y268600D03*
D13*
X479050Y81250D03*
D16*
X507900Y532200D03*
X695402Y233150D03*
X517100Y81200D03*
X607900Y502400D03*
X644900Y226000D03*
X542300Y81300D03*
X626300Y452200D03*
X618524Y214576D03*
X631300Y80900D03*
X617700Y502200D03*
X707500Y81200D03*
X597500Y482200D03*
X629264Y208400D03*
X732400Y80900D03*
X418000Y392200D03*
X368949Y204749D03*
D20*
X333949Y204749D01*
X317200Y188000D01*
X317200Y115200D01*
X325800Y106600D02*
X326500Y106600D01*
D16*
X326500Y106600D03*
D20*
X325800Y106600D02*
X317200Y115200D01*
D16*
X418000Y422400D03*
X318600Y204800D03*
D20*
X314300Y200500D01*
X314300Y97900D01*
X318100Y94100D01*
X351600Y94100D01*
D16*
X351600Y94100D03*
X427400Y412200D03*
X376047Y171347D03*
D20*
X410000Y137395D01*
X434200Y93400D02*
X466100Y93400D01*
D16*
X466100Y93400D03*
D20*
X410000Y117600D02*
X410000Y137395D01*
X410000Y117600D02*
X434200Y93400D01*
D16*
X428200Y392000D03*
X364724Y216324D03*
D20*
X358400Y210000D01*
X310000Y210000D02*
X305200Y205200D01*
X305200Y182100D02*
X299600Y176500D01*
X299600Y120400D01*
X301000Y119000D02*
X301000Y118600D01*
D16*
X301000Y118600D03*
D20*
X310000Y210000D02*
X358400Y210000D01*
X305200Y205200D02*
X305200Y182100D01*
X299600Y120400D02*
X301000Y119000D01*
D16*
X437200Y412100D03*
X361300Y197700D03*
D20*
X361300Y115100D01*
X351800Y105600D02*
X351800Y105000D01*
D16*
X351800Y105000D03*
D20*
X351800Y105600D02*
X361300Y115100D01*
D16*
X418100Y382500D03*
X416600Y171800D03*
D20*
X415300Y170500D01*
X415300Y119100D01*
D16*
X415300Y119100D03*
X438000Y432100D03*
X300500Y185200D03*
D20*
X294094Y178794D01*
X294094Y69857D02*
X301157Y62794D01*
X353957Y62794D01*
X360451Y56300D01*
D16*
X364700Y56300D03*
D20*
X294094Y69857D02*
X294094Y178794D01*
X360451Y56300D02*
X364700Y56300D01*
D16*
X437300Y452100D03*
X300500Y212100D03*
D20*
X300500Y193700D01*
X291300Y184500D01*
X291300Y68700D01*
X300000Y60000D01*
X352800Y60000D02*
X366300Y46500D01*
X392700Y46500D01*
X401900Y55700D01*
D16*
X401900Y55700D03*
D20*
X352800Y60000D02*
X300000Y60000D01*
D16*
X406400Y457000D03*
X276800Y204100D03*
D20*
X279100Y201800D01*
X279100Y66700D01*
X305000Y40800D01*
X541300Y40800D02*
X544400Y43900D01*
D16*
X544400Y43900D03*
D20*
X541300Y40800D02*
X305000Y40800D01*
D16*
X406500Y423700D03*
X288900Y189500D03*
D20*
X287200Y187800D01*
X287200Y67700D01*
X299700Y55200D02*
X350900Y55200D01*
X299700Y55200D02*
X287200Y67700D01*
D16*
X350900Y55200D03*
X437700Y442000D03*
X311416Y204984D03*
D20*
X311416Y88584D01*
X334412Y65588D01*
X379912Y65588D02*
X389900Y55600D01*
D16*
X389900Y55600D03*
D20*
X379912Y65588D02*
X334412Y65588D01*
D16*
X284500Y204300D03*
D20*
X283200Y203000D01*
X283200Y67600D01*
X416794Y43594D02*
X428700Y55500D01*
D16*
X428700Y55500D03*
D20*
X307206Y43594D02*
X283200Y67600D01*
X307206Y43594D02*
X416794Y43594D01*
D13*
X406598Y447113D03*
D16*
X517800Y532500D03*
X593100Y44300D03*
X617900Y451900D03*
X612200Y209600D03*
X618600Y55500D03*
X447800Y552500D03*
X732100Y324200D03*
D13*
X402600Y131500D03*
D16*
X507600Y552400D03*
X707400Y253400D03*
D13*
X565540Y193960D03*
D20*
X543643Y193960D01*
X534515Y203088D01*
X501485Y183888D02*
X485612Y183888D01*
X483449Y186051D01*
X520685Y203088D02*
X534515Y203088D01*
X520685Y203088D02*
X501485Y183888D01*
D13*
X483449Y186051D03*
X466100Y131700D03*
D16*
X598100Y452300D03*
X599250Y189650D03*
X603400Y144900D03*
D21*
X273200Y125600D03*
X273000Y100400D03*
D13*
X770600Y106600D03*
X770800Y81000D03*
D16*
X192900Y467100D03*
D22*
X253937Y381018D02*
X266772Y381018D01*
X212548Y422407D02*
X212548Y447452D01*
X212548Y422407D02*
X253937Y381018D01*
D13*
X356400Y548100D03*
D22*
X212548Y447452D02*
X192900Y467100D01*
D17*
X286800Y422600D03*
D22*
X286800Y401046D02*
X266772Y381018D01*
X286800Y401046D02*
X286800Y422600D01*
D16*
X192400Y460500D03*
X172800Y443700D03*
X269000Y573800D03*
X198700Y422200D03*
X206200Y422200D03*
X252500Y422000D03*
X265600Y422200D03*
D13*
X206300Y549400D03*
X253300Y549800D03*
X269000Y552800D03*
X196900Y549000D03*
D16*
X192600Y588100D03*
X170700Y543200D03*
D23*
X192600Y565100D02*
X192600Y588100D01*
X192600Y565100D02*
X170700Y543200D01*
X170700Y449356D01*
X158640Y437296D01*
X158640Y220360D02*
X194600Y184400D01*
X158640Y220360D02*
X158640Y437296D01*
D16*
X216600Y175700D03*
D23*
X207900Y184400D01*
X194600Y184400D01*
D16*
X427400Y552500D03*
D19*
X540300Y605900D02*
X570300Y635900D01*
X540300Y605900D02*
X480800Y605900D01*
X427400Y552500D01*
D13*
X406400Y360700D03*
D19*
X399800Y367300D02*
X212500Y367300D01*
X399800Y367300D02*
X406400Y360700D01*
X225900Y328500D02*
X225900Y281600D01*
X225800Y281500D01*
X225900Y328500D02*
X187100Y367300D01*
X732200Y732900D02*
X748100Y717000D01*
X748100Y634200D01*
X595894Y721306D02*
X585000Y732200D01*
X595894Y721306D02*
X595700Y635900D01*
D16*
X406500Y398000D03*
X367722Y171222D03*
D20*
X367722Y148327D02*
X425443Y90606D01*
X367722Y148327D02*
X367722Y171222D01*
X481700Y55900D02*
X542300Y55900D01*
D16*
X542300Y55900D03*
D20*
X446994Y90606D02*
X425443Y90606D01*
X446994Y90606D02*
X481700Y55900D01*
D16*
X195000Y608600D03*
X169900Y599500D03*
X225400Y515800D03*
M02*
