G04 EAGLE Gerber RS-274X export*
G75*
%MOMM*%
%FSLAX34Y34*%
%LPD*%
%INTop Copper*%
%IPPOS*%
%AMOC8*
5,1,8,0,0,1.08239X$1,22.5*%
G01*
%ADD10C,1.943100*%
%ADD11R,1.300000X1.500000*%
%ADD12R,0.970000X1.470000*%
%ADD13R,0.690000X0.990000*%
%ADD14R,1.800000X2.500000*%
%ADD15R,2.500000X1.800000*%
%ADD16R,0.800000X0.950000*%
%ADD17R,1.500000X1.300000*%
%ADD18R,1.271900X0.581800*%
%ADD19R,3.300000X3.300000*%
%ADD20C,0.500000*%
%ADD21C,1.371600*%
%ADD22C,1.524000*%
%ADD23R,0.961800X3.341800*%
%ADD24R,1.850000X3.150000*%
%ADD25R,3.150000X1.850000*%
%ADD26C,0.508000*%
%ADD27C,0.609600*%
%ADD28C,0.304800*%
%ADD29C,0.553200*%
%ADD30C,1.500000*%
%ADD31C,0.825000*%
%ADD32C,0.203200*%
%ADD33C,0.503200*%
%ADD34C,1.016000*%
%ADD35C,0.127000*%
%ADD36C,0.254000*%
%ADD37C,1.270000*%
%ADD38C,0.750000*%
%ADD39C,0.406400*%
%ADD40C,0.152400*%
%ADD41C,0.675000*%
%ADD42C,0.812800*%


D10*
X585000Y732200D03*
X635800Y783000D03*
X534200Y783000D03*
X534200Y681400D03*
X635800Y681400D03*
X732200Y732900D03*
X783000Y783700D03*
X681400Y783700D03*
X681400Y682100D03*
X783000Y682100D03*
X800500Y506800D03*
X851300Y557600D03*
X749700Y557600D03*
X749700Y456000D03*
X851300Y456000D03*
D11*
X314100Y494800D03*
X331100Y494800D03*
X258000Y639100D03*
X275000Y639100D03*
X319000Y472300D03*
X336000Y472300D03*
X279500Y587400D03*
X296500Y587400D03*
D12*
X221800Y413700D03*
X238400Y413700D03*
X223400Y540700D03*
X240000Y540700D03*
X294200Y437400D03*
X277600Y437400D03*
X294900Y563200D03*
X278300Y563200D03*
D11*
X201000Y494500D03*
X218000Y494500D03*
X217700Y639100D03*
X234700Y639100D03*
X319100Y451100D03*
X336100Y451100D03*
X314400Y610600D03*
X297400Y610600D03*
D13*
X157000Y96800D03*
X166500Y96800D03*
X176000Y96800D03*
X176000Y122700D03*
X157000Y122700D03*
X207100Y165800D03*
X216600Y165800D03*
X226100Y165800D03*
X226100Y191700D03*
X207100Y191700D03*
X158300Y158600D03*
X167800Y158600D03*
X177300Y158600D03*
X177300Y184500D03*
X158300Y184500D03*
D14*
X396800Y713300D03*
X318800Y713300D03*
X396800Y773300D03*
X318800Y773300D03*
D15*
X365800Y696800D03*
D11*
X291200Y494900D03*
X272200Y494900D03*
X238900Y618300D03*
X219900Y618300D03*
D16*
X278300Y464200D03*
X294300Y464200D03*
X296400Y631300D03*
X312400Y631300D03*
D11*
X257500Y520500D03*
X238500Y520500D03*
D17*
X165900Y588400D03*
X165900Y569400D03*
X162000Y443600D03*
X162000Y424600D03*
X159700Y542100D03*
X159700Y523100D03*
D18*
X202583Y473650D03*
X202583Y467150D03*
X202583Y460650D03*
X202583Y454150D03*
X202583Y447650D03*
X202583Y441150D03*
X202583Y434650D03*
X202583Y428150D03*
X259017Y428150D03*
X259017Y434650D03*
X259017Y441150D03*
X259017Y447650D03*
X259017Y454150D03*
X259017Y460650D03*
X259017Y467150D03*
X259017Y473650D03*
D19*
X230800Y450900D03*
D20*
X412750Y557250D03*
X422750Y557250D03*
X432750Y557250D03*
X442750Y557250D03*
X452750Y557250D03*
X462750Y557250D03*
X472750Y557250D03*
X482750Y557250D03*
X492750Y557250D03*
X502750Y557250D03*
X512750Y557250D03*
X522750Y557250D03*
X532750Y557250D03*
X542750Y557250D03*
X552750Y557250D03*
X562750Y557250D03*
X572750Y557250D03*
X582750Y557250D03*
X592750Y557250D03*
X602750Y557250D03*
X612750Y557250D03*
X622750Y557250D03*
X412750Y547250D03*
X422750Y547250D03*
X432750Y547250D03*
X442750Y547250D03*
X452750Y547250D03*
X462750Y547250D03*
X472750Y547250D03*
X482750Y547250D03*
X492750Y547250D03*
X502750Y547250D03*
X512750Y547250D03*
X522750Y547250D03*
X532750Y547250D03*
X542750Y547250D03*
X552750Y547250D03*
X562750Y547250D03*
X572750Y547250D03*
X582750Y547250D03*
X592750Y547250D03*
X602750Y547250D03*
X612750Y547250D03*
X622750Y547250D03*
X412750Y537250D03*
X422750Y537250D03*
X432750Y537250D03*
X442750Y537250D03*
X452750Y537250D03*
X462750Y537250D03*
X472750Y537250D03*
X482750Y537250D03*
X492750Y537250D03*
X502750Y537250D03*
X512750Y537250D03*
X522750Y537250D03*
X532750Y537250D03*
X542750Y537250D03*
X552750Y537250D03*
X562750Y537250D03*
X572750Y537250D03*
X582750Y537250D03*
X592750Y537250D03*
X602750Y537250D03*
X612750Y537250D03*
X622750Y537250D03*
X412750Y527250D03*
X422750Y527250D03*
X432750Y527250D03*
X442750Y527250D03*
X452750Y527250D03*
X462750Y527250D03*
X472750Y527250D03*
X482750Y527250D03*
X492750Y527250D03*
X502750Y527250D03*
X512750Y527250D03*
X522750Y527250D03*
X532750Y527250D03*
X542750Y527250D03*
X552750Y527250D03*
X562750Y527250D03*
X572750Y527250D03*
X582750Y527250D03*
X592750Y527250D03*
X602750Y527250D03*
X612750Y527250D03*
X622750Y527250D03*
X412750Y517250D03*
X422750Y517250D03*
X432750Y517250D03*
X442750Y517250D03*
X452750Y517250D03*
X462750Y517250D03*
X472750Y517250D03*
X482750Y517250D03*
X492750Y517250D03*
X502750Y517250D03*
X512750Y517250D03*
X522750Y517250D03*
X532750Y517250D03*
X542750Y517250D03*
X552750Y517250D03*
X562750Y517250D03*
X572750Y517250D03*
X582750Y517250D03*
X592750Y517250D03*
X602750Y517250D03*
X612750Y517250D03*
X622750Y517250D03*
X412750Y507250D03*
X422750Y507250D03*
X432750Y507250D03*
X442750Y507250D03*
X452750Y507250D03*
X462750Y507250D03*
X472750Y507250D03*
X482750Y507250D03*
X492750Y507250D03*
X502750Y507250D03*
X512750Y507250D03*
X522750Y507250D03*
X532750Y507250D03*
X542750Y507250D03*
X552750Y507250D03*
X562750Y507250D03*
X572750Y507250D03*
X582750Y507250D03*
X592750Y507250D03*
X602750Y507250D03*
X612750Y507250D03*
X622750Y507250D03*
X412750Y497250D03*
X422750Y497250D03*
X432750Y497250D03*
X442750Y497250D03*
X452750Y497250D03*
X462750Y497250D03*
X472750Y497250D03*
X482750Y497250D03*
X492750Y497250D03*
X502750Y497250D03*
X512750Y497250D03*
X522750Y497250D03*
X532750Y497250D03*
X542750Y497250D03*
X552750Y497250D03*
X562750Y497250D03*
X572750Y497250D03*
X582750Y497250D03*
X592750Y497250D03*
X602750Y497250D03*
X612750Y497250D03*
X622750Y497250D03*
X412750Y487250D03*
X422750Y487250D03*
X432750Y487250D03*
X442750Y487250D03*
X452750Y487250D03*
X462750Y487250D03*
X472750Y487250D03*
X482750Y487250D03*
X492750Y487250D03*
X502750Y487250D03*
X512750Y487250D03*
X522750Y487250D03*
X532750Y487250D03*
X542750Y487250D03*
X552750Y487250D03*
X562750Y487250D03*
X572750Y487250D03*
X582750Y487250D03*
X592750Y487250D03*
X602750Y487250D03*
X612750Y487250D03*
X622750Y487250D03*
X412750Y477250D03*
X422750Y477250D03*
X432750Y477250D03*
X442750Y477250D03*
X452750Y477250D03*
X462750Y477250D03*
X472750Y477250D03*
X482750Y477250D03*
X492750Y477250D03*
X502750Y477250D03*
X512750Y477250D03*
X522750Y477250D03*
X532750Y477250D03*
X542750Y477250D03*
X552750Y477250D03*
X562750Y477250D03*
X572750Y477250D03*
X582750Y477250D03*
X592750Y477250D03*
X602750Y477250D03*
X612750Y477250D03*
X622750Y477250D03*
X412750Y467250D03*
X422750Y467250D03*
X432750Y467250D03*
X442750Y467250D03*
X452750Y467250D03*
X462750Y467250D03*
X472750Y467250D03*
X482750Y467250D03*
X492750Y467250D03*
X502750Y467250D03*
X512750Y467250D03*
X522750Y467250D03*
X532750Y467250D03*
X542750Y467250D03*
X552750Y467250D03*
X562750Y467250D03*
X572750Y467250D03*
X582750Y467250D03*
X592750Y467250D03*
X602750Y467250D03*
X612750Y467250D03*
X622750Y467250D03*
X412750Y457250D03*
X422750Y457250D03*
X432750Y457250D03*
X442750Y457250D03*
X452750Y457250D03*
X462750Y457250D03*
X472750Y457250D03*
X482750Y457250D03*
X492750Y457250D03*
X502750Y457250D03*
X512750Y457250D03*
X522750Y457250D03*
X532750Y457250D03*
X542750Y457250D03*
X552750Y457250D03*
X562750Y457250D03*
X572750Y457250D03*
X582750Y457250D03*
X592750Y457250D03*
X602750Y457250D03*
X612750Y457250D03*
X622750Y457250D03*
X412750Y447250D03*
X422750Y447250D03*
X432750Y447250D03*
X442750Y447250D03*
X452750Y447250D03*
X462750Y447250D03*
X472750Y447250D03*
X482750Y447250D03*
X492750Y447250D03*
X502750Y447250D03*
X512750Y447250D03*
X522750Y447250D03*
X532750Y447250D03*
X542750Y447250D03*
X552750Y447250D03*
X562750Y447250D03*
X572750Y447250D03*
X582750Y447250D03*
X592750Y447250D03*
X602750Y447250D03*
X612750Y447250D03*
X622750Y447250D03*
X412750Y437250D03*
X422750Y437250D03*
X432750Y437250D03*
X442750Y437250D03*
X452750Y437250D03*
X462750Y437250D03*
X472750Y437250D03*
X482750Y437250D03*
X492750Y437250D03*
X502750Y437250D03*
X512750Y437250D03*
X522750Y437250D03*
X532750Y437250D03*
X542750Y437250D03*
X552750Y437250D03*
X562750Y437250D03*
X572750Y437250D03*
X582750Y437250D03*
X592750Y437250D03*
X602750Y437250D03*
X612750Y437250D03*
X622750Y437250D03*
X412750Y427250D03*
X422750Y427250D03*
X432750Y427250D03*
X442750Y427250D03*
X452750Y427250D03*
X462750Y427250D03*
X472750Y427250D03*
X482750Y427250D03*
X492750Y427250D03*
X502750Y427250D03*
X512750Y427250D03*
X522750Y427250D03*
X532750Y427250D03*
X542750Y427250D03*
X552750Y427250D03*
X562750Y427250D03*
X572750Y427250D03*
X582750Y427250D03*
X592750Y427250D03*
X602750Y427250D03*
X612750Y427250D03*
X622750Y427250D03*
X412750Y417250D03*
X422750Y417250D03*
X432750Y417250D03*
X442750Y417250D03*
X452750Y417250D03*
X462750Y417250D03*
X472750Y417250D03*
X482750Y417250D03*
X492750Y417250D03*
X502750Y417250D03*
X512750Y417250D03*
X522750Y417250D03*
X532750Y417250D03*
X542750Y417250D03*
X552750Y417250D03*
X562750Y417250D03*
X572750Y417250D03*
X582750Y417250D03*
X592750Y417250D03*
X602750Y417250D03*
X612750Y417250D03*
X622750Y417250D03*
X412750Y407250D03*
X422750Y407250D03*
X432750Y407250D03*
X442750Y407250D03*
X452750Y407250D03*
X462750Y407250D03*
X472750Y407250D03*
X482750Y407250D03*
X492750Y407250D03*
X502750Y407250D03*
X512750Y407250D03*
X522750Y407250D03*
X532750Y407250D03*
X542750Y407250D03*
X552750Y407250D03*
X562750Y407250D03*
X572750Y407250D03*
X582750Y407250D03*
X592750Y407250D03*
X602750Y407250D03*
X612750Y407250D03*
X622750Y407250D03*
X412750Y397250D03*
X422750Y397250D03*
X432750Y397250D03*
X442750Y397250D03*
X452750Y397250D03*
X462750Y397250D03*
X472750Y397250D03*
X482750Y397250D03*
X492750Y397250D03*
X502750Y397250D03*
X512750Y397250D03*
X522750Y397250D03*
X532750Y397250D03*
X542750Y397250D03*
X552750Y397250D03*
X562750Y397250D03*
X572750Y397250D03*
X582750Y397250D03*
X592750Y397250D03*
X602750Y397250D03*
X612750Y397250D03*
X622750Y397250D03*
X412750Y387250D03*
X422750Y387250D03*
X432750Y387250D03*
X442750Y387250D03*
X452750Y387250D03*
X462750Y387250D03*
X472750Y387250D03*
X482750Y387250D03*
X492750Y387250D03*
X502750Y387250D03*
X512750Y387250D03*
X522750Y387250D03*
X532750Y387250D03*
X542750Y387250D03*
X552750Y387250D03*
X562750Y387250D03*
X572750Y387250D03*
X582750Y387250D03*
X592750Y387250D03*
X602750Y387250D03*
X612750Y387250D03*
X622750Y387250D03*
X412750Y377250D03*
X422750Y377250D03*
X432750Y377250D03*
X442750Y377250D03*
X452750Y377250D03*
X462750Y377250D03*
X472750Y377250D03*
X482750Y377250D03*
X492750Y377250D03*
X502750Y377250D03*
X512750Y377250D03*
X522750Y377250D03*
X532750Y377250D03*
X542750Y377250D03*
X552750Y377250D03*
X562750Y377250D03*
X572750Y377250D03*
X582750Y377250D03*
X592750Y377250D03*
X602750Y377250D03*
X612750Y377250D03*
X622750Y377250D03*
X412750Y367250D03*
X422750Y367250D03*
X432750Y367250D03*
X442750Y367250D03*
X452750Y367250D03*
X462750Y367250D03*
X472750Y367250D03*
X482750Y367250D03*
X492750Y367250D03*
X502750Y367250D03*
X512750Y367250D03*
X522750Y367250D03*
X532750Y367250D03*
X542750Y367250D03*
X552750Y367250D03*
X562750Y367250D03*
X572750Y367250D03*
X582750Y367250D03*
X592750Y367250D03*
X602750Y367250D03*
X612750Y367250D03*
X622750Y367250D03*
X412750Y357250D03*
X422750Y357250D03*
X432750Y357250D03*
X442750Y357250D03*
X452750Y357250D03*
X462750Y357250D03*
X472750Y357250D03*
X482750Y357250D03*
X492750Y357250D03*
X502750Y357250D03*
X512750Y357250D03*
X522750Y357250D03*
X532750Y357250D03*
X542750Y357250D03*
X552750Y357250D03*
X562750Y357250D03*
X572750Y357250D03*
X582750Y357250D03*
X592750Y357250D03*
X602750Y357250D03*
X612750Y357250D03*
X622750Y357250D03*
X412750Y347250D03*
X422750Y347250D03*
X432750Y347250D03*
X442750Y347250D03*
X452750Y347250D03*
X462750Y347250D03*
X472750Y347250D03*
X482750Y347250D03*
X492750Y347250D03*
X502750Y347250D03*
X512750Y347250D03*
X522750Y347250D03*
X532750Y347250D03*
X542750Y347250D03*
X552750Y347250D03*
X562750Y347250D03*
X572750Y347250D03*
X582750Y347250D03*
X592750Y347250D03*
X602750Y347250D03*
X612750Y347250D03*
X622750Y347250D03*
D18*
X202883Y600950D03*
X202883Y594450D03*
X202883Y587950D03*
X202883Y581450D03*
X202883Y574950D03*
X202883Y568450D03*
X202883Y561950D03*
X202883Y555450D03*
X259317Y555450D03*
X259317Y561950D03*
X259317Y568450D03*
X259317Y574950D03*
X259317Y581450D03*
X259317Y587950D03*
X259317Y594450D03*
X259317Y600950D03*
D19*
X231100Y578200D03*
D10*
X225800Y281500D03*
X276600Y332300D03*
X175000Y332300D03*
X175000Y230700D03*
X276600Y230700D03*
D21*
X212500Y360442D02*
X212500Y374158D01*
X187100Y374158D02*
X187100Y360442D01*
X785400Y399442D02*
X785400Y413158D01*
X810800Y413158D02*
X810800Y399442D01*
X722700Y627342D02*
X722700Y641058D01*
X748100Y641058D02*
X748100Y627342D01*
X570300Y629042D02*
X570300Y642758D01*
X595700Y642758D02*
X595700Y629042D01*
D22*
X485500Y653180D02*
X485500Y668420D01*
X460100Y668420D02*
X460100Y653180D01*
X434700Y653180D02*
X434700Y668420D01*
X409300Y668420D02*
X409300Y653180D01*
D23*
X260450Y400000D03*
X284150Y400000D03*
X277050Y534600D03*
X300750Y534600D03*
D24*
X258000Y729500D03*
X258000Y773500D03*
D25*
X199900Y750800D03*
X155900Y750800D03*
X200200Y683100D03*
X156200Y683100D03*
D26*
X260567Y563200D02*
X278300Y563200D01*
X260567Y563200D02*
X259790Y562423D01*
X259317Y562423D01*
X259317Y567977D01*
D27*
X262767Y437400D02*
X277600Y437400D01*
D28*
X259017Y434650D02*
X252250Y434650D01*
X238600Y421000D01*
X238400Y413700D01*
D27*
X238600Y443100D01*
X230800Y450900D01*
X241350Y440350D01*
D29*
X217900Y463800D03*
X244000Y463800D03*
X217600Y455700D03*
X217700Y447200D03*
X218100Y439200D03*
X243800Y438600D03*
X243500Y446600D03*
X243700Y454700D03*
X235600Y454900D03*
X226400Y455300D03*
X225800Y447500D03*
X235200Y447000D03*
X226000Y439500D03*
X234700Y439400D03*
X226700Y463800D03*
X235500Y463700D03*
X218200Y591200D03*
X244400Y591500D03*
X218400Y567100D03*
X244000Y567000D03*
X226400Y591200D03*
X234900Y591100D03*
X218200Y583800D03*
X218200Y575300D03*
X243900Y575200D03*
X243700Y583000D03*
X234800Y582800D03*
X226500Y583300D03*
X226300Y575200D03*
X234800Y575100D03*
X234900Y566700D03*
X226700Y566700D03*
D28*
X240200Y550400D02*
X251750Y561950D01*
X240200Y550400D02*
X240000Y540700D01*
X251750Y561950D02*
X259317Y561950D01*
D30*
X301100Y780100D03*
X300700Y765400D03*
X414200Y781400D03*
X414100Y765800D03*
X358700Y713200D03*
X374900Y713600D03*
X152100Y617200D03*
D31*
X349700Y451200D03*
D32*
X217250Y447650D02*
X202583Y447650D01*
X217250Y447650D02*
X217700Y447200D01*
X321100Y504800D02*
X331100Y494800D01*
X321100Y504800D02*
X228300Y504800D01*
X218000Y494500D01*
X322886Y486586D02*
X331100Y494800D01*
X322886Y486586D02*
X322886Y486353D01*
X279353Y483986D02*
X269017Y473650D01*
X259017Y473650D01*
X320519Y483986D02*
X322886Y486353D01*
X320519Y483986D02*
X279353Y483986D01*
X259017Y473650D02*
X259017Y467150D01*
X247350Y467150D01*
X244000Y463800D01*
D29*
X407400Y552400D03*
X437800Y552200D03*
X427600Y532300D03*
X417900Y532300D03*
X407500Y522500D03*
X427600Y522200D03*
X447800Y512600D03*
X458000Y522300D03*
X447600Y502200D03*
X447600Y492400D03*
X407400Y472300D03*
X447500Y472000D03*
X447200Y462100D03*
X447500Y432300D03*
X417700Y452100D03*
X418300Y410900D03*
X447900Y412000D03*
D33*
X405700Y377100D03*
X417900Y361900D03*
X427200Y361800D03*
X407700Y351100D03*
X468000Y351900D03*
X497500Y560300D03*
X497400Y522400D03*
X517900Y552300D03*
X537500Y542200D03*
X557200Y552700D03*
X537400Y532600D03*
X537500Y521300D03*
X578100Y532100D03*
X587400Y532000D03*
X588200Y553100D03*
X607500Y532200D03*
X626300Y552300D03*
X607500Y522500D03*
X618100Y522300D03*
X617500Y491800D03*
X587900Y512400D03*
X587800Y502200D03*
X626300Y463800D03*
X609800Y451600D03*
X587900Y462000D03*
X607800Y441200D03*
X597600Y441700D03*
X617800Y431100D03*
X597600Y432200D03*
X587600Y402100D03*
X587500Y392000D03*
X618000Y402200D03*
X617700Y382300D03*
X597900Y362700D03*
X617600Y351900D03*
X607700Y362100D03*
X557700Y343000D03*
X538100Y372300D03*
X517800Y342900D03*
X527600Y372400D03*
X497300Y372300D03*
X507800Y372800D03*
X507500Y362300D03*
X497700Y343000D03*
X557900Y392100D03*
X477700Y492100D03*
X557900Y492300D03*
X557700Y412300D03*
X487700Y412300D03*
X497600Y472400D03*
X508000Y472200D03*
X518000Y472100D03*
X527400Y472200D03*
X537800Y472200D03*
X537600Y462200D03*
X537900Y452300D03*
X537800Y442400D03*
X537500Y432400D03*
X537400Y422600D03*
X527800Y431800D03*
X527600Y422200D03*
X517600Y422500D03*
X507900Y422300D03*
X537800Y481700D03*
X527800Y481700D03*
X527900Y462400D03*
X527900Y452100D03*
X527700Y441900D03*
X517900Y432100D03*
X508100Y432200D03*
X517900Y442100D03*
X517700Y452300D03*
X517700Y462100D03*
X518000Y481800D03*
X508000Y481900D03*
X507600Y462200D03*
X508100Y451900D03*
X507900Y441800D03*
X497600Y431600D03*
X497500Y422500D03*
X497700Y442000D03*
X497500Y452600D03*
X497500Y462100D03*
X497500Y481900D03*
D29*
X417600Y492500D03*
D33*
X478200Y381900D03*
X467800Y381900D03*
X437700Y343300D03*
D31*
X348100Y472400D03*
D32*
X217850Y574950D02*
X202883Y574950D01*
X217850Y574950D02*
X218200Y575300D01*
X275000Y639100D02*
X265200Y648900D01*
X244500Y648900D02*
X234700Y639100D01*
X244500Y648900D02*
X265200Y648900D01*
X275000Y639100D02*
X275000Y635200D01*
X259317Y594450D02*
X258012Y593145D01*
X252011Y593145D01*
X250366Y591500D02*
X244400Y591500D01*
X250366Y591500D02*
X252011Y593145D01*
D28*
X245450Y568450D02*
X259317Y568450D01*
X245450Y568450D02*
X244000Y567000D01*
D34*
X301100Y780100D02*
X312000Y780100D01*
X318800Y773300D01*
X310900Y765400D02*
X300700Y765400D01*
X310900Y765400D02*
X318800Y773300D01*
X406100Y773300D02*
X414200Y781400D01*
X406100Y773300D02*
X396800Y773300D01*
X404300Y765800D02*
X414100Y765800D01*
X404300Y765800D02*
X396800Y773300D01*
X374900Y713600D02*
X374900Y705900D01*
X365800Y696800D01*
X358700Y703900D02*
X358700Y713200D01*
X358700Y703900D02*
X365800Y696800D01*
X165900Y569400D02*
X160920Y569400D01*
X152300Y578020D01*
X152300Y617000D02*
X152100Y617200D01*
X152300Y617000D02*
X152300Y578020D01*
D26*
X349600Y451100D02*
X349700Y451200D01*
X349600Y451100D02*
X336100Y451100D01*
X348000Y472300D02*
X348100Y472400D01*
X348000Y472300D02*
X336000Y472300D01*
D28*
X407400Y552400D02*
X412250Y557250D01*
X412750Y557250D01*
X422750Y537150D02*
X417900Y532300D01*
X422750Y537150D02*
X422750Y537250D01*
X422750Y537150D02*
X427600Y532300D01*
X432550Y537250D01*
X432750Y537250D01*
X427700Y532300D02*
X427600Y532300D01*
X427700Y532300D02*
X432750Y527250D01*
X427700Y522200D02*
X427600Y522200D01*
X427700Y522200D02*
X432750Y527250D01*
X412850Y527250D02*
X412750Y527250D01*
X412850Y527250D02*
X417900Y532300D01*
X412750Y527250D02*
X408000Y522500D01*
X407500Y522500D01*
X437800Y552300D02*
X442750Y557250D01*
X437800Y552300D02*
X437800Y552200D01*
X432850Y547250D01*
X432750Y547250D01*
X432750Y527250D02*
X442750Y517250D01*
X443150Y517250D01*
X447800Y512600D01*
X447800Y512300D01*
X442750Y507250D01*
X442750Y507050D01*
X447600Y502200D01*
X447600Y502100D01*
X442750Y497250D01*
X447600Y492400D01*
X442750Y457650D02*
X442750Y457250D01*
X442750Y457650D02*
X447200Y462100D01*
X447200Y462800D01*
X442750Y467250D01*
X447500Y472000D01*
X447500Y472500D01*
X442750Y477250D01*
X407700Y472300D02*
X407400Y472300D01*
X407700Y472300D02*
X412750Y467250D01*
X412750Y497250D02*
X412850Y497250D01*
X417600Y492500D01*
X417700Y452200D02*
X417700Y452100D01*
X417700Y452200D02*
X422750Y457250D01*
X417900Y452100D02*
X417700Y452100D01*
X417900Y452100D02*
X422750Y447250D01*
X442750Y437050D02*
X447500Y432300D01*
X442750Y437050D02*
X442750Y437250D01*
D35*
X592750Y349250D02*
X592750Y347250D01*
X592750Y349250D02*
X600750Y357250D01*
X602750Y357250D01*
X607600Y362100D02*
X607700Y362100D01*
X617600Y351900D02*
X618100Y351900D01*
X622750Y347250D01*
D32*
X607700Y362300D02*
X602750Y367250D01*
D35*
X607700Y362300D02*
X607700Y362100D01*
X602750Y357250D02*
X597900Y362100D01*
X597900Y362700D01*
X602450Y367250D02*
X602750Y367250D01*
D32*
X617700Y382300D02*
X622750Y377250D01*
D28*
X462750Y527050D02*
X462750Y527250D01*
X462750Y527050D02*
X458000Y522300D01*
D32*
X492750Y557250D02*
X495800Y560300D01*
X497500Y560300D01*
X502750Y547250D02*
X512750Y547250D01*
X517800Y552300D01*
X517900Y552300D01*
X517900Y552400D01*
X522750Y557250D01*
X532750Y547250D02*
X537500Y542500D01*
X537500Y542200D01*
X538000Y542500D02*
X542750Y547250D01*
X538000Y542500D02*
X537500Y542500D01*
X538000Y542000D02*
X542750Y537250D01*
X538000Y542000D02*
X538000Y542500D01*
X538100Y532600D02*
X537400Y532600D01*
X532750Y537250D01*
X532750Y537450D01*
X502250Y527250D02*
X497400Y522400D01*
X502250Y527250D02*
X502750Y527250D01*
X497400Y522600D02*
X497400Y522400D01*
X497400Y522600D02*
X492750Y527250D01*
X552750Y557150D02*
X557200Y552700D01*
X552750Y557150D02*
X552750Y557250D01*
X577600Y532100D02*
X572750Y527250D01*
X577600Y532100D02*
X578100Y532100D01*
X582750Y527450D01*
X582750Y527250D01*
X582750Y527350D01*
X587400Y532000D01*
X587400Y535132D01*
X587536Y535268D01*
X587536Y552436D02*
X588200Y553100D01*
X587536Y552436D02*
X587536Y535268D01*
X588200Y553100D02*
X588600Y553100D01*
X592750Y557250D01*
X622750Y557250D02*
X626300Y553700D01*
X626300Y552300D01*
X607500Y532500D02*
X602750Y537250D01*
X607500Y532500D02*
X607500Y532200D01*
X612550Y537250D01*
X612750Y537250D01*
X607800Y532200D02*
X607500Y532200D01*
X607800Y532200D02*
X612750Y527250D01*
X608000Y522500D01*
X607500Y522500D01*
X612750Y527250D02*
X613150Y527250D01*
X618100Y522300D01*
X618100Y522600D01*
X622750Y527250D01*
X592750Y507550D02*
X587900Y512400D01*
X592750Y507550D02*
X592750Y507250D01*
X592750Y507150D01*
X587800Y502200D01*
X592750Y497250D01*
X617500Y492000D02*
X617500Y491800D01*
X617500Y492000D02*
X622750Y497250D01*
X622750Y467350D02*
X626300Y463800D01*
X622750Y466150D02*
X622750Y467250D01*
X622750Y467350D01*
X621650Y466150D02*
X612750Y457250D01*
X621650Y466150D02*
X622750Y466150D01*
X592750Y466850D02*
X587900Y462000D01*
X592750Y466850D02*
X592750Y467250D01*
X612750Y457250D02*
X612750Y454550D01*
X609800Y451600D01*
X609800Y450200D01*
X612750Y447250D01*
X607800Y442300D02*
X607800Y441200D01*
X607800Y442300D02*
X612750Y447250D01*
X607800Y442200D02*
X607800Y441200D01*
X607800Y442200D02*
X602750Y447250D01*
X602750Y446850D02*
X597600Y441700D01*
X602750Y446850D02*
X602750Y447250D01*
X597600Y441700D02*
X593150Y437250D01*
X592750Y437250D01*
X597600Y432400D01*
X597600Y432200D01*
X617800Y431100D02*
X622750Y436050D01*
X622750Y437250D01*
X622750Y406950D02*
X618000Y402200D01*
X622750Y406950D02*
X622750Y407250D01*
X617800Y412200D01*
X617800Y431100D01*
X592750Y407250D02*
X587600Y402100D01*
X587900Y402100D01*
X592750Y397250D01*
X587500Y392000D01*
X588000Y392000D01*
X592750Y387250D01*
X572802Y377302D02*
X572750Y377250D01*
X572802Y377302D02*
X572802Y380503D01*
X577964Y389232D02*
X580768Y392036D01*
X584732Y392036D01*
X584768Y392000D01*
X587500Y392000D01*
X577964Y389232D02*
X577964Y385665D01*
X572802Y380503D01*
X619319Y377230D02*
X622730Y377230D01*
X622750Y377250D01*
X605982Y367250D02*
X602750Y367250D01*
X614725Y372636D02*
X619319Y377230D01*
X611368Y372636D02*
X605982Y367250D01*
X611368Y372636D02*
X614725Y372636D01*
X561950Y347250D02*
X557700Y343000D01*
X561950Y347250D02*
X562750Y347250D01*
X538100Y372300D02*
X533050Y367250D01*
X532750Y367250D01*
X527600Y372400D01*
X527900Y372400D01*
X532750Y377250D01*
X562750Y377250D02*
X562750Y380570D01*
X557900Y385420D01*
X557900Y392100D01*
X557900Y412100D01*
X557700Y412300D01*
X552750Y417250D01*
X487700Y412300D02*
X482750Y417250D01*
X537400Y422600D02*
X542050Y427250D01*
X542750Y427250D01*
X542650Y427250D01*
X537500Y432400D01*
X537900Y432400D01*
X542750Y437250D01*
X537800Y442200D01*
X537800Y442400D01*
X542650Y447250D01*
X542750Y447250D01*
X537900Y452100D01*
X537900Y452300D01*
X537900Y452400D01*
X542750Y457250D01*
X542550Y457250D01*
X537600Y462200D01*
X537700Y462200D01*
X537750Y462250D01*
X542750Y467250D01*
X537800Y472200D01*
X537800Y472300D01*
X542750Y477250D01*
X542250Y477250D01*
X537800Y481700D01*
X533350Y477250D01*
X532750Y477250D01*
X537800Y472200D01*
X532850Y467250D01*
X532750Y467250D01*
X537750Y462250D01*
X537600Y462200D02*
X537600Y462100D01*
X532750Y457250D01*
X533050Y457250D01*
X537900Y452400D01*
X537900Y452300D02*
X532850Y447250D01*
X532750Y447250D01*
X537800Y442200D01*
X537800Y442300D02*
X537800Y442400D01*
X537800Y442300D02*
X532750Y437250D01*
X532750Y477250D02*
X532250Y477250D01*
X527800Y481700D01*
X523350Y477250D01*
X522750Y477250D01*
X522550Y477250D01*
X518000Y481800D01*
X513450Y477250D01*
X512750Y477250D01*
X512650Y477250D01*
X508000Y481900D01*
X503350Y477250D01*
X502750Y477250D01*
X502150Y477250D01*
X497500Y481900D01*
X492850Y477250D01*
X492750Y477250D01*
X497600Y472400D01*
X497600Y472100D01*
X492750Y467250D01*
X492750Y466850D01*
X497500Y462100D01*
X497500Y462000D01*
X492750Y457250D01*
X492850Y457250D01*
X497500Y452600D01*
X497500Y452000D01*
X492750Y447250D01*
X492750Y446950D01*
X497700Y442000D01*
X492950Y437250D01*
X492750Y437250D01*
X497600Y432400D01*
X497600Y431600D02*
X493250Y427250D01*
X492750Y427250D01*
X497500Y422500D01*
X502250Y427250D01*
X502750Y427250D01*
X502950Y427250D01*
X507900Y422300D01*
X507900Y422400D01*
X512750Y427250D01*
X512850Y427250D01*
X517600Y422500D01*
X518000Y422500D01*
X522750Y427250D01*
X527600Y422400D01*
X527600Y422200D01*
X532650Y427250D01*
X532750Y427250D01*
X537400Y422600D01*
X528200Y431800D02*
X527800Y431800D01*
X528200Y431800D02*
X532750Y427250D01*
X527800Y431800D02*
X532750Y436750D01*
X532750Y437250D01*
X537500Y432000D02*
X532750Y427250D01*
X537500Y432000D02*
X537500Y432400D01*
X533150Y436750D01*
X532750Y436750D01*
X532750Y437250D02*
X528100Y441900D01*
X527700Y441900D01*
X527700Y442200D01*
X532750Y447250D01*
X527900Y452100D01*
X527900Y452400D01*
X532750Y457250D01*
X532750Y457550D01*
X527900Y462400D01*
X532750Y467250D01*
X532350Y467250D01*
X527400Y472200D01*
X527400Y472400D01*
X532250Y477250D01*
X477900Y492100D02*
X477700Y492100D01*
X477900Y492100D02*
X482750Y487250D01*
X552750Y487250D02*
X552850Y487250D01*
X557900Y492300D01*
X527400Y472200D02*
X523350Y476250D01*
X523350Y477250D01*
X522750Y477250D02*
X522750Y476850D01*
X518000Y472100D01*
X512850Y477250D01*
X512750Y477250D01*
X508000Y472500D01*
X508000Y472200D01*
X502950Y477250D01*
X502750Y477250D01*
X497900Y472400D01*
X497600Y472400D01*
X502750Y467250D01*
X507700Y472200D01*
X508000Y472200D01*
X512750Y467450D01*
X512750Y467250D01*
X517600Y472100D01*
X518000Y472100D01*
X522750Y467350D01*
X522750Y467250D01*
X522750Y467550D01*
X527400Y472200D01*
X527600Y462400D02*
X527900Y462400D01*
X527600Y462400D02*
X522750Y467250D01*
X522750Y467150D01*
X517700Y462100D01*
X517700Y462300D01*
X512750Y467250D01*
X507700Y462200D01*
X507600Y462200D01*
X502750Y467050D01*
X502750Y467250D01*
X497600Y462100D01*
X497500Y462100D01*
X502350Y457250D01*
X502750Y457250D01*
X507700Y462200D01*
X507600Y462200D02*
X507800Y462200D01*
X512750Y457250D01*
X512850Y457250D01*
X517700Y462100D01*
X517900Y462100D01*
X522750Y457250D01*
X527900Y462400D01*
X502150Y457250D02*
X497500Y452600D01*
X502150Y457250D02*
X502350Y457250D01*
X502750Y457250D02*
X508100Y451900D01*
X508100Y452600D01*
X512750Y457250D01*
X517700Y452300D01*
X517800Y452300D01*
X522750Y457250D01*
X523050Y457250D01*
X527900Y452400D01*
X527900Y452100D02*
X523050Y447250D01*
X522750Y447250D01*
X517700Y452300D01*
X517700Y452200D01*
X512750Y447250D01*
X508100Y451900D01*
X503450Y447250D01*
X502750Y447250D01*
X502250Y447250D01*
X497500Y452000D01*
X497700Y442700D02*
X497700Y442000D01*
X497700Y442700D02*
X502250Y447250D01*
X502750Y447250D02*
X507900Y442100D01*
X507900Y441800D01*
X507900Y442400D01*
X512750Y447250D01*
X517900Y442100D01*
X523050Y447250D01*
X522750Y447250D02*
X527700Y442300D01*
X527700Y441900D01*
X523050Y437250D01*
X522750Y437250D01*
X517900Y442100D01*
X513050Y437250D01*
X512750Y437250D01*
X512450Y437250D01*
X507900Y441800D01*
X503350Y437250D01*
X502750Y437250D01*
X502450Y437250D01*
X497700Y442000D01*
X497600Y432400D02*
X497600Y431600D01*
X497600Y432400D02*
X502450Y437250D01*
X502750Y437250D02*
X503050Y437250D01*
X508100Y432200D01*
X508100Y432600D01*
X512750Y437250D01*
X517900Y432100D01*
X517900Y432400D01*
X522750Y437250D01*
X528200Y431800D01*
X527800Y431800D02*
X523250Y427250D01*
X522750Y427250D01*
X517900Y432100D01*
X513050Y427250D01*
X512750Y427250D01*
X508100Y431900D01*
X508100Y432200D01*
X503150Y427250D01*
X502750Y427250D01*
X501950Y427250D01*
X497600Y431600D01*
X562750Y377250D02*
X572750Y377250D01*
X520768Y342464D02*
X520332Y342900D01*
X517800Y342900D01*
X527964Y342464D02*
X532750Y347250D01*
X527964Y342464D02*
X520768Y342464D01*
X532750Y357250D02*
X532750Y366950D01*
X533050Y367250D01*
X507800Y372800D02*
X507200Y372800D01*
X502750Y377250D01*
X497800Y372300D01*
X497300Y372300D01*
X497700Y372300D01*
X502750Y367250D01*
X502750Y367750D01*
X507800Y372800D01*
X502750Y367250D02*
X507500Y362500D01*
X507500Y362300D01*
X507500Y362000D01*
X502750Y357250D01*
X510768Y342464D02*
X514732Y342464D01*
X505982Y347250D02*
X502750Y347250D01*
X514732Y342464D02*
X515168Y342900D01*
X517800Y342900D01*
X510768Y342464D02*
X505982Y347250D01*
X502750Y347250D02*
X498500Y343000D01*
X497700Y343000D01*
X495268Y343000D01*
X494732Y342464D01*
X477536Y342464D01*
X472750Y347250D01*
X472650Y347250D01*
X468000Y351900D01*
X477400Y381900D02*
X478200Y381900D01*
X477400Y381900D02*
X472750Y377250D01*
X472450Y377250D01*
X467800Y381900D01*
X463150Y377250D01*
X462750Y377250D01*
X441650Y347250D02*
X437700Y343300D01*
X441650Y347250D02*
X442750Y347250D01*
X432750Y357250D02*
X431750Y357250D01*
X427200Y361800D01*
X427300Y361800D01*
X432750Y367250D01*
X427200Y361800D02*
X422750Y366250D01*
X422750Y367250D01*
X422750Y366750D01*
X417900Y361900D01*
X412750Y347250D02*
X411550Y347250D01*
X407700Y351100D01*
X412750Y347250D02*
X417900Y352400D01*
X417900Y361900D01*
X412750Y377250D02*
X405850Y377250D01*
X405700Y377100D01*
X412750Y377250D02*
X422750Y377250D01*
X412750Y407250D02*
X416400Y410900D01*
X418300Y410900D01*
X419100Y410900D01*
X422750Y407250D01*
X418300Y410900D02*
X422750Y415350D01*
X422750Y417250D01*
X442750Y397250D02*
X444234Y398734D01*
X444234Y400172D01*
X447900Y403838D01*
X447900Y412000D01*
X447900Y431900D01*
X447500Y432300D01*
X422750Y447250D02*
X412750Y437250D01*
X447536Y445268D02*
X447536Y449232D01*
X442750Y440482D02*
X442750Y437250D01*
X442750Y454018D02*
X442750Y457250D01*
X447536Y445268D02*
X442750Y440482D01*
X447536Y449232D02*
X442750Y454018D01*
X412750Y497218D02*
X412750Y497250D01*
D28*
X412750Y497218D02*
X407364Y491832D01*
D32*
X407364Y472336D02*
X407400Y472300D01*
D28*
X407364Y472336D02*
X407364Y491832D01*
D32*
X442750Y477250D02*
X447600Y482100D01*
X447600Y492400D01*
X422750Y537250D02*
X422550Y537250D01*
D36*
X410368Y542264D02*
X407464Y545168D01*
D32*
X407464Y552336D02*
X407400Y552400D01*
D36*
X417536Y542264D02*
X422550Y537250D01*
X407464Y545168D02*
X407464Y552336D01*
X410368Y542264D02*
X417536Y542264D01*
D32*
X447800Y512600D02*
X447964Y512764D01*
X447964Y519232D01*
X451032Y522300D01*
X458000Y522300D01*
X537500Y522000D02*
X537500Y521300D01*
X537500Y522000D02*
X542750Y527250D01*
X542750Y527950D01*
X538100Y532600D01*
X550768Y542464D02*
X554732Y542464D01*
X556134Y543866D01*
X557536Y545268D01*
X557536Y549232D01*
X545982Y547250D02*
X542750Y547250D01*
X557200Y549568D02*
X557536Y549232D01*
X557200Y549568D02*
X557200Y552700D01*
X550768Y542464D02*
X545982Y547250D01*
X557964Y535268D02*
X560768Y532464D01*
X567536Y532464D02*
X572750Y527250D01*
X557964Y542036D02*
X556134Y543866D01*
X560768Y532464D02*
X567536Y532464D01*
X557964Y535268D02*
X557964Y542036D01*
X590768Y532036D02*
X594732Y532036D01*
X597536Y529232D01*
X590732Y532000D02*
X587400Y532000D01*
X590732Y532000D02*
X590768Y532036D01*
X592750Y510482D02*
X592750Y507250D01*
X592750Y510482D02*
X597536Y515268D01*
X597536Y529232D01*
X624732Y542464D02*
X627536Y545268D01*
X627536Y549232D01*
X617964Y542464D02*
X612750Y537250D01*
X626300Y550468D02*
X627536Y549232D01*
X624732Y542464D02*
X617964Y542464D01*
X626300Y550468D02*
X626300Y552300D01*
X427964Y382464D02*
X422750Y377250D01*
X439518Y387250D02*
X442750Y387250D01*
X434732Y382464D02*
X427964Y382464D01*
X434732Y382464D02*
X439518Y387250D01*
X442750Y387250D02*
X442750Y397250D01*
X240000Y540700D02*
X225500Y526000D01*
X225500Y524400D01*
X210700Y509600D01*
X210700Y501800D01*
X218000Y494500D01*
X331100Y494800D02*
X336000Y489900D01*
X336000Y472300D01*
X336100Y472200D01*
X336100Y451100D01*
D29*
X234300Y165300D03*
D32*
X233800Y165800D02*
X226100Y165800D01*
X233800Y165800D02*
X234300Y165300D01*
D33*
X183900Y96800D03*
X177100Y149600D03*
D32*
X177100Y158400D01*
X177300Y158600D01*
X176000Y96800D02*
X183900Y96800D01*
D28*
X259017Y434650D02*
X261767Y437400D01*
X262767Y437400D01*
X259017Y434650D02*
X259017Y441150D01*
D29*
X259500Y618200D03*
X280700Y607300D03*
D32*
X259317Y600950D02*
X259317Y594450D01*
X259317Y600950D02*
X259317Y618017D01*
X259500Y618200D01*
X275000Y633700D01*
X275000Y639100D01*
X284000Y610600D02*
X280700Y607300D01*
X284000Y610600D02*
X297400Y610600D01*
X280700Y603200D02*
X296500Y587400D01*
X280700Y603200D02*
X280700Y607300D01*
D37*
X258000Y773500D02*
X178600Y773500D01*
X155900Y750800D01*
X155900Y683400D01*
X156200Y683100D01*
X152300Y679200D01*
X152300Y617000D01*
X264600Y780100D02*
X301100Y780100D01*
X264600Y780100D02*
X258000Y773500D01*
D30*
X178400Y772900D03*
D29*
X707600Y144200D03*
X745100Y144400D03*
D35*
X707800Y144400D01*
X707600Y144200D01*
D29*
X681100Y130600D03*
X733200Y119400D03*
X757100Y132100D03*
X771000Y132300D03*
D35*
X687900Y123800D02*
X681100Y130600D01*
X728800Y123800D02*
X733200Y119400D01*
X728800Y123800D02*
X687900Y123800D01*
X733200Y119400D02*
X744400Y119400D01*
X757100Y132100D01*
X758100Y132100D02*
X758300Y132300D01*
X758100Y132100D02*
X757100Y132100D01*
X758300Y132300D02*
X771000Y132300D01*
D28*
X221800Y413700D02*
X221600Y423149D01*
X210099Y434650D01*
X202583Y434650D01*
X203680Y561153D02*
X210400Y561153D01*
X203680Y561153D02*
X202883Y561950D01*
X223200Y548353D02*
X223400Y540700D01*
X223200Y548353D02*
X210400Y561153D01*
D37*
X181304Y577300D02*
X181304Y637300D01*
X182604Y576000D02*
X182604Y554000D01*
D26*
X190154Y568450D02*
X202883Y568450D01*
X190154Y568450D02*
X182604Y576000D01*
X181304Y577300D01*
X190554Y561950D02*
X202883Y561950D01*
X190554Y561950D02*
X182604Y554000D01*
X221800Y413700D02*
X220931Y413031D01*
D32*
X181300Y422000D02*
X181300Y449900D01*
X181300Y422000D02*
X152800Y393500D01*
X152800Y190000D01*
D30*
X181600Y481400D03*
D38*
X306700Y464000D03*
D28*
X312151Y631300D02*
X312400Y631300D01*
X312151Y631300D02*
X291726Y651726D01*
X290014Y653438D01*
X200562Y653438D01*
D37*
X396400Y713700D02*
X396800Y713300D01*
X396400Y713700D02*
X396400Y723900D01*
X370676Y749625D01*
D39*
X181300Y449900D02*
X181300Y443900D01*
X162000Y424600D01*
D26*
X190069Y413031D02*
X220931Y413031D01*
X181300Y421800D02*
X181300Y449900D01*
X181300Y421800D02*
X190069Y413031D01*
X202583Y434650D02*
X202583Y441150D01*
X190050Y441150D01*
X181300Y449900D01*
D37*
X182604Y529600D02*
X182604Y554000D01*
X182604Y529600D02*
X182604Y482404D01*
X181600Y481400D01*
X181300Y481100D01*
X181300Y449900D01*
D39*
X176104Y523100D02*
X159700Y523100D01*
X176104Y523100D02*
X182604Y529600D01*
D32*
X152800Y190000D02*
X158300Y184500D01*
X165500Y191700D01*
X207100Y191700D01*
X157000Y137389D02*
X157000Y122700D01*
X157000Y137389D02*
X152818Y141571D01*
X152818Y179018D01*
X158300Y184500D01*
D28*
X294300Y464200D02*
X306500Y464200D01*
X306700Y464000D01*
D35*
X291726Y651726D02*
X400126Y651726D01*
X404100Y655600D02*
X409300Y660800D01*
X404100Y655600D02*
X404000Y655600D01*
X400126Y651726D01*
D37*
X349700Y742900D02*
X356425Y749625D01*
X349700Y742900D02*
X271400Y742900D01*
X258000Y729500D01*
X356425Y749625D02*
X370676Y749625D01*
X258000Y729500D02*
X236700Y750800D01*
X199900Y750800D01*
X200200Y750500D01*
X200200Y683100D01*
X200200Y656197D01*
X181304Y637300D01*
D35*
X622750Y357250D02*
X750650Y357250D01*
X785400Y392000D02*
X785400Y406300D01*
X785400Y392000D02*
X750650Y357250D01*
D33*
X608100Y553200D03*
D40*
X612150Y557250D02*
X612750Y557250D01*
X612150Y557250D02*
X608100Y553200D01*
D33*
X169800Y184300D03*
D40*
X170000Y184500D01*
X177300Y184500D01*
D33*
X269200Y448400D03*
D40*
X259767Y448400D02*
X259017Y447650D01*
X259767Y448400D02*
X269200Y448400D01*
D33*
X538300Y362300D03*
D40*
X538300Y362800D01*
X542750Y367250D01*
D33*
X441700Y168600D03*
X587600Y371900D03*
D40*
X587400Y371900D02*
X582750Y367250D01*
X587400Y371900D02*
X587600Y371900D01*
D33*
X504100Y157600D03*
X588000Y362500D03*
D40*
X582750Y357250D01*
D33*
X693300Y169300D03*
X588000Y352000D03*
D40*
X588000Y352500D01*
X592750Y357250D01*
D33*
X745100Y168300D03*
X568100Y352200D03*
D40*
X572750Y356850D01*
X572750Y357250D01*
D33*
X427800Y157300D03*
X558300Y352500D03*
D40*
X562750Y356950D01*
X562750Y357250D01*
D33*
X523400Y182648D03*
X477900Y157000D03*
X567800Y343200D03*
D40*
X571850Y347250D01*
X572750Y347250D01*
D33*
X527200Y172800D03*
X681300Y144300D03*
X547800Y343100D03*
D40*
X546900Y343100D01*
X542750Y347250D01*
D33*
X529616Y192484D03*
X732600Y157000D03*
X497600Y532100D03*
D40*
X502750Y537250D01*
D33*
X701400Y239300D03*
D40*
X695120Y239300D01*
X691764Y235944D01*
X612793Y235944D01*
X575500Y198651D02*
X575500Y183900D01*
X575102Y183900D01*
D29*
X575102Y183900D03*
D40*
X575500Y198651D02*
X612793Y235944D01*
D29*
X427300Y119200D03*
X351650Y80150D03*
D33*
X468400Y552400D03*
D40*
X467900Y552400D02*
X462750Y547250D01*
X467900Y552400D02*
X468400Y552400D01*
D33*
X723050Y299250D03*
D40*
X719650Y299250D01*
X679396Y258996D02*
X540134Y258996D01*
X679396Y258996D02*
X719650Y299250D01*
X438791Y142094D02*
X426043Y142094D01*
X391349Y107400D01*
X388515Y107400D02*
X388507Y107393D01*
D29*
X388507Y107393D03*
D40*
X460000Y178862D02*
X540134Y258996D01*
X460000Y178862D02*
X460000Y163303D01*
X438791Y142094D01*
X391349Y107400D02*
X388515Y107400D01*
D33*
X497500Y552300D03*
D40*
X502450Y557250D01*
X502750Y557250D01*
D33*
X710700Y260500D03*
D40*
X703000Y260500D01*
X686826Y244326D02*
X606721Y244326D01*
X563447Y201053D01*
X686826Y244326D02*
X703000Y260500D01*
X563447Y201053D02*
X563330Y201170D01*
D29*
X563330Y201170D03*
X494400Y190400D03*
D40*
X494400Y104603D01*
X479291Y89494D02*
X476143Y89494D01*
X470743Y84094D01*
X444891Y84094D02*
X442687Y86298D01*
X438598Y86298D01*
X433200Y80900D02*
X427700Y80900D01*
D29*
X427700Y80900D03*
D40*
X479291Y89494D02*
X494400Y104603D01*
X470743Y84094D02*
X444891Y84094D01*
X438598Y86298D02*
X433200Y80900D01*
D33*
X587700Y452400D03*
D40*
X592550Y457250D01*
X592750Y457250D01*
D33*
X589700Y190000D03*
D40*
X589700Y160532D01*
X542300Y113132D01*
X542300Y94000D02*
X542600Y93700D01*
D33*
X542600Y93700D03*
D40*
X542300Y94000D02*
X542300Y113132D01*
D33*
X607400Y491900D03*
D40*
X612750Y497250D01*
D33*
X649066Y187034D03*
D40*
X649066Y111766D01*
X631200Y93900D01*
X631100Y94000D01*
D33*
X631100Y94000D03*
X608000Y472500D03*
D40*
X612750Y477250D01*
D33*
X624800Y203100D03*
D40*
X626500Y201400D02*
X641400Y201400D01*
X626500Y201400D02*
X624800Y203100D01*
X655900Y186900D02*
X655900Y94100D01*
X656300Y93700D01*
D33*
X656300Y93700D03*
D40*
X655900Y186900D02*
X641400Y201400D01*
D33*
X587800Y442000D03*
D40*
X587800Y442300D01*
X592750Y447250D01*
D33*
X695500Y93500D03*
X617800Y512600D03*
D40*
X622450Y517250D01*
X622750Y517250D01*
D33*
X733300Y93800D03*
X487800Y542300D03*
D40*
X492750Y537350D01*
X492750Y537250D01*
D33*
X704400Y246400D03*
D40*
X697100Y246400D01*
X689438Y238738D01*
X611635Y238738D01*
X570500Y197603D02*
X570500Y191700D01*
X569600Y190800D01*
X569600Y189800D01*
X570300Y189100D01*
D29*
X570300Y189100D03*
D40*
X570500Y197603D02*
X611635Y238738D01*
D29*
X429400Y172400D03*
X377300Y131300D03*
D33*
X477600Y552700D03*
D40*
X482150Y557250D01*
X482750Y557250D01*
D33*
X718200Y282900D03*
D40*
X712400Y282900D01*
X682208Y252708D02*
X542048Y252708D01*
X466200Y176860D01*
X682208Y252708D02*
X712400Y282900D01*
X466200Y176860D02*
X466200Y161600D01*
X436900Y132300D01*
X427400Y132300D01*
X427300Y132400D01*
D29*
X427300Y132400D03*
D33*
X447600Y542100D03*
D40*
X442750Y546950D01*
X442750Y547250D01*
D33*
X728800Y315700D03*
D40*
X726600Y315700D01*
X675484Y264584D02*
X537692Y264584D01*
X460008Y186900D01*
X452408Y186900D01*
X675484Y264584D02*
X726600Y315700D01*
D29*
X452408Y186900D03*
D33*
X617700Y482100D03*
D40*
X617700Y482200D01*
X622750Y487250D01*
D33*
X606100Y188400D03*
D40*
X606100Y182300D02*
X607900Y180500D01*
X606100Y182300D02*
X606100Y188400D01*
X607900Y180500D02*
X607900Y141300D01*
X598900Y132300D01*
X567800Y132300D01*
X567700Y132200D01*
X567700Y132100D01*
D33*
X567700Y132100D03*
X607600Y482100D03*
X610800Y193200D03*
D40*
X610800Y140000D01*
X605650Y134850D01*
X605650Y132150D01*
D33*
X605650Y132150D03*
X457800Y542200D03*
D40*
X452750Y547250D01*
D33*
X721250Y290250D03*
D40*
X715350Y290250D01*
X680602Y255502D02*
X540891Y255502D01*
X680602Y255502D02*
X715350Y290250D01*
X462800Y177411D02*
X462800Y162151D01*
X368650Y80750D02*
X364450Y80750D01*
X368650Y80750D02*
X427200Y139300D01*
D29*
X364450Y80750D03*
D40*
X462800Y177411D02*
X540891Y255502D01*
X462800Y162151D02*
X439949Y139300D01*
X427200Y139300D01*
D33*
X457600Y552100D03*
D40*
X462750Y557250D01*
D33*
X726250Y307650D03*
D40*
X722950Y307650D01*
X677090Y261790D02*
X538876Y261790D01*
X457206Y180120D01*
X677090Y261790D02*
X722950Y307650D01*
X457206Y180120D02*
X457206Y165500D01*
X436594Y144888D01*
X424885Y144888D01*
X392897Y112900D02*
X384700Y112900D01*
X359500Y87700D01*
X359500Y77400D01*
X368100Y68800D01*
X389200Y68800D02*
X389400Y68600D01*
D29*
X389400Y68600D03*
D40*
X392897Y112900D02*
X424885Y144888D01*
X389200Y68800D02*
X368100Y68800D01*
D33*
X467800Y542400D03*
D40*
X472650Y547250D01*
X472750Y547250D01*
D33*
X715800Y275200D03*
D40*
X709200Y275200D01*
X683914Y249914D02*
X600206Y249914D01*
X683914Y249914D02*
X709200Y275200D01*
X555600Y205308D02*
X555600Y204808D01*
X555506Y204714D01*
X555506Y161757D01*
X480449Y86700D02*
X477300Y86700D01*
X555600Y205308D02*
X600206Y249914D01*
X555506Y161757D02*
X480449Y86700D01*
X477300Y86700D02*
X471900Y81300D01*
X440700Y81300D01*
X440700Y81500D01*
D29*
X440700Y81500D03*
D33*
X477600Y542300D03*
D40*
X477600Y542100D01*
X472750Y537250D01*
D33*
X711900Y268600D03*
D40*
X711806Y268694D01*
X707243Y268694D01*
X685669Y247120D01*
X601863Y247120D01*
X558300Y160600D02*
X479000Y81300D01*
X479050Y81250D01*
D29*
X479050Y81250D03*
D40*
X558300Y203557D02*
X601863Y247120D01*
X558300Y203557D02*
X558300Y160600D01*
D33*
X507900Y532200D03*
D40*
X512750Y527350D01*
X512750Y527250D01*
D33*
X695402Y233150D03*
D40*
X613950Y233150D01*
X580000Y158735D02*
X535206Y113941D01*
X535206Y98806D02*
X517600Y81200D01*
X535206Y98806D02*
X535206Y113941D01*
X517600Y81200D02*
X517100Y81200D01*
D33*
X517100Y81200D03*
D40*
X580000Y199200D02*
X613950Y233150D01*
X580000Y199200D02*
X580000Y158735D01*
D33*
X607900Y502400D03*
D40*
X612750Y507250D01*
D33*
X644900Y226000D03*
D40*
X610900Y226000D01*
X582900Y198000D02*
X582900Y157683D01*
X542300Y81300D02*
X541900Y81300D01*
D33*
X542300Y81300D03*
D40*
X582900Y198000D02*
X610900Y226000D01*
X582900Y157683D02*
X538000Y112783D01*
X538000Y85200D01*
X541900Y81300D01*
D33*
X626300Y452200D03*
D40*
X626300Y450800D01*
X622750Y447250D01*
D33*
X618524Y214576D03*
D40*
X618924Y214176D01*
X618924Y99176D01*
X631300Y86800D02*
X631300Y80900D01*
D33*
X631300Y80900D03*
D40*
X631300Y86800D02*
X618924Y99176D01*
D33*
X617700Y502200D03*
D40*
X622750Y507250D01*
D33*
X707500Y81200D03*
X597500Y482200D03*
D40*
X602550Y487250D01*
X602750Y487250D01*
D33*
X629264Y208400D03*
D40*
X640464Y208400D02*
X676300Y172564D01*
X640464Y208400D02*
X629264Y208400D01*
X676300Y172564D02*
X676300Y126900D01*
X722500Y80700D01*
X732200Y80700D02*
X732400Y80900D01*
D33*
X732400Y80900D03*
D40*
X732200Y80700D02*
X722500Y80700D01*
D33*
X418000Y392200D03*
D40*
X422750Y396950D01*
X422750Y397250D01*
D33*
X368949Y204749D03*
X326500Y106600D03*
X418000Y422400D03*
D40*
X422750Y427150D01*
X422750Y427250D01*
D33*
X318600Y204800D03*
X351600Y94100D03*
X427400Y412200D03*
D40*
X432450Y417250D01*
X432750Y417250D01*
D33*
X376047Y171347D03*
X466100Y93400D03*
X428200Y392000D03*
D40*
X432750Y387450D01*
X432750Y387250D01*
D33*
X364724Y216324D03*
X301000Y118600D03*
X437200Y412100D03*
D40*
X437200Y411700D02*
X432750Y407250D01*
X437200Y411700D02*
X437200Y412100D01*
D33*
X361300Y197700D03*
X351800Y105000D03*
X418100Y382500D03*
D40*
X418100Y382600D01*
X422750Y387250D01*
D33*
X416600Y171800D03*
X415300Y119100D03*
X438000Y432100D03*
D40*
X432850Y437250D02*
X432750Y437250D01*
X432850Y437250D02*
X438000Y432100D01*
D33*
X300500Y185200D03*
X364700Y56300D03*
X437300Y452100D03*
X300500Y212100D03*
X401900Y55700D03*
D40*
X442750Y447250D02*
X437900Y452100D01*
X437300Y452100D01*
D33*
X406400Y457000D03*
D40*
X406650Y457250D01*
X412750Y457250D01*
D33*
X276800Y204100D03*
X544400Y43900D03*
X406500Y423700D03*
D40*
X409200Y423700D01*
X412750Y427250D01*
D33*
X288900Y189500D03*
X350900Y55200D03*
X437700Y442000D03*
X311416Y204984D03*
X389900Y55600D03*
D40*
X437700Y442000D02*
X432750Y446950D01*
X432750Y447250D01*
D33*
X284500Y204300D03*
X428700Y55500D03*
D40*
X412613Y447113D02*
X412750Y447250D01*
X412613Y447113D02*
X406598Y447113D01*
D29*
X406598Y447113D03*
D33*
X517800Y532500D03*
D40*
X522550Y537250D01*
X522750Y537250D01*
D33*
X593100Y44300D03*
X617900Y451900D03*
D40*
X622750Y456750D02*
X622750Y457250D01*
X622750Y456750D02*
X617900Y451900D01*
D33*
X612200Y209600D03*
X618600Y55500D03*
D40*
X615930Y205870D02*
X612200Y209600D01*
X615930Y205870D02*
X615930Y98218D01*
X618600Y95549D02*
X618600Y55500D01*
X618600Y95549D02*
X615930Y98218D01*
D33*
X447800Y552500D03*
D40*
X452550Y557250D01*
X452750Y557250D01*
D33*
X732100Y324200D03*
D40*
X730600Y324200D01*
X673778Y267378D02*
X525462Y267378D01*
X673778Y267378D02*
X730600Y324200D01*
X437100Y179017D02*
X437100Y159700D01*
X427400Y150000D01*
X426000Y150000D01*
X407500Y131500D01*
X402600Y131500D01*
D29*
X402600Y131500D03*
D40*
X437100Y179017D02*
X525462Y267378D01*
D33*
X507600Y552400D03*
D40*
X512450Y557250D01*
X512750Y557250D01*
D33*
X707400Y253400D03*
D40*
X700149Y253400D01*
X688281Y241532D01*
X610478Y241532D01*
X565900Y196954D02*
X565900Y196700D01*
X565540Y196340D01*
X565540Y193960D01*
D29*
X565540Y193960D03*
D40*
X565900Y196954D02*
X610478Y241532D01*
D29*
X483449Y186051D03*
D40*
X468994Y171597D01*
X466100Y131800D02*
X466100Y131700D01*
D29*
X466100Y131700D03*
D40*
X468994Y134694D02*
X468994Y171597D01*
X468994Y134694D02*
X466100Y131800D01*
D33*
X598100Y452300D03*
X599250Y189650D03*
D40*
X602650Y180150D02*
X604900Y177900D01*
X602650Y185150D02*
X599250Y188550D01*
X599250Y189650D01*
X602650Y185150D02*
X602650Y180150D01*
X604900Y146400D02*
X603400Y144900D01*
D33*
X603400Y144900D03*
D40*
X604900Y146400D02*
X604900Y177900D01*
X598100Y452600D02*
X602750Y457250D01*
X598100Y452600D02*
X598100Y452300D01*
D41*
X273200Y125600D03*
D40*
X212308Y158818D02*
X211118Y160008D01*
X211118Y161782D01*
X207100Y165800D01*
X239982Y158818D02*
X273200Y125600D01*
X239982Y158818D02*
X212308Y158818D01*
D41*
X273000Y100400D03*
D32*
X157000Y97139D02*
X157000Y96800D01*
D40*
X266956Y100400D02*
X273000Y100400D01*
X162208Y89818D02*
X161018Y91008D01*
X161018Y93121D01*
X157000Y97139D01*
X256374Y89818D02*
X266956Y100400D01*
X256374Y89818D02*
X162208Y89818D01*
D29*
X770600Y106600D03*
X770800Y81000D03*
D35*
X770600Y81200D01*
X770600Y106600D01*
D36*
X482750Y477250D02*
X492750Y487250D01*
X502750Y487250D01*
X512750Y487250D01*
X522750Y487250D01*
X532750Y487250D01*
X542750Y487250D01*
X552750Y477250D02*
X552750Y467250D01*
X552750Y457250D01*
X552750Y447250D01*
X552750Y437250D01*
X552750Y427250D01*
X532750Y417250D02*
X522750Y417250D01*
X512750Y417250D01*
X502750Y417250D01*
X492750Y417250D01*
X482750Y427250D02*
X482750Y437250D01*
X482750Y447250D01*
X482750Y457250D01*
X482750Y467250D01*
X482750Y477250D01*
X452750Y377250D02*
X442750Y377250D01*
X487964Y389232D02*
X490768Y392036D01*
X492750Y414018D02*
X492750Y417250D01*
X487964Y382464D02*
X482750Y377250D01*
X497536Y409232D02*
X492750Y414018D01*
X487964Y389232D02*
X487964Y382464D01*
X494304Y392036D02*
X497536Y395268D01*
X494304Y392036D02*
X490768Y392036D01*
X497536Y395268D02*
X497536Y409232D01*
X592750Y517250D02*
X592750Y527250D01*
X589518Y527250D01*
X565982Y527250D02*
X562750Y527250D01*
X584732Y522464D02*
X589518Y527250D01*
X570768Y522464D02*
X565982Y527250D01*
X570768Y522464D02*
X584732Y522464D01*
X562750Y527250D02*
X552750Y527250D01*
X547536Y515268D02*
X544732Y512464D01*
X542750Y490482D02*
X542750Y487250D01*
X547536Y522036D02*
X552750Y527250D01*
X537964Y495268D02*
X542750Y490482D01*
X547536Y515268D02*
X547536Y522036D01*
X541196Y512464D02*
X537964Y509232D01*
X541196Y512464D02*
X544732Y512464D01*
X537964Y509232D02*
X537964Y495268D01*
X482750Y527250D02*
X472750Y527250D01*
X482750Y527250D02*
X482750Y537250D01*
X472750Y527250D02*
X467650Y532350D01*
X459850Y532350D01*
X454750Y527250D01*
D40*
X452750Y527250D01*
D36*
X442750Y527250D01*
X477536Y415268D02*
X474732Y412464D01*
X467536Y405268D02*
X464732Y402464D01*
X477536Y422036D02*
X482750Y427250D01*
X452750Y380482D02*
X452750Y377250D01*
X477536Y415268D02*
X477536Y422036D01*
X457536Y385268D02*
X452750Y380482D01*
X471196Y412464D02*
X474732Y412464D01*
X471196Y412464D02*
X467536Y408804D01*
X467536Y405268D01*
X464732Y402464D02*
X461196Y402464D01*
X457536Y398804D01*
X457536Y385268D01*
X437750Y372250D02*
X402250Y372250D01*
X437750Y372250D02*
X442750Y377250D01*
D26*
X325900Y405900D02*
X294200Y437400D01*
X325900Y405900D02*
X355900Y375900D01*
D36*
X447536Y384968D02*
X447536Y398804D01*
X451196Y402464D02*
X454732Y402464D01*
X457536Y405268D01*
X457536Y408804D01*
X461196Y412464D01*
X464732Y412464D01*
D32*
X467964Y479232D02*
X468000Y479268D01*
D36*
X467964Y415696D02*
X464732Y412464D01*
X467964Y415696D02*
X467964Y479232D01*
D32*
X468000Y485232D02*
X467964Y485268D01*
D36*
X467964Y522464D01*
X472750Y527250D01*
X451196Y402464D02*
X447536Y398804D01*
D32*
X468000Y479268D02*
X468000Y485232D01*
D26*
X355900Y375900D02*
X395160Y336640D01*
D40*
X582750Y377250D02*
X592750Y377250D01*
D32*
X582750Y377250D02*
X582750Y373850D01*
X578200Y369300D01*
X578200Y362700D01*
D33*
X192900Y467100D03*
D36*
X437750Y372250D02*
X477750Y372250D01*
X482750Y377250D01*
D26*
X395160Y336640D02*
X576640Y336640D01*
D32*
X577800Y362700D02*
X560891Y362700D01*
D40*
X577800Y362700D02*
X578200Y362700D01*
D36*
X442750Y377250D02*
X442750Y380182D01*
X447536Y384968D01*
D32*
X356600Y436600D02*
X325900Y405900D01*
X356600Y547900D02*
X356400Y548100D01*
D29*
X356400Y548100D03*
D32*
X356600Y547900D02*
X356600Y436600D01*
X192950Y467150D02*
X192900Y467100D01*
X192950Y467150D02*
X202583Y467150D01*
D36*
X532750Y417250D02*
X542750Y417250D01*
X552750Y427250D01*
D32*
X557628Y368822D02*
X557628Y365963D01*
X552750Y373700D02*
X552750Y377250D01*
X552750Y373700D02*
X557628Y368822D01*
X557628Y365963D02*
X560891Y362700D01*
D36*
X577800Y337800D02*
X576640Y336640D01*
X577800Y337800D02*
X577800Y362700D01*
D38*
X286800Y422600D03*
D26*
X294400Y430200D01*
X294200Y437400D01*
X284150Y419950D02*
X284150Y400000D01*
X284150Y419950D02*
X286800Y422600D01*
D39*
X359550Y372250D02*
X402250Y372250D01*
X359550Y372250D02*
X355900Y375900D01*
D33*
X192400Y460500D03*
X172800Y443700D03*
D32*
X148514Y430114D02*
X148514Y118986D01*
X166500Y101000D02*
X166500Y96800D01*
X166500Y101000D02*
X148514Y118986D01*
X148514Y430114D02*
X162000Y443600D01*
D33*
X269000Y573800D03*
D36*
X267850Y574950D02*
X259317Y574950D01*
X267850Y574950D02*
X269000Y573800D01*
D32*
X192550Y460650D02*
X192400Y460500D01*
X192550Y460650D02*
X202583Y460650D01*
X172800Y443700D02*
X172700Y443600D01*
X162000Y443600D01*
X256145Y478845D02*
X272200Y494900D01*
X208584Y454150D02*
X202583Y454150D01*
X208584Y454150D02*
X212014Y457580D01*
X212014Y468347D01*
X222512Y478845D01*
X256145Y478845D01*
X291200Y494900D02*
X314000Y494900D01*
X314100Y494800D01*
X316050Y454150D02*
X259017Y454150D01*
X316050Y454150D02*
X319100Y451100D01*
X202583Y473650D02*
X202583Y492917D01*
X201000Y494500D01*
D33*
X198700Y422200D03*
X206200Y422200D03*
X252500Y422000D03*
X265600Y422200D03*
D26*
X198700Y422200D02*
X198700Y424267D01*
X202583Y428150D01*
X206200Y424533D02*
X206200Y422200D01*
X206200Y424533D02*
X202583Y428150D01*
X206200Y422200D02*
X198700Y422200D01*
X264967Y422200D02*
X265600Y422200D01*
X264967Y422200D02*
X259017Y428150D01*
X258650Y428150D02*
X252500Y422000D01*
X258650Y428150D02*
X259017Y428150D01*
D42*
X260450Y424861D02*
X260450Y400000D01*
X260450Y424861D02*
X258650Y426661D01*
D32*
X259017Y460650D02*
X273250Y460650D01*
X278300Y464200D01*
X303247Y473986D02*
X304933Y472300D01*
X319000Y472300D01*
X286586Y473986D02*
X278300Y464200D01*
X286586Y473986D02*
X303247Y473986D01*
X452750Y347250D02*
X457964Y352464D01*
X462582Y367250D02*
X462750Y367250D01*
X462582Y367250D02*
X457964Y362632D01*
X457964Y352464D01*
D36*
X602750Y397250D02*
X612750Y397250D01*
X612750Y387250D01*
X622750Y387250D01*
X602750Y417250D02*
X592750Y417250D01*
X602750Y417250D02*
X607964Y422464D01*
X607964Y432464D02*
X612750Y437250D01*
X607964Y432464D02*
X607964Y422464D01*
X602750Y497250D02*
X602750Y507250D01*
X602250Y526750D02*
X602750Y527250D01*
X602250Y526750D02*
X602250Y517750D01*
X602750Y517250D01*
X602750Y497250D02*
X592750Y487250D01*
X587550Y482050D01*
X602750Y547250D02*
X612750Y547250D01*
X602750Y530482D02*
X602750Y527250D01*
X597964Y542464D02*
X602750Y547250D01*
X597964Y542464D02*
X597964Y535268D01*
X602750Y530482D01*
X522750Y547250D02*
X512750Y537250D01*
X507836Y542164D01*
X495282Y547250D02*
X492750Y547250D01*
X500368Y542164D02*
X507836Y542164D01*
X500368Y542164D02*
X495282Y547250D01*
X432750Y507250D02*
X432750Y497250D01*
X442750Y487250D01*
X442750Y417250D02*
X442750Y407250D01*
X432750Y397250D01*
X450768Y532464D02*
X454732Y532464D01*
X459518Y537250D02*
X462750Y537250D01*
X445982Y537250D02*
X442750Y537250D01*
X454732Y532464D02*
X459518Y537250D01*
X450768Y532464D02*
X445982Y537250D01*
X442750Y537250D02*
X439518Y537250D01*
X427964Y542036D02*
X422750Y547250D01*
X434732Y542036D02*
X439518Y537250D01*
X434732Y542036D02*
X427964Y542036D01*
D26*
X323900Y563200D02*
X294900Y563200D01*
X397700Y563200D02*
X434700Y563200D01*
X417600Y565500D02*
X400000Y565500D01*
X547800Y565500D02*
X577800Y565500D01*
X617900Y565500D01*
X624500Y565500D01*
X632600Y557400D01*
D36*
X422750Y547250D02*
X417600Y552400D01*
X417600Y565500D01*
D32*
X488000Y565500D02*
X488000Y566500D01*
D36*
X547800Y552200D02*
X552750Y547250D01*
X547800Y552200D02*
X547800Y565500D01*
X612750Y547250D02*
X617900Y552400D01*
X617900Y565500D01*
D26*
X629900Y387100D02*
X629900Y372118D01*
X630000Y387000D02*
X630000Y442182D01*
X630000Y442200D01*
X632700Y442200D02*
X632700Y474800D01*
X632600Y474700D02*
X632600Y557400D01*
D36*
X629900Y372118D02*
X619918Y372118D01*
X617550Y369750D01*
X617550Y362050D01*
X612750Y357250D01*
D28*
X622750Y387250D02*
X629750Y387250D01*
D40*
X629900Y387100D01*
X630000Y387000D01*
D36*
X612750Y437250D02*
X617682Y442182D01*
X630000Y442182D01*
D40*
X630000Y442200D02*
X632700Y442200D01*
D36*
X615241Y467250D02*
X612750Y467250D01*
X629982Y472082D02*
X632600Y474700D01*
D40*
X632700Y474800D01*
D36*
X620073Y472082D02*
X615241Y467250D01*
X620073Y472082D02*
X629982Y472082D01*
D32*
X572750Y367250D02*
X562750Y367250D01*
X577491Y379300D02*
X580573Y382382D01*
X607882Y382382D02*
X612750Y387250D01*
X577450Y379341D02*
X577450Y374550D01*
X572750Y369850D02*
X572750Y367250D01*
X572750Y369850D02*
X577450Y374550D01*
D40*
X577491Y379300D02*
X577450Y379341D01*
D32*
X580573Y382382D02*
X607882Y382382D01*
X496341Y357250D02*
X492750Y357250D01*
X542750Y357250D02*
X542750Y357041D01*
X538427Y352718D01*
X500873Y352718D02*
X496341Y357250D01*
X500873Y352718D02*
X538427Y352718D01*
X484627Y352718D02*
X480873Y352718D01*
X477282Y359127D02*
X474627Y361782D01*
X489159Y357250D02*
X492750Y357250D01*
X469418Y361782D02*
X463950Y367250D01*
X462750Y367250D01*
X484627Y352718D02*
X489159Y357250D01*
X474627Y361782D02*
X469418Y361782D01*
X477282Y356309D02*
X480873Y352718D01*
X477282Y356309D02*
X477282Y359127D01*
X452750Y347250D02*
X449159Y347250D01*
X428218Y351782D02*
X422750Y357250D01*
X444627Y351782D02*
X449159Y347250D01*
X444627Y351782D02*
X428218Y351782D01*
X547318Y378227D02*
X550873Y381782D01*
X554627Y381782D01*
X557282Y379127D01*
X547318Y361718D02*
X542850Y357250D01*
X542750Y357250D01*
X562750Y367250D02*
X562750Y369911D01*
X557282Y375379D01*
X557282Y379127D01*
X547318Y378227D02*
X547318Y361718D01*
D36*
X430473Y422118D02*
X427718Y424873D01*
X437882Y422118D02*
X442750Y417250D01*
X427718Y432282D02*
X422750Y437250D01*
X430473Y422118D02*
X437882Y422118D01*
X427718Y424873D02*
X427718Y432282D01*
X417691Y462300D02*
X422750Y467359D01*
D40*
X422750Y467250D01*
D26*
X400000Y501400D02*
X400000Y565500D01*
X400000Y501400D02*
X400000Y462300D01*
X400000Y432300D02*
X400000Y390000D01*
X402710Y387290D01*
X412750Y387290D01*
D36*
X431059Y507250D02*
X432750Y507250D01*
X431059Y507250D02*
X426127Y502318D01*
D40*
X400918Y502318D02*
X400000Y501400D01*
D36*
X400918Y502318D02*
X426127Y502318D01*
X417691Y462300D02*
X400000Y462300D01*
D40*
X422650Y437250D02*
X422750Y437250D01*
D36*
X422650Y437250D02*
X417700Y432300D01*
X400000Y432300D01*
X572750Y537250D02*
X577800Y542300D01*
X577800Y565500D01*
D28*
X323900Y529800D02*
X305100Y511000D01*
X267000Y511000D01*
X257500Y520500D01*
X323900Y529800D02*
X323900Y563200D01*
D36*
X594775Y342445D02*
X597555Y345225D01*
X594775Y342445D02*
X589825Y342445D01*
D35*
X612680Y357250D02*
X612750Y357250D01*
D36*
X612680Y357250D02*
X607675Y352245D01*
X589825Y342445D02*
X585020Y347250D01*
X582750Y347250D01*
X600515Y352245D02*
X607675Y352245D01*
X600515Y352245D02*
X597555Y349285D01*
X597555Y345225D01*
D26*
X400000Y432300D02*
X400000Y462300D01*
D36*
X587550Y474741D02*
X590173Y472118D01*
X587550Y474741D02*
X587550Y482050D01*
X590173Y472118D02*
X595391Y472118D01*
X597800Y469709D01*
X597800Y464800D01*
X600282Y462318D01*
X607818Y462318D01*
X612750Y467250D01*
D32*
X434700Y563200D02*
X434700Y660800D01*
D40*
X412750Y387290D02*
X412750Y387250D01*
D26*
X397700Y563200D02*
X323900Y563200D01*
X397700Y563200D02*
X400000Y565500D01*
D42*
X300750Y534600D02*
X295100Y540250D01*
X294900Y563200D01*
D36*
X487964Y552036D02*
X492750Y547250D01*
X487964Y552036D02*
X487964Y565500D01*
D26*
X494113Y565500D02*
X417600Y565500D01*
X494113Y565500D02*
X494985Y566372D01*
X500015Y566372D01*
X500887Y565500D01*
X547800Y565500D01*
D32*
X204188Y582755D02*
X202883Y581450D01*
X204188Y582755D02*
X210189Y582755D01*
X212314Y584880D01*
X212314Y595747D01*
X219900Y603333D01*
X219900Y618300D01*
X238900Y620000D02*
X258000Y639100D01*
X238900Y620000D02*
X238900Y618300D01*
X305742Y575868D02*
X314232Y584358D01*
X268576Y581450D02*
X259317Y581450D01*
X268576Y581450D02*
X274158Y575868D01*
X305742Y575868D01*
X314232Y610432D02*
X314400Y610600D01*
X314232Y610432D02*
X314232Y584358D01*
X202883Y600950D02*
X202883Y624283D01*
X217700Y639100D01*
D29*
X206300Y549400D03*
X253300Y549800D03*
X269000Y552800D03*
X196900Y549000D03*
D26*
X269000Y550800D02*
X269000Y552800D01*
X261967Y552800D01*
X259317Y555450D01*
X253667Y549800D02*
X253300Y549800D01*
X253667Y549800D02*
X259317Y555450D01*
X196900Y549467D02*
X196900Y549000D01*
X196900Y549467D02*
X202883Y555450D01*
X202883Y552817D02*
X206300Y549400D01*
X202883Y552817D02*
X202883Y555450D01*
X197300Y549400D02*
X196900Y549000D01*
X197300Y549400D02*
X206300Y549400D01*
D42*
X259317Y552333D02*
X277050Y534600D01*
X259317Y552333D02*
X259317Y553961D01*
D32*
X292000Y631300D02*
X296400Y631300D01*
X292000Y631300D02*
X272814Y612114D01*
X272814Y594086D01*
X279500Y587400D01*
X259867Y587400D01*
X259317Y587950D01*
D33*
X192600Y588100D03*
X170700Y543200D03*
D36*
X192750Y587950D02*
X202883Y587950D01*
X192750Y587950D02*
X192600Y588100D01*
D32*
X170700Y543200D02*
X169800Y543200D01*
X168700Y542100D01*
X159700Y542100D01*
D33*
X216600Y175700D03*
D28*
X216600Y165800D01*
D32*
X158300Y158600D02*
X158300Y140400D01*
X176000Y122700D01*
D40*
X167800Y158600D02*
X171818Y162618D01*
X171818Y164392D01*
X218374Y191700D02*
X226100Y191700D01*
X218374Y191700D02*
X211392Y184718D01*
X192144Y184718D02*
X171818Y164392D01*
X192144Y184718D02*
X211392Y184718D01*
D33*
X427400Y552500D03*
D40*
X427400Y552600D02*
X422750Y557250D01*
X427400Y552600D02*
X427400Y552500D01*
D29*
X406400Y360700D03*
D40*
X409300Y360700D01*
X412750Y357250D01*
D35*
X810800Y406300D02*
X810800Y496500D01*
X800500Y506800D01*
D33*
X406500Y398000D03*
D40*
X408550Y395950D01*
X411450Y395950D02*
X412750Y397250D01*
X411450Y395950D02*
X408550Y395950D01*
D33*
X367722Y171222D03*
X542300Y55900D03*
X195000Y608600D03*
X169900Y599500D03*
X225400Y515800D03*
D32*
X202883Y594450D02*
X201324Y596009D01*
X195682Y596009D01*
X194492Y597199D01*
X194492Y608092D02*
X195000Y608600D01*
X194492Y608092D02*
X194492Y597199D01*
X169900Y599500D02*
X169900Y592400D01*
X165900Y588400D01*
X234300Y524700D02*
X225400Y515800D01*
X234300Y524700D02*
X238500Y520500D01*
M02*
