G04 EAGLE Gerber RS-274X export*
G75*
%MOMM*%
%FSLAX34Y34*%
%LPD*%
%INCopper Layer 2*%
%IPPOS*%
%AMOC8*
5,1,8,0,0,1.08239X$1,22.5*%
G01*
%ADD10C,1.943100*%
%ADD11C,1.371600*%
%ADD12C,1.524000*%
%ADD13C,0.553200*%
%ADD14C,1.500000*%
%ADD15C,0.825000*%
%ADD16C,0.503200*%
%ADD17C,0.750000*%
%ADD18C,0.152400*%
%ADD19C,0.675000*%
%ADD20C,0.203200*%
%ADD21C,1.270000*%
%ADD22C,1.000000*%
%ADD23C,0.609600*%
%ADD24C,1.016000*%


D10*
X585000Y732200D03*
X635800Y783000D03*
X534200Y783000D03*
X534200Y681400D03*
X635800Y681400D03*
X732200Y732900D03*
X783000Y783700D03*
X681400Y783700D03*
X681400Y682100D03*
X783000Y682100D03*
X800500Y506800D03*
X851300Y557600D03*
X749700Y557600D03*
X749700Y456000D03*
X851300Y456000D03*
X225800Y281500D03*
X276600Y332300D03*
X175000Y332300D03*
X175000Y230700D03*
X276600Y230700D03*
D11*
X212500Y367300D03*
X187100Y367300D03*
X785400Y406300D03*
X810800Y406300D03*
X722700Y634200D03*
X748100Y634200D03*
X570300Y635900D03*
X595700Y635900D03*
D12*
X485500Y660800D03*
X460100Y660800D03*
X434700Y660800D03*
X409300Y660800D03*
D13*
X217900Y463800D03*
X244000Y463800D03*
X217600Y455700D03*
X217700Y447200D03*
X218100Y439200D03*
X243800Y438600D03*
X243500Y446600D03*
X243700Y454700D03*
X235600Y454900D03*
X226400Y455300D03*
X225800Y447500D03*
X235200Y447000D03*
X226000Y439500D03*
X234700Y439400D03*
X226700Y463800D03*
X235500Y463700D03*
X218200Y591200D03*
X244400Y591500D03*
X218400Y567100D03*
X244000Y567000D03*
X226400Y591200D03*
X234900Y591100D03*
X218200Y583800D03*
X218200Y575300D03*
X243900Y575200D03*
X243700Y583000D03*
X234800Y582800D03*
X226500Y583300D03*
X226300Y575200D03*
X234800Y575100D03*
X234900Y566700D03*
X226700Y566700D03*
D14*
X301100Y780100D03*
X300700Y765400D03*
X414200Y781400D03*
X414100Y765800D03*
X358700Y713200D03*
X374900Y713600D03*
X152100Y617200D03*
D15*
X349700Y451200D03*
D13*
X407400Y552400D03*
X437800Y552200D03*
X427600Y532300D03*
X417900Y532300D03*
X407500Y522500D03*
X427600Y522200D03*
X447800Y512600D03*
X458000Y522300D03*
X447600Y502200D03*
X447600Y492400D03*
X407400Y472300D03*
X447500Y472000D03*
X447200Y462100D03*
X447500Y432300D03*
X417700Y452100D03*
X418300Y410900D03*
X447900Y412000D03*
D16*
X405700Y377100D03*
X417900Y361900D03*
X427200Y361800D03*
X407700Y351100D03*
X468000Y351900D03*
X497500Y560300D03*
X497400Y522400D03*
X517900Y552300D03*
X537500Y542200D03*
X557200Y552700D03*
X537400Y532600D03*
X537500Y521300D03*
X578100Y532100D03*
X587400Y532000D03*
X588200Y553100D03*
X607500Y532200D03*
X626300Y552300D03*
X607500Y522500D03*
X618100Y522300D03*
X617500Y491800D03*
X587900Y512400D03*
X587800Y502200D03*
X626300Y463800D03*
X609800Y451600D03*
X587900Y462000D03*
X607800Y441200D03*
X597600Y441700D03*
X617800Y431100D03*
X597600Y432200D03*
X587600Y402100D03*
X587500Y392000D03*
X618000Y402200D03*
X617700Y382300D03*
X597900Y362700D03*
X617600Y351900D03*
X607700Y362100D03*
X557700Y343000D03*
X538100Y372300D03*
X517800Y342900D03*
X527600Y372400D03*
X497300Y372300D03*
X507800Y372800D03*
X507500Y362300D03*
X497700Y343000D03*
X557900Y392100D03*
X477700Y492100D03*
X557900Y492300D03*
X557700Y412300D03*
X487700Y412300D03*
X497600Y472400D03*
X508000Y472200D03*
X518000Y472100D03*
X527400Y472200D03*
X537800Y472200D03*
X537600Y462200D03*
X537900Y452300D03*
X537800Y442400D03*
X537500Y432400D03*
X537400Y422600D03*
X527800Y431800D03*
X527600Y422200D03*
X517600Y422500D03*
X507900Y422300D03*
X537800Y481700D03*
X527800Y481700D03*
X527900Y462400D03*
X527900Y452100D03*
X527700Y441900D03*
X517900Y432100D03*
X508100Y432200D03*
X517900Y442100D03*
X517700Y452300D03*
X517700Y462100D03*
X518000Y481800D03*
X508000Y481900D03*
X507600Y462200D03*
X508100Y451900D03*
X507900Y441800D03*
X497600Y431600D03*
X497500Y422500D03*
X497700Y442000D03*
X497500Y452600D03*
X497500Y462100D03*
X497500Y481900D03*
D13*
X417600Y492500D03*
D16*
X478200Y381900D03*
X467800Y381900D03*
X437700Y343300D03*
D15*
X348100Y472400D03*
D13*
X234300Y165300D03*
D16*
X183900Y96800D03*
X177100Y149600D03*
D13*
X259500Y618200D03*
X280700Y607300D03*
D14*
X178400Y772900D03*
D13*
X707600Y144200D03*
X745100Y144400D03*
X681100Y130600D03*
X733200Y119400D03*
X757100Y132100D03*
X771000Y132300D03*
D14*
X181600Y481400D03*
D17*
X306700Y464000D03*
D16*
X608100Y553200D03*
X169800Y184300D03*
X269200Y448400D03*
X538300Y362300D03*
D18*
X538300Y207600D01*
X454700Y181000D02*
X442000Y168300D01*
X441700Y168600D01*
D16*
X441700Y168600D03*
D18*
X511700Y181000D02*
X538300Y207600D01*
X511700Y181000D02*
X454700Y181000D01*
D16*
X587600Y371900D03*
D18*
X583400Y367700D01*
X583400Y358200D01*
X580500Y355300D01*
X580500Y352700D01*
X573100Y345300D01*
X573100Y341200D01*
X570594Y338694D01*
X570594Y338643D01*
X564657Y332706D01*
X556600Y332706D01*
X552276Y328382D01*
X552276Y189876D01*
D16*
X504100Y157600D03*
D18*
X520000Y157600D02*
X552276Y189876D01*
X520000Y157600D02*
X504100Y157600D01*
D16*
X588000Y362500D03*
D18*
X588000Y358600D01*
X583300Y353900D01*
X583300Y351400D01*
X575894Y343994D01*
X575894Y340043D01*
X573388Y337537D02*
X573388Y337485D01*
X565815Y329912D01*
X573388Y337537D02*
X575894Y340043D01*
X565815Y329912D02*
X557757Y329912D01*
X555070Y327225D01*
X555070Y190430D01*
X576300Y169200D02*
X693300Y169200D01*
X693300Y169300D01*
D16*
X693300Y169300D03*
D18*
X576300Y169200D02*
X555070Y190430D01*
D16*
X588000Y352000D03*
D18*
X578688Y342688D01*
X578688Y338885D01*
X576182Y336379D02*
X576182Y336328D01*
X566972Y327118D01*
X576182Y336379D02*
X578688Y338885D01*
X566972Y327118D02*
X558915Y327118D01*
X557864Y326067D01*
X557864Y192136D01*
X745100Y169200D02*
X745100Y168300D01*
D16*
X745100Y168300D03*
D18*
X570900Y179100D02*
X557864Y192136D01*
X570900Y179100D02*
X735200Y179100D01*
X745100Y169200D01*
D16*
X568100Y352200D03*
D18*
X568100Y350000D01*
X563200Y345100D01*
X563200Y342000D01*
X559600Y338400D01*
X554100Y338400D01*
X546688Y330988D01*
X546688Y196788D01*
X437400Y157200D02*
X427900Y157200D01*
X427800Y157300D01*
D16*
X427800Y157300D03*
D18*
X528000Y178100D02*
X546688Y196788D01*
X528000Y178100D02*
X458300Y178100D01*
X437400Y157200D01*
D16*
X558300Y352500D03*
D18*
X558300Y350000D01*
X553000Y344700D01*
X553000Y341300D01*
X543894Y332194D01*
X543894Y199394D01*
X526900Y182400D02*
X523400Y182400D01*
X523400Y182648D01*
D16*
X523400Y182648D03*
X477900Y157000D03*
D18*
X526900Y182400D02*
X543894Y199394D01*
D16*
X567800Y343200D03*
D18*
X567800Y339800D01*
X563500Y335500D02*
X555151Y335500D01*
X563500Y335500D02*
X567800Y339800D01*
X555151Y335500D02*
X549482Y329831D01*
X549482Y194182D01*
X527300Y172700D02*
X527200Y172800D01*
D16*
X527200Y172800D03*
X681300Y144300D03*
D18*
X549482Y194182D02*
X528000Y172700D01*
X527300Y172700D01*
D16*
X547800Y343100D03*
D18*
X547800Y340100D01*
X541100Y333400D01*
X541100Y204000D02*
X529600Y192500D01*
X541100Y204000D02*
X541100Y333400D01*
X529600Y192500D02*
X529616Y192484D01*
D16*
X529616Y192484D03*
X732600Y157000D03*
X497600Y532100D03*
D18*
X529400Y540300D02*
X535700Y546600D01*
X529400Y540300D02*
X514800Y540300D01*
X511300Y536800D01*
X501300Y532100D02*
X497600Y532100D01*
X501300Y532100D02*
X506000Y536800D01*
X511300Y536800D01*
X535700Y546600D02*
X540000Y546600D01*
X546606Y539994D01*
X611757Y539994D02*
X618563Y533188D01*
X611757Y539994D02*
X546606Y539994D01*
X618563Y533188D02*
X622115Y533188D01*
X656788Y471520D02*
X657300Y471008D01*
X657300Y470965D01*
X661440Y466825D01*
X661440Y453631D02*
X676555Y438516D01*
X676555Y438413D01*
X696442Y418526D01*
X696442Y244258D01*
X661440Y453631D02*
X661440Y466825D01*
X656788Y498515D02*
X622115Y533188D01*
X656788Y498515D02*
X656788Y471520D01*
D16*
X701400Y239300D03*
D18*
X696442Y244258D01*
D13*
X575102Y183900D03*
X427300Y119200D03*
D18*
X394800Y86700D01*
X358500Y86700D02*
X351800Y80000D01*
X351650Y80150D01*
D13*
X351650Y80150D03*
D18*
X358500Y86700D02*
X394800Y86700D01*
D16*
X468400Y552400D03*
D18*
X470206Y554206D01*
X470206Y555757D01*
X490325Y575876D02*
X504830Y575876D01*
X490325Y575876D02*
X470206Y555757D01*
X504830Y575876D02*
X509736Y570970D01*
X551636Y570970D02*
X553630Y568976D01*
X614630Y568976D02*
X621218Y562388D01*
X630615Y562388D02*
X679300Y513703D01*
X551636Y570970D02*
X509736Y570970D01*
X553630Y568976D02*
X614630Y568976D01*
X621218Y562388D02*
X630615Y562388D01*
X679300Y513703D02*
X679300Y480619D01*
X679652Y480267D01*
X679652Y480224D01*
X683792Y476084D01*
X683792Y462890D02*
X698907Y447775D01*
X698907Y447672D01*
X718794Y427785D01*
X718794Y303606D01*
X683792Y462890D02*
X683792Y476084D01*
X718794Y303606D02*
X723100Y299300D01*
X723050Y299250D01*
D16*
X723050Y299250D03*
D13*
X388507Y107393D03*
D16*
X497500Y552300D03*
D18*
X505400Y557000D02*
X541600Y557000D01*
X505400Y557000D02*
X500700Y552300D01*
X497500Y552300D01*
X541600Y557000D02*
X550224Y548376D01*
X615230Y548376D02*
X622036Y541570D01*
X615230Y548376D02*
X550224Y548376D01*
X625657Y541570D02*
X627294Y539933D01*
X627294Y539863D01*
X665170Y501987D02*
X665170Y474992D01*
X665682Y474480D01*
X665682Y474437D01*
X669822Y470297D01*
X669822Y457103D02*
X684937Y441988D01*
X684937Y441885D01*
X704824Y421998D01*
X669822Y457103D02*
X669822Y470297D01*
X625657Y541570D02*
X622036Y541570D01*
X627294Y539863D02*
X665170Y501987D01*
X704824Y421998D02*
X704824Y266376D01*
X710700Y260500D01*
D16*
X710700Y260500D03*
D13*
X563330Y201170D03*
X494400Y190400D03*
X427700Y80900D03*
D16*
X587700Y452400D03*
D18*
X593900Y446200D01*
X616206Y439494D02*
X619957Y439494D01*
X609500Y446200D02*
X593900Y446200D01*
X609500Y446200D02*
X616206Y439494D01*
X637594Y421857D02*
X637594Y350543D01*
X637594Y421857D02*
X619957Y439494D01*
X619200Y332149D02*
X619200Y332051D01*
X617333Y330184D01*
X619200Y332149D02*
X637594Y350543D01*
X589700Y197000D02*
X589700Y190000D01*
D16*
X589700Y190000D03*
X542600Y93700D03*
D18*
X617333Y224633D02*
X617333Y330184D01*
X617333Y224633D02*
X589700Y197000D01*
D16*
X607400Y491900D03*
D18*
X612200Y487100D01*
X629918Y476982D02*
X631472Y476982D01*
X639682Y468772D02*
X639682Y464875D01*
X619800Y487100D02*
X612200Y487100D01*
X619800Y487100D02*
X629918Y476982D01*
X631472Y476982D02*
X639682Y468772D01*
X644676Y459881D02*
X644676Y446686D01*
X659791Y431571D01*
X659791Y431469D01*
X659959Y431300D01*
X659959Y341000D01*
X644676Y459881D02*
X639682Y464875D01*
X659959Y341000D02*
X639900Y320940D01*
X639900Y196200D01*
X649066Y187034D01*
D16*
X649066Y187034D03*
X631100Y94000D03*
X608000Y472500D03*
D18*
X610600Y472500D01*
X629357Y459394D02*
X633500Y455251D01*
X629357Y459394D02*
X623706Y459394D01*
X610600Y472500D01*
X633500Y442057D02*
X648615Y426942D01*
X633500Y442057D02*
X633500Y455251D01*
X648615Y426942D02*
X648615Y426839D01*
X648783Y426671D01*
X648783Y345829D01*
X628609Y325655D01*
X628609Y214160D01*
X627397Y212948D01*
X627380Y212948D01*
X624716Y210284D01*
X624716Y203184D01*
X624800Y203100D01*
D16*
X624800Y203100D03*
X656300Y93700D03*
X587800Y442000D03*
D18*
X593000Y436800D01*
X618700Y436800D02*
X634800Y420700D01*
X618700Y436800D02*
X593000Y436800D01*
X634800Y420700D02*
X634800Y351800D01*
X616100Y333100D02*
X616100Y332903D01*
X614439Y331242D01*
X614439Y226000D01*
X616100Y333100D02*
X634800Y351800D01*
X614439Y226000D02*
X585100Y196661D01*
X585100Y188000D01*
X591206Y181894D01*
X738206Y181894D02*
X752200Y167900D01*
X752200Y160800D01*
X694500Y103100D02*
X694500Y94500D01*
X695500Y93500D01*
D16*
X695500Y93500D03*
D18*
X738206Y181894D02*
X591206Y181894D01*
X694500Y103100D02*
X752200Y160800D01*
D16*
X617800Y512600D03*
D18*
X617800Y508600D02*
X628000Y498400D01*
X617800Y508600D02*
X617800Y512600D01*
X628000Y498400D02*
X628000Y492503D01*
X648300Y472203D02*
X648300Y472051D01*
X648394Y471957D01*
X648394Y468060D02*
X648918Y467536D01*
X648918Y467493D01*
X648394Y468060D02*
X648394Y471957D01*
X653058Y463353D02*
X653058Y450159D01*
X668173Y435043D01*
X668173Y342452D02*
X688060Y322565D01*
X668173Y342452D02*
X668173Y435043D01*
X648300Y472203D02*
X628000Y492503D01*
X648918Y467493D02*
X653058Y463353D01*
X688060Y229991D02*
X730569Y187482D01*
X740521Y187482D01*
X757788Y163763D02*
X757894Y163657D01*
X757788Y170215D02*
X740521Y187482D01*
X757788Y170215D02*
X757788Y163763D01*
X757894Y163657D02*
X757894Y145443D01*
X738900Y126449D01*
X738900Y117300D01*
X732900Y111300D01*
X732900Y94200D01*
X733300Y93800D01*
D16*
X733300Y93800D03*
D18*
X688060Y229991D02*
X688060Y322565D01*
D16*
X487800Y542300D03*
D18*
X512600Y542300D01*
X513400Y543100D01*
X528000Y543100D01*
X534400Y549500D01*
X541100Y549500D02*
X547812Y542788D01*
X612915Y542788D02*
X619721Y535982D01*
X541100Y549500D02*
X534400Y549500D01*
X547812Y542788D02*
X612915Y542788D01*
X619721Y535982D02*
X623272Y535982D01*
X659582Y472678D02*
X660094Y472166D01*
X660094Y472122D01*
X664234Y467983D01*
X664234Y454788D02*
X679349Y439673D01*
X679349Y439570D01*
X699236Y419683D01*
X664234Y454788D02*
X664234Y467983D01*
X699236Y419683D02*
X699236Y251764D01*
X659582Y499672D02*
X623272Y535982D01*
X659582Y499672D02*
X659582Y472678D01*
X704400Y246600D02*
X704400Y246400D01*
D16*
X704400Y246400D03*
D18*
X704400Y246600D02*
X699236Y251764D01*
D13*
X570300Y189100D03*
X429400Y172400D03*
D18*
X388400Y131400D01*
X377300Y131400D01*
X377300Y131300D01*
D13*
X377300Y131300D03*
D16*
X477600Y552700D03*
D18*
X479900Y552700D02*
X486712Y559512D01*
X479900Y552700D02*
X477600Y552700D01*
X486712Y559512D02*
X486712Y563721D01*
X493279Y570288D01*
X502515Y570288D01*
X507421Y565382D01*
X549321Y565382D02*
X551315Y563388D01*
X612315Y563388D01*
X618903Y556800D01*
X628300Y556800D02*
X673600Y511500D01*
X549321Y565382D02*
X507421Y565382D01*
X618903Y556800D02*
X628300Y556800D01*
X673600Y478417D02*
X674064Y477952D01*
X674064Y477909D01*
X678204Y473769D01*
X678204Y460575D02*
X693319Y445460D01*
X693319Y445357D01*
X713206Y425470D01*
X713206Y287894D01*
X678204Y460575D02*
X678204Y473769D01*
X673600Y478417D02*
X673600Y511500D01*
X713206Y287894D02*
X718200Y282900D01*
D16*
X718200Y282900D03*
D13*
X427300Y132400D03*
D16*
X447600Y542100D03*
D18*
X452600Y547100D01*
X452600Y554600D01*
X455000Y557000D01*
X462249Y557000D01*
X486824Y581576D01*
X507224Y581576D01*
X512242Y576558D01*
X553950Y576558D02*
X555944Y574564D01*
X616944Y574564D02*
X623532Y567976D01*
X632930Y567976D02*
X685100Y515806D01*
X553950Y576558D02*
X512242Y576558D01*
X555944Y574564D02*
X616944Y574564D01*
X623532Y567976D02*
X632930Y567976D01*
X685100Y482722D02*
X685240Y482582D01*
X685240Y482539D01*
X689380Y478399D01*
X689380Y465204D02*
X704495Y450089D01*
X704495Y449987D01*
X724382Y430100D01*
X724382Y319400D01*
X689380Y465204D02*
X689380Y478399D01*
X685100Y482722D02*
X685100Y515806D01*
X724382Y319400D02*
X728082Y315700D01*
D16*
X728800Y315700D03*
D18*
X728082Y315700D01*
D13*
X452408Y186900D03*
D16*
X617700Y482100D03*
D18*
X625612Y474188D01*
X630315Y474188D01*
X636888Y467615D01*
X636888Y463718D01*
X641882Y458724D02*
X641882Y445529D01*
X656997Y430414D02*
X656997Y430311D01*
X657165Y430143D01*
X657165Y342157D01*
X641882Y458724D02*
X636888Y463718D01*
X641882Y445529D02*
X656997Y430414D01*
X657165Y342157D02*
X637106Y322098D01*
X637106Y204706D02*
X620700Y188300D01*
X606200Y188300D01*
X606100Y188400D01*
X637106Y204706D02*
X637106Y322098D01*
D16*
X606100Y188400D03*
X567700Y132100D03*
X607600Y482100D03*
D18*
X609200Y482100D01*
X619906Y471394D01*
X629157Y471394D02*
X634094Y466457D01*
X634094Y462560D01*
X629157Y471394D02*
X619906Y471394D01*
X639088Y457566D02*
X639088Y444372D01*
X654203Y429257D01*
X654203Y429154D01*
X654371Y428986D01*
X654371Y343515D01*
X634228Y323372D01*
X639088Y457566D02*
X634094Y462560D01*
X634228Y323372D02*
X634228Y217772D01*
X634312Y217688D01*
X634312Y205912D02*
X621600Y193200D01*
X610800Y193200D01*
X634312Y205912D02*
X634312Y217688D01*
D16*
X610800Y193200D03*
X605650Y132150D03*
X457800Y542200D03*
D18*
X463400Y547800D01*
X473000Y550400D02*
X473000Y554600D01*
X470400Y547800D02*
X463400Y547800D01*
X470400Y547800D02*
X473000Y550400D01*
X473000Y554600D02*
X491482Y573082D01*
X503672Y573082D01*
X508578Y568176D01*
X550478Y568176D01*
X552472Y566182D02*
X613472Y566182D01*
X620060Y559594D02*
X629457Y559594D01*
X552472Y566182D02*
X550478Y568176D01*
X613472Y566182D02*
X620060Y559594D01*
X629457Y559594D02*
X676500Y512551D01*
X676500Y479468D02*
X676858Y479110D01*
X676858Y479067D01*
X680998Y474927D01*
X680998Y461732D02*
X696113Y446617D01*
X696113Y446514D01*
X716000Y426628D01*
X716000Y295600D01*
X680998Y461732D02*
X680998Y474927D01*
X676500Y479468D02*
X676500Y512551D01*
X716000Y295600D02*
X721300Y290300D01*
X721250Y290250D01*
D16*
X721250Y290250D03*
D13*
X364450Y80750D03*
D16*
X457600Y552100D03*
D18*
X461300Y552100D01*
X487900Y578700D02*
X506000Y578700D01*
X487900Y578700D02*
X461300Y552100D01*
X506000Y578700D02*
X510936Y573764D01*
X552793Y573764D02*
X554787Y571770D01*
X615787Y571770D02*
X622375Y565182D01*
X631772Y565182D02*
X682200Y514754D01*
X552793Y573764D02*
X510936Y573764D01*
X554787Y571770D02*
X615787Y571770D01*
X622375Y565182D02*
X631772Y565182D01*
X682200Y514754D02*
X682200Y481671D01*
X682446Y481425D01*
X682446Y481381D01*
X686586Y477242D01*
X686586Y464047D02*
X701701Y448932D01*
X701701Y448829D01*
X721588Y428942D01*
X686586Y464047D02*
X686586Y477242D01*
X721588Y428942D02*
X721588Y312612D01*
X726400Y307800D01*
X726250Y307650D01*
D16*
X726250Y307650D03*
D13*
X389400Y68600D03*
D16*
X467800Y542400D03*
D18*
X471200Y542400D02*
X476600Y547800D01*
X471200Y542400D02*
X467800Y542400D01*
X476600Y547800D02*
X479149Y547800D01*
X489506Y558157D02*
X489506Y562464D01*
X494536Y567494D02*
X501357Y567494D01*
X489506Y558157D02*
X479149Y547800D01*
X489506Y562464D02*
X494536Y567494D01*
X501357Y567494D02*
X506263Y562588D01*
X548163Y562588D01*
X550157Y560594D01*
X611157Y560594D02*
X624593Y547158D01*
X611157Y560594D02*
X550157Y560594D01*
X627972Y547158D02*
X632882Y542248D01*
X632882Y542178D01*
X670758Y504302D01*
X670758Y477307D02*
X671270Y476795D01*
X671270Y476752D01*
X675410Y472612D01*
X675410Y459418D02*
X690525Y444302D01*
X690525Y444200D01*
X710412Y424313D01*
X675410Y459418D02*
X675410Y472612D01*
X710412Y424313D02*
X710412Y280988D01*
X627972Y547158D02*
X624593Y547158D01*
X670758Y504302D02*
X670758Y477307D01*
X710412Y280988D02*
X715900Y275500D01*
X715900Y275300D01*
X715800Y275200D01*
D16*
X715800Y275200D03*
D13*
X440700Y81500D03*
D16*
X477600Y542300D03*
D18*
X492300Y557000D01*
X492300Y561300D01*
X495700Y564700D01*
X500200Y564700D02*
X505106Y559794D01*
X547006Y559794D02*
X549000Y557800D01*
X500200Y564700D02*
X495700Y564700D01*
X505106Y559794D02*
X547006Y559794D01*
X549000Y557800D02*
X610000Y557800D01*
X623436Y544364D01*
X626815Y544364D02*
X630088Y541091D01*
X630088Y541020D01*
X667964Y503144D01*
X667964Y476150D02*
X668476Y475638D01*
X668476Y475595D01*
X672616Y471455D01*
X672616Y458260D02*
X687731Y443145D01*
X687731Y443042D01*
X707618Y423155D01*
X672616Y458260D02*
X672616Y471455D01*
X707618Y423155D02*
X707618Y272882D01*
X626815Y544364D02*
X623436Y544364D01*
X667964Y503144D02*
X667964Y476150D01*
D16*
X711900Y268600D03*
D18*
X707618Y272882D01*
D13*
X479050Y81250D03*
D16*
X507900Y532200D03*
D18*
X510800Y532200D02*
X515800Y537200D01*
X510800Y532200D02*
X507900Y532200D01*
X515800Y537200D02*
X610600Y537200D01*
X617406Y530394D01*
X620957Y530394D02*
X653994Y497357D01*
X653994Y470363D02*
X654506Y469851D01*
X654506Y469808D01*
X658646Y465668D01*
X658646Y452473D02*
X673761Y437358D01*
X673761Y437255D01*
X693648Y417369D01*
X658646Y452473D02*
X658646Y465668D01*
X693648Y417369D02*
X693648Y234752D01*
X620957Y530394D02*
X617406Y530394D01*
X653994Y497357D02*
X653994Y470363D01*
X693648Y234752D02*
X695250Y233150D01*
X695402Y233150D01*
D16*
X695402Y233150D03*
X517100Y81200D03*
X607900Y502400D03*
D18*
X613200Y497100D01*
X619000Y497100D01*
X622300Y493800D01*
X622300Y488551D01*
X631075Y479776D02*
X632630Y479776D01*
X642476Y469930D01*
X642476Y466032D01*
X631075Y479776D02*
X622300Y488551D01*
X642476Y466032D02*
X647470Y461038D01*
X647470Y447844D01*
X662585Y432729D01*
X662585Y432626D01*
X662753Y432458D01*
X662753Y339969D02*
X682472Y320250D01*
X662753Y339969D02*
X662753Y432458D01*
X682472Y320250D02*
X682472Y263572D01*
X644900Y226000D01*
D16*
X644900Y226000D03*
X542300Y81300D03*
X626300Y452200D03*
D18*
X626300Y441354D02*
X643027Y424627D01*
X626300Y441354D02*
X626300Y452200D01*
X643027Y424627D02*
X643027Y424524D01*
X643195Y424356D01*
X643195Y348144D01*
X622921Y327869D01*
X622921Y217921D02*
X619050Y214050D01*
X618524Y214576D01*
D16*
X618524Y214576D03*
X631300Y80900D03*
D18*
X622921Y217921D02*
X622921Y327869D01*
D16*
X617700Y502200D03*
D18*
X620006Y499894D01*
X620157Y499894D01*
X625094Y494957D01*
X625094Y491306D01*
X645600Y470800D02*
X645600Y466903D01*
X646124Y466379D01*
X646124Y466336D01*
X650264Y462196D02*
X650264Y449001D01*
X665379Y433886D01*
X665379Y433783D01*
X665547Y433615D01*
X665547Y341126D02*
X685266Y321408D01*
X665547Y341126D02*
X665547Y433615D01*
X645600Y470800D02*
X625094Y491306D01*
X646124Y466336D02*
X650264Y462196D01*
X729612Y184688D02*
X739363Y184688D01*
X754994Y162500D02*
X755100Y162500D01*
X754994Y169057D02*
X739363Y184688D01*
X754994Y169057D02*
X754994Y162500D01*
X735800Y127300D02*
X732200Y127300D01*
X707200Y102300D01*
X707200Y81500D02*
X707500Y81200D01*
D16*
X707500Y81200D03*
D18*
X685266Y229034D02*
X685266Y321408D01*
X685266Y229034D02*
X729612Y184688D01*
X755100Y162500D02*
X755100Y146600D01*
X735800Y127300D01*
X707200Y102300D02*
X707200Y81500D01*
D16*
X597500Y482200D03*
D18*
X602300Y477400D01*
X609532Y477400D01*
X611638Y475294D01*
X611757Y475294D01*
X631300Y465300D02*
X631300Y461403D01*
X618451Y468600D02*
X611757Y475294D01*
X618451Y468600D02*
X628000Y468600D01*
X631300Y465300D01*
X636294Y456409D02*
X636294Y443214D01*
X651409Y428099D02*
X651409Y427996D01*
X651577Y427828D01*
X651577Y344672D02*
X631403Y324497D01*
X636294Y456409D02*
X631300Y461403D01*
X636294Y443214D02*
X651409Y428099D01*
X651577Y427828D02*
X651577Y344672D01*
X631403Y324497D02*
X631403Y217297D01*
X631434Y217266D01*
X629264Y210864D02*
X629264Y208400D01*
D16*
X629264Y208400D03*
X732400Y80900D03*
D18*
X631434Y213034D02*
X631434Y217266D01*
X631434Y213034D02*
X629264Y210864D01*
D16*
X418000Y392200D03*
D18*
X417200Y392200D01*
X412300Y387300D01*
X401788Y387300D01*
X347812Y333324D01*
X347812Y225885D02*
X368949Y204749D01*
X347812Y225885D02*
X347812Y333324D01*
D16*
X368949Y204749D03*
X326500Y106600D03*
X418000Y422400D03*
D18*
X418000Y421500D01*
X397794Y401294D01*
X397434Y401294D01*
X334742Y338602D01*
X334742Y220942D01*
X318600Y204800D01*
D16*
X318600Y204800D03*
X351600Y94100D03*
X427400Y412200D03*
D18*
X408100Y392900D01*
X400095Y392900D01*
X342524Y335330D01*
X342524Y204871D02*
X376047Y171347D01*
X342524Y204871D02*
X342524Y335330D01*
D16*
X376047Y171347D03*
X466100Y93400D03*
X428200Y392000D03*
D18*
X423300Y387100D01*
X416200Y387100D01*
X413600Y384500D01*
X402949Y384500D01*
X350406Y331957D01*
X350406Y230643D02*
X364724Y216324D01*
X350406Y230643D02*
X350406Y331957D01*
D16*
X364724Y216324D03*
X301000Y118600D03*
X437200Y412100D03*
D18*
X422000Y396900D01*
X416100Y396900D02*
X409294Y390094D01*
X416100Y396900D02*
X422000Y396900D01*
X409294Y390094D02*
X400940Y390094D01*
X345218Y334372D01*
X345218Y218728D01*
X361600Y198000D02*
X361300Y197700D01*
D16*
X361300Y197700D03*
X351800Y105000D03*
D18*
X361600Y202346D02*
X345218Y218728D01*
X361600Y202346D02*
X361600Y198000D01*
D16*
X418100Y382500D03*
D18*
X417300Y381700D01*
X403900Y381700D01*
X353100Y330900D01*
X353100Y235300D02*
X416600Y171800D01*
X353100Y235300D02*
X353100Y330900D01*
D16*
X416600Y171800D03*
X415300Y119100D03*
X438000Y432100D03*
D18*
X421600Y415700D01*
X416315Y415700D02*
X413502Y412887D01*
X413502Y411502D01*
X400494Y398494D01*
X416315Y415700D02*
X421600Y415700D01*
X400494Y398494D02*
X398286Y398494D01*
X337336Y337544D01*
X337336Y215236D01*
X307300Y185200D02*
X300500Y185200D01*
D16*
X300500Y185200D03*
X364700Y56300D03*
D18*
X307300Y185200D02*
X337336Y215236D01*
D16*
X437300Y452100D03*
D18*
X436200Y452100D01*
X412400Y428300D01*
X404600Y428300D01*
X401800Y425500D01*
X401800Y417500D01*
X326231Y341931D01*
X326231Y237831D02*
X300500Y212100D01*
X326231Y237831D02*
X326231Y341931D01*
D16*
X300500Y212100D03*
X401900Y55700D03*
X406400Y457000D03*
D18*
X406400Y453700D01*
X401800Y449100D01*
X401800Y433800D01*
X395800Y427800D02*
X395800Y419403D01*
X395800Y427800D02*
X401800Y433800D01*
X395800Y419403D02*
X320737Y344339D01*
X320737Y248037D02*
X276800Y204100D01*
X320737Y248037D02*
X320737Y344339D01*
D16*
X276800Y204100D03*
X544400Y43900D03*
X406500Y423700D03*
D18*
X406500Y417951D01*
X329161Y340612D01*
X329161Y229761D02*
X288900Y189500D01*
X329161Y229761D02*
X329161Y340612D01*
D16*
X288900Y189500D03*
X350900Y55200D03*
X437700Y442000D03*
D18*
X422700Y427000D01*
X416000Y427000D01*
X413400Y424400D01*
X413400Y420900D01*
X332009Y339509D01*
X332009Y225809D02*
X311300Y205100D01*
X332009Y225809D02*
X332009Y339509D01*
X311300Y205100D02*
X311416Y204984D01*
D16*
X311416Y204984D03*
X389900Y55600D03*
D18*
X406400Y434200D02*
X406400Y447200D01*
X406400Y434200D02*
X399000Y426800D01*
X399000Y418651D01*
X323617Y343268D01*
X323617Y243417D02*
X284500Y204300D01*
X323617Y243417D02*
X323617Y343268D01*
D16*
X284500Y204300D03*
X428700Y55500D03*
D13*
X406598Y447113D03*
D18*
X406487Y447113D01*
X406400Y447200D01*
D16*
X517800Y532500D03*
D18*
X535600Y527600D02*
X619800Y527600D01*
X535600Y527600D02*
X530700Y532500D01*
X517800Y532500D01*
X619800Y527600D02*
X651200Y496200D01*
X651200Y469206D01*
X651712Y468693D02*
X651712Y468650D01*
X655852Y464510D01*
X655852Y451316D01*
X670967Y436201D02*
X670967Y436098D01*
X690854Y416211D01*
X690854Y231049D01*
X651712Y468693D02*
X651200Y469206D01*
X655852Y451316D02*
X670967Y436201D01*
X731627Y190276D02*
X741678Y190276D01*
X760582Y164921D02*
X760688Y164815D01*
X760582Y171372D02*
X741678Y190276D01*
X760582Y171372D02*
X760582Y164921D01*
X760688Y164815D02*
X760688Y144285D01*
X750000Y133597D01*
D16*
X593100Y44300D03*
D18*
X731627Y190276D02*
X690854Y231049D01*
X750000Y133597D02*
X750000Y90000D01*
X704300Y44300D01*
X593100Y44300D01*
D16*
X617900Y451900D03*
D18*
X617900Y445700D02*
X640401Y423199D01*
X617900Y445700D02*
X617900Y451900D01*
X640401Y423199D02*
X640401Y349301D01*
X620127Y329027D01*
X611800Y214400D02*
X611800Y209900D01*
X612100Y209600D01*
X612200Y209600D01*
D16*
X612200Y209600D03*
X618600Y55500D03*
D18*
X620127Y222727D02*
X620127Y329027D01*
X620127Y222727D02*
X611800Y214400D01*
D16*
X447800Y552500D03*
D18*
X449806Y554506D01*
X449806Y555757D01*
X453843Y559794D01*
X461091Y559794D01*
X485667Y584370D01*
X508430Y584370D01*
X513448Y579352D01*
X555108Y579352D02*
X557102Y577358D01*
X618102Y577358D02*
X624690Y570770D01*
X634087Y570770D02*
X688034Y516823D01*
X555108Y579352D02*
X513448Y579352D01*
X557102Y577358D02*
X618102Y577358D01*
X624690Y570770D02*
X634087Y570770D01*
X688034Y516823D02*
X688034Y483696D01*
X692174Y479556D01*
X692174Y466362D02*
X707289Y451247D01*
X707289Y451144D01*
X727176Y431257D01*
X727176Y329300D01*
X692174Y466362D02*
X692174Y479556D01*
X727176Y329300D02*
X732200Y324276D01*
X732200Y324200D01*
X732100Y324200D01*
D16*
X732100Y324200D03*
D13*
X402600Y131500D03*
D16*
X507600Y552400D03*
D18*
X511500Y552400D01*
X516000Y547900D01*
X528849Y547900D02*
X533243Y552294D01*
X542257Y552294D02*
X548969Y545582D01*
X528849Y547900D02*
X516000Y547900D01*
X533243Y552294D02*
X542257Y552294D01*
X548969Y545582D02*
X614072Y545582D01*
X620878Y538776D01*
X624430Y538776D01*
X662376Y500830D01*
X662376Y473835D02*
X662888Y473323D01*
X662888Y473280D01*
X667028Y469140D01*
X667028Y455945D02*
X682143Y440830D01*
X682143Y440728D01*
X702030Y420841D01*
X667028Y455945D02*
X667028Y469140D01*
X662376Y473835D02*
X662376Y500830D01*
X702030Y420841D02*
X702030Y258770D01*
X707400Y253400D01*
D16*
X707400Y253400D03*
D13*
X565540Y193960D03*
X483449Y186051D03*
X466100Y131700D03*
D16*
X598100Y452300D03*
D18*
X602400Y456600D01*
X628200Y456600D01*
X630653Y454147D01*
X630653Y440953D02*
X645821Y425784D01*
X645821Y425682D01*
X645989Y425513D01*
X645989Y346987D02*
X625715Y326712D01*
X630653Y440953D02*
X630653Y454147D01*
X645989Y425513D02*
X645989Y346987D01*
X625715Y326712D02*
X625715Y215334D01*
X600031Y189650D01*
X599250Y189650D01*
D16*
X599250Y189650D03*
X603400Y144900D03*
D19*
X273200Y125600D03*
X273000Y100400D03*
D13*
X770600Y106600D03*
X770800Y81000D03*
D16*
X192900Y467100D03*
D13*
X356400Y548100D03*
D20*
X460350Y652050D01*
X460100Y652300D01*
X460100Y660800D01*
D17*
X286800Y422600D03*
D16*
X192400Y460500D03*
X172800Y443700D03*
D20*
X179800Y443700D01*
D16*
X269000Y573800D03*
D20*
X269000Y561313D01*
X274436Y555877D01*
X274436Y528736D01*
X206200Y460500D01*
X192400Y460500D01*
X192400Y456300D02*
X179800Y443700D01*
X192400Y456300D02*
X192400Y460500D01*
D16*
X198700Y422200D03*
X206200Y422200D03*
X252500Y422000D03*
X265600Y422200D03*
D21*
X206200Y422200D02*
X198700Y422200D01*
X206200Y422200D02*
X252300Y422200D01*
X252500Y422000D01*
X265400Y422000D01*
X265600Y422200D01*
D13*
X206300Y549400D03*
X253300Y549800D03*
X269000Y552800D03*
D22*
X206700Y549800D02*
X206300Y549400D01*
X206700Y549800D02*
X253300Y549800D01*
D13*
X196900Y549000D03*
D23*
X197300Y549400D01*
X206300Y549400D01*
D24*
X253300Y549800D02*
X256300Y552800D01*
X267324Y552800D01*
D16*
X192600Y588100D03*
X170700Y543200D03*
X216600Y175700D03*
X427400Y552500D03*
D13*
X406400Y360700D03*
D16*
X406500Y398000D03*
D18*
X406500Y397500D01*
X404694Y395694D01*
X399137Y395694D01*
X339930Y336487D01*
X339930Y199013D02*
X367722Y171222D01*
X339930Y199013D02*
X339930Y336487D01*
D16*
X367722Y171222D03*
X542300Y55900D03*
X195000Y608600D03*
X169900Y599500D03*
X225400Y515800D03*
D20*
X185900Y599500D02*
X169900Y599500D01*
X185900Y599500D02*
X195000Y608600D01*
X169900Y599500D02*
X188420Y580980D01*
X188420Y546096D01*
X218716Y515800D01*
X225400Y515800D01*
M02*
